<svg xmlns="http://www.w3.org/2000/svg" xmlns:xlink="http://www.w3.org/1999/xlink" width="108.301" height="121.718" viewBox="0 0 108.301 121.718">
  <defs>
    <radialGradient id="radial-gradient" cx="0.507" cy="0.445" r="3.723" gradientTransform="translate(0.434 16.568) scale(0.135 0.133)" gradientUnits="objectBoundingBox">
      <stop offset="0.06" stop-color="#726658"/>
      <stop offset="0.26" stop-color="#999086"/>
      <stop offset="0.5" stop-color="#c5c0ba"/>
      <stop offset="0.72" stop-color="#e4e2df"/>
      <stop offset="0.89" stop-color="#f8f7f7"/>
      <stop offset="1" stop-color="#fff"/>
    </radialGradient>
    <linearGradient id="linear-gradient" x1="0.5" y1="1" x2="0.5" gradientUnits="objectBoundingBox">
      <stop offset="0.23" stop-color="#ef4136"/>
      <stop offset="0.57" stop-color="#f04932"/>
      <stop offset="1" stop-color="#f15a29"/>
    </linearGradient>
    <linearGradient id="linear-gradient-2" x1="0.5" y1="1" x2="0.5" gradientUnits="objectBoundingBox">
      <stop offset="0" stop-color="#ef4136"/>
      <stop offset="0.4" stop-color="#ef4733"/>
      <stop offset="0.93" stop-color="#f1572b"/>
      <stop offset="1" stop-color="#f15a29"/>
    </linearGradient>
  </defs>
  <g id="Cure" transform="translate(0.001 0.002)">
    <g id="Layer_1" data-name="Layer 1" transform="translate(-0.001 -0.002)">
      <path id="Path_58" data-name="Path 58" d="M233.282,224.646s-10.9-29.461,3.958-41.058c6.463-5.039,13.422-8.61,18.725-12.1,1.614-1.061,11.895-4.074,8.383,2.889-3.859,7.664-21.4,14.743-19.179,19.5.854,1.828,20.174-13.5,22.031-17.037,1.428-2.724-2.365-15.242-.157-25.548.8-3.768,1.585-6.34,3.909-6.765,0,0-.908-4.911,1.8-6.447,1.585-.9,4.032-.413,4.032,2.443,0,0,3.219-.726,3.64,2.443.586,4.412,2.588,32.523.149,37.282C270.11,200.658,234.232,216.722,233.282,224.646Z" transform="translate(-173.449 -114.034)" fill="#ecc19c"/>
      <path id="Path_59" data-name="Path 59" d="M322.1,144.62a1.337,1.337,0,0,0-.479.231,3.331,3.331,0,0,0-.929,1.123,12.114,12.114,0,0,0-.966,5.134c0,1.106,0,2.291.1,3.57s.14,2.65.215,4.053c.116,2.815.223,5.819.206,8.845a41.843,41.843,0,0,1-.26,4.573,6.6,6.6,0,0,1-.31,1.284,3.916,3.916,0,0,1-.314.578c-.111.173-.227.33-.338.483-.454.615-.924,1.164-1.4,1.7-1.9,2.121-3.748,4-5.39,5.559s-3.021,2.84-4.024,3.694-1.622,1.292-1.622,1.292.557-.508,1.449-1.473,2.171-2.336,3.649-4.036,3.211-3.677,4.928-5.873c.413-.545.867-1.106,1.238-1.68.095-.14.186-.281.268-.413a2.93,2.93,0,0,0,.19-.392,8.808,8.808,0,0,0,.1-.887c.083-1.4.045-2.889,0-4.383s-.083-3-.124-4.47-.054-2.934-.078-4.342,0-2.774,0-4.065a31.01,31.01,0,0,1,.235-3.715,16.1,16.1,0,0,1,.718-3.091,7.906,7.906,0,0,1,1.147-2.183,2.967,2.967,0,0,1,1.238-.991,1.387,1.387,0,0,1,.545-.124Z" transform="translate(-218.771 -118.114)" fill="#cf9e76"/>
      <path id="Path_60" data-name="Path 60" d="M286.206,226.65l-.132.285a5.838,5.838,0,0,1-.446.78,17.337,17.337,0,0,1-2.027,2.476c-.9.953-2.018,1.993-3.248,3.054s-2.571,2.146-3.909,3.228l-3.975,3.091c-1.259.986-2.427,1.9-3.376,2.741a16.564,16.564,0,0,0-1.238,1.193,5.93,5.93,0,0,0-.784,1.032,1.926,1.926,0,0,0-.239.788,1.3,1.3,0,0,0,.029.305l-.132-.289a1.941,1.941,0,0,1,0-.933,5.117,5.117,0,0,1,.549-1.325,10.507,10.507,0,0,1,1.032-1.515,43.824,43.824,0,0,1,6.971-6.579c1.366-1.057,2.736-2.1,4.045-3.046l3.57-2.563c1.04-.759,1.894-1.4,2.476-1.89A8.506,8.506,0,0,0,286.206,226.65Z" transform="translate(-195.322 -166.288)" fill="#cf9e76"/>
      <path id="Path_61" data-name="Path 61" d="M327.469,154.32s-.12,1.812-.293,4.54c-.041.677-.087,1.416-.1,2.192s-.058,1.6-.062,2.447c0,1.7,0,3.508.083,5.324.177,3.628.359,7.26.491,9.98.062,1.362.091,2.514.1,3.3s-2,2.064-2,2.064l.083-.945s.041-.413.107-1.168.1-1.9.136-3.261c.066-2.728.153-6.36.244-9.992.054-1.812.161-3.64.243-5.341.05-.85.136-1.676.2-2.452s.144-1.515.223-2.192C327.267,156.124,327.469,154.32,327.469,154.32Z" transform="translate(-229.982 -123.81)" fill="#cf9e76"/>
      <path id="Path_62" data-name="Path 62" d="M295.86,220.939s1.411-3.364,4.808-3.644c2.476-.206,2.274,2.7,2.274,2.7s-1.218,2.588-5.18,3.62Z" transform="translate(-212.464 -160.788)" fill="#f0d0b4"/>
      <path id="Path_63" data-name="Path 63" d="M295.86,226.14s3-.066,1.9,2.67Z" transform="translate(-212.464 -165.988)" fill="#f5e0cd"/>
      <path id="Path_64" data-name="Path 64" d="M142.27,224.646s10.9-29.461-3.962-41.058c-6.463-5.039-13.422-8.61-18.725-12.1-1.614-1.061-11.895-4.074-8.383,2.889,3.859,7.664,21.4,14.743,19.179,19.5-.854,1.828-20.174-13.5-22.031-17.037-1.428-2.724,2.361-15.242.157-25.548-.825-3.768-1.585-6.34-3.909-6.765,0,0,.908-4.911-1.8-6.447-1.585-.9-4.032-.413-4.032,2.443,0,0-3.215-.726-3.64,2.443-.586,4.412-2.588,32.523-.149,37.282C105.438,200.658,141.317,216.722,142.27,224.646Z" transform="translate(-93.799 -114.034)" fill="#ecc19c"/>
      <path id="Path_65" data-name="Path 65" d="M105.84,144.62a1.387,1.387,0,0,1,.537.124,2.972,2.972,0,0,1,1.238.991,8.015,8.015,0,0,1,1.143,2.183,16.394,16.394,0,0,1,.718,3.091c.14,1.143.206,2.406.235,3.715s0,2.654,0,4.065-.054,2.864-.078,4.342-.083,2.972-.124,4.47-.087,2.988,0,4.383a8.793,8.793,0,0,0,.1.887,2.931,2.931,0,0,0,.19.392c.083.14.173.281.268.413.384.574.825,1.135,1.238,1.68,1.717,2.2,3.463,4.164,4.928,5.873s2.749,3.079,3.649,4.036,1.449,1.473,1.449,1.473a18.248,18.248,0,0,1-1.622-1.292c-1.007-.879-2.39-2.13-4.028-3.694s-3.488-3.438-5.386-5.559c-.47-.537-.941-1.085-1.4-1.7-.111-.153-.227-.31-.338-.483a3.912,3.912,0,0,1-.314-.578,6.3,6.3,0,0,1-.305-1.284,40.859,40.859,0,0,1-.264-4.573c0-3.025.091-6.03.206-8.845.074-1.4.144-2.765.215-4.053s.12-2.476.1-3.57a12.113,12.113,0,0,0-.966-5.134,3.331,3.331,0,0,0-.929-1.123A1.337,1.337,0,0,0,105.84,144.62Z" transform="translate(-100.87 -118.114)" fill="#cf9e76"/>
      <path id="Path_66" data-name="Path 66" d="M136,226.65a8.512,8.512,0,0,0,.858.825c.565.491,1.424,1.131,2.476,1.89l3.57,2.563c1.308.941,2.679,1.989,4.049,3.046a43.61,43.61,0,0,1,6.967,6.579,10.511,10.511,0,0,1,1.032,1.515,5.117,5.117,0,0,1,.549,1.325,1.939,1.939,0,0,1,0,.933l-.132.289a2.078,2.078,0,0,1,.033-.305,2.063,2.063,0,0,0-.239-.788,6.189,6.189,0,0,0-.788-1.032,16.555,16.555,0,0,0-1.238-1.193c-.945-.825-2.117-1.754-3.376-2.74l-3.975-3.091c-1.337-1.081-2.691-2.154-3.909-3.228s-2.344-2.1-3.248-3.054a17.333,17.333,0,0,1-2.026-2.476,5.835,5.835,0,0,1-.446-.78Z" transform="translate(-118.582 -166.288)" fill="#cf9e76"/>
      <path id="Path_67" data-name="Path 67" d="M119.689,154.32s.12,1.812.293,4.54c.041.677.091,1.416.1,2.192s.058,1.6.062,2.447c0,1.7,0,3.508-.083,5.324-.177,3.628-.359,7.26-.491,9.98-.062,1.362-.091,2.514-.1,3.3s2,2.064,2,2.064l-.091-.945s-.037-.413-.1-1.168-.095-1.9-.136-3.261c-.066-2.728-.157-6.36-.243-9.992-.054-1.812-.161-3.64-.244-5.341-.05-.85-.136-1.676-.2-2.452s-.144-1.515-.223-2.192C119.887,156.124,119.689,154.32,119.689,154.32Z" transform="translate(-108.875 -123.81)" fill="#cf9e76"/>
      <path id="Path_68" data-name="Path 68" d="M144.062,220.939s-1.412-3.364-4.808-3.644c-2.476-.206-2.27,2.7-2.27,2.7s1.213,2.588,5.176,3.62Z" transform="translate(-119.158 -160.788)" fill="#f0d0b4"/>
      <path id="Path_69" data-name="Path 69" d="M151.089,226.14s-3-.066-1.9,2.67Z" transform="translate(-126.184 -165.988)" fill="#f5e0cd"/>
      <path id="Path_70" data-name="Path 70" d="M214.236,362.126c0,1.894-11.4,3.43-25.453,3.43s-25.453-1.535-25.453-3.43,11.4-3.426,25.453-3.426S214.236,360.223,214.236,362.126Z" transform="translate(-134.632 -243.837)" opacity="0.3" fill="url(#radial-gradient)"/>
      <path id="Path_71" data-name="Path 71" d="M195.873,87.712c8.7.982,13.434,6.715,13.393,15.428-.05,10.43-10.149,18.5-17.475,24.561-5.039,4.177-13.36,10.071-15.547,16.546-.128-3.4-3.327-6.649-5.683-8.886a21.481,21.481,0,0,0-5.167-3.925c-9.014-4.474-19.832-8.667-23.984-18.792-4.507-11-1.325-23.385,9.517-29.25,6.03-3.261,13.62-4.288,19.844-.912,7.429,4.041,8.255,10.913,8.11,18.54,3.3-5.506,5.6-11.144,12.382-12.943a12.58,12.58,0,0,1,4.61-.367Z" transform="translate(-120.595 -80.398)" fill="#ef4136"/>
      <path id="Path_72" data-name="Path 72" d="M152.39,117.757c-4.041-4.54-6.075-11.362-4.321-17.293a20.042,20.042,0,0,1,6.55-9.551,18.313,18.313,0,0,1,12.844-3.892,14.834,14.834,0,0,1,8.415,3.1,14.99,14.99,0,0,1,5.089,10.731c.243,4.577-.227,9.683-2.476,13.736a22.106,22.106,0,0,1-9.361,8.919c-2.658,1.321-6.141,1.882-8.82.532A27.278,27.278,0,0,1,152.39,117.757Z" transform="translate(-125.298 -84.255)" fill="url(#linear-gradient)"/>
      <path id="Path_73" data-name="Path 73" d="M267.4,119.714a15.654,15.654,0,0,1-6.521,10.582,11.78,11.78,0,0,1-12.869-.582c-2.563-1.96-3.789-5.832-3.966-8.886-.289-5.143,2.183-10.97,6.748-13.62a12.634,12.634,0,0,1,10.207-.97,9.65,9.65,0,0,1,4.953,4.218A14.607,14.607,0,0,1,267.4,119.714Z" transform="translate(-182.022 -95.18)" fill="url(#linear-gradient-2)"/>
    </g>
  </g>
</svg>
