<svg xmlns="http://www.w3.org/2000/svg" xmlns:xlink="http://www.w3.org/1999/xlink" viewBox="0 0 1796.04 1412.76"><defs><style>.cls-1{fill:none;}.cls-2{isolation:isolate;}.cls-3{clip-path:url(#clip-path);}.cls-4,.cls-7{fill:#e8e8e8;}.cls-4{mix-blend-mode:multiply;}.cls-5{fill:#fff;}.cls-6{fill:#fafdfe;}.cls-8{fill:#f1f0ee;}.cls-9{fill:#d9d8d6;}.cls-10{fill:#ff787f;}.cls-11{fill:#f56e7c;}.cls-12{fill:#e54c6b;}.cls-13{fill:#4675ab;}.cls-14{fill:#3d699a;}.cls-15{fill:#324575;}.cls-16{fill:#fbfcf7;}.cls-17{fill:#f0f2ff;}.cls-18{fill:#d2d3ce;}.cls-19{fill:#c1c0bf;}.cls-20{fill:#285470;}.cls-21{fill:#306f91;}.cls-22{fill:#c2c2c2;}</style><clipPath id="clip-path" transform="translate(-107.17)"><rect class="cls-1" x="5" y="91.56" width="1919" height="1080"/></clipPath></defs><title>Asset 1-</title><g class="cls-2"><g id="Layer_2" data-name="Layer 2"><g id="Layer_1-2" data-name="Layer 1"><g class="cls-3"><polygon class="cls-4" points="1620.89 610.91 1321.2 737.36 1321.2 737.36 1321.2 737.36 1496.35 1151.01 1496.35 1151.01 1496.35 1151.01 1496.35 1151.01 1796.04 1024.56 1620.89 610.91"/><polygon class="cls-5" points="1777.12 1026.21 1477.42 1152.66 1302.28 739.01 1601.97 612.57 1777.12 1026.21"/><polygon class="cls-6" points="1302.28 739.01 1477.42 1152.66 1601.97 612.57 1302.28 739.01"/><polygon class="cls-7" points="1444.84 767.74 1369.52 799.51 1366.37 792.07 1441.68 760.29 1444.84 767.74"/><polygon class="cls-7" points="1454.02 786.58 1377.68 818.79 1374.53 811.35 1450.87 779.14 1454.02 786.58"/><polygon class="cls-7" points="1541.52 776.88 1387.45 841.88 1384.31 834.44 1538.37 769.44 1541.52 776.88"/><polygon class="cls-7" points="1717.28 957.53 1482.06 1056.77 1478.91 1049.33 1714.13 950.09 1717.28 957.53"/><polygon class="cls-7" points="1704.24 934.87 1469.02 1034.11 1465.87 1026.67 1701.09 927.43 1704.24 934.87"/><polygon class="cls-7" points="1642.39 789.35 1407.17 888.6 1404.03 881.16 1639.24 781.91 1642.39 789.35"/><polygon class="cls-7" points="1726.94 980.35 1491.72 1079.59 1488.57 1072.15 1723.79 972.91 1726.94 980.35"/><polygon class="cls-7" points="1653.69 814.24 1418.48 913.48 1415.33 906.04 1650.54 806.8 1653.69 814.24"/><polygon class="cls-7" points="1663.36 837.05 1428.14 936.3 1424.99 928.86 1660.21 829.62 1663.36 837.05"/><polygon class="cls-7" points="1672.71 862.19 1437.49 961.43 1434.35 953.99 1669.56 854.75 1672.71 862.19"/><polygon class="cls-7" points="1684.01 887.07 1448.8 986.32 1445.65 978.88 1680.86 879.63 1684.01 887.07"/><polygon class="cls-7" points="1693.68 909.89 1458.46 1009.13 1455.31 1001.69 1690.53 902.45 1693.68 909.89"/><polygon class="cls-7" points="1551.07 799.44 1397.01 864.44 1393.86 857 1547.92 792 1551.07 799.44"/><path class="cls-4" d="M823.42,170.2,608.89,81.62A19.75,19.75,0,0,0,583.1,92.3l-29.19,70.42a19.71,19.71,0,0,0,10.7,25.75l214.53,88.58a19.75,19.75,0,0,0,25.79-10.68l29.19-70.43A19.7,19.7,0,0,0,823.42,170.2Z" transform="translate(-107.17)"/><path class="cls-4" d="M1455.94,123.73l-35.68-67.38a19.75,19.75,0,0,0-26.68-8.22L1188.32,156.41a19.7,19.7,0,0,0-8.23,26.64l35.68,67.38a19.77,19.77,0,0,0,26.68,8.22L1447.7,150.36A19.69,19.69,0,0,0,1455.94,123.73Z" transform="translate(-107.17)"/><path class="cls-4" d="M1071.93,348.74l-8.31-20.44-8.53-21a13.75,13.75,0,0,0-8.11-7.77h0a12.17,12.17,0,0,0-1.3-.4l-.07,0c-.41-.1-.83-.18-1.26-.25l-.15,0a11.63,11.63,0,0,0-1.2-.11l-.23,0c-.37,0-.74,0-1.12,0l-.31,0c-.35,0-.71.07-1.06.12l-.37.05c-.34.06-.69.15-1,.23l-.38.09a14.1,14.1,0,0,0-1.38.48,13.78,13.78,0,0,0-7.61,18l8.53,21,8.31,20.44a14.23,14.23,0,0,0,.82,1.66l.24.4a12.52,12.52,0,0,0,1,1.4l.05.07a12.8,12.8,0,0,0,1.24,1.31l.27.25a15.33,15.33,0,0,0,1.36,1.08l0,0a13.22,13.22,0,0,0,1.59.93l.22.11a14.45,14.45,0,0,0,3.53,1.15l.13,0a14.78,14.78,0,0,0,1.88.19h0a13.77,13.77,0,0,0,13.25-19Z" transform="translate(-107.17)"/><path class="cls-4" d="M1166.6,328.64a13.78,13.78,0,0,0-7.07-18.18l-20.22-8.91-20.75-9.13a13.79,13.79,0,0,0-10-.45h0c-.44.15-.87.32-1.3.51h0a11.36,11.36,0,0,0-1.2.62l-.07,0c-.37.22-.73.45-1.08.7l-.12.08c-.32.24-.63.49-.94.76l-.17.15c-.28.25-.54.51-.8.79-.07.07-.15.14-.22.22-.23.26-.45.54-.67.82l-.23.3c-.21.28-.39.58-.58.89l-.21.32a14.4,14.4,0,0,0-.66,1.3,13.79,13.79,0,0,0,7.07,18.19l20.75,9.13,20.22,8.9a14.6,14.6,0,0,0,1.75.62l.44.12a14.81,14.81,0,0,0,1.69.33h.08a13.78,13.78,0,0,0,1.81.08h.37a16.42,16.42,0,0,0,1.72-.17h0a12.63,12.63,0,0,0,1.79-.44l.23-.07a14.29,14.29,0,0,0,3.33-1.63l.11-.08a13.84,13.84,0,0,0,1.49-1.16h0A13.85,13.85,0,0,0,1166.6,328.64Z" transform="translate(-107.17)"/><path class="cls-4" d="M391.91,729.75a1.77,1.77,0,0,0,0-.23s0,0,0,.05a20.69,20.69,0,0,0-37.2-11.67h0c-.27.36-.53.72-.78,1.1-.13.19-.24.38-.35.58l-.07.09-.08.16c-.07.11-.14.21-.2.32h0v0c-.18.32-.36.64-.53,1,0,.07-.07.13-.1.19h0a20.58,20.58,0,0,0-1.73,5.21h0a20.16,20.16,0,0,0-.3,2.68c0,.21,0,.42,0,.63a21,21,0,0,0,.09,2.63v0a21.52,21.52,0,0,0,.48,2.62c0,.2.1.41.16.61a19.79,19.79,0,0,0,.83,2.5v0a19.71,19.71,0,0,0,1.21,2.38c.11.19.22.38.34.57a20.44,20.44,0,0,0,1.54,2.18l0,0a20.62,20.62,0,0,0,1.89,2l.51.46a21.09,21.09,0,0,0,2.24,1.72,20.73,20.73,0,0,0,27-3.79h0l.14-.18c.23-.27.46-.57.68-.86l0,0h0l.23-.31.1-.14.07-.1.39-.55c.25-.38.48-.76.7-1.15h0c.1-.16.19-.33.28-.5s.18-.36.27-.54c.2-.39.38-.79.54-1.18.09-.21.18-.42.26-.64.15-.39.28-.79.41-1.19.06-.2.13-.4.18-.59.16-.57.3-1.14.4-1.71,0-.21.07-.43.1-.64q.09-.57.15-1.14c0-.27.05-.55.06-.82s0-.65,0-1S391.92,730,391.91,729.75Z" transform="translate(-107.17)"/><path class="cls-4" d="M728.87,891.17c0-.12-.06-.25-.09-.37l0-.17,0-.12c-.05-.21-.1-.43-.16-.65-.12-.44-.26-.86-.41-1.29h0c-.06-.19-.12-.37-.19-.54l-.24-.57c-.17-.4-.34-.79-.53-1.18l-.32-.61c-.2-.37-.41-.73-.63-1.09-.11-.17-.21-.35-.33-.53-.32-.48-.66-1-1-1.41-.14-.18-.29-.33-.43-.5s-.5-.58-.76-.86l-.58-.58c-.23-.23-.47-.45-.72-.67l-.64-.55-.17-.15,0,0a20.68,20.68,0,0,0-33.22,20.38h0c.09.44.19.87.32,1.31.06.22.13.43.2.64l0,.12.06.16.12.37h0v0c.12.35.25.7.39,1,0,.07,0,.14.07.21h0a20.71,20.71,0,0,0,2.8,4.73h0l.16.18c.33.41.68.8,1,1.17l.43.43.92.86.44.37c.45.38.91.74,1.39,1.07l.17.11q.66.45,1.35.84l.5.28c.38.2.76.39,1.15.57l.51.23c.54.23,1.09.45,1.65.63l.12,0q.79.25,1.62.45l.54.11c.43.09.86.17,1.3.23l.54.08c.6.07,1.21.12,1.82.14h0c.6,0,1.2,0,1.8,0l.56,0c.45,0,.91-.1,1.37-.17l.55-.09c.62-.12,1.25-.25,1.87-.43a20.67,20.67,0,0,0,14.86-22.86h0c0-.07,0-.14,0-.21-.06-.36-.13-.72-.21-1.09v0Z" transform="translate(-107.17)"/><path class="cls-4" d="M611.61,938.92c0,.21,0,.42,0,.63a20.57,20.57,0,0,0,.43,2.59v0a22,22,0,0,0,.8,2.54l.24.59a22.45,22.45,0,0,0,1.14,2.37l0,0a20.36,20.36,0,0,0,1.49,2.21l.41.52a21.13,21.13,0,0,0,1.81,2l0,0a21.06,21.06,0,0,0,2.13,1.72l.56.39a21.06,21.06,0,0,0,2.44,1.43,20.74,20.74,0,0,0,26.35-7.16h0l.11-.19c.2-.3.38-.62.57-.94l0,0h0l.18-.34.09-.15a1.17,1.17,0,0,0,0-.11c.11-.19.22-.39.32-.59.2-.41.38-.82.55-1.23h0c.08-.17.15-.35.22-.53s.13-.38.2-.58c.14-.41.27-.82.38-1.23.07-.22.12-.44.18-.67.1-.41.18-.82.25-1.23,0-.2.08-.41.11-.61a17.1,17.1,0,0,0,.18-1.74c0-.22,0-.44,0-.65,0-.39,0-.77,0-1.15s0-.55-.05-.82,0-.65-.09-1-.06-.56-.11-.83a1.81,1.81,0,0,0,0-.23v0a20.69,20.69,0,0,0-38.38-6.9h0c-.22.39-.44.78-.64,1.19-.1.2-.18.41-.27.62l-.06.1-.06.16c0,.12-.11.24-.16.35h0v0c-.14.34-.28.68-.4,1,0,.07-.06.14-.08.2h0a20.68,20.68,0,0,0-1.06,5.39h0v0A20.1,20.1,0,0,0,611.61,938.92Z" transform="translate(-107.17)"/><path class="cls-4" d="M710.12,1092.93c0-1.33,0-2.64-.1-4,0-.46-.07-.93-.11-1.39-.08-.85-.2-1.69-.33-2.53-.15-1-.34-2-.56-3-.07-.28-.11-.56-.18-.83v.06A45.32,45.32,0,0,0,627,1066.85l-1.42-.38-1.15-.31q-2.73-.72-5.42-1.34l-1.22-.29c-1.78-.4-3.55-.78-5.3-1.12l-1.17-.23q-2.67-.51-5.3-.93l-1-.15c-1.82-.28-3.63-.54-5.43-.76l-.49-.06a165.89,165.89,0,0,0-34.63-.57l-.47,0c-1.64.15-3.28.33-4.92.53l-1,.11c-1.55.2-3.1.42-4.64.65l-1.18.18q-2.25.36-4.5.78l-1.27.24c-1.48.28-2.95.58-4.43.89l-1.26.28c-1.49.33-3,.68-4.46,1l-1.11.28c-1.54.39-3.08.78-4.62,1.2l-.7.2c-8.69,2.41-17.36,5.34-26.14,8.7l-1.37.51-4,1.59-1.88.75-3.82,1.56-2.14.89-3.68,1.55-2.37,1-3.55,1.55-2.58,1.13c-1.14.5-2.28,1-3.42,1.52l-2.84,1.27-3.27,1.47-3.15,1.43-3.06,1.4-3.75,1.72-2.56,1.17-6.28,2.9-2,.92c-58.28,26.9-133.89,29.69-192.61,7.11-42.23-16.24-73-44.53-88.85-81.82-28.45-66.75-10.82-149.55,7.93-221.92q1.59-6.13,3.26-12.26c.4-1.49.82-3,1.23-4.46.72-2.6,1.43-5.19,2.16-7.78.52-1.84,1.06-3.68,1.59-5.51.64-2.22,1.27-4.44,1.93-6.66.6-2.06,1.23-4.11,1.85-6.17s1.19-4,1.8-6c.67-2.21,1.37-4.42,2.06-6.62.57-1.82,1.13-3.64,1.71-5.46.74-2.33,1.5-4.67,2.26-7,.55-1.67,1.09-3.34,1.64-5,.81-2.45,1.64-4.9,2.47-7.36q.76-2.28,1.55-4.58c.88-2.57,1.77-5.15,2.67-7.72l1.47-4.16q1.42-4,2.88-8c.45-1.27.91-2.53,1.38-3.8q1.53-4.17,3.09-8.34l1.27-3.39q1.65-4.35,3.32-8.69c.39-1,.77-2,1.16-3,1.18-3,2.36-6,3.57-9,.33-.84.66-1.67,1-2.5q1.89-4.72,3.83-9.43l.84-2q2-4.9,4.11-9.81c.22-.51.44-1,.65-1.52q2.19-5.13,4.42-10.25c.13-.29.27-.59.4-.89q2.14-4.89,4.34-9.77a179.19,179.19,0,0,0,48,8.18,139,139,0,0,0,62.89-13c38.82-18.14,63.21-51.12,76.41-74.29l.58.15c.19-.71.39-1.48.58-2.22a176.83,176.83,0,0,0,11.23-23.78l-4.52-1.62q2-7.43,4.12-15.45h0c18.08-67.74,44.55-164.15,55.21-189.43,16-38-1.32-62.29-12.72-69.85l-17.89-9c.1-.39.19-.77.27-1.16,0-.18.07-.35.09-.53a14.75,14.75,0,0,0,.19-1.73s0-.08,0-.12a16.28,16.28,0,0,0,0-2c0-.06,0-.11,0-.16a15.27,15.27,0,0,0-.26-1.78c0-.08,0-.15-.05-.22a16.46,16.46,0,0,0-2.31-5.48h0a16.14,16.14,0,0,0-6.73-5.81l-11.19-5.18a16.28,16.28,0,0,0-21.6,7.91l-1.89,4.06a16.21,16.21,0,0,0,.39,14.4l.1.17a13.56,13.56,0,0,0,.95,1.54,1.4,1.4,0,0,0,.1.16,15.51,15.51,0,0,0,1.26,1.55v0a18,18,0,0,0,1.34,1.28l.41.33c.37.3.76.59,1.17.86l.46.3a16.12,16.12,0,0,0,1.73.95l11.2,5.18c.51.23,1,.44,1.54.62a16.28,16.28,0,0,0,9.41.35c.5-.13,1-.28,1.49-.46a15.71,15.71,0,0,0,1.92-.87,16.75,16.75,0,0,0,1.67-1c.26-.18.52-.36.76-.55l17.59,8.85c2.77,2.08,21.36,17.69,7,51.67-11.56,27.41-39.78,130.63-59.67,205.59l-5.35-1.93c-.21.61-22.48,60.94-75.71,85.81-30,14-64.53,14.09-102.62.22-53.72-19.56-83.74-55.35-89.22-106.37-4.24-39.4,8.13-73.75,8.25-74.08l-3.74-1.38c32.45-74.27,70.93-164.12,79.5-191.66,11-35.34,35.43-35.21,38.69-35L290.61,185c.05.25.11.5.18.74a.29.29,0,0,1,0,.09,16.16,16.16,0,0,0,1.83,4.22l.13.2a15.89,15.89,0,0,0,1.29,1.79l0,0a17.54,17.54,0,0,0,1.53,1.58l.32.27a16.43,16.43,0,0,0,1.68,1.27l.08.06a16.22,16.22,0,0,0,1.93,1l.47.21a16.8,16.8,0,0,0,2.13.76l2.55.69,9.36,2.54A16.23,16.23,0,0,0,319,201c.53,0,1.06-.06,1.58-.13A16.31,16.31,0,0,0,327.8,198a16.16,16.16,0,0,0,6.3-9l1.18-4.33a17,17,0,0,0,.36-1.69c0-.16,0-.32.06-.48.05-.41.1-.82.12-1.23,0-.17,0-.33,0-.5,0-.4,0-.8,0-1.2,0-.15,0-.3,0-.45,0-.42-.08-.83-.14-1.25,0-.12-.05-.24-.07-.36-.08-.44-.18-.87-.29-1.31,0-.08,0-.17-.08-.26a13.77,13.77,0,0,0-.46-1.37l-.06-.16c-.19-.48-.41-.95-.64-1.41a.25.25,0,0,1,0-.07c-.26-.49-.53-1-.83-1.42h0a16.19,16.19,0,0,0-9.32-6.76L312,161.55a16.28,16.28,0,0,0-19,8.81l-18.66-4.42-.87-.15c-13.6-1.53-42.55,5.94-54.79,45.27-8,25.68-44.35,110.7-71.52,173.16l-2.92,6.69-.1.23-2.24,5.14c-.3.68-.6,1.38-.89,2.05l-1.6,3.64-6.13-2.26c-1.06,2.87-25.69,71,3.36,133.7,15.21,32.78,42.12,57.67,80,74.17A1208.24,1208.24,0,0,0,150,797.2c-19.8,76.4-38.28,164.1-6.71,238.14,18.64,43.73,54.27,76.76,103,95.51,27.09,10.42,57.41,16,88.23,16.69,42.9,1,86.75-7.2,124.11-24.44l2-.92c61.12-28.21,101.5-46.81,158.72-31.22a45.13,45.13,0,0,0,17,36.14l.36.29a44.44,44.44,0,0,0,3.65,2.58c.33.22.66.44,1,.64.58.35,1.17.69,1.77,1s1.22.64,1.84.94,1.15.56,1.74.82c1,.41,1.91.78,2.89,1.13l1.28.43c1.06.34,2.14.65,3.23.91.17,0,.33.1.5.13,1.28.3,2.58.51,3.89.69l1,.13c1.35.16,2.72.28,4.11.31h0a45.33,45.33,0,0,0,46.45-44.18Z" transform="translate(-107.17)"/><path class="cls-4" d="M225.78,856.78l3.39-1h0l2.19-.64,2.92,9.94h0l50.1,170.28a9.55,9.55,0,0,0,11.84,6.45l68.15-20a9.52,9.52,0,0,0,6.46-11.81l-4.21-14.29h0l-17.08-58.05h0L329.92,871h0l-9.19-31.26h0l-2.93-9.94-15.15,4.45h0l6.69-2,2-.58h0l5.92-1.73,2.75-.81h0l3.39-1L316.57,805l-5.48,1.6-2,.6h0l-47.87,14h0l-.89.26-7.78,2.28h0l-1.07.32-7.6,2.22h0l-1.25.37-7.41,2.18h0l-1.44.41-7.23,2.13h0l-4.14,1.21h0l-3.39,1Zm66.45-19.48,1-.31-8,2.34h0Zm-8.56,2.51.54-.16-7.57,2.22h0Zm-8.06,2.36h0l-1.07.32Zm26.73-7.83L294,836.79h0l6.81-2Z" transform="translate(-107.17)"/><path class="cls-4" d="M519.8,871.27h0l-4-.8h0l-4.43-.89h0l-4-.81h0l-4.42-.88h0l-4-.81h0l-4.43-.88h0l-4-.81h0l-4.42-.88h0l-4-.81h0l-4.43-.89h0l-1.38-.27L469,861.12h0l-4-.8h0l-4.42-.89h0l-4-.81h0l-4.43-.88h0l-4-.81h0l-3.31-.66-4.53,22.59,6.13,1.22-1.43,7.23c-10.54.73-19.38,7.3-21.24,16.75l-3.16,16h0l-1.85,9.39h0l-8.43,42.73h0l-4.43,22.43c-2.3,11.67,6.9,23.3,20.56,26l68.27,13.42c13.66,2.68,26.59-4.61,28.89-16.28l2.9-14.68h0l1.53-7.74h0l10.28-52.12h0l3.16-16c1.86-9.45-3.82-18.87-13.29-23.54l.54-2.75h0l.83-4.21,6,1.21L540,875.32l-3.31-.66h0l-4-.81h0Z" transform="translate(-107.17)"/><path class="cls-4" d="M1551.61,298.26l.54-2.75h0l.83-4.21,6,1.21,4.53-22.59-37.17-7.43h0l-4-.8h0L1501,257.42h0l-1.38-.28-24-4.8h0l-4-.8h0l-3.31-.66-4.53,22.58,6.13,1.23-1.43,7.22c-10.54.74-19.38,7.31-21.24,16.76l-3.64,18.42-1.37,7h0l-8.43,42.72h0l-4.43,22.43c-2.3,11.67,6.9,23.31,20.56,26l68.27,13.42c13.66,2.68,26.59-4.6,28.89-16.27l2.9-14.69h0l1.53-7.74h0l8.43-42.78,5-25.36C1566.76,312.36,1561.08,302.93,1551.61,298.26Z" transform="translate(-107.17)"/><path class="cls-4" d="M1419.71,491l-14.2,13.23-.09-.09-6.19,5.73,3.77,4.05L1273.1,634.23a23.18,23.18,0,1,0,31.57,34l129.9-120.34,3.77,4,6.19-5.73-.06,0,14.32-13.34Z" transform="translate(-107.17)"/><path class="cls-4" d="M1086.92,178,1099.38,167l-11.74-13.35,4.95-4.34h0l40.05-35.1,3.6,4.1,8.12-7.11-22.85-26-8.12,7.11,3.61,4.1-45,39.44-11.24-12.78-12.47,10.93.29.34-90.2,79.07-6.45,28L944.52,248s-.61,4.32,3,9.55l-2.52,2.2h0l-51.16,44.85,3.21,3.64,51.16-44.85h0l2.51-2.2c4.72,4.29,9.09,4.24,9.09,4.24l7.42-6.51,28.65-2.76,90.2-79.07Z" transform="translate(-107.17)"/><path class="cls-4" d="M623.48,317.29l.09.56a18.41,18.41,0,0,0,.52,2.34v0a18.74,18.74,0,0,0,.86,2.26l.24.53a18.59,18.59,0,0,0,1.17,2.09v0a18.61,18.61,0,0,0,1.48,1.93q.2.24.39.45a18.85,18.85,0,0,0,1.75,1.71h0a18.56,18.56,0,0,0,2,1.46l.54.33a19.7,19.7,0,0,0,2.29,1.17,18.79,18.79,0,0,0,11,1.11,19.81,19.81,0,0,0,3.47-1,19.37,19.37,0,0,0,4.68-2.75,18.86,18.86,0,0,0,4.46-5.2h0l.09-.18c.06-.1.13-.19.18-.29s.19-.4.29-.6v0h0l.15-.32.07-.14,0-.1c.08-.18.18-.36.26-.55.16-.39.3-.77.43-1.15h0l.16-.49c.06-.18.1-.36.16-.53.1-.38.2-.77.28-1.15,0-.2.09-.41.13-.61.07-.38.12-.76.16-1.14a5,5,0,0,0,.07-.56c0-.53.08-1.06.08-1.59,0-.2,0-.4,0-.6s0-.69-.06-1-.05-.49-.08-.74-.08-.59-.13-.88-.09-.51-.14-.76a1.42,1.42,0,0,1,0-.2v0a18.85,18.85,0,0,0-35.26-4.28h0c-.19.36-.36.73-.52,1.11-.08.2-.15.39-.22.58a1,1,0,0,0,0,.1s0,.1,0,.15-.09.22-.13.32h0v0c-.11.32-.22.63-.31.95l-.06.19h0a18.34,18.34,0,0,0-.68,4.95h0A22.25,22.25,0,0,0,623.48,317.29Z" transform="translate(-107.17)"/><path class="cls-4" d="M746.47,308.18a18.88,18.88,0,0,0-25.78.13h0q-.45.42-.87.87c-.14.15-.27.31-.41.47l-.07.07a1.13,1.13,0,0,0-.1.13c-.08.09-.16.17-.23.26h0l0,0c-.21.26-.42.52-.61.79l-.13.15h0a18.81,18.81,0,0,0-2.35,4.42h0a19.6,19.6,0,0,0-.67,2.35l-.12.57a18.73,18.73,0,0,0-.31,2.37s0,0,0,0a17.79,17.79,0,0,0,0,2.42c0,.19,0,.39,0,.58a19,19,0,0,0,.37,2.36v0a19.36,19.36,0,0,0,.71,2.32c.07.18.15.37.22.56a20.14,20.14,0,0,0,1.06,2.2v0a19.68,19.68,0,0,0,1.4,2.06l.39.49a19.3,19.3,0,0,0,1.75,1.88,18.87,18.87,0,0,0,24.85.69h0l.15-.13.74-.68,0,0v0l.24-.25.12-.11.07-.08c.15-.14.3-.28.44-.43.28-.31.54-.62.8-.94h0c.31-.38.6-.77.88-1.17.11-.16.22-.31.32-.47a18.8,18.8,0,0,0,1.27-2.26c0-.09.07-.17.11-.25a21,21,0,0,0,.85-2.29c0-.12.08-.24.11-.37a18.31,18.31,0,0,0,.52-2.53l0-.12,0,0A18.78,18.78,0,0,0,746.47,308.18Z" transform="translate(-107.17)"/><path class="cls-4" d="M690.83,370.38a18.81,18.81,0,0,0-14.19,21.48h0c.07.4.14.8.24,1.2,0,.2.11.4.17.59a.43.43,0,0,0,0,.11.88.88,0,0,0,.05.15l.09.33h0v0c.1.32.2.64.32,1l.06.19h0a18.62,18.62,0,0,0,2.37,4.4h0a20.24,20.24,0,0,0,1.59,1.86l.4.41a19.31,19.31,0,0,0,1.81,1.58l0,0a19.69,19.69,0,0,0,2,1.33l.51.28a19.49,19.49,0,0,0,2.18,1h0a16.87,16.87,0,0,0,2.33.69l.59.13a19.32,19.32,0,0,0,2.42.35h0a17.41,17.41,0,0,0,2.5,0l.62-.05a17.22,17.22,0,0,0,2.54-.41A18.83,18.83,0,0,0,714,386.75h0l0-.19c0-.34-.09-.67-.15-1v0h0c0-.12,0-.23-.07-.34s0-.11,0-.16l0-.1c0-.2-.07-.4-.12-.61-.1-.4-.21-.79-.33-1.18h0q-.21-.7-.48-1.38c-.07-.18-.14-.36-.22-.53a18.57,18.57,0,0,0-1.18-2.31l-.15-.23a20.08,20.08,0,0,0-1.43-2,3.76,3.76,0,0,0-.25-.31,18.5,18.5,0,0,0-1.82-1.83s0-.07-.09-.09l0,0A18.85,18.85,0,0,0,690.83,370.38Z" transform="translate(-107.17)"/><polygon class="cls-4" points="1528.38 826.25 1219.67 723.68 1219.67 723.68 1219.67 723.68 1077.59 1149.77 1077.59 1149.77 1077.59 1149.77 1077.59 1149.77 1386.3 1252.34 1528.38 826.25"/><polygon class="cls-5" points="1370.99 1241.11 1062.28 1138.53 1204.36 712.45 1513.07 815.02 1370.99 1241.11"/><polygon class="cls-6" points="1204.36 712.45 1062.28 1138.54 1513.07 815.02 1204.36 712.45"/><polygon class="cls-7" points="1292.42 827.98 1214.84 802.2 1217.39 794.53 1294.98 820.31 1292.42 827.98"/><polygon class="cls-7" points="1286.86 848.19 1208.22 822.05 1210.77 814.39 1289.42 840.52 1286.86 848.19"/><polygon class="cls-7" points="1358.98 898.57 1200.29 845.84 1202.84 838.17 1361.54 890.91 1358.98 898.57"/><polygon class="cls-7" points="1371.48 1150.09 1129.19 1069.58 1131.75 1061.91 1374.04 1142.42 1371.48 1150.09"/><polygon class="cls-7" points="1376.68 1124.48 1134.39 1043.97 1136.94 1036.31 1379.24 1116.81 1376.68 1124.48"/><polygon class="cls-7" points="1426.49 974.43 1184.2 893.92 1186.75 886.26 1429.04 966.76 1426.49 974.43"/><polygon class="cls-7" points="1363.65 1173.59 1121.35 1093.08 1123.91 1085.42 1366.2 1165.93 1363.65 1173.59"/><polygon class="cls-7" points="1418.52 1000.57 1176.22 920.06 1178.78 912.39 1421.07 992.9 1418.52 1000.57"/><polygon class="cls-7" points="1410.68 1024.07 1168.39 943.56 1170.94 935.9 1413.23 1016.41 1410.68 1024.07"/><polygon class="cls-7" points="1401.08 1049.11 1158.79 968.61 1161.34 960.94 1403.63 1041.45 1401.08 1049.11"/><polygon class="cls-7" points="1393.11 1075.25 1150.82 994.74 1153.37 987.08 1395.66 1067.59 1393.11 1075.25"/><polygon class="cls-7" points="1385.27 1098.76 1142.98 1018.25 1145.53 1010.59 1387.83 1091.09 1385.27 1098.76"/><polygon class="cls-7" points="1351.23 921.81 1192.54 869.08 1195.09 861.42 1353.79 914.15 1351.23 921.81"/><path class="cls-8" d="M808.11,159,593.58,70.39a19.75,19.75,0,0,0-25.79,10.67l-29.18,70.43a19.7,19.7,0,0,0,10.7,25.75l214.53,88.57a19.75,19.75,0,0,0,25.79-10.67l29.18-70.43A19.7,19.7,0,0,0,808.11,159Z" transform="translate(-107.17)"/><path class="cls-9" d="M608.92,123.72c.3-.27.59-.53.87-.81l.43-.44c.27-.28.52-.57.76-.87.13-.14.25-.28.37-.43.33-.42.64-.85.93-1.3.11-.16.2-.34.31-.51s.35-.59.52-.9.23-.44.33-.67.26-.54.37-.81.21-.47.3-.71l.07-.19s0,0,0,0a18.82,18.82,0,0,0-27.24-22.74v0c-.35.21-.7.42-1,.66-.17.11-.33.24-.5.36l-.09.06-.12.1-.28.2v0l0,0c-.26.2-.53.41-.78.63l-.15.13h0a18.6,18.6,0,0,0-3.28,3.78h0l-.11.19c-.26.4-.49.81-.71,1.23-.09.16-.17.32-.25.49-.17.34-.33.69-.48,1-.06.17-.13.32-.2.49-.19.49-.37,1-.52,1.51,0,.06,0,.12,0,.18-.13.46-.24.93-.34,1.4l-.09.52c-.07.38-.12.76-.16,1.15l-.06.5c0,.54-.07,1.07-.07,1.61v.12c0,.5,0,1,.08,1.52l.06.5c0,.4.11.79.18,1.19l.09.49a15.66,15.66,0,0,0,.41,1.6s0,0,0,0c.16.51.35,1,.55,1.53l.21.46q.24.57.54,1.14c.08.15.15.3.24.45.28.5.57,1,.9,1.48a18.78,18.78,0,0,0,7,6.14,17.42,17.42,0,0,0,1.65.75c.57.23,1.14.42,1.72.59a18,18,0,0,0,1.76.42,18.57,18.57,0,0,0,12-1.7h0l.17-.09c.3-.16.59-.33.88-.5h0l.3-.18.14-.08.08-.06.52-.33c.35-.23.67-.48,1-.73h0l.41-.33Z" transform="translate(-107.17)"/><path class="cls-10" d="M612,113.25A18.86,18.86,0,1,1,601.91,88.6,18.87,18.87,0,0,1,612,113.25Z" transform="translate(-107.17)"/><path class="cls-11" d="M613,101.8A18.86,18.86,0,0,1,575.74,106a18.87,18.87,0,0,0,36.26,7.3A18.6,18.6,0,0,0,613,101.8Z" transform="translate(-107.17)"/><path class="cls-11" d="M577,99.34c-.2.55-.38,1.1-.54,1.66l34.49,14.45c.29-.5.56-1,.81-1.54.08-.23.17-.45.25-.68l-34.7-14.54C577.15,98.9,577.05,99.12,577,99.34Z" transform="translate(-107.17)"/><path class="cls-12" d="M577.21,98.67c-.16.38-.3.77-.43,1.15l34.71,14.55c.18-.37.35-.74.51-1.12s.3-.76.44-1.15L577.73,97.56C577.55,97.92,577.38,98.29,577.21,98.67Z" transform="translate(-107.17)"/><path class="cls-9" d="M655.82,143.08c.3-.26.59-.53.87-.8l.44-.45c.26-.28.51-.57.76-.86l.36-.44q.5-.63.93-1.29c.11-.17.2-.34.31-.51s.36-.6.52-.9.23-.45.34-.67.25-.54.37-.81l.29-.71a1.67,1.67,0,0,1,.08-.2l0,0a18.82,18.82,0,0,0-27.24-22.75h0c-.35.21-.7.42-1,.65l-.5.37-.09.05-.12.1-.28.21h0l0,0-.78.64-.15.12h0a18.65,18.65,0,0,0-3.28,3.79h0l-.11.2c-.25.4-.49.81-.71,1.23-.09.16-.17.32-.25.48-.17.35-.33.7-.47,1.05-.07.16-.14.32-.2.48a14.18,14.18,0,0,0-.52,1.51c0,.06,0,.12,0,.18-.13.47-.24.93-.34,1.41l-.09.51c-.07.39-.12.77-.16,1.15l-.06.51c0,.53-.07,1.07-.07,1.61,0,0,0,.07,0,.11,0,.51,0,1,.08,1.52,0,.17,0,.34,0,.51.05.39.11.79.18,1.18l.09.49c.12.54.25,1.07.41,1.61v0c.16.52.35,1,.56,1.53.06.16.13.31.2.47.17.38.35.76.54,1.13l.24.45a16.5,16.5,0,0,0,.91,1.49,18.76,18.76,0,0,0,6.94,6.14c.54.27,1.09.53,1.66.75s1.13.42,1.71.59a18,18,0,0,0,1.76.42,18.78,18.78,0,0,0,12-1.7h0l.17-.1c.3-.15.59-.32.88-.49l0,0v0l.3-.19.14-.08.08-.06.53-.33q.51-.34,1-.72h0l.4-.32C655.55,143.33,655.68,143.2,655.82,143.08Z" transform="translate(-107.17)"/><path class="cls-10" d="M658.9,132.62A18.86,18.86,0,1,1,648.81,108,18.87,18.87,0,0,1,658.9,132.62Z" transform="translate(-107.17)"/><path class="cls-11" d="M659.91,121.17a18.87,18.87,0,0,1-37.27,4.15,18.87,18.87,0,1,0,37.27-4.15Z" transform="translate(-107.17)"/><path class="cls-11" d="M623.85,118.71c-.2.55-.38,1.1-.53,1.65l34.48,14.46c.29-.5.56-1,.81-1.54.08-.23.18-.45.25-.68l-34.7-14.55C624.05,118.27,624,118.49,623.85,118.71Z" transform="translate(-107.17)"/><path class="cls-12" d="M624.12,118c-.16.38-.3.76-.44,1.15l34.71,14.54q.27-.54.51-1.11c.16-.38.31-.77.44-1.15l-34.71-14.55C624.45,117.29,624.28,117.66,624.12,118Z" transform="translate(-107.17)"/><path class="cls-9" d="M702.73,162.45c.29-.26.58-.53.86-.81s.3-.29.44-.44.51-.57.76-.87c.12-.14.25-.28.36-.43q.5-.63.93-1.29c.11-.17.21-.35.31-.51s.36-.6.52-.91.23-.44.34-.67.25-.54.37-.81.2-.47.29-.71c0-.06.06-.13.08-.19l0,0a18.82,18.82,0,0,0-27.24-22.74v0c-.35.21-.7.43-1,.66-.17.11-.33.24-.49.36l-.09.06-.13.1-.28.21h0l0,0c-.27.21-.53.41-.78.63l-.16.13h0a18.6,18.6,0,0,0-3.28,3.78h0l-.12.19c-.25.4-.49.81-.71,1.23-.09.16-.16.33-.25.49-.17.34-.32.69-.47,1.05-.07.16-.14.32-.2.48-.2.5-.37,1-.52,1.51,0,.06,0,.12-.05.18-.13.46-.24.93-.34,1.4l-.09.52c-.06.38-.12.76-.16,1.15,0,.17,0,.33,0,.5,0,.54-.08,1.08-.08,1.61,0,0,0,.08,0,.12,0,.5,0,1,.08,1.52,0,.17,0,.33,0,.5.05.4.11.79.18,1.19l.09.49c.12.53.25,1.07.41,1.6,0,0,0,0,0,.05.16.51.34,1,.55,1.53.06.15.13.31.2.46.17.39.35.76.54,1.14l.24.45c.28.5.58,1,.91,1.48a18.75,18.75,0,0,0,6.94,6.14c.54.28,1.09.53,1.66.76s1.13.41,1.71.58a18,18,0,0,0,1.76.42,19,19,0,0,0,3.61.34,18.73,18.73,0,0,0,8.39-2v0l.18-.1.87-.5h0c.1-.05.19-.12.29-.18l.14-.08.09-.06c.17-.11.35-.21.52-.33.34-.23.67-.48,1-.73h0l.41-.33Z" transform="translate(-107.17)"/><path class="cls-10" d="M705.81,152a18.86,18.86,0,1,1-10.09-24.65A18.89,18.89,0,0,1,705.81,152Z" transform="translate(-107.17)"/><path class="cls-11" d="M706.81,140.54a18.58,18.58,0,0,1-1.48,7.28,18.87,18.87,0,0,1-35.79-3.13,18.87,18.87,0,1,0,37.27-4.15Z" transform="translate(-107.17)"/><path class="cls-11" d="M670.76,138.07c-.21.55-.39,1.11-.54,1.66l34.48,14.45c.29-.49.56-1,.81-1.54.09-.22.18-.45.26-.67l-34.71-14.55C671,137.63,670.86,137.86,670.76,138.07Z" transform="translate(-107.17)"/><path class="cls-12" d="M671,137.4c-.16.38-.3.77-.44,1.15l34.71,14.55c.18-.37.36-.74.52-1.12s.3-.76.43-1.15l-34.7-14.54C671.35,136.65,671.18,137,671,137.4Z" transform="translate(-107.17)"/><path class="cls-9" d="M749.63,181.81c.3-.26.59-.53.86-.8l.44-.45c.26-.28.52-.57.76-.86l.36-.43c.33-.43.64-.86.93-1.3.11-.17.21-.34.31-.51s.36-.59.52-.9.23-.45.34-.67.25-.54.37-.81.2-.47.29-.71c0-.07.06-.13.08-.19s0,0,0,0a18.82,18.82,0,0,0-27.24-22.75h0c-.35.21-.7.42-1,.65l-.49.37-.09.06-.13.1-.28.2v0h0c-.27.21-.53.42-.78.64l-.16.12h0a18.87,18.87,0,0,0-3.27,3.79h0v0l-.12.19c-.25.4-.49.81-.71,1.23l-.24.48q-.25.53-.48,1c-.07.16-.14.32-.2.48-.19.5-.37,1-.52,1.52,0,.05,0,.12-.05.18-.13.46-.24.93-.33,1.4,0,.17-.07.34-.1.51-.06.39-.12.77-.16,1.16,0,.16,0,.33-.05.5,0,.53-.07,1.07-.07,1.61v.11c0,.51,0,1,.08,1.52l.06.51c0,.39.1.79.17,1.18,0,.17.06.33.1.49.11.54.24,1.08.4,1.61,0,0,0,0,0,.05.16.51.35,1,.55,1.52.06.16.13.31.2.47.17.38.35.76.55,1.13.07.15.15.3.23.45.28.51.58,1,.91,1.49a18.84,18.84,0,0,0,6.94,6.14,17.59,17.59,0,0,0,1.66.75c.56.22,1.13.42,1.71.59a18,18,0,0,0,1.76.42,19,19,0,0,0,3.61.33,18.76,18.76,0,0,0,8.4-2h0l.18-.1c.29-.15.58-.32.87-.49h0l.29-.19.14-.07.09-.07c.17-.11.35-.21.52-.33q.51-.34,1-.72h0l.41-.32Z" transform="translate(-107.17)"/><ellipse class="cls-10" cx="628.14" cy="164.06" rx="18.86" ry="18.83"/><path class="cls-11" d="M753.71,159.9a18.86,18.86,0,0,1-37.26,4.15,18.86,18.86,0,1,0,37.26-4.15Z" transform="translate(-107.17)"/><path class="cls-11" d="M717.66,157.44a16.9,16.9,0,0,0-.54,1.66l34.48,14.45c.29-.5.56-1,.81-1.54.09-.23.18-.45.26-.68L718,156.78Z" transform="translate(-107.17)"/><path class="cls-12" d="M717.92,156.77c-.16.38-.3.76-.43,1.15l34.7,14.54c.18-.36.36-.73.52-1.11s.3-.77.43-1.15l-34.7-14.55C718.26,156,718.08,156.39,717.92,156.77Z" transform="translate(-107.17)"/><path class="cls-9" d="M796.53,201.18q.45-.39.87-.81l.43-.44c.27-.28.52-.57.76-.86l.37-.44q.49-.63.93-1.29c.11-.17.2-.34.3-.51s.36-.6.53-.9l.33-.68c.13-.26.26-.53.37-.81s.2-.47.29-.71a1.08,1.08,0,0,0,.08-.19s0,0,0,0a18.82,18.82,0,0,0-27.24-22.75h0c-.35.2-.7.42-1,.65l-.5.36-.09.06-.12.1-.29.21h0l0,0c-.26.21-.53.41-.78.63-.05,0-.11.08-.15.13h0a18.55,18.55,0,0,0-3.27,3.78h0l-.11.19c-.26.4-.49.82-.72,1.23l-.24.49q-.26.51-.48,1.05c-.07.16-.14.32-.2.48-.19.5-.37,1-.52,1.51a1.16,1.16,0,0,0,0,.18,13.59,13.59,0,0,0-.34,1.4c0,.17-.06.35-.09.52-.07.38-.12.77-.17,1.15,0,.17,0,.34-.05.5,0,.54-.07,1.08-.07,1.62v.11c0,.51,0,1,.08,1.52l.06.5c0,.4.1.79.18,1.19,0,.16.05.33.09.49.11.54.24,1.07.4,1.6l0,0c.16.52.35,1,.55,1.53.07.16.14.31.2.47.17.38.35.75.55,1.13.08.15.15.3.24.45a16.23,16.23,0,0,0,.9,1.48,18.75,18.75,0,0,0,6.94,6.14c.55.28,1.1.53,1.66.76a17.38,17.38,0,0,0,1.72.58c.58.17,1.16.31,1.76.43a19.68,19.68,0,0,0,3.6.33,18.86,18.86,0,0,0,8.4-2h0l.17-.1c.3-.15.59-.32.88-.49l0,0v0l.3-.19.13-.08.09-.06c.18-.11.35-.21.52-.33.34-.23.67-.48,1-.73h0l.41-.33Z" transform="translate(-107.17)"/><ellipse class="cls-10" cx="675.04" cy="183.42" rx="18.86" ry="18.83"/><path class="cls-11" d="M800.61,179.27a18.87,18.87,0,0,1-37.26,4.15,18.86,18.86,0,1,0,37.26-4.15Z" transform="translate(-107.17)"/><path class="cls-11" d="M764.56,176.81c-.21.54-.38,1.1-.54,1.65l34.49,14.46a17.44,17.44,0,0,0,.8-1.55c.09-.22.18-.45.26-.67l-34.71-14.55Z" transform="translate(-107.17)"/><path class="cls-12" d="M764.82,176.13c-.16.38-.3.77-.43,1.15l34.7,14.55c.19-.37.36-.73.52-1.12s.3-.76.44-1.15L765.34,175C765.16,175.38,765,175.75,764.82,176.13Z" transform="translate(-107.17)"/><path class="cls-9" d="M591,166.9l.86-.8.44-.45c.26-.28.51-.57.76-.86l.36-.43c.33-.43.64-.86.93-1.3.11-.17.21-.34.31-.51s.36-.6.52-.9.23-.45.34-.67.25-.54.37-.81.2-.47.29-.71c0-.07.06-.13.08-.19s0,0,0,0A18.83,18.83,0,0,0,569,136.55h0c-.35.21-.69.42-1,.65l-.49.37-.09.06-.13.1-.28.2v0h0c-.27.21-.53.42-.78.64l-.16.12h0a19.25,19.25,0,0,0-3.28,3.79h0v0l-.12.19c-.25.4-.49.81-.71,1.23l-.24.48q-.26.53-.48,1.05c-.07.16-.14.32-.2.48-.19.5-.37,1-.52,1.52,0,.05,0,.12,0,.18-.13.46-.24.93-.33,1.4,0,.17-.07.34-.1.51-.06.39-.12.77-.16,1.16,0,.16,0,.33-.05.5a14.35,14.35,0,0,0-.07,1.61v.11c0,.51,0,1,.08,1.52,0,.17,0,.34.06.51,0,.39.1.79.17,1.18l.09.49c.12.54.25,1.08.41,1.61,0,0,0,0,0,.05.16.51.34,1,.55,1.52.06.16.13.31.2.47.17.38.35.76.54,1.13l.24.45c.28.51.58,1,.91,1.49a18.84,18.84,0,0,0,6.94,6.14,17.59,17.59,0,0,0,1.66.75c.56.22,1.13.42,1.71.59a18,18,0,0,0,1.76.42,19,19,0,0,0,3.61.33,18.69,18.69,0,0,0,8.39-2h0l.18-.1c.29-.15.58-.32.87-.49h0l.29-.19.14-.07.09-.07c.17-.11.35-.21.52-.33q.51-.34,1-.72h0l.41-.32Z" transform="translate(-107.17)"/><ellipse class="cls-10" cx="469.54" cy="149.15" rx="18.86" ry="18.83"/><path class="cls-11" d="M595.11,145a18.67,18.67,0,0,1-1.48,7.29,18.87,18.87,0,0,1-35.79-3.14A18.87,18.87,0,1,0,595.11,145Z" transform="translate(-107.17)"/><path class="cls-11" d="M559.06,142.53a16.9,16.9,0,0,0-.54,1.66L593,158.64c.29-.5.56-1,.81-1.54.09-.23.18-.45.26-.68l-34.71-14.55C559.25,142.09,559.16,142.31,559.06,142.53Z" transform="translate(-107.17)"/><path class="cls-12" d="M559.32,141.86c-.16.38-.3.76-.44,1.15l34.71,14.54c.18-.36.36-.73.52-1.11s.3-.77.43-1.15l-34.7-14.55C559.66,141.11,559.48,141.48,559.32,141.86Z" transform="translate(-107.17)"/><path class="cls-9" d="M637.93,186.27q.45-.39.87-.81l.43-.44c.27-.28.52-.57.76-.86l.37-.44c.32-.42.64-.85.92-1.29.11-.17.21-.34.31-.51s.36-.6.52-.9l.34-.68c.13-.26.25-.53.37-.81s.2-.47.29-.71a1.08,1.08,0,0,0,.08-.19.05.05,0,0,0,0,0,18.82,18.82,0,0,0-27.24-22.75h0c-.35.2-.7.42-1,.65l-.5.36-.09.06-.13.1-.28.21h0l0,0c-.27.21-.53.41-.78.63l-.16.13h0a18.55,18.55,0,0,0-3.27,3.78h0l-.11.19c-.26.4-.5.82-.72,1.23l-.24.49q-.26.51-.48,1.05c-.07.16-.14.32-.2.48-.19.5-.37,1-.52,1.51,0,.06,0,.12,0,.18-.13.46-.24.93-.33,1.4,0,.17-.07.35-.1.52-.06.38-.12.77-.16,1.15,0,.17,0,.34,0,.5-.05.54-.07,1.08-.07,1.62v.11c0,.51,0,1,.08,1.52l.06.5c0,.4.1.79.18,1.19,0,.16,0,.33.09.49.11.54.24,1.07.4,1.6,0,0,0,0,0,0,.16.52.35,1,.55,1.53.06.16.13.31.2.47.17.38.35.75.55,1.13.07.15.15.3.23.45.28.5.58,1,.91,1.48a18.75,18.75,0,0,0,6.94,6.14c.54.28,1.1.53,1.66.76a17.2,17.2,0,0,0,1.71.58c.58.17,1.17.31,1.77.43a19.68,19.68,0,0,0,3.6.33,18.86,18.86,0,0,0,8.4-2h0l.18-.1c.29-.15.58-.32.87-.49l0,0h0a2.82,2.82,0,0,0,.29-.18l.14-.08.09-.06c.17-.11.35-.21.52-.33.34-.23.67-.48,1-.73h0l.41-.33Z" transform="translate(-107.17)"/><ellipse class="cls-10" cx="516.44" cy="168.51" rx="18.86" ry="18.83"/><path class="cls-11" d="M642,164.36a18.87,18.87,0,0,1-37.26,4.15A18.86,18.86,0,1,0,642,164.36Z" transform="translate(-107.17)"/><path class="cls-11" d="M606,161.9a16.72,16.72,0,0,0-.54,1.65L639.9,178c.29-.49.56-1,.81-1.54.09-.22.18-.45.26-.67l-34.71-14.55C606.16,161.45,606.06,161.68,606,161.9Z" transform="translate(-107.17)"/><path class="cls-12" d="M606.22,161.22c-.16.38-.3.77-.43,1.15l34.7,14.55c.18-.37.36-.74.52-1.12s.3-.76.43-1.15l-34.7-14.54C606.56,160.47,606.38,160.84,606.22,161.22Z" transform="translate(-107.17)"/><path class="cls-9" d="M684.83,205.63c.3-.26.59-.52.87-.8l.43-.45c.27-.28.52-.56.76-.86l.37-.43c.33-.42.64-.85.93-1.3.11-.16.2-.34.3-.51s.36-.59.53-.9l.33-.67c.13-.27.26-.54.37-.81l.3-.71c0-.07.05-.13.07-.19l0,0a18.82,18.82,0,0,0-27.24-22.74v0c-.35.21-.7.42-1,.66-.17.11-.33.24-.5.36l-.09.06-.12.1-.28.2v0l0,0c-.26.2-.53.41-.78.63l-.15.12v0a18.86,18.86,0,0,0-3.27,3.78h0l-.11.19c-.26.4-.49.81-.72,1.23l-.24.49c-.17.34-.33.69-.48,1l-.2.48c-.19.5-.37,1-.52,1.52a1.16,1.16,0,0,0,0,.18c-.13.46-.25.93-.34,1.4,0,.17-.06.34-.09.52-.07.38-.12.76-.17,1.15,0,.16,0,.33,0,.5,0,.54-.07,1.07-.07,1.61v.12c0,.5,0,1,.08,1.52l.06.5c.05.4.11.79.18,1.18,0,.17,0,.33.09.49.11.54.24,1.08.4,1.61a.08.08,0,0,1,0,.05c.16.51.35,1,.55,1.53.07.15.14.31.2.46.17.38.35.76.55,1.13.08.15.15.31.24.46.28.5.57,1,.9,1.48a18.7,18.7,0,0,0,7,6.14,18.87,18.87,0,0,0,5.13,1.76,18.07,18.07,0,0,0,3.6.33,18.73,18.73,0,0,0,8.4-2h0l.17-.1c.3-.15.59-.32.88-.49h0l.3-.18.14-.08.08-.07.52-.32c.35-.24.67-.48,1-.73h0l.41-.32C684.56,205.88,684.69,205.76,684.83,205.63Z" transform="translate(-107.17)"/><path class="cls-10" d="M687.91,195.17a18.86,18.86,0,1,1-10.09-24.65A18.87,18.87,0,0,1,687.91,195.17Z" transform="translate(-107.17)"/><path class="cls-11" d="M688.91,183.72a18.86,18.86,0,0,1-37.26,4.15,18.86,18.86,0,1,0,37.26-4.15Z" transform="translate(-107.17)"/><path class="cls-11" d="M652.86,181.26c-.21.55-.38,1.1-.54,1.66l34.49,14.45a17.26,17.26,0,0,0,.8-1.54c.09-.23.18-.45.26-.68l-34.71-14.54Z" transform="translate(-107.17)"/><path class="cls-12" d="M653.12,180.59c-.16.38-.3.76-.43,1.15l34.7,14.55c.19-.37.36-.74.52-1.12s.3-.76.44-1.15l-34.71-14.55C653.46,179.84,653.28,180.21,653.12,180.59Z" transform="translate(-107.17)"/><path class="cls-9" d="M731.73,225q.45-.39.87-.81c.15-.14.29-.29.44-.44s.51-.57.76-.86l.36-.44q.5-.63.93-1.29c.11-.17.2-.34.31-.51s.35-.6.52-.9.23-.45.34-.68.25-.53.37-.81.2-.47.29-.71c0-.06.05-.12.08-.19l0,0a18.82,18.82,0,0,0-27.24-22.75h0c-.35.2-.7.42-1,.65l-.5.37-.09.05-.12.1-.28.21h0l0,0-.78.63-.15.13h0a18.6,18.6,0,0,0-3.28,3.78h0l-.11.19c-.25.41-.49.82-.71,1.23l-.25.49q-.25.53-.48,1c-.06.16-.13.32-.2.48-.19.5-.37,1-.52,1.51,0,.06,0,.12,0,.18-.13.47-.24.93-.34,1.4l-.09.52c-.07.38-.12.77-.16,1.15l-.06.51c0,.53-.07,1.07-.07,1.61,0,0,0,.07,0,.11,0,.51,0,1,.07,1.52l.06.5c0,.4.11.8.18,1.19l.09.49a15,15,0,0,0,.41,1.6.43.43,0,0,0,0,0c.16.52.35,1,.56,1.53.06.16.13.31.2.47.16.38.35.76.54,1.13.08.15.15.3.24.45.28.5.57,1,.9,1.49a18.87,18.87,0,0,0,6.95,6.14q.81.41,1.65.75c.57.22,1.14.42,1.72.59s1.17.31,1.76.42a19.76,19.76,0,0,0,3.6.33,18.86,18.86,0,0,0,8.4-2h0l.17-.1c.3-.15.59-.32.88-.49l0,0v0l.3-.19.14-.08.08-.06.53-.33c.34-.23.67-.48,1-.73h0l.41-.33C731.46,225.25,731.59,225.12,731.73,225Z" transform="translate(-107.17)"/><ellipse class="cls-10" cx="610.25" cy="207.25" rx="18.86" ry="18.83"/><path class="cls-11" d="M735.82,203.09a18.87,18.87,0,0,1-37.27,4.15,18.87,18.87,0,1,0,37.27-4.15Z" transform="translate(-107.17)"/><path class="cls-11" d="M699.76,200.63c-.2.55-.38,1.1-.53,1.65l34.48,14.46c.29-.5.56-1,.81-1.55l.25-.67L700.07,200C700,200.19,699.86,200.41,699.76,200.63Z" transform="translate(-107.17)"/><path class="cls-12" d="M700,200c-.16.39-.31.77-.44,1.15l34.71,14.55q.27-.54.51-1.11c.16-.39.31-.77.44-1.15l-34.71-14.55Q700.27,199.38,700,200Z" transform="translate(-107.17)"/><path class="cls-9" d="M778.63,244.37c.3-.27.59-.53.87-.81l.44-.44c.26-.28.51-.57.76-.87.12-.14.25-.28.36-.43.33-.42.64-.85.93-1.3.11-.16.2-.34.31-.51s.36-.59.52-.9.23-.44.34-.67.25-.54.37-.81.2-.47.29-.71a1.54,1.54,0,0,1,.08-.19l0,0A18.82,18.82,0,0,0,756.63,214v0c-.35.21-.7.42-1,.66-.17.11-.33.24-.5.36l-.09.06-.12.1-.28.2v0l0,0q-.41.3-.78.63l-.16.13h0a18.6,18.6,0,0,0-3.28,3.78h0l-.12.19c-.25.4-.49.81-.71,1.23-.09.16-.17.32-.25.49-.17.34-.32.69-.47,1-.07.16-.14.32-.2.49a15.82,15.82,0,0,0-.52,1.51c0,.06,0,.12-.05.18-.13.46-.24.93-.34,1.4l-.09.52c-.07.38-.12.76-.16,1.15,0,.17,0,.33-.05.5,0,.54-.08,1.07-.08,1.61,0,0,0,.08,0,.12,0,.5,0,1,.08,1.52,0,.16,0,.33.05.5,0,.4.11.79.18,1.19l.09.49c.12.53.25,1.07.41,1.6,0,0,0,0,0,0a15.61,15.61,0,0,0,.55,1.53c.06.15.13.31.2.46q.26.57.54,1.14l.24.45c.28.5.58,1,.91,1.48a18.67,18.67,0,0,0,6.94,6.14,16.51,16.51,0,0,0,1.66.75,17.26,17.26,0,0,0,1.71.59,18,18,0,0,0,1.76.42,18.57,18.57,0,0,0,12-1.7h0l.17-.09c.3-.16.59-.33.88-.5h0l.29-.18.14-.08.09-.07.52-.32c.34-.23.67-.48,1-.73h0l.41-.33Z" transform="translate(-107.17)"/><ellipse class="cls-10" cx="657.15" cy="226.61" rx="18.86" ry="18.83"/><path class="cls-11" d="M782.72,222.45a18.87,18.87,0,0,1-37.27,4.15,18.87,18.87,0,1,0,37.27-4.15Z" transform="translate(-107.17)"/><path class="cls-11" d="M746.67,220a16.9,16.9,0,0,0-.54,1.66l34.48,14.45c.29-.5.56-1,.81-1.54.09-.23.18-.45.25-.68L747,219.34C746.86,219.55,746.77,219.77,746.67,220Z" transform="translate(-107.17)"/><path class="cls-12" d="M746.93,219.32c-.16.38-.3.77-.44,1.15L781.2,235c.18-.37.36-.74.52-1.12s.3-.76.43-1.15l-34.7-14.54C747.26,218.57,747.09,218.94,746.93,219.32Z" transform="translate(-107.17)"/><path class="cls-8" d="M1378.28,36.9,1173,145.18a19.69,19.69,0,0,0-8.23,26.64l35.67,67.38a19.76,19.76,0,0,0,26.68,8.21L1432.4,139.13a19.68,19.68,0,0,0,8.23-26.63L1405,45.11A19.76,19.76,0,0,0,1378.28,36.9Z" transform="translate(-107.17)"/><path class="cls-9" d="M1223.93,167.44c0-.39,0-.79-.06-1.18,0-.21,0-.41-.07-.62,0-.38-.11-.76-.18-1.13,0-.19-.06-.37-.1-.56-.12-.52-.25-1-.41-1.54-.06-.19-.13-.37-.19-.56s-.23-.66-.37-1-.19-.46-.3-.69-.25-.53-.39-.8-.23-.45-.36-.67a1.74,1.74,0,0,0-.1-.19.08.08,0,0,1,0,0,18.84,18.84,0,0,0-34.92,6.41h0c-.07.4-.12.81-.16,1.22,0,.2,0,.41,0,.61,0,0,0,.07,0,.11v.16c0,.11,0,.23,0,.35h0v0c0,.33,0,.67,0,1v.2h0a18.78,18.78,0,0,0,.83,4.93h0a1.8,1.8,0,0,0,.08.21c.14.46.31.9.49,1.34.07.16.14.33.22.5.16.35.32.69.5,1,.08.16.16.31.25.46.26.47.53.93.83,1.37l.11.15c.27.39.56.78.86,1.15l.34.4c.26.3.52.58.79.86.12.12.23.25.35.36.39.38.78.74,1.2,1.09l.09.07c.39.32.8.62,1.22.91l.43.27q.5.33,1,.63l.44.24c.49.25,1,.5,1.5.71l0,0c.5.21,1,.39,1.54.55l.48.14c.4.12.81.22,1.22.31l.5.1a16.37,16.37,0,0,0,1.73.25,18.75,18.75,0,0,0,9.16-1.41c.56-.24,1.11-.5,1.64-.79s1.05-.61,1.55-.94,1-.7,1.45-1.09a18.65,18.65,0,0,0,6.35-10.31h0c0-.07,0-.14,0-.2.07-.33.12-.66.18-1v0h0c0-.11,0-.23,0-.34a.76.76,0,0,0,0-.16s0-.07,0-.1c0-.21.06-.41.08-.61,0-.41.06-.82.07-1.23h0c0-.18,0-.35,0-.52S1223.94,167.63,1223.93,167.44Z" transform="translate(-107.17)"/><path class="cls-13" d="M1217.83,158.39a18.86,18.86,0,1,1-25.45-8A18.81,18.81,0,0,1,1217.83,158.39Z" transform="translate(-107.17)"/><path class="cls-14" d="M1209.64,150.32a18.84,18.84,0,0,1-20.59,31.28,18.85,18.85,0,1,0,20.59-31.28Z" transform="translate(-107.17)"/><path class="cls-14" d="M1184.73,176.45q.43.75.93,1.47l33.16-17.27c-.2-.54-.42-1.08-.67-1.61-.12-.21-.23-.42-.36-.63l-33.37,17.38Z" transform="translate(-107.17)"/><path class="cls-15" d="M1184.38,175.81c.19.37.4.72.61,1.07l33.37-17.38c-.16-.37-.34-.74-.53-1.11s-.4-.72-.61-1.06l-33.37,17.38C1184,175.08,1184.19,175.45,1184.38,175.81Z" transform="translate(-107.17)"/><path class="cls-9" d="M1268.81,143.77c0-.4,0-.79-.07-1.18l-.06-.62q-.08-.57-.18-1.14c0-.18-.07-.37-.11-.55-.11-.52-.25-1-.4-1.54-.06-.19-.13-.38-.2-.56-.11-.33-.23-.66-.36-1l-.3-.69-.39-.8-.36-.68a1.62,1.62,0,0,1-.1-.18s0,0,0,0a18.85,18.85,0,0,0-34.93,6.41h0c-.06.4-.12.8-.16,1.22,0,.2,0,.4,0,.61,0,0,0,.07,0,.11v.15c0,.12,0,.24,0,.35h0v0c0,.34,0,.67,0,1,0,.06,0,.13,0,.2h0a18.77,18.77,0,0,0,.82,4.93h0c0,.07,0,.14.07.21.15.45.31.9.5,1.33.06.17.14.34.21.5.16.35.33.7.51,1l.24.46c.26.46.54.92.83,1.36l.11.15c.28.4.57.78.87,1.16.11.13.22.27.34.4.25.29.51.58.78.86l.36.36c.38.38.78.74,1.19,1.08l.09.07c.4.32.81.62,1.23.91l.42.28c.34.22.68.43,1,.62.14.08.29.17.44.24.48.26,1,.5,1.49.72h0c.5.21,1,.39,1.53.56l.49.14c.4.11.81.22,1.22.3l.5.11a16.19,16.19,0,0,0,1.72.25,18.8,18.8,0,0,0,9.17-1.41c.56-.24,1.1-.51,1.64-.8s1-.6,1.54-.94,1-.7,1.45-1.08a19.35,19.35,0,0,0,2.56-2.56,18.57,18.57,0,0,0,3.79-7.75h0l0-.19q.11-.5.18-1v0h0c0-.11,0-.23.05-.34l0-.16v-.11c0-.2.06-.4.08-.61,0-.41.06-.82.08-1.22h0c0-.18,0-.35,0-.53S1268.81,144,1268.81,143.77Z" transform="translate(-107.17)"/><ellipse class="cls-13" cx="1245.98" cy="143.43" rx="18.83" ry="18.86" transform="translate(993.21 1389.16) rotate(-89.9)"/><path class="cls-14" d="M1254.52,126.64a18.84,18.84,0,0,1-20.59,31.28,18.85,18.85,0,1,0,20.59-31.28Z" transform="translate(-107.17)"/><path class="cls-14" d="M1229.61,152.77q.44.76.93,1.47L1263.7,137a17,17,0,0,0-.68-1.6c-.11-.21-.23-.42-.35-.63l-33.38,17.38C1229.39,152.34,1229.5,152.56,1229.61,152.77Z" transform="translate(-107.17)"/><path class="cls-15" d="M1229.25,152.14c.2.37.4.72.61,1.07l33.38-17.38c-.17-.37-.34-.74-.53-1.11s-.4-.72-.61-1.07L1228.72,151C1228.89,151.4,1229.06,151.77,1229.25,152.14Z" transform="translate(-107.17)"/><path class="cls-9" d="M1313.68,120.1c0-.4,0-.79-.07-1.18a6.2,6.2,0,0,0-.06-.62c0-.39-.11-.76-.18-1.14,0-.18-.06-.37-.1-.56-.12-.52-.25-1-.41-1.54-.06-.19-.13-.37-.19-.56s-.24-.65-.37-1a7.17,7.17,0,0,0-.3-.69c-.12-.27-.25-.54-.39-.8s-.23-.46-.36-.68a1,1,0,0,0-.1-.18s0,0,0,0a18.84,18.84,0,0,0-34.92,6.4h0c-.07.41-.12.81-.16,1.22,0,.21,0,.41,0,.62,0,0,0,.07,0,.1a.86.86,0,0,0,0,.16c0,.12,0,.23,0,.35h0v0c0,.34,0,.67,0,1v.2h0a18.85,18.85,0,0,0,.83,4.94h0v0a1.8,1.8,0,0,0,.08.21c.14.45.31.89.49,1.33.07.17.14.33.22.5.16.35.32.69.5,1l.24.46c.27.47.54.93.84,1.37l.11.15c.27.4.56.78.86,1.15.11.14.23.27.34.4.26.3.52.59.79.87l.35.36c.39.37.78.74,1.2,1.08l.09.07c.39.32.8.62,1.22.91l.43.28c.33.21.67.42,1,.62l.44.24a15.83,15.83,0,0,0,1.5.71l0,0c.5.21,1,.39,1.53.55l.49.14c.4.12.81.22,1.22.31l.5.11c.57.1,1.14.19,1.73.25a18.88,18.88,0,0,0,9.16-1.42c.56-.24,1.11-.5,1.64-.79s1.05-.6,1.55-.94,1-.7,1.45-1.09a18.7,18.7,0,0,0,6.35-10.3h0c0-.07,0-.13,0-.2.07-.32.12-.65.18-1v0h0c0-.12,0-.23,0-.35l0-.15s0-.08,0-.11c0-.2.06-.41.08-.61,0-.41.06-.82.07-1.23h0c0-.17,0-.35,0-.52S1313.69,120.28,1313.68,120.1Z" transform="translate(-107.17)"/><path class="cls-13" d="M1307.58,111.05a18.86,18.86,0,1,1-25.45-8A18.8,18.8,0,0,1,1307.58,111.05Z" transform="translate(-107.17)"/><path class="cls-14" d="M1299.39,103a18.84,18.84,0,0,1-20.59,31.28A18.85,18.85,0,1,0,1299.39,103Z" transform="translate(-107.17)"/><path class="cls-14" d="M1274.48,129.1q.43.77.93,1.47l33.16-17.27c-.2-.54-.42-1.08-.67-1.6-.12-.21-.23-.43-.36-.63l-33.37,17.38C1274.27,128.67,1274.38,128.88,1274.48,129.1Z" transform="translate(-107.17)"/><path class="cls-15" d="M1274.13,128.47c.19.36.4.72.61,1.07l33.37-17.38c-.16-.38-.34-.75-.53-1.11s-.4-.72-.61-1.07l-33.37,17.38C1273.76,127.73,1273.94,128.1,1274.13,128.47Z" transform="translate(-107.17)"/><path class="cls-9" d="M1358.56,96.42c0-.39,0-.79-.07-1.18,0-.21,0-.41-.07-.62a10.63,10.63,0,0,0-.18-1.13c0-.19-.06-.38-.1-.56-.11-.52-.25-1-.4-1.54-.06-.19-.14-.37-.2-.56s-.23-.66-.36-1l-.3-.69-.39-.8-.36-.68a1.62,1.62,0,0,1-.1-.18s0,0,0,0A18.85,18.85,0,0,0,1321.11,94h0c-.06.4-.12.81-.16,1.22,0,.2,0,.41,0,.61,0,0,0,.07,0,.11v.16c0,.11,0,.23,0,.34h0v0c0,.33,0,.67,0,1,0,.07,0,.13,0,.2h0a18.77,18.77,0,0,0,.82,4.93h0c0,.07,0,.14.07.21.15.45.31.9.49,1.34l.22.49c.16.36.33.7.51,1,.08.15.15.31.24.46.26.47.53.92.83,1.37l.11.15c.28.39.57.78.87,1.15.11.14.22.27.34.4.25.3.51.58.78.86l.36.36c.38.38.78.74,1.19,1.09l.09.07c.4.32.81.62,1.23.91l.42.27c.34.22.68.43,1,.62l.43.25c.49.25,1,.49,1.5.71l0,0c.5.2,1,.38,1.53.55l.49.14c.4.12.81.22,1.22.31l.5.1a16.19,16.19,0,0,0,1.72.25,18.8,18.8,0,0,0,9.17-1.41c.56-.24,1.1-.5,1.64-.79s1-.61,1.54-.95a17,17,0,0,0,1.45-1.08,18.65,18.65,0,0,0,6.35-10.31h0l0-.2q.11-.49.18-1v0h0c0-.11,0-.23.05-.34l0-.16v-.11c0-.2.06-.4.08-.6,0-.42.06-.82.08-1.23h0c0-.18,0-.35,0-.52S1358.56,96.61,1358.56,96.42Z" transform="translate(-107.17)"/><path class="cls-13" d="M1352.46,87.37a18.86,18.86,0,1,1-25.46-8A18.83,18.83,0,0,1,1352.46,87.37Z" transform="translate(-107.17)"/><path class="cls-14" d="M1344.27,79.3a18.84,18.84,0,0,1-20.59,31.28,18.85,18.85,0,1,0,20.59-31.28Z" transform="translate(-107.17)"/><path class="cls-14" d="M1319.35,105.43c.3.5.61,1,.94,1.47l33.16-17.27c-.2-.54-.43-1.08-.68-1.61l-.35-.63L1319,104.77Z" transform="translate(-107.17)"/><path class="cls-15" d="M1319,104.79c.2.37.4.72.61,1.07L1353,88.48c-.16-.37-.33-.74-.52-1.11s-.4-.72-.61-1.06l-33.38,17.37C1318.64,104.06,1318.81,104.43,1319,104.79Z" transform="translate(-107.17)"/><path class="cls-9" d="M1403.43,72.75c0-.4,0-.79-.07-1.18,0-.21,0-.42-.06-.62q-.08-.57-.18-1.14c0-.18-.06-.37-.1-.55-.12-.52-.25-1-.41-1.54-.06-.19-.13-.38-.2-.57s-.23-.65-.36-1-.2-.46-.3-.69-.25-.54-.39-.8-.23-.46-.36-.68a1.62,1.62,0,0,0-.1-.18.06.06,0,0,1,0,0A18.85,18.85,0,0,0,1366,70.28h0c-.07.4-.12.8-.16,1.21,0,.21,0,.41,0,.62,0,0,0,.07,0,.1a.85.85,0,0,0,0,.16l0,.35h0v0c0,.34,0,.67,0,1V74h0a18.78,18.78,0,0,0,.83,4.93h0a1.8,1.8,0,0,0,.08.21c.14.45.31.89.49,1.33.07.17.14.33.22.5.16.35.32.7.5,1l.24.46c.27.46.54.92.84,1.36l.11.15c.27.4.56.78.86,1.16.11.13.23.26.34.4.26.29.52.58.79.86l.35.36c.39.38.78.74,1.2,1.08l.09.07c.39.32.8.62,1.22.91l.43.28c.33.22.67.42,1,.62.15.08.29.17.44.24.49.26,1,.5,1.49.72h0c.5.21,1,.39,1.53.56l.49.14c.4.11.81.21,1.22.3l.5.11c.57.11,1.14.19,1.73.25a18.76,18.76,0,0,0,9.16-1.41c.56-.24,1.11-.51,1.64-.8s1.05-.6,1.55-.94,1-.7,1.45-1.08a19.28,19.28,0,0,0,2.55-2.56,18.71,18.71,0,0,0,3.8-7.75h0c0-.06,0-.13,0-.19.07-.33.12-.66.18-1v0h0c0-.11,0-.23,0-.34l0-.16s0-.07,0-.11c0-.2.06-.4.08-.61,0-.41.06-.82.07-1.23h0c0-.17,0-.34,0-.52S1403.44,72.93,1403.43,72.75Z" transform="translate(-107.17)"/><path class="cls-13" d="M1397.33,63.7a18.86,18.86,0,1,1-25.45-8A18.82,18.82,0,0,1,1397.33,63.7Z" transform="translate(-107.17)"/><path class="cls-14" d="M1389.14,55.62a18.84,18.84,0,0,1-20.59,31.28,18.85,18.85,0,1,0,20.59-31.28Z" transform="translate(-107.17)"/><path class="cls-14" d="M1364.23,81.75q.43.77.93,1.47L1398.32,66c-.2-.54-.42-1.07-.67-1.6-.12-.21-.24-.43-.36-.63L1363.92,81.1C1364,81.32,1364.12,81.53,1364.23,81.75Z" transform="translate(-107.17)"/><path class="cls-15" d="M1363.88,81.12c.19.37.4.72.61,1.07l33.37-17.38c-.17-.37-.34-.74-.53-1.11s-.4-.72-.61-1.07L1363.35,80C1363.51,80.38,1363.69,80.75,1363.88,81.12Z" transform="translate(-107.17)"/><path class="cls-9" d="M1245.81,208.76c0-.39,0-.79-.07-1.18l-.06-.62c0-.38-.11-.76-.18-1.13,0-.19-.07-.37-.11-.56-.11-.52-.24-1-.4-1.54-.06-.19-.13-.37-.2-.56s-.23-.66-.36-1-.2-.46-.3-.69l-.39-.8-.36-.67c0-.06-.06-.13-.1-.19s0,0,0,0a18.85,18.85,0,0,0-34.93,6.41h0c-.06.4-.12.81-.16,1.22,0,.2,0,.41,0,.61,0,0,0,.07,0,.11a.85.85,0,0,1,0,.16c0,.11,0,.23,0,.35h0v0c0,.33,0,.67,0,1a1.34,1.34,0,0,0,0,.2h0a18.38,18.38,0,0,0,.83,4.93h0l.07.21c.15.46.32.9.5,1.34.07.16.14.33.22.5.15.35.32.69.5,1l.24.46c.26.47.54.93.84,1.37l.11.15c.27.39.56.78.86,1.15.11.14.23.27.34.4.25.3.51.58.78.86l.36.36a15.51,15.51,0,0,0,1.2,1.09l.09.07c.39.32.8.62,1.22.91l.42.28c.34.21.68.42,1,.62l.44.24c.48.25,1,.5,1.49.71l0,0c.5.21,1,.39,1.53.55l.49.14c.4.12.81.22,1.22.31l.5.1a16.57,16.57,0,0,0,1.72.25,18.8,18.8,0,0,0,9.17-1.41c.56-.24,1.11-.5,1.64-.79s1-.61,1.55-.94a17,17,0,0,0,1.44-1.09,18.77,18.77,0,0,0,2.56-2.56,18.52,18.52,0,0,0,3.79-7.75h0l0-.2c.07-.32.13-.66.18-1v0h0c0-.12,0-.24.05-.35l0-.16v-.1c0-.21.07-.41.08-.61,0-.41.06-.82.08-1.23h0c0-.18,0-.35,0-.52S1245.81,209,1245.81,208.76Z" transform="translate(-107.17)"/><path class="cls-13" d="M1239.71,199.71a18.86,18.86,0,1,1-25.45-8A18.82,18.82,0,0,1,1239.71,199.71Z" transform="translate(-107.17)"/><path class="cls-14" d="M1231.52,191.64a18.84,18.84,0,0,1-20.59,31.28,18.85,18.85,0,1,0,20.59-31.28Z" transform="translate(-107.17)"/><path class="cls-14" d="M1206.61,217.77c.29.51.6,1,.93,1.47L1240.7,202c-.2-.54-.42-1.08-.67-1.61l-.36-.62-33.37,17.37C1206.39,217.33,1206.5,217.55,1206.61,217.77Z" transform="translate(-107.17)"/><path class="cls-15" d="M1206.26,217.14c.19.36.39.72.6,1.06l33.38-17.38c-.17-.37-.34-.74-.53-1.11s-.4-.72-.61-1.06L1205.73,216C1205.89,216.4,1206.06,216.77,1206.26,217.14Z" transform="translate(-107.17)"/><path class="cls-9" d="M1290.68,185.09c0-.4,0-.79-.06-1.18,0-.21,0-.41-.07-.62q-.08-.57-.18-1.14c0-.18-.06-.37-.1-.55-.12-.52-.25-1-.41-1.54,0-.19-.13-.38-.19-.56-.12-.33-.23-.66-.37-1s-.19-.46-.3-.69-.25-.54-.39-.8-.23-.46-.36-.68l-.09-.18a.06.06,0,0,0,0,0,18.85,18.85,0,0,0-34.93,6.41h0c-.07.4-.12.8-.16,1.22,0,.2,0,.4,0,.61,0,0,0,.07,0,.11v.15c0,.12,0,.24,0,.35h0v0c0,.34,0,.67,0,1v.2h0a18.78,18.78,0,0,0,.83,4.93h0l.08.21c.14.45.31.9.49,1.33.07.17.15.34.22.5.16.35.32.7.5,1,.08.15.16.31.25.46.26.46.53.92.83,1.36a.83.83,0,0,0,.11.15c.27.4.56.78.87,1.16l.33.4c.26.29.52.58.79.86l.35.36c.39.38.78.74,1.2,1.08l.09.07c.39.32.8.63,1.22.91l.43.28c.33.22.68.43,1,.62.14.08.28.17.43.24.49.26,1,.5,1.5.72l0,0c.49.2,1,.38,1.53.55l.48.14c.4.11.81.22,1.22.3l.5.11a16.37,16.37,0,0,0,1.73.25,18.75,18.75,0,0,0,9.16-1.41c.56-.24,1.11-.51,1.64-.8s1.05-.6,1.55-.94,1-.7,1.45-1.08a19.35,19.35,0,0,0,2.56-2.56,18.82,18.82,0,0,0,3.79-7.75h0c0-.06,0-.13,0-.19.07-.33.12-.66.18-1v0h0c0-.11,0-.23,0-.34a1.1,1.1,0,0,0,0-.16.41.41,0,0,0,0-.11c0-.2.06-.4.08-.61,0-.41.06-.82.07-1.22h0c0-.18,0-.35,0-.53S1290.69,185.27,1290.68,185.09Z" transform="translate(-107.17)"/><path class="cls-13" d="M1284.58,176a18.86,18.86,0,1,1-25.45-8A18.82,18.82,0,0,1,1284.58,176Z" transform="translate(-107.17)"/><path class="cls-14" d="M1276.4,168a19,19,0,0,1,4.67,5.79,18.84,18.84,0,0,1-25.26,25.49A18.84,18.84,0,1,0,1276.4,168Z" transform="translate(-107.17)"/><path class="cls-14" d="M1251.48,194.09a16,16,0,0,0,.94,1.47l33.15-17.26c-.2-.55-.42-1.08-.67-1.61-.12-.21-.23-.42-.36-.63l-33.37,17.38C1251.27,193.66,1251.38,193.88,1251.48,194.09Z" transform="translate(-107.17)"/><path class="cls-15" d="M1251.13,193.46c.19.37.4.72.61,1.07l33.37-17.38c-.16-.37-.34-.74-.53-1.11s-.4-.72-.61-1.07l-33.37,17.38C1250.77,192.72,1250.94,193.1,1251.13,193.46Z" transform="translate(-107.17)"/><path class="cls-9" d="M1335.56,161.42c0-.4,0-.79-.07-1.18l-.06-.62c0-.39-.11-.76-.18-1.14,0-.18-.07-.37-.11-.56-.11-.52-.24-1-.4-1.54-.06-.19-.13-.37-.2-.56s-.23-.65-.36-1l-.3-.69-.39-.8-.36-.68a1.62,1.62,0,0,1-.1-.18s0,0,0,0a18.84,18.84,0,0,0-34.93,6.4h0c-.06.41-.12.81-.16,1.22,0,.21,0,.41,0,.62,0,0,0,.07,0,.1V161c0,.12,0,.23,0,.35h0v0c0,.34,0,.67,0,1a1.33,1.33,0,0,0,0,.2h0a18.85,18.85,0,0,0,.82,4.94h0v0l.07.21c.15.45.32.89.5,1.33l.21.5c.16.35.33.69.51,1l.24.47c.26.46.54.92.83,1.36l.11.15c.28.4.57.78.87,1.15l.34.41c.25.29.51.58.78.86l.36.36c.38.37.78.74,1.19,1.08l.1.07c.39.32.8.62,1.22.91l.42.28c.34.22.68.42,1,.62l.44.24a15.66,15.66,0,0,0,1.49.71l0,0c.5.21,1,.39,1.53.55l.49.14c.4.12.81.22,1.22.31l.5.11c.56.1,1.14.19,1.72.25a18.92,18.92,0,0,0,9.17-1.42c.56-.24,1.1-.5,1.64-.79s1-.6,1.54-.94a15.68,15.68,0,0,0,1.45-1.09,18.53,18.53,0,0,0,6.35-10.3h0l0-.2q.11-.48.18-1v0h0c0-.12,0-.23.05-.35l0-.15v-.11c0-.2.06-.41.08-.61,0-.41.06-.82.08-1.23h0c0-.17,0-.35,0-.52S1335.56,161.6,1335.56,161.42Z" transform="translate(-107.17)"/><path class="cls-13" d="M1329.46,152.37a18.86,18.86,0,1,1-25.45-8A18.81,18.81,0,0,1,1329.46,152.37Z" transform="translate(-107.17)"/><path class="cls-14" d="M1321.27,144.29a18.84,18.84,0,0,1-20.59,31.28,18.85,18.85,0,1,0,20.59-31.28Z" transform="translate(-107.17)"/><path class="cls-14" d="M1296.36,170.42q.44.77.93,1.47l33.16-17.27a17,17,0,0,0-.68-1.6c-.11-.21-.23-.43-.35-.63L1296,169.77C1296.14,170,1296.25,170.2,1296.36,170.42Z" transform="translate(-107.17)"/><path class="cls-15" d="M1296,169.79c.19.36.39.72.6,1.07L1330,153.48c-.17-.38-.34-.75-.53-1.11s-.4-.72-.61-1.07l-33.37,17.38C1295.64,169.05,1295.81,169.42,1296,169.79Z" transform="translate(-107.17)"/><path class="cls-9" d="M1380.43,137.74c0-.39,0-.79-.06-1.18,0-.21,0-.41-.07-.62,0-.38-.11-.76-.18-1.13,0-.19-.06-.38-.1-.56-.12-.52-.25-1-.41-1.54-.06-.19-.13-.37-.19-.56s-.23-.66-.37-1-.19-.46-.3-.69-.25-.53-.39-.8-.23-.45-.36-.68a1.62,1.62,0,0,0-.1-.18.08.08,0,0,1,0,0,18.84,18.84,0,0,0-34.92,6.41h0c-.07.4-.12.81-.16,1.22,0,.2,0,.41,0,.61,0,0,0,.07,0,.11v.16c0,.11,0,.23,0,.34h0v0c0,.33,0,.67,0,1v.2h0a18.78,18.78,0,0,0,.83,4.93h0a1.8,1.8,0,0,0,.08.21c.14.45.31.9.49,1.34.07.16.14.33.22.49.16.36.32.7.5,1,.08.15.16.31.25.46.26.47.53.93.83,1.37l.11.15c.27.39.56.78.86,1.15l.34.4c.26.3.52.58.79.86.12.12.23.25.35.36.39.38.78.74,1.2,1.09l.09.07c.39.32.8.62,1.22.91l.43.27c.33.22.67.43,1,.62l.44.25c.49.25,1,.5,1.5.71l0,0c.5.2,1,.38,1.54.55l.48.14c.4.12.81.22,1.22.31l.5.1a16.37,16.37,0,0,0,1.73.25,18.75,18.75,0,0,0,9.16-1.41c.56-.24,1.11-.5,1.64-.79s1.05-.61,1.55-.95,1-.7,1.45-1.08a18.65,18.65,0,0,0,6.35-10.31h0c0-.07,0-.14,0-.2.07-.33.12-.66.18-1v0h0c0-.11,0-.23,0-.34a.76.76,0,0,0,0-.16s0-.07,0-.11c0-.2.06-.4.08-.6,0-.42.06-.82.07-1.23h0c0-.18,0-.35,0-.52S1380.44,137.93,1380.43,137.74Z" transform="translate(-107.17)"/><path class="cls-13" d="M1374.33,128.69a18.86,18.86,0,1,1-25.45-8A18.82,18.82,0,0,1,1374.33,128.69Z" transform="translate(-107.17)"/><path class="cls-14" d="M1366.14,120.62a18.84,18.84,0,0,1-20.59,31.28,18.85,18.85,0,1,0,20.59-31.28Z" transform="translate(-107.17)"/><path class="cls-14" d="M1341.23,146.75q.43.75.93,1.47L1375.32,131c-.2-.54-.42-1.08-.67-1.61-.12-.21-.23-.42-.36-.63l-33.37,17.38Z" transform="translate(-107.17)"/><path class="cls-15" d="M1340.88,146.11c.19.37.4.72.61,1.07l33.37-17.38c-.16-.37-.34-.74-.53-1.11s-.4-.72-.61-1.06L1340.35,145C1340.52,145.38,1340.69,145.75,1340.88,146.11Z" transform="translate(-107.17)"/><path class="cls-9" d="M1425.31,114.07c0-.4,0-.79-.07-1.18l-.06-.62q-.08-.57-.18-1.14c0-.18-.07-.37-.11-.55-.11-.52-.25-1-.4-1.54-.06-.19-.13-.38-.2-.57s-.23-.65-.36-1l-.3-.69-.39-.8-.36-.68a1.62,1.62,0,0,1-.1-.18v0a18.85,18.85,0,0,0-34.93,6.41h0c-.06.4-.12.8-.16,1.21,0,.21,0,.41,0,.62,0,0,0,.07,0,.1v.16c0,.12,0,.24,0,.35h0v0c0,.34,0,.67,0,1,0,.06,0,.13,0,.2h0a18.77,18.77,0,0,0,.82,4.93h0c0,.07,0,.14.07.21.15.45.31.9.49,1.33.07.17.15.34.22.5.16.35.33.7.51,1l.24.46c.26.46.54.92.83,1.36l.11.15c.28.4.57.78.87,1.16l.34.4c.25.29.51.58.78.86l.36.36c.38.38.78.74,1.19,1.08l.09.07c.4.32.81.62,1.23.91l.42.28c.34.22.68.42,1,.62.14.08.29.17.44.24.48.26,1,.5,1.49.72h0c.5.21,1,.39,1.53.56l.49.14c.4.11.81.21,1.22.3l.5.11a16.19,16.19,0,0,0,1.72.25,18.8,18.8,0,0,0,9.17-1.41c.56-.24,1.1-.51,1.64-.8s1-.6,1.54-.94,1-.7,1.45-1.08a19.35,19.35,0,0,0,2.56-2.56,18.57,18.57,0,0,0,3.79-7.75h0l0-.19q.11-.49.18-1v0h0c0-.11,0-.23.05-.34l0-.16V117c0-.2.06-.4.08-.61,0-.41.06-.82.08-1.22h0c0-.17,0-.34,0-.52S1425.31,114.25,1425.31,114.07Z" transform="translate(-107.17)"/><ellipse class="cls-13" cx="1402.48" cy="113.73" rx="18.86" ry="18.83" transform="translate(-107.29 1.42) rotate(-0.06)"/><path class="cls-14" d="M1411,96.94a18.84,18.84,0,0,1-20.59,31.28A18.85,18.85,0,1,0,1411,96.94Z" transform="translate(-107.17)"/><path class="cls-14" d="M1386.11,123.07q.44.77.93,1.47l33.16-17.27a17,17,0,0,0-.68-1.6c-.11-.21-.23-.42-.35-.63l-33.38,17.38C1385.89,122.64,1386,122.85,1386.11,123.07Z" transform="translate(-107.17)"/><path class="cls-15" d="M1385.75,122.44c.2.37.4.72.61,1.07l33.38-17.38c-.17-.37-.34-.74-.53-1.11s-.4-.72-.61-1.07l-33.38,17.38C1385.39,121.7,1385.56,122.07,1385.75,122.44Z" transform="translate(-107.17)"/><path class="cls-13" d="M1048.32,317.07l-8.53-21a13.81,13.81,0,0,0-25.6,10.37l8.52,21Z" transform="translate(-107.17)"/><path class="cls-10" d="M1022.71,327.44l8.32,20.44a13.81,13.81,0,0,0,25.6-10.37l-8.31-20.44Z" transform="translate(-107.17)"/><path class="cls-14" d="M1027,325.71l-7.27-17.89a13.79,13.79,0,0,1,13.25-19,13.79,13.79,0,0,0-18.77,17.6l8.52,21Z" transform="translate(-107.17)"/><path class="cls-11" d="M1043.37,356.47a13.72,13.72,0,0,1-6.82-7.23L1027,325.71l-4.27,1.73,8.32,20.44A13.78,13.78,0,0,0,1043.37,356.47Z" transform="translate(-107.17)"/><path class="cls-13" d="M1124,290.32l-20.75-9.13a13.79,13.79,0,1,0-11.15,25.23l20.76,9.14Z" transform="translate(-107.17)"/><path class="cls-10" d="M1112.86,315.56l20.22,8.9a13.8,13.8,0,1,0,11.15-25.24l-20.23-8.9Z" transform="translate(-107.17)"/><path class="cls-14" d="M1114.71,311.35,1097,303.56a13.76,13.76,0,0,1-3.71-22.82,13.77,13.77,0,0,0-1.21,25.68l20.76,9.14Z" transform="translate(-107.17)"/><path class="cls-11" d="M1147.94,322a13.78,13.78,0,0,1-10-.44l-23.28-10.25-1.85,4.21,20.22,8.9A13.83,13.83,0,0,0,1147.94,322Z" transform="translate(-107.17)"/><ellipse class="cls-16" cx="248.74" cy="719.1" rx="20.72" ry="20.68"/><path class="cls-17" d="M376.61,718.29a20.72,20.72,0,0,1-41.07-3,20.71,20.71,0,1,0,41.07,3Z" transform="translate(-107.17)"/><path class="cls-17" d="M338.18,708.43c-.34.55-.64,1.11-.92,1.68L371.6,732.6a17.73,17.73,0,0,0,1.18-1.5c.14-.23.28-.45.41-.68l-34.56-22.64Z" transform="translate(-107.17)"/><path class="cls-18" d="M338.59,707.76c-.25.38-.48.76-.7,1.15l34.56,22.64c.27-.36.53-.72.78-1.1s.48-.77.7-1.15l-34.55-22.64C339.11,707,338.84,707.38,338.59,707.76Z" transform="translate(-107.17)"/><ellipse class="cls-16" cx="586.14" cy="884.24" rx="20.72" ry="20.68"/><path class="cls-17" d="M706.27,868.11a20.7,20.7,0,0,1-29.18,29,20.7,20.7,0,1,0,29.18-29Z" transform="translate(-107.17)"/><path class="cls-17" d="M673.61,890.61c.19.61.42,1.2.67,1.79l39.53-11.13a18.34,18.34,0,0,0-.37-1.88c-.08-.25-.15-.5-.24-.75l-39.78,11.2C673.47,890.09,673.54,890.35,673.61,890.61Z" transform="translate(-107.17)"/><path class="cls-18" d="M673.37,889.85c.12.44.27.86.41,1.28l39.79-11.19c-.1-.44-.2-.88-.32-1.31s-.27-.87-.42-1.29l-39.78,11.2C673.15,889,673.25,889.41,673.37,889.85Z" transform="translate(-107.17)"/><path class="cls-4" d="M849.08,1011.39l-.26-.28a1.71,1.71,0,0,0-.11-.14l-.08-.08-.46-.51c-.31-.32-.64-.63-1-.93h0c-.14-.13-.28-.26-.43-.38s-.31-.26-.47-.39c-.34-.27-.68-.54-1-.79l-.57-.39c-.35-.23-.71-.45-1.07-.66l-.54-.31c-.52-.28-1-.54-1.57-.77-.2-.09-.41-.16-.61-.24-.36-.14-.72-.28-1.08-.4s-.52-.16-.79-.24l-.94-.25c-.28-.07-.55-.13-.83-.18l-.22-.05,0,0A20.65,20.65,0,0,0,817.42,1038h0c.29.35.59.68.9,1l.49.47.08.09.13.11.27.27h0l0,0c.27.25.55.49.83.72l.16.15h0a20.31,20.31,0,0,0,4.7,2.84h0l.23.09c.48.2,1,.38,1.46.54.19.07.39.12.58.18.4.12.81.23,1.22.32l.56.13a17,17,0,0,0,1.74.28l.2,0c.53.06,1.05.09,1.58.11h.58l1.28,0,.55,0c.59,0,1.18-.12,1.76-.22l.13,0c.54-.1,1.09-.22,1.63-.37l.54-.15c.42-.12.84-.26,1.25-.41l.51-.19c.57-.22,1.12-.46,1.67-.73l0,0c.53-.27,1.05-.57,1.56-.89.16-.09.32-.2.47-.3.39-.25.76-.52,1.13-.79l.45-.35a18.66,18.66,0,0,0,1.44-1.25,20.64,20.64,0,0,0,2.31-27.16h0l-.14-.16c-.22-.3-.46-.58-.7-.86l0,0Z" transform="translate(-107.17)"/><path class="cls-16" d="M829.37,1007.68a20.7,20.7,0,1,1-29.29-.57A20.65,20.65,0,0,1,829.37,1007.68Z" transform="translate(-107.17)"/><path class="cls-17" d="M818.25,1001.69a20.68,20.68,0,0,1-12,39.31,20.69,20.69,0,1,0,12-39.31Z" transform="translate(-107.17)"/><path class="cls-17" d="M800.07,1036.91q.7.66,1.44,1.26l29.6-28.42a18.49,18.49,0,0,0-1.2-1.48c-.19-.19-.38-.38-.57-.55l-29.8,28.6C799.71,1036.52,799.9,1036.71,800.07,1036.91Z" transform="translate(-107.17)"/><path class="cls-18" d="M799.51,1036.35c.31.33.64.64,1,.94l29.79-28.6c-.29-.34-.58-.68-.9-1s-.64-.63-1-.93l-29.79,28.59C798.9,1035.69,799.19,1036,799.51,1036.35Z" transform="translate(-107.17)"/><path class="cls-16" d="M635.55,935.25A20.71,20.71,0,1,1,626,907.59,20.73,20.73,0,0,1,635.55,935.25Z" transform="translate(-107.17)"/><path class="cls-17" d="M637.37,922.76A20.72,20.72,0,0,1,596.26,925a20.71,20.71,0,1,0,41.11-2.22Z" transform="translate(-107.17)"/><path class="cls-17" d="M598,917.81c-.26.59-.49,1.18-.69,1.78l36.89,18c.35-.53.68-1.07,1-1.64.11-.24.22-.48.32-.73l-37.14-18.11C598.24,917.34,598.12,917.58,598,917.81Z" transform="translate(-107.17)"/><path class="cls-18" d="M598.33,917.09c-.2.41-.38.82-.55,1.23l37.14,18.12c.22-.39.43-.79.63-1.19s.38-.82.55-1.24L599,915.9C598.74,916.29,598.53,916.68,598.33,917.09Z" transform="translate(-107.17)"/><path class="cls-8" d="M133.76,405.41l-13.53-5.91c27.09-61.88,73.9-170.1,83.1-199.67,12.23-39.33,41.19-46.8,54.79-45.27l.87.15,37.36,8.84L293,177.9l-36.83-8.72c-3.25-.19-27.69-.32-38.69,35C208.5,232.93,167,329.48,133.76,405.41Z" transform="translate(-107.17)"/><path class="cls-8" d="M413,526.22l-14.28-3.74C418.19,448.28,452.85,319.16,466,288c14.33-34-4.26-49.58-7-51.66l-33.78-17,6.64-13.16,35.06,17.69c11.4,7.57,28.73,31.9,12.72,69.86C466.34,325.17,428.6,466.79,413,526.22Z" transform="translate(-107.17)"/><path class="cls-19" d="M409.86,480.31c-4,15.15-7.83,29.47-11.16,42.17L413,526.22c3.07-11.67,7-26.52,11.41-43.07Z" transform="translate(-107.17)"/><path class="cls-19" d="M131.86,372.84c-4.13,9.5-8.06,18.49-11.63,26.66l13.53,5.91c3.93-9,8-18.24,12.06-27.64Z" transform="translate(-107.17)"/><path class="cls-20" d="M319.28,1136.31c-30.82-.74-61.14-6.28-88.22-16.69-48.77-18.75-84.41-51.78-103-95.51-31.56-74-13.08-161.74,6.72-238.14A1209,1209,0,0,1,206.8,584.28l23,10.55A1182.9,1182.9,0,0,0,159.24,792.3c-18.76,72.37-36.39,155.17-7.93,221.92,15.9,37.29,46.62,65.58,88.85,81.82,58.72,22.58,134.32,19.79,192.61-7.11l2-.92c72.4-33.42,124.7-57.55,209.69-20.7l-10.09,23.18c-74.58-32.34-117.64-12.47-189,20.46l-2,.92C406,1129.11,362.18,1137.35,319.28,1136.31Z" transform="translate(-107.17)"/><path class="cls-21" d="M619.89,1065.94l3-6.9c-72.7-24.27-122-1.53-188.12,29l-2,.92c-58.29,26.9-133.89,29.69-192.61,7.11-42.23-16.24-72.95-44.53-88.85-81.82-28.46-66.75-10.83-149.55,7.93-221.92A1182.82,1182.82,0,0,1,225.6,604.09l-5.16-2.37c-28.26,61.36-51,128.35-67.72,192.86-18.62,71.86-36.6,149.81-6.91,219.45,17.53,41.13,47.27,68.36,93.14,86,25.48,9.79,51.11,14.4,80.09,15.1,40.36,1,79.61-5.9,114.75-22.12l1.88-.87C502.77,1061.17,548.81,1039.32,619.89,1065.94Z" transform="translate(-107.17)"/><path class="cls-13" d="M308.55,153.55l-11.91-3.23a16.27,16.27,0,0,0-20,11.4l-1.18,4.33A16.22,16.22,0,0,0,286.93,186l11.9,3.24a16.27,16.27,0,0,0,20-11.41l1.17-4.32A16.23,16.23,0,0,0,308.55,153.55Z" transform="translate(-107.17)"/><path class="cls-13" d="M429,190.68l11.2,5.18a16.21,16.21,0,0,1,7.91,21.55l-1.88,4.07a16.29,16.29,0,0,1-21.6,7.9l-11.19-5.17a16.23,16.23,0,0,1-7.92-21.56l1.88-4.07A16.29,16.29,0,0,1,429,190.68Z" transform="translate(-107.17)"/><path class="cls-20" d="M273.11,613.31q-28.34-.67-59.14-11.88c-44.66-16.26-75.84-42.93-92.68-79.26-29.06-62.66-4.42-130.82-3.36-133.69l23.75,8.76c-.12.32-12.49,34.68-8.26,74.08,5.48,51,35.5,86.8,89.22,106.36,38.1,13.88,72.62,13.8,102.62-.21,53.23-24.87,75.5-85.2,75.72-85.81l23.82,8.56c-1,2.88-26.15,70.87-88.8,100.14A138.88,138.88,0,0,1,273.11,613.31Z" transform="translate(-107.17)"/><path class="cls-21" d="M410.08,494.93l-9.1-3.27c-.22.61-22.49,60.94-75.72,85.81-30,14-64.52,14.09-102.62.21-53.72-19.56-83.74-55.34-89.22-106.36-4.23-39.4,8.14-73.76,8.26-74.08l-7.85-2.89c-4.4,13.67-19,67.33,4.13,117.16,15.17,32.72,43.26,56.74,83.47,71.38Q249.15,593,274.7,593.6a125.18,125.18,0,0,0,56.65-11.67C381.17,558.65,404.63,508.21,410.08,494.93Z" transform="translate(-107.17)"/><path class="cls-14" d="M317.86,160.32a16.18,16.18,0,0,1-.46,6.08l-1.18,4.32a16.26,16.26,0,0,1-20,11.4l-11.91-3.23a16.21,16.21,0,0,1-9.31-6.76A16.23,16.23,0,0,0,286.93,186l11.9,3.24a16.27,16.27,0,0,0,20-11.41l1.17-4.32A16.1,16.1,0,0,0,317.86,160.32Z" transform="translate(-107.17)"/><path class="cls-14" d="M446.88,201.67a16,16,0,0,1-1.39,8.66l-1.88,4.06A16.28,16.28,0,0,1,422,222.3l-11.19-5.18a16.16,16.16,0,0,1-6.74-5.81,16.23,16.23,0,0,0,9.31,12.9l11.19,5.17a16.29,16.29,0,0,0,21.6-7.9l1.88-4.07A16.15,16.15,0,0,0,446.88,201.67Z" transform="translate(-107.17)"/><ellipse class="cls-8" cx="542.29" cy="1080.6" rx="45.37" ry="45.29"/><ellipse class="cls-13" cx="542.29" cy="1080.6" rx="21.85" ry="21.81"/><path class="cls-14" d="M665.14,1065.42a21.84,21.84,0,0,1-36.48,21.82,21.84,21.84,0,1,0,36.48-21.82Z" transform="translate(-107.17)"/><path class="cls-19" d="M693.54,1070a49.15,49.15,0,0,1-83.45,33,45.29,45.29,0,0,0,83.45-33Z" transform="translate(-107.17)"/><path class="cls-10" d="M216.05,843.92l53,180.21a9.53,9.53,0,0,0,11.83,6.45l68.15-20a9.5,9.5,0,0,0,6.46-11.81l-53-180.22Z" transform="translate(-107.17)"/><rect class="cls-16" x="236.16" y="871.02" width="90.08" height="69.51" transform="translate(-350.66 115.71) rotate(-16.34)"/><rect class="cls-16" x="205.02" y="807.62" width="101.71" height="24.11" transform="translate(-327.46 105.1) rotate(-16.34)"/><rect class="cls-18" x="210.37" y="820.33" width="4.31" height="24.11" transform="translate(-332.8 93.43) rotate(-16.34)"/><rect class="cls-18" x="219.04" y="817.79" width="4.31" height="24.11" transform="translate(-331.72 95.76) rotate(-16.34)"/><rect class="cls-18" x="227.71" y="815.25" width="4.31" height="24.11" transform="translate(-330.67 98.1) rotate(-16.34)"/><rect class="cls-18" x="236.38" y="812.71" width="4.31" height="24.11" transform="translate(-329.59 100.43) rotate(-16.34)"/><rect class="cls-18" x="245.04" y="810.16" width="4.31" height="24.11" transform="translate(-328.5 102.75) rotate(-16.34)"/><rect class="cls-18" x="253.71" y="807.62" width="4.31" height="24.11" transform="translate(-327.43 105.08) rotate(-16.34)"/><rect class="cls-18" x="262.38" y="805.08" width="4.31" height="24.11" transform="matrix(0.96, -0.28, 0.28, 0.96, -326.37, 107.43)"/><rect class="cls-18" x="271.05" y="802.54" width="4.31" height="24.11" transform="translate(-325.33 109.78) rotate(-16.34)"/><rect class="cls-18" x="279.72" y="800" width="4.31" height="24.11" transform="translate(-324.28 112.12) rotate(-16.34)"/><rect class="cls-18" x="288.39" y="797.46" width="4.31" height="24.11" transform="translate(-323.2 114.45) rotate(-16.34)"/><rect class="cls-18" x="297.05" y="794.92" width="4.31" height="24.11" transform="translate(-322.15 116.79) rotate(-16.34)"/><rect class="cls-11" x="215.69" y="831.03" width="90.08" height="10.36" transform="translate(-332.61 107.61) rotate(-16.4)"/><rect class="cls-18" x="296.08" y="908.55" width="25.11" height="4.2" transform="translate(-350.92 123.63) rotate(-16.34)"/><rect class="cls-18" x="293.71" y="900.49" width="25.11" height="4.2" transform="translate(-348.75 122.63) rotate(-16.34)"/><rect class="cls-18" x="291.34" y="892.43" width="25.11" height="4.2" transform="translate(-346.58 121.64) rotate(-16.34)"/><path class="cls-13" d="M261.74,895.62a10.87,10.87,0,1,1-13.5-7.36A10.85,10.85,0,0,1,261.74,895.62Z" transform="translate(-107.17)"/><path class="cls-11" d="M344.86,996.31l-68.15,20a9.55,9.55,0,0,1-11.84-6.45l4.21,14.29a9.53,9.53,0,0,0,11.83,6.45l68.15-20a9.5,9.5,0,0,0,6.46-11.81l-4.2-14.3A9.52,9.52,0,0,1,344.86,996.31Z" transform="translate(-107.17)"/><path class="cls-13" d="M512.78,892.43l1.46-7.39-83.19-16.35-1.45,7.39c-10.55.73-19.38,7.3-21.25,16.75L390.49,983.4c-2.3,11.67,6.9,23.31,20.55,26l68.28,13.42c13.65,2.69,26.58-4.6,28.89-16.27L526.07,916C527.94,906.52,522.26,897.1,512.78,892.43Z" transform="translate(-107.17)"/><rect class="cls-14" x="469.83" y="836.8" width="4.72" height="84.78" transform="translate(-588.73 1172.95) rotate(-78.88)"/><rect class="cls-16" x="463.3" y="817.26" width="23.04" height="97.19" transform="translate(-574.47 1161.78) rotate(-78.7)"/><rect class="cls-18" x="420.97" y="855.34" width="23.04" height="4.12" transform="matrix(0.2, -0.98, 0.98, 0.2, -600.2, 1113.51)"/><rect class="cls-18" x="429.44" y="857.03" width="23.04" height="4.12" transform="translate(-595.07 1123.11) rotate(-78.7)"/><rect class="cls-18" x="437.9" y="858.72" width="23.04" height="4.12" transform="translate(-589.91 1132.82) rotate(-78.7)"/><rect class="cls-18" x="446.37" y="860.41" width="23.04" height="4.12" transform="translate(-584.77 1142.44) rotate(-78.7)"/><rect class="cls-18" x="454.83" y="862.1" width="23.04" height="4.12" transform="translate(-579.63 1152.1) rotate(-78.7)"/><rect class="cls-18" x="463.3" y="863.8" width="23.04" height="4.12" transform="translate(-574.48 1161.75) rotate(-78.7)"/><rect class="cls-18" x="471.76" y="865.49" width="23.04" height="4.12" transform="translate(-569.33 1171.42) rotate(-78.7)"/><rect class="cls-18" x="480.22" y="867.18" width="23.04" height="4.12" transform="translate(-564.17 1181.13) rotate(-78.7)"/><rect class="cls-18" x="488.69" y="868.87" width="23.04" height="4.12" transform="translate(-559.04 1190.73) rotate(-78.7)"/><rect class="cls-18" x="497.15" y="870.56" width="23.04" height="4.12" transform="translate(-553.88 1200.44) rotate(-78.7)"/><rect class="cls-18" x="505.62" y="872.25" width="23.04" height="4.12" transform="translate(-548.75 1210.07) rotate(-78.7)"/><rect class="cls-16" x="432.35" y="886.5" width="53.12" height="119.97" transform="matrix(0.19, -0.98, 0.98, 0.19, -665.48, 1214.24)"/><path class="cls-14" d="M482.21,1008.13l-68.27-13.42c-13.66-2.68-22.86-14.32-20.56-26l-2.89,14.68c-2.3,11.67,6.9,23.31,20.55,26l68.28,13.42c13.65,2.69,26.58-4.6,28.89-16.27l2.89-14.68C508.8,1003.53,495.87,1010.82,482.21,1008.13Z" transform="translate(-107.17)"/><rect class="cls-10" x="458.34" y="865.14" width="9.57" height="119.97" transform="translate(-641.12 1201.14) rotate(-78.88)"/><polygon class="cls-10" points="329.6 940.45 321.99 938.96 323.49 931.37 313.04 929.31 311.54 936.9 303.94 935.41 301.88 945.84 309.48 947.34 307.99 954.93 318.43 956.98 319.93 949.39 327.54 950.88 329.6 940.45"/><rect class="cls-18" x="484.47" y="926.74" width="4.6" height="42.1" transform="translate(-644.28 1242.62) rotate(-78.88)"/><rect class="cls-18" x="482.26" y="937.92" width="4.6" height="42.1" transform="translate(-657.02 1249.49) rotate(-78.88)"/><path class="cls-10" d="M1536.3,287l1.46-7.38-83.19-16.35-1.45,7.38c-10.55.74-19.38,7.31-21.25,16.76L1414,378c-2.3,11.67,6.9,23.31,20.55,26l68.28,13.42c13.65,2.68,26.58-4.6,28.89-16.28l17.86-90.57C1551.46,301.12,1545.78,291.7,1536.3,287Z" transform="translate(-107.17)"/><rect class="cls-11" x="1493.35" y="231.4" width="4.72" height="84.78" transform="translate(831.42 1688.61) rotate(-78.88)"/><rect class="cls-16" x="1486.82" y="211.87" width="23.04" height="97.19" transform="translate(842.12 1678.7) rotate(-78.7)"/><rect class="cls-18" x="1444.49" y="249.94" width="23.04" height="4.12" transform="translate(816.35 1630.38) rotate(-78.7)"/><rect class="cls-18" x="1452.96" y="251.63" width="23.04" height="4.12" transform="translate(821.5 1640.04) rotate(-78.7)"/><rect class="cls-18" x="1461.42" y="253.33" width="23.04" height="4.12" transform="translate(826.73 1649.73) rotate(-78.7)"/><rect class="cls-18" x="1469.89" y="255.02" width="23.04" height="4.12" transform="matrix(0.2, -0.98, 0.98, 0.2, 831.8, 1659.37)"/><rect class="cls-18" x="1478.35" y="256.71" width="23.04" height="4.12" transform="translate(837.01 1669.05) rotate(-78.7)"/><rect class="cls-18" x="1486.82" y="258.4" width="23.04" height="4.12" transform="translate(842.08 1678.68) rotate(-78.7)"/><rect class="cls-18" x="1495.28" y="260.09" width="23.04" height="4.12" transform="translate(847.24 1688.35) rotate(-78.7)"/><rect class="cls-18" x="1503.74" y="261.78" width="23.04" height="4.12" transform="translate(852.38 1698) rotate(-78.7)"/><rect class="cls-18" x="1512.21" y="263.48" width="23.04" height="4.12" transform="translate(857.53 1707.67) rotate(-78.7)"/><rect class="cls-18" x="1520.67" y="265.17" width="23.04" height="4.12" transform="translate(862.76 1717.36) rotate(-78.7)"/><rect class="cls-18" x="1529.14" y="266.86" width="23.04" height="4.12" transform="translate(867.83 1726.99) rotate(-78.7)"/><rect class="cls-16" x="1455.87" y="281.11" width="53.12" height="119.97" transform="translate(754.67 1729.91) rotate(-78.88)"/><path class="cls-11" d="M1505.73,402.74l-68.27-13.42c-13.66-2.69-22.86-14.32-20.55-26L1414,378c-2.3,11.67,6.9,23.31,20.55,26l68.28,13.42c13.65,2.68,26.58-4.6,28.89-16.28l2.89-14.68C1532.32,398.13,1519.39,405.42,1505.73,402.74Z" transform="translate(-107.17)"/><rect class="cls-14" x="1481.86" y="259.74" width="9.57" height="119.97" transform="translate(779.03 1716.8) rotate(-78.88)"/><polygon class="cls-14" points="1353.12 335.06 1345.51 333.56 1347.01 325.97 1336.56 323.92 1335.06 331.51 1327.45 330.01 1325.4 340.44 1333 341.94 1331.51 349.53 1341.95 351.58 1343.45 343.99 1351.06 345.49 1353.12 335.06"/><rect class="cls-18" x="1507.99" y="321.34" width="4.6" height="42.1" transform="translate(775.87 1758.29) rotate(-78.88)"/><rect class="cls-18" x="1505.78" y="332.52" width="4.6" height="42.1" transform="translate(763.13 1765.15) rotate(-78.88)"/><polygon class="cls-20" points="1336.32 521.55 1297.23 479.74 1282.43 493.52 1321.52 535.33 1336.32 521.55"/><polygon class="cls-21" points="1300.58 483.33 1298.74 481.35 1283.94 495.14 1285.79 497.11 1300.58 483.33"/><polygon class="cls-21" points="1304.45 487.46 1302.6 485.49 1287.81 499.27 1289.65 501.24 1304.45 487.46"/><polygon class="cls-21" points="1308.31 491.59 1306.46 489.62 1291.67 503.4 1293.51 505.37 1308.31 491.59"/><polygon class="cls-21" points="1312.17 495.72 1310.33 493.75 1295.53 507.54 1297.38 509.51 1312.17 495.72"/><polygon class="cls-21" points="1316.04 499.86 1314.19 497.88 1299.4 511.67 1301.24 513.64 1316.04 499.86"/><polygon class="cls-21" points="1319.9 503.99 1318.06 502.02 1303.26 515.8 1305.1 517.77 1319.9 503.99"/><polygon class="cls-21" points="1323.76 508.12 1321.92 506.15 1307.12 519.93 1308.97 521.9 1323.76 508.12"/><polygon class="cls-21" points="1327.63 512.25 1325.78 510.28 1310.99 524.07 1312.83 526.04 1327.63 512.25"/><polygon class="cls-21" points="1331.49 516.39 1329.65 514.41 1314.85 528.2 1316.69 530.17 1331.49 516.39"/><polygon class="cls-21" points="1335.35 520.52 1333.51 518.55 1318.71 532.33 1320.56 534.3 1335.35 520.52"/><path class="cls-6" d="M1389.76,500.75,1257.79,623a23.19,23.19,0,0,0,31.58,34l132-122.25Z" transform="translate(-107.17)"/><path class="cls-10" d="M1357.66,539.1l-94.47,87.52a16.86,16.86,0,1,0,23,24.7l94.47-87.52Z" transform="translate(-107.17)"/><polygon class="cls-7" points="1322.05 534.94 1282.94 492.88 1276.76 498.61 1315.86 540.67 1322.05 534.94"/><path class="cls-11" d="M1273.9,639.68a16.81,16.81,0,0,1,.89-23.81l-11.6,10.75a16.86,16.86,0,1,0,23,24.7l11.6-10.75A16.9,16.9,0,0,1,1273.9,639.68Z" transform="translate(-107.17)"/><polygon class="cls-8" points="774.61 296.97 771.4 293.33 826.26 245.24 829.46 248.89 774.61 296.97"/><polygon class="cls-19" points="825.77 252.12 829.46 248.89 826.26 245.24 822.57 248.48 825.77 252.12"/><path class="cls-6" d="M1039.15,118l-96.07,84.22-6.44,28-7.43,6.51s-.78,5.41,4.54,11.46,10.79,6,10.79,6l7.43-6.51,28.64-2.76,96.07-84.22Z" transform="translate(-107.17)"/><polygon class="cls-8" points="962.99 144.34 947.36 126.57 994.78 85 1010.42 102.77 962.99 144.34"/><polygon class="cls-22" points="962.99 144.34 947.36 126.57 954.48 120.33 970.12 138.1 962.99 144.34"/><polygon class="cls-13" points="1021.88 99.99 999.03 74.01 990.92 81.13 1013.76 107.1 1021.88 99.99"/><polygon class="cls-13" points="976.91 155.79 938.29 111.89 925.82 122.82 964.44 166.72 976.91 155.79"/><polygon class="cls-22" points="948.01 179.4 931.3 160.41 934.08 157.97 950.79 176.96 948.01 179.4"/><polygon class="cls-22" points="933.76 191.89 917.06 172.9 919.84 170.46 936.54 189.45 933.76 191.89"/><polygon class="cls-22" points="919.52 204.37 902.81 185.39 905.59 182.95 922.3 201.94 919.52 204.37"/><path class="cls-10" d="M1012.89,209l-30-34.07-32.35,28.36-6.65,27.42-8.38,7.35s-.43,3,2.52,6.36,6,3.32,6,3.32l8.64-7.57,27.84-2.81Z" transform="translate(-107.17)"/><path class="cls-11" d="M1009.58,205.23l-29.09,25.5-27.84,2.81L944,241.11s-3,0-6-3.32a13.52,13.52,0,0,1-.88-1.14l-1.6,1.4s-.43,3,2.52,6.36,6,3.32,6,3.32l8.64-7.57,27.84-2.81L1012.89,209Z" transform="translate(-107.17)"/><path class="cls-4" d="M1637.93,517.91,1650.4,507l-11.74-13.34,4.95-4.34h0l40-35.11,3.61,4.1,8.11-7.11-22.85-26-8.11,7.11,3.61,4.1-45,39.44-11.24-12.77L1599.32,474l.29.33-90.2,79.07-6.45,28-7.43,6.51s-.61,4.31,3,9.54l-2.52,2.2h0l-51.16,44.85,3.2,3.64,51.16-44.84h0l2.52-2.21c4.72,4.29,9.08,4.25,9.08,4.25l7.43-6.52,28.65-2.76,90.2-79.07Z" transform="translate(-107.17)"/><polygon class="cls-8" points="1325.63 636.93 1322.42 633.29 1377.27 585.21 1380.48 588.85 1325.63 636.93"/><polygon class="cls-19" points="1376.79 592.08 1380.48 588.85 1377.27 585.21 1373.58 588.44 1376.79 592.08"/><path class="cls-6" d="M1590.17,458l-96.07,84.22-6.45,28-7.42,6.52s-.78,5.4,4.54,11.45,10.79,6,10.79,6l7.43-6.51,28.64-2.76,96.07-84.22Z" transform="translate(-107.17)"/><polygon class="cls-8" points="1514.01 484.31 1498.37 466.53 1545.8 424.96 1561.44 442.73 1514.01 484.31"/><polygon class="cls-22" points="1514.01 484.31 1498.37 466.53 1505.5 460.29 1521.13 478.06 1514.01 484.31"/><polygon class="cls-10" points="1572.89 439.95 1550.05 413.98 1541.93 421.09 1564.78 447.06 1572.89 439.95"/><polygon class="cls-10" points="1527.92 495.75 1489.31 451.85 1476.84 462.78 1515.46 506.68 1527.92 495.75"/><polygon class="cls-22" points="1499.03 519.36 1482.32 500.37 1485.1 497.94 1501.81 516.92 1499.03 519.36"/><polygon class="cls-22" points="1484.78 531.85 1468.08 512.86 1470.86 510.42 1487.56 529.41 1484.78 531.85"/><polygon class="cls-22" points="1470.54 544.34 1453.83 525.35 1456.61 522.91 1473.32 541.9 1470.54 544.34"/><path class="cls-13" d="M1563.91,549l-30-34.07-32.36,28.36-6.65,27.43-8.37,7.34s-.44,3,2.52,6.37,6,3.32,6,3.32l8.64-7.58,27.84-2.8Z" transform="translate(-107.17)"/><path class="cls-14" d="M1560.6,545.2l-29.09,25.5-27.84,2.8-8.64,7.58s-3,0-6-3.32a11.78,11.78,0,0,1-.88-1.15l-1.6,1.4s-.44,3,2.52,6.37,6,3.32,6,3.32l8.64-7.58,27.84-2.8L1563.91,549Z" transform="translate(-107.17)"/><path class="cls-10" d="M644.26,310.89a18.86,18.86,0,1,1-10.09-24.65A18.89,18.89,0,0,1,644.26,310.89Z" transform="translate(-107.17)"/><path class="cls-11" d="M645.26,299.45A18.87,18.87,0,0,1,608,303.6a18.87,18.87,0,0,0,36.26,7.29A18.65,18.65,0,0,0,645.26,299.45Z" transform="translate(-107.17)"/><path class="cls-11" d="M609.21,297c-.21.55-.38,1.11-.54,1.66l34.49,14.45a16,16,0,0,0,.8-1.54c.09-.22.18-.45.26-.67l-34.71-14.55Z" transform="translate(-107.17)"/><path class="cls-12" d="M609.47,296.31c-.16.38-.3.77-.43,1.15L643.74,312c.19-.37.36-.74.52-1.12s.3-.76.44-1.15L610,295.2C609.81,295.56,609.63,295.93,609.47,296.31Z" transform="translate(-107.17)"/><path class="cls-10" d="M732.15,323.56a18.85,18.85,0,1,1-1-26.61A18.89,18.89,0,0,1,732.15,323.56Z" transform="translate(-107.17)"/><path class="cls-11" d="M737,313.16a18.65,18.65,0,0,1-3.89,6.33,18.86,18.86,0,0,1-32.53-15.22A18.86,18.86,0,1,0,737,313.16Z" transform="translate(-107.17)"/><path class="cls-11" d="M704,298.48c-.38.44-.74.9-1.07,1.37l27.41,25.4q.66-.56,1.29-1.17c.16-.18.32-.36.47-.55L704.53,298Z" transform="translate(-107.17)"/><path class="cls-12" d="M704.5,297.94c-.28.3-.55.61-.8.93l27.58,25.56c.3-.28.59-.56.87-.87s.55-.61.81-.93l-27.59-25.56Q704.92,297.49,704.5,297.94Z" transform="translate(-107.17)"/><path class="cls-10" d="M698.25,373.09a18.86,18.86,0,1,1-22.73-13.94A18.82,18.82,0,0,1,698.25,373.09Z" transform="translate(-107.17)"/><path class="cls-11" d="M692.29,363.26a18.85,18.85,0,0,1-27.61,25.33,18.85,18.85,0,1,0,27.61-25.33Z" transform="translate(-107.17)"/><path class="cls-11" d="M661.74,382.54c.16.56.34,1.11.55,1.65l36.38-8.67c-.07-.57-.15-1.15-.27-1.72-.06-.23-.12-.47-.19-.7l-36.61,8.73C661.64,382.06,661.69,382.3,661.74,382.54Z" transform="translate(-107.17)"/><path class="cls-12" d="M661.56,381.84c.09.4.2.79.32,1.18l36.62-8.72c-.07-.4-.15-.81-.25-1.21s-.2-.79-.32-1.18l-36.62,8.72C661.38,381,661.46,381.44,661.56,381.84Z" transform="translate(-107.17)"/><path class="cls-4" d="M1509.54,1276.05,1359,847.3a24.44,24.44,0,0,0-31.13-14.95l-43.28,15.15a12.92,12.92,0,0,0-3.94.73l-2,.69-4-11.39-199.93,70,4,11.39-4,1.4a13.12,13.12,0,0,0-3.53,1.88l-41.23,14.44a24.35,24.35,0,0,0-15,31.07l150.58,428.76a24.44,24.44,0,0,0,31.14,14.94l297.88-104.25A24.38,24.38,0,0,0,1509.54,1276.05Z" transform="translate(-107.17)"/><path class="cls-10" d="M1312.51,821.12,1014.63,925.37a24.38,24.38,0,0,0-15,31.08l150.59,428.76a24.43,24.43,0,0,0,31.13,14.94l297.88-104.25a24.36,24.36,0,0,0,15-31.08L1343.65,836.06A24.46,24.46,0,0,0,1312.51,821.12Z" transform="translate(-107.17)"/><polygon class="cls-5" points="1367.72 1268.8 1060.68 1376.26 911.84 952.47 1218.87 845.02 1367.72 1268.8"/><polygon class="cls-6" points="911.84 952.47 1060.68 1376.26 1218.87 845.02 911.84 952.47"/><path class="cls-22" d="M1286,895.93,1080.1,968a13.13,13.13,0,0,1-16.7-8l-12-34.25a13.08,13.08,0,0,1,8-16.66L1265.29,837a13.12,13.12,0,0,1,16.7,8l12,34.25A13.09,13.09,0,0,1,1286,895.93Zm-224.38,19.43a6.4,6.4,0,0,0-3.93,8.15l12,34.25a6.42,6.42,0,0,0,8.17,3.92l205.89-72a6.41,6.41,0,0,0,3.93-8.16l-12-34.25a6.43,6.43,0,0,0-8.18-3.92Z" transform="translate(-107.17)"/><polygon class="cls-13" points="1161.38 852.53 961.45 922.5 952.23 896.27 1152.16 826.3 1161.38 852.53"/><polygon class="cls-14" points="961.45 922.5 1161.38 852.53 1156.77 839.42 956.84 909.39 961.45 922.5"/><path class="cls-10" d="M1220.52,1242.82l-38.79-70.94,1.37,36.3-28.9,10.11a3.34,3.34,0,1,1-2.21-6.3l24.24-8.48-2.24-59.75,38.88,71.13-2-57.5L1228.1,1179l3-53.64,44.85,67.76-1.18-26.1,20.76-7.27a3.34,3.34,0,1,1,2.21,6.3l-16.06,5.63,2,45.3-47-71.1-2.82,51-15.54-19.47Z" transform="translate(-107.17)"/><path class="cls-7" d="M1162.61,1090.44l-45.22,15.82a14,14,0,0,1-17.89-8.59l-22.15-63.07a14,14,0,0,1,8.6-17.86l45.22-15.82a14.05,14.05,0,0,1,17.89,8.59l22.15,63.06A14,14,0,0,1,1162.61,1090.44Zm-75.31-69.86a10,10,0,0,0-6.11,12.68l22.15,63.07a10,10,0,0,0,12.7,6.09l45.22-15.82a10,10,0,0,0,6.1-12.68l-22.15-63.07a10,10,0,0,0-12.7-6.09Z" transform="translate(-107.17)"/><path class="cls-13" d="M1135.75,1086.24c21.36-7.48,23.69-22.14,23.69-22.14a16.39,16.39,0,0,0-5-2c-6.9-1.68-12-1.7-14.41-2.58a13.19,13.19,0,0,1-4.3-2.7l-.94,1.13a18.46,18.46,0,0,1-2.47-6.06s1.53-1,.8-7.08c2.11-.31,2.72-6.15,1-7.63a1.61,1.61,0,0,0-2.44,0c-.27-2.75-2.42-17.65-17.52-12.37s-7.45,18.26-5.94,20.58c-.69-.08-1.6.11-1.88,1.56-.44,2.24,3.69,6.43,5.53,5.36,3.23,5.19,5.06,5,5.06,5a18.39,18.39,0,0,1,1.86,6.28l-1.44-.3a13.4,13.4,0,0,1-1.67,4.8c-1.36,2.21-5.31,5.38-9.64,11a16.28,16.28,0,0,0-2.64,4.67S1114.38,1093.72,1135.75,1086.24Z" transform="translate(-107.17)"/><polygon class="cls-7" points="1142.55 981.09 1065.38 1008.1 1062.71 1000.48 1139.87 973.47 1142.55 981.09"/><polygon class="cls-7" points="1273.46 1100.72 1222.36 1118.6 1219.68 1110.98 1270.78 1093.1 1273.46 1100.72"/><polygon class="cls-7" points="1281.28 1122.98 1230.17 1140.87 1227.5 1133.24 1278.6 1115.36 1281.28 1122.98"/><polygon class="cls-7" points="1289.1 1145.24 1237.99 1163.13 1235.32 1155.51 1286.42 1137.62 1289.1 1145.24"/><polygon class="cls-7" points="1150.54 1000.47 1072.32 1027.85 1069.64 1020.23 1147.86 992.85 1150.54 1000.47"/><polygon class="cls-7" points="1238.47 996.26 1080.63 1051.5 1077.95 1043.88 1235.79 988.64 1238.47 996.26"/><polygon class="cls-7" points="1313.28 1218.66 1072.3 1303 1069.63 1295.38 1310.61 1211.04 1313.28 1218.66"/><polygon class="cls-7" points="1252.61 1045.91 1011.63 1130.24 1008.95 1122.62 1249.93 1038.28 1252.61 1045.91"/><polygon class="cls-7" points="1321.49 1242.04 1080.51 1326.38 1077.84 1318.76 1318.82 1234.42 1321.49 1242.04"/><polygon class="cls-7" points="1246.59 1019.38 1088.75 1074.62 1086.07 1067 1243.91 1011.76 1246.59 1019.38"/><path class="cls-4" d="M1327.43,536.05a23.2,23.2,0,0,0,43.86-15.16l-58-167.17,5.23-1.8-2.76-8-.07,0-6.47-18.46-54.08,18.87,6.41,18.3-.12.05,2.76,8,5.24-1.81Z" transform="translate(-107.17)"/><polygon class="cls-20" points="1195.38 323.19 1141.3 342.06 1147.98 361.13 1202.06 342.27 1195.38 323.19"/><polygon class="cls-21" points="1145.94 340.44 1143.39 341.33 1150.07 360.4 1152.62 359.51 1145.94 340.44"/><polygon class="cls-21" points="1151.29 338.58 1148.73 339.47 1155.41 358.54 1157.96 357.65 1151.29 338.58"/><polygon class="cls-21" points="1156.63 336.71 1154.08 337.6 1160.76 356.67 1163.31 355.78 1156.63 336.71"/><polygon class="cls-21" points="1161.98 334.85 1159.43 335.74 1166.1 354.81 1168.65 353.92 1161.98 334.85"/><polygon class="cls-21" points="1167.32 332.98 1164.77 333.87 1171.45 352.94 1174 352.05 1167.32 332.98"/><polygon class="cls-21" points="1172.67 331.12 1170.12 332.01 1176.79 351.08 1179.35 350.19 1172.67 331.12"/><polygon class="cls-21" points="1178.01 329.25 1175.46 330.14 1182.14 349.21 1184.69 348.32 1178.01 329.25"/><polygon class="cls-21" points="1183.36 327.39 1180.81 328.28 1187.48 347.35 1190.04 346.46 1183.36 327.39"/><polygon class="cls-21" points="1188.7 325.52 1186.15 326.41 1192.83 345.49 1195.38 344.6 1188.7 325.52"/><polygon class="cls-21" points="1194.05 323.66 1191.5 324.55 1198.18 343.62 1200.73 342.73 1194.05 323.66"/><path class="cls-6" d="M1261.83,363.9l58.92,169.82a23.2,23.2,0,0,0,43.86-15.16l-58.92-169.82Z" transform="translate(-107.17)"/><path class="cls-13" d="M1284.07,408.68l42.17,121.57a16.87,16.87,0,0,0,31.9-11L1316,397.65Z" transform="translate(-107.17)"/><polygon class="cls-7" points="1201.91 341.63 1147.59 360.4 1150.35 368.37 1204.67 349.59 1201.91 341.63"/><path class="cls-14" d="M1342.54,525.74a16.9,16.9,0,0,1-21.48-10.41l5.18,14.92a16.87,16.87,0,0,0,31.9-11L1353,504.3A16.85,16.85,0,0,1,1342.54,525.74Z" transform="translate(-107.17)"/><path class="cls-4" d="M1494.64,178.93a23.19,23.19,0,0,0,36.84,28.19L1639.3,66.73l4.4,3.36,5.13-6.68-.06,0,11.88-15.55-45.56-34.66-11.78,15.42-.1-.08-5.14,6.69,4.4,3.36Z" transform="translate(-107.17)"/><polygon class="cls-20" points="1547.44 34.67 1501.88 0 1489.61 16.07 1535.17 50.73 1547.44 34.67"/><polygon class="cls-21" points="1505.79 2.98 1503.64 1.34 1491.37 17.41 1493.52 19.04 1505.79 2.98"/><polygon class="cls-21" points="1510.29 6.4 1508.14 4.77 1495.88 20.83 1498.03 22.47 1510.29 6.4"/><polygon class="cls-21" points="1514.8 9.83 1512.65 8.19 1500.38 24.26 1502.53 25.89 1514.8 9.83"/><polygon class="cls-21" points="1519.3 13.26 1517.15 11.62 1504.88 27.69 1507.03 29.32 1519.3 13.26"/><polygon class="cls-21" points="1523.81 16.68 1521.65 15.05 1509.39 31.11 1511.54 32.75 1523.81 16.68"/><polygon class="cls-21" points="1528.31 20.11 1526.16 18.47 1513.89 34.54 1516.04 36.17 1528.31 20.11"/><polygon class="cls-21" points="1532.81 23.54 1530.66 21.9 1518.39 37.97 1520.54 39.6 1532.81 23.54"/><polygon class="cls-21" points="1537.32 26.96 1535.17 25.33 1522.9 41.39 1525.05 43.03 1537.32 26.96"/><polygon class="cls-21" points="1541.82 30.39 1539.67 28.75 1527.4 44.82 1529.55 46.45 1541.82 30.39"/><polygon class="cls-21" points="1546.32 33.81 1544.17 32.18 1531.9 48.25 1534.05 49.88 1546.32 33.81"/><path class="cls-6" d="M1598.15,23.16,1488.61,165.78a23.19,23.19,0,0,0,36.83,28.2L1635,51.36Z" transform="translate(-107.17)"/><path class="cls-13" d="M1573,66.35l-78.42,102.1a16.86,16.86,0,0,0,26.78,20.5l78.43-102.1Z" transform="translate(-107.17)"/><polygon class="cls-7" points="1535.63 50.26 1490.01 15.34 1484.87 22.03 1530.5 56.95 1535.63 50.26"/><path class="cls-14" d="M1507.29,179.54a16.83,16.83,0,0,1-3.13-23.62l-9.62,12.53a16.86,16.86,0,0,0,26.78,20.5l9.63-12.53A16.9,16.9,0,0,1,1507.29,179.54Z" transform="translate(-107.17)"/></g></g></g></g></svg>