<svg xmlns="http://www.w3.org/2000/svg" xmlns:xlink="http://www.w3.org/1999/xlink" viewBox="0 0 1796.04 1412.76"><defs><style>.cls-1{fill:none;}.cls-2{isolation:isolate;}.cls-3{clip-path:url(#clip-path);}.cls-4,.cls-7{fill:#e8e8e8;}.cls-4{mix-blend-mode:multiply;}.cls-5{fill:#fff;}.cls-6{fill:#fafdfe;}.cls-8{fill:#f1f0ee;}.cls-9{fill:#d9d8d6;}.cls-10{fill:#ff787f;}.cls-11{fill:#f56e7c;}.cls-12{fill:#e54c6b;}.cls-13{fill:#4675ab;}.cls-14{fill:#3d699a;}.cls-15{fill:#324575;}.cls-16{fill:#fbfcf7;}.cls-17{fill:#f0f2ff;}.cls-18{fill:#d2d3ce;}.cls-19{fill:#c1c0bf;}.cls-20{fill:#285470;}.cls-21{fill:#306f91;}.cls-22{fill:#c2c2c2;}</style><clipPath id="clip-path" transform="translate(-103.17 91.56)"><rect class="cls-1" x="1" width="1919" height="1080"/></clipPath></defs><title>homebg1</title><g class="cls-2"><g id="Layer_1" data-name="Layer 1"><g class="cls-3"><polygon class="cls-4" points="1620.89 610.91 1321.2 737.36 1321.2 737.36 1321.2 737.36 1496.35 1151.01 1496.35 1151.01 1496.35 1151.01 1496.35 1151.01 1796.04 1024.56 1620.89 610.91"/><polygon class="cls-5" points="1777.12 1026.21 1477.42 1152.66 1302.28 739.01 1601.97 612.57 1777.12 1026.21"/><polygon class="cls-6" points="1302.28 739.01 1477.42 1152.66 1601.97 612.57 1302.28 739.01"/><polygon class="cls-7" points="1444.84 767.74 1369.52 799.51 1366.37 792.07 1441.68 760.29 1444.84 767.74"/><polygon class="cls-7" points="1454.02 786.58 1377.68 818.79 1374.53 811.35 1450.87 779.14 1454.02 786.58"/><polygon class="cls-7" points="1541.52 776.88 1387.45 841.88 1384.31 834.44 1538.37 769.44 1541.52 776.88"/><polygon class="cls-7" points="1717.28 957.53 1482.06 1056.77 1478.91 1049.33 1714.13 950.09 1717.28 957.53"/><polygon class="cls-7" points="1704.24 934.87 1469.02 1034.11 1465.87 1026.67 1701.09 927.43 1704.24 934.87"/><polygon class="cls-7" points="1642.39 789.35 1407.17 888.6 1404.03 881.16 1639.24 781.91 1642.39 789.35"/><polygon class="cls-7" points="1726.94 980.35 1491.72 1079.59 1488.57 1072.15 1723.79 972.91 1726.94 980.35"/><polygon class="cls-7" points="1653.69 814.24 1418.48 913.48 1415.33 906.04 1650.54 806.8 1653.69 814.24"/><polygon class="cls-7" points="1663.36 837.05 1428.14 936.3 1424.99 928.86 1660.21 829.62 1663.36 837.05"/><polygon class="cls-7" points="1672.71 862.19 1437.49 961.43 1434.35 953.99 1669.56 854.75 1672.71 862.19"/><polygon class="cls-7" points="1684.01 887.07 1448.8 986.32 1445.65 978.88 1680.86 879.63 1684.01 887.07"/><polygon class="cls-7" points="1693.68 909.89 1458.46 1009.13 1455.31 1001.69 1690.53 902.45 1693.68 909.89"/><polygon class="cls-7" points="1551.07 799.44 1397.01 864.44 1393.86 857 1547.92 792 1551.07 799.44"/><path class="cls-4" d="M819.42,78.64,604.89-9.94A19.75,19.75,0,0,0,579.1.74L549.91,71.16a19.71,19.71,0,0,0,10.7,25.75l214.53,88.58a19.75,19.75,0,0,0,25.79-10.68l29.19-70.43A19.71,19.71,0,0,0,819.42,78.64Z" transform="translate(-103.17 91.56)"/><path class="cls-4" d="M1451.94,32.17l-35.68-67.38a19.77,19.77,0,0,0-26.68-8.22L1184.32,64.86a19.69,19.69,0,0,0-8.23,26.63l35.68,67.38a19.77,19.77,0,0,0,26.68,8.22L1443.7,58.8A19.69,19.69,0,0,0,1451.94,32.17Z" transform="translate(-103.17 91.56)"/><path class="cls-4" d="M1067.93,257.18l-8.31-20.44-8.53-21A13.78,13.78,0,0,0,1043,208h0a12.17,12.17,0,0,0-1.3-.4l-.07,0c-.41-.1-.83-.18-1.26-.25l-.15,0a11.63,11.63,0,0,0-1.2-.11l-.23,0c-.37,0-.74,0-1.12,0h-.31c-.35,0-.71.07-1.06.12l-.37.05c-.34.06-.69.15-1,.24l-.38.09a14,14,0,0,0-1.38.47,13.78,13.78,0,0,0-7.61,18l8.53,21,8.31,20.45a14.91,14.91,0,0,0,.82,1.65l.24.4a12.52,12.52,0,0,0,1,1.4l.05.07a12.8,12.8,0,0,0,1.24,1.31l.27.25a15.33,15.33,0,0,0,1.36,1.08l0,0a12,12,0,0,0,1.59.93l.22.11a14.45,14.45,0,0,0,3.53,1.15l.13,0a14.8,14.8,0,0,0,1.88.2h0a13.79,13.79,0,0,0,13.25-19Z" transform="translate(-103.17 91.56)"/><path class="cls-4" d="M1162.6,237.08a13.78,13.78,0,0,0-7.07-18.18l-20.22-8.9-20.75-9.14a13.84,13.84,0,0,0-10-.45h0c-.44.15-.87.32-1.3.51h0c-.41.19-.81.39-1.2.62l-.07,0c-.37.22-.73.45-1.08.7l-.12.08c-.32.24-.63.49-.94.76l-.17.15c-.28.25-.54.51-.8.79l-.22.22c-.23.27-.45.54-.67.83-.07.09-.16.19-.23.29-.21.28-.39.59-.58.89l-.21.32a13.36,13.36,0,0,0-.66,1.31,13.78,13.78,0,0,0,7.07,18.18l20.75,9.13,20.22,8.9a13,13,0,0,0,1.75.62l.44.12a14.81,14.81,0,0,0,1.69.33h.08a13.78,13.78,0,0,0,1.81.08h.37a12.37,12.37,0,0,0,1.72-.17h0a12.63,12.63,0,0,0,1.79-.44l.23-.07a13.9,13.9,0,0,0,3.33-1.63l.11-.08a13.84,13.84,0,0,0,1.49-1.16h0A13.85,13.85,0,0,0,1162.6,237.08Z" transform="translate(-103.17 91.56)"/><path class="cls-4" d="M387.91,638.19a1.77,1.77,0,0,0,0-.23s0,0,0,0a20.69,20.69,0,0,0-37.2-11.67h0c-.27.36-.53.72-.78,1.1-.13.19-.24.39-.35.58l-.07.09c0,.06-.05.11-.08.16s-.14.22-.2.33h0v0l-.53,1-.1.2h0a20.52,20.52,0,0,0-1.73,5.22h0a20.35,20.35,0,0,0-.3,2.68c0,.21,0,.42,0,.63a21,21,0,0,0,.09,2.63v0a21.52,21.52,0,0,0,.48,2.62c0,.2.1.41.16.61a19.79,19.79,0,0,0,.83,2.5v0a19.71,19.71,0,0,0,1.21,2.38c.11.19.22.38.34.57a21.63,21.63,0,0,0,1.54,2.19l0,0a19.5,19.5,0,0,0,1.89,2l.51.46a22.59,22.59,0,0,0,2.24,1.73,20.74,20.74,0,0,0,27-3.8h0c.05-.06.09-.12.14-.17.23-.28.46-.58.68-.87l0,0h0l.23-.31.1-.14.07-.1.39-.55c.25-.38.48-.76.7-1.15h0c.1-.17.19-.34.28-.51s.18-.36.27-.54c.2-.39.38-.78.54-1.18.09-.21.18-.42.26-.64.15-.39.28-.79.41-1.19.06-.2.13-.39.18-.59.16-.57.3-1.14.4-1.71,0-.21.07-.43.1-.64q.09-.57.15-1.14c0-.27.05-.54.06-.82s0-.65,0-1S387.92,638.47,387.91,638.19Z" transform="translate(-103.17 91.56)"/><path class="cls-4" d="M724.87,799.61c0-.12-.06-.25-.09-.37l0-.17s0-.08,0-.11c-.05-.22-.1-.44-.16-.66-.12-.44-.26-.86-.41-1.28h0c-.06-.18-.12-.36-.19-.54l-.24-.56c-.17-.41-.34-.8-.53-1.19l-.32-.61c-.2-.37-.41-.73-.63-1.09-.11-.17-.21-.35-.33-.52-.32-.49-.66-1-1-1.42l-.43-.5c-.25-.29-.5-.58-.76-.86s-.38-.39-.58-.58-.47-.45-.72-.67l-.64-.55-.17-.15,0,0a20.68,20.68,0,0,0-33.22,20.39h0c.09.44.19.88.32,1.31.06.22.13.43.2.64l0,.12.06.16.12.37h0v0c.12.35.25.7.39,1l.07.21h0a20.64,20.64,0,0,0,2.8,4.72h0l.16.18c.33.41.68.8,1,1.17l.43.43.92.86.44.38c.45.37.91.73,1.39,1.06l.17.11q.66.45,1.35.84l.5.28c.38.2.76.39,1.15.57l.51.23c.54.23,1.09.45,1.65.64l.12,0q.79.25,1.62.45l.54.12c.43.09.86.16,1.3.22l.54.08c.6.07,1.21.12,1.82.14h0c.6,0,1.2,0,1.8,0l.56,0c.45,0,.91-.1,1.37-.17l.55-.09c.62-.12,1.25-.25,1.87-.43A20.67,20.67,0,0,0,725.1,801h0c0-.08,0-.15,0-.22q-.09-.54-.21-1.08v0Z" transform="translate(-103.17 91.56)"/><path class="cls-4" d="M607.61,847.36c0,.21,0,.42,0,.63a20.57,20.57,0,0,0,.43,2.59v0a22,22,0,0,0,.8,2.54l.24.59a22.45,22.45,0,0,0,1.14,2.37l0,0a21.51,21.51,0,0,0,1.49,2.22l.41.51a21.13,21.13,0,0,0,1.81,2l0,0a21.06,21.06,0,0,0,2.13,1.72c.18.14.37.27.56.39a21.06,21.06,0,0,0,2.44,1.43,20.74,20.74,0,0,0,26.35-7.16h0l.11-.18c.2-.31.38-.63.57-1l0,0h0l.18-.34.09-.15,0-.1c.11-.2.22-.4.32-.6.2-.41.38-.82.55-1.23h0c.08-.17.15-.35.22-.53l.2-.57c.14-.41.27-.83.38-1.24.07-.22.12-.44.18-.66.1-.41.18-.83.25-1.24,0-.2.08-.41.11-.61a17.1,17.1,0,0,0,.18-1.74c0-.22,0-.44,0-.65,0-.39,0-.77,0-1.15s0-.55-.05-.82,0-.65-.09-1-.06-.56-.11-.84a1.81,1.81,0,0,0,0-.23v.05a20.69,20.69,0,0,0-38.38-6.9h0c-.22.39-.44.78-.64,1.19-.1.21-.18.41-.27.62l-.06.1-.06.17c0,.11-.11.23-.16.35h0v0c-.14.34-.28.69-.4,1,0,.07-.06.14-.08.21h0a20.76,20.76,0,0,0-1.06,5.39h0A20.1,20.1,0,0,0,607.61,847.36Z" transform="translate(-103.17 91.56)"/><path class="cls-4" d="M706.12,1001.37c0-1.33,0-2.64-.1-3.94,0-.47-.07-.94-.11-1.4-.08-.85-.2-1.69-.33-2.53-.15-1-.34-2-.56-3-.07-.28-.11-.56-.18-.83v.06A45.32,45.32,0,0,0,623,975.29l-1.42-.38-1.15-.31c-1.82-.48-3.63-.92-5.42-1.34l-1.22-.29c-1.78-.4-3.55-.78-5.3-1.12l-1.17-.23q-2.67-.51-5.3-.93l-1-.15c-1.82-.28-3.63-.54-5.43-.76l-.49-.06a166.57,166.57,0,0,0-34.63-.57l-.47,0c-1.64.15-3.28.33-4.92.52l-1,.12c-1.55.19-3.1.41-4.64.64l-1.18.19c-1.5.24-3,.49-4.5.77l-1.27.24c-1.48.28-2.95.58-4.43.9l-1.26.28c-1.49.33-3,.67-4.46,1l-1.11.28c-1.54.39-3.08.78-4.62,1.2l-.7.2c-8.69,2.41-17.36,5.35-26.14,8.7l-1.37.52c-1.34.51-2.69,1.05-4,1.59l-1.88.74-3.82,1.56-2.14.89-3.68,1.55-2.37,1L477,993.67l-2.58,1.13L471,996.32l-2.84,1.27-3.27,1.47-3.15,1.43-3.06,1.4-3.75,1.72-2.56,1.18-6.28,2.89-2,.92c-58.28,26.9-133.89,29.69-192.61,7.11-42.23-16.24-73-44.53-88.85-81.82-28.45-66.75-10.82-149.55,7.93-221.91q1.59-6.15,3.26-12.27c.4-1.49.82-3,1.23-4.46.72-2.6,1.43-5.19,2.16-7.78.52-1.84,1.06-3.68,1.59-5.51.64-2.22,1.27-4.44,1.93-6.66.6-2.06,1.23-4.11,1.85-6.17s1.19-4,1.8-6c.67-2.21,1.37-4.41,2.06-6.62.57-1.82,1.13-3.64,1.71-5.45.74-2.34,1.5-4.67,2.26-7,.55-1.67,1.09-3.34,1.64-5,.81-2.46,1.64-4.91,2.47-7.36q.76-2.29,1.55-4.59c.88-2.57,1.77-5.15,2.67-7.72l1.47-4.16q1.42-4,2.88-8c.45-1.27.91-2.53,1.38-3.8q1.53-4.17,3.09-8.34l1.27-3.39q1.65-4.35,3.32-8.68l1.16-3c1.18-3,2.36-6,3.57-9,.33-.83.66-1.67,1-2.5,1.26-3.14,2.54-6.29,3.83-9.42l.84-2q2-4.9,4.11-9.81c.22-.5.44-1,.65-1.52q2.19-5.13,4.42-10.25l.4-.88q2.14-4.9,4.34-9.78a179.19,179.19,0,0,0,48,8.18,139,139,0,0,0,62.89-13c38.82-18.14,63.21-51.12,76.41-74.29l.58.15c.19-.71.39-1.48.58-2.22a176.19,176.19,0,0,0,11.23-23.78l-4.52-1.62,4.12-15.45h0c18.08-67.74,44.55-164.15,55.21-189.43,16-38-1.32-62.29-12.72-69.85l-17.89-9c.1-.38.19-.77.27-1.16,0-.18.07-.35.09-.53a14.52,14.52,0,0,0,.19-1.73s0-.08,0-.12a16.28,16.28,0,0,0,0-2s0-.1,0-.16a15.27,15.27,0,0,0-.26-1.78c0-.08,0-.15-.05-.22a16.46,16.46,0,0,0-2.31-5.48h0a16.14,16.14,0,0,0-6.73-5.81l-11.19-5.18a16.28,16.28,0,0,0-21.6,7.91l-1.89,4.06a16.21,16.21,0,0,0,.39,14.4l.1.18a14.37,14.37,0,0,0,.95,1.53,1.4,1.4,0,0,0,.1.16,15.51,15.51,0,0,0,1.26,1.55v0a18,18,0,0,0,1.34,1.28l.41.33c.37.3.76.59,1.17.86l.46.31a18,18,0,0,0,1.73.94l11.2,5.18c.51.23,1,.44,1.54.62a16.28,16.28,0,0,0,9.41.36c.5-.14,1-.29,1.49-.47a15.71,15.71,0,0,0,1.92-.87,16.75,16.75,0,0,0,1.67-1c.26-.18.52-.36.76-.55L470.27,156c2.77,2.09,21.36,17.69,7,51.67-11.56,27.41-39.78,130.64-59.67,205.59l-5.35-1.93c-.21.61-22.48,60.94-75.71,85.81-30,14-64.53,14.09-102.62.22C180.23,477.8,150.21,442,144.73,391c-4.24-39.41,8.13-73.76,8.25-74.08l-3.74-1.39c32.45-74.27,70.93-164.11,79.5-191.66,11-35.34,35.43-35.2,38.69-35l19.18,4.54c.05.24.11.49.18.73a.29.29,0,0,1,0,.09,16.16,16.16,0,0,0,1.83,4.22,1.37,1.37,0,0,0,.13.2,15,15,0,0,0,1.29,1.79l0,0a17.54,17.54,0,0,0,1.53,1.58l.32.27a16.43,16.43,0,0,0,1.68,1.27l.08.06a16.22,16.22,0,0,0,1.93,1l.47.21a16.8,16.8,0,0,0,2.13.76l2.55.69,9.36,2.54a16.23,16.23,0,0,0,4.86.56,13.83,13.83,0,0,0,1.58-.13,15.84,15.84,0,0,0,3.06-.72,16.66,16.66,0,0,0,4.16-2.12,16.16,16.16,0,0,0,6.3-9l1.18-4.32c.15-.57.27-1.14.36-1.7,0-.16,0-.32.06-.48.05-.41.1-.82.12-1.23,0-.16,0-.33,0-.49,0-.41,0-.81,0-1.21,0-.15,0-.3,0-.45,0-.42-.08-.83-.14-1.25,0-.12-.05-.23-.07-.35-.08-.45-.18-.88-.29-1.31,0-.09,0-.18-.08-.27a13.77,13.77,0,0,0-.46-1.37l-.06-.16c-.19-.48-.41-1-.64-1.41a.16.16,0,0,1,0-.07c-.26-.49-.53-1-.83-1.42h0a16.19,16.19,0,0,0-9.32-6.76L308,70a16.28,16.28,0,0,0-19,8.81l-18.66-4.42-.87-.15c-13.6-1.53-42.55,5.94-54.79,45.27-8,25.69-44.35,110.7-71.52,173.16l-2.92,6.69-.1.24-2.24,5.13c-.3.68-.6,1.38-.89,2l-1.6,3.65-6.13-2.27c-1.06,2.87-25.69,71,3.36,133.7,15.21,32.78,42.12,57.67,80,74.17A1208.24,1208.24,0,0,0,146,705.64c-19.8,76.4-38.28,164.11-6.71,238.15,18.64,43.72,54.27,76.75,103,95.5,27.09,10.42,57.41,16,88.23,16.69,42.9,1,86.75-7.2,124.11-24.44l2-.92c61.12-28.21,101.5-46.81,158.72-31.22a45.16,45.16,0,0,0,17,36.15l.36.28q1.75,1.38,3.65,2.59c.33.21.66.43,1,.63.58.36,1.17.69,1.77,1s1.22.63,1.84.93,1.15.56,1.74.82c1,.41,1.91.78,2.89,1.13l1.28.43c1.06.34,2.14.65,3.23.91l.5.14c1.28.29,2.58.5,3.89.68l1,.13c1.35.16,2.72.28,4.11.31h0a45.33,45.33,0,0,0,46.45-44.18Z" transform="translate(-103.17 91.56)"/><path class="cls-4" d="M221.78,765.22l3.39-1h0l2.19-.64,2.92,9.94h0l50.1,170.28a9.55,9.55,0,0,0,11.84,6.45l68.15-20a9.53,9.53,0,0,0,6.46-11.82l-4.21-14.29h0l-17.08-58h0l-19.62-66.68h0l-9.19-31.26h0l-2.93-9.94-15.15,4.45h0l6.69-2,2-.57h0l5.92-1.74,2.75-.81h0l3.39-1-6.81-23.13-5.48,1.6-2,.61h0l-47.87,14h0l-.89.26-7.78,2.28h0l-1.07.32-7.6,2.23h0l-1.25.36-7.41,2.18h0l-1.44.42-7.23,2.12h0l-4.14,1.21h0l-3.39,1Zm66.45-19.48,1-.31-8,2.34h0Zm-8.56,2.51.54-.16-7.57,2.22h0Zm-8.06,2.36h0l-1.07.32Zm26.73-7.83L290,745.23h0l6.81-2Z" transform="translate(-103.17 91.56)"/><path class="cls-4" d="M515.8,779.71h0l-4-.8h0l-4.43-.89h0l-4-.8h0l-4.42-.89h0l-4-.81h0l-4.43-.88h0l-4-.81h0l-4.42-.88h0l-4-.81h0l-4.43-.88h0l-1.38-.28L465,769.56h0l-4-.8h0l-4.42-.89h0l-4-.8h0l-4.43-.89h0l-4-.81h0l-3.31-.66L436.2,787.3l6.13,1.22-1.43,7.23c-10.54.74-19.38,7.31-21.24,16.76l-3.16,16h0l-1.85,9.39h0l-8.43,42.73h0l-4.43,22.43c-2.3,11.67,6.9,23.31,20.56,26l68.27,13.42c13.66,2.68,26.59-4.6,28.89-16.28l2.9-14.68h0l1.53-7.74h0l10.28-52.12h0l3.16-16c1.86-9.45-3.82-18.87-13.29-23.54l.54-2.75h0l.83-4.21,6,1.21L536,783.76l-3.31-.66h0l-4-.81h0Z" transform="translate(-103.17 91.56)"/><path class="cls-4" d="M1547.61,206.7l.54-2.74h0l.83-4.22,6,1.21,4.53-22.59-37.17-7.42h0l-4-.81h0L1497,165.86h0l-1.38-.28-24-4.79h0l-4-.81h0l-3.31-.66-4.53,22.58,6.13,1.23-1.43,7.22c-10.54.74-19.38,7.31-21.24,16.76l-3.64,18.42-1.37,7h0l-8.43,42.72h0l-4.43,22.43c-2.3,11.67,6.9,23.31,20.56,26l68.27,13.42c13.66,2.69,26.59-4.6,28.89-16.27l2.9-14.68h0l1.53-7.75h0l8.43-42.78,5-25.36C1562.76,220.8,1557.08,211.37,1547.61,206.7Z" transform="translate(-103.17 91.56)"/><path class="cls-4" d="M1415.71,399.41l-14.2,13.23-.09-.09-6.19,5.73,3.77,4.05L1269.1,542.67a23.18,23.18,0,1,0,31.57,34l129.9-120.34,3.77,4.06,6.19-5.74-.06-.05,14.32-13.34Z" transform="translate(-103.17 91.56)"/><path class="cls-4" d="M1082.92,86.39l12.46-10.93-11.74-13.34,4.95-4.35h0l40.05-35.1,3.6,4.1,8.12-7.11-22.85-26L1109.39.8,1113,4.9l-45,39.44-11.24-12.77L1044.3,42.49l.29.34-90.2,79.07-6.45,28-7.42,6.51s-.61,4.31,3,9.54l-2.52,2.2h0L889.88,213l3.21,3.64,51.16-44.84h0l2.51-2.21c4.72,4.29,9.09,4.24,9.09,4.24l7.42-6.51,28.65-2.76,90.2-79.07Z" transform="translate(-103.17 91.56)"/><path class="cls-4" d="M619.48,225.73l.09.56a18.57,18.57,0,0,0,.52,2.35v0a18.12,18.12,0,0,0,.86,2.26l.24.53a19.66,19.66,0,0,0,1.17,2.1v0a19.87,19.87,0,0,0,1.48,1.94l.39.45a20.1,20.1,0,0,0,1.75,1.7l0,0a18.48,18.48,0,0,0,2,1.45l.54.33a19.7,19.7,0,0,0,2.29,1.17,18.79,18.79,0,0,0,11,1.11,19.81,19.81,0,0,0,3.47-1A19.05,19.05,0,0,0,650,238a18.72,18.72,0,0,0,4.46-5.2h0l.09-.18c.06-.1.13-.19.18-.29s.19-.4.29-.6v0h0l.15-.31.07-.15a.36.36,0,0,1,0-.09c.08-.19.18-.37.26-.56.16-.38.3-.77.43-1.15h0c0-.17.11-.33.16-.5s.1-.35.16-.53c.1-.38.2-.77.28-1.15,0-.2.09-.41.13-.61.07-.38.12-.76.16-1.13a5.54,5.54,0,0,0,.07-.57c0-.53.08-1.06.08-1.59,0-.2,0-.4,0-.59,0-.35,0-.7-.06-1s-.05-.5-.08-.75-.08-.59-.13-.88-.09-.51-.14-.76a1.18,1.18,0,0,1,0-.2v0a18.85,18.85,0,0,0-35.26-4.28h0c-.19.37-.36.74-.52,1.12-.08.19-.15.38-.22.57l0,.1,0,.15-.13.33h0v0c-.11.32-.22.63-.31,1l-.06.19h0a18.34,18.34,0,0,0-.68,5h0A22.25,22.25,0,0,0,619.48,225.73Z" transform="translate(-103.17 91.56)"/><path class="cls-4" d="M742.47,216.62a18.89,18.89,0,0,0-25.78.13h0q-.45.42-.87.87c-.14.15-.27.31-.41.47l-.07.07a1.13,1.13,0,0,0-.1.13c-.08.09-.16.17-.23.26h0l0,0c-.21.26-.42.52-.61.79l-.13.15h0a18.81,18.81,0,0,0-2.35,4.42h0a19.24,19.24,0,0,0-.67,2.36l-.12.56a18.73,18.73,0,0,0-.31,2.37v0a17.77,17.77,0,0,0,0,2.42c0,.19,0,.39,0,.58a19,19,0,0,0,.37,2.36v0A18.81,18.81,0,0,0,712,237c.07.19.15.37.22.56a18.52,18.52,0,0,0,1.06,2.2v0a19.68,19.68,0,0,0,1.4,2.06l.39.49a19.4,19.4,0,0,0,1.75,1.89,18.89,18.89,0,0,0,24.85.69h0l.15-.13c.25-.21.5-.45.74-.68l0,0v0l.24-.25.12-.11a.27.27,0,0,0,.07-.08c.15-.14.3-.28.44-.43.28-.31.54-.62.8-.93v0c.31-.38.6-.77.88-1.17.11-.15.22-.31.32-.47a18.06,18.06,0,0,0,1.27-2.26c0-.09.07-.17.11-.25a21.63,21.63,0,0,0,.85-2.28c0-.13.08-.25.11-.38a18,18,0,0,0,.52-2.53l0-.12s0,0,0,0A18.78,18.78,0,0,0,742.47,216.62Z" transform="translate(-103.17 91.56)"/><path class="cls-4" d="M686.83,278.82a18.81,18.81,0,0,0-14.19,21.48h0c.07.4.14.8.24,1.2,0,.2.11.4.17.6a.44.44,0,0,0,0,.1.88.88,0,0,0,.05.15l.09.34h0v0c.1.32.2.64.32.95l.06.19h0a18.62,18.62,0,0,0,2.37,4.4h0a20.37,20.37,0,0,0,1.59,1.87l.4.4a19.31,19.31,0,0,0,1.81,1.58l0,0a19.61,19.61,0,0,0,2,1.32l.51.28a19.49,19.49,0,0,0,2.18,1h0a18.41,18.41,0,0,0,2.33.7l.59.12a19.32,19.32,0,0,0,2.42.35h0a17.41,17.41,0,0,0,2.5,0l.62-.05a18.61,18.61,0,0,0,2.54-.4A18.84,18.84,0,0,0,710,295.2h0l0-.19c0-.33-.09-.67-.15-1v0h0c0-.11,0-.23-.07-.34s0-.11,0-.16l0-.1c0-.2-.07-.4-.12-.6-.1-.41-.21-.8-.33-1.19h0c-.14-.48-.3-.94-.48-1.39-.07-.18-.14-.35-.22-.53a19.3,19.3,0,0,0-1.18-2.31l-.15-.23a20.08,20.08,0,0,0-1.43-2c-.08-.1-.16-.21-.25-.31a19.65,19.65,0,0,0-1.82-1.83l-.09-.09,0,0A18.85,18.85,0,0,0,686.83,278.82Z" transform="translate(-103.17 91.56)"/><polygon class="cls-4" points="1528.38 826.25 1219.67 723.68 1219.67 723.68 1219.67 723.68 1077.59 1149.77 1077.59 1149.77 1077.59 1149.77 1077.59 1149.77 1386.3 1252.34 1528.38 826.25"/><polygon class="cls-5" points="1370.99 1241.11 1062.28 1138.53 1204.36 712.45 1513.07 815.02 1370.99 1241.11"/><polygon class="cls-6" points="1204.36 712.45 1062.28 1138.54 1513.07 815.02 1204.36 712.45"/><polygon class="cls-7" points="1292.42 827.98 1214.84 802.2 1217.39 794.53 1294.98 820.31 1292.42 827.98"/><polygon class="cls-7" points="1286.86 848.19 1208.22 822.05 1210.77 814.39 1289.42 840.52 1286.86 848.19"/><polygon class="cls-7" points="1358.98 898.57 1200.29 845.84 1202.84 838.17 1361.54 890.91 1358.98 898.57"/><polygon class="cls-7" points="1371.48 1150.09 1129.19 1069.58 1131.75 1061.91 1374.04 1142.42 1371.48 1150.09"/><polygon class="cls-7" points="1376.68 1124.48 1134.39 1043.97 1136.94 1036.31 1379.24 1116.81 1376.68 1124.48"/><polygon class="cls-7" points="1426.49 974.43 1184.2 893.92 1186.75 886.26 1429.04 966.76 1426.49 974.43"/><polygon class="cls-7" points="1363.65 1173.59 1121.35 1093.08 1123.91 1085.42 1366.2 1165.93 1363.65 1173.59"/><polygon class="cls-7" points="1418.52 1000.57 1176.22 920.06 1178.78 912.39 1421.07 992.9 1418.52 1000.57"/><polygon class="cls-7" points="1410.68 1024.07 1168.39 943.56 1170.94 935.9 1413.23 1016.41 1410.68 1024.07"/><polygon class="cls-7" points="1401.08 1049.11 1158.79 968.61 1161.34 960.94 1403.63 1041.45 1401.08 1049.11"/><polygon class="cls-7" points="1393.11 1075.25 1150.82 994.74 1153.37 987.08 1395.66 1067.59 1393.11 1075.25"/><polygon class="cls-7" points="1385.27 1098.76 1142.98 1018.25 1145.53 1010.59 1387.83 1091.09 1385.27 1098.76"/><polygon class="cls-7" points="1351.23 921.81 1192.54 869.08 1195.09 861.42 1353.79 914.15 1351.23 921.81"/><path class="cls-8" d="M804.11,67.41,589.58-21.17a19.76,19.76,0,0,0-25.79,10.68L534.61,59.93a19.7,19.7,0,0,0,10.7,25.75l214.53,88.58a19.76,19.76,0,0,0,25.79-10.68l29.18-70.43A19.69,19.69,0,0,0,804.11,67.41Z" transform="translate(-103.17 91.56)"/><path class="cls-9" d="M604.92,32.16q.45-.39.87-.81c.15-.14.29-.29.43-.44s.52-.57.76-.87c.13-.14.25-.28.37-.43q.49-.63.93-1.29c.11-.17.2-.35.31-.52s.35-.59.52-.9.23-.44.33-.67.26-.54.37-.81.21-.47.3-.71l.07-.19s0,0,0,0A18.82,18.82,0,0,0,582.92,1.81v0c-.35.21-.7.43-1,.66-.17.11-.33.24-.5.36l-.09.06-.12.1-.28.21h0l0,0c-.26.21-.53.41-.78.63l-.15.13h0a18.6,18.6,0,0,0-3.28,3.78h0l-.11.19c-.26.4-.49.81-.71,1.23-.09.16-.17.33-.25.49q-.26.51-.48,1.05c-.06.16-.13.32-.2.48-.19.5-.37,1-.52,1.51,0,.06,0,.12,0,.18-.13.46-.24.93-.34,1.4l-.09.52c-.07.38-.12.76-.16,1.15l-.06.5c0,.54-.07,1.08-.07,1.61v.12c0,.5,0,1,.08,1.52l.06.5c0,.4.11.79.18,1.19l.09.49a15.66,15.66,0,0,0,.41,1.6s0,0,0,.05c.16.52.35,1,.55,1.53l.21.46c.16.39.34.76.54,1.14.08.15.15.3.24.45.28.5.57,1,.9,1.48a18.78,18.78,0,0,0,7,6.14c.54.28,1.09.53,1.65.76s1.14.42,1.72.58a18,18,0,0,0,1.76.42,18.57,18.57,0,0,0,12-1.7v0l.17-.1c.3-.16.59-.33.88-.5h0c.1,0,.2-.12.3-.18l.14-.08.08-.06c.18-.11.35-.21.52-.33.35-.23.67-.48,1-.73h0l.41-.33Z" transform="translate(-103.17 91.56)"/><path class="cls-10" d="M608,21.69A18.86,18.86,0,1,1,597.91-3,18.88,18.88,0,0,1,608,21.69Z" transform="translate(-103.17 91.56)"/><path class="cls-11" d="M609,10.25a18.87,18.87,0,0,1-37.26,4.15A18.87,18.87,0,0,0,608,21.69,18.58,18.58,0,0,0,609,10.25Z" transform="translate(-103.17 91.56)"/><path class="cls-11" d="M573,7.78c-.2.55-.38,1.11-.54,1.66L606.9,23.89c.29-.49.56-1,.81-1.54l.25-.67L573.26,7.13C573.15,7.34,573.05,7.57,573,7.78Z" transform="translate(-103.17 91.56)"/><path class="cls-12" d="M573.21,7.11c-.16.38-.3.77-.43,1.15l34.71,14.55c.18-.37.35-.74.51-1.12s.3-.76.44-1.15L573.73,6C573.55,6.36,573.38,6.73,573.21,7.11Z" transform="translate(-103.17 91.56)"/><path class="cls-9" d="M651.82,51.52c.3-.26.59-.53.87-.8l.44-.45c.26-.28.51-.57.76-.86l.36-.43c.33-.43.64-.86.93-1.3.11-.17.2-.34.31-.51s.36-.59.52-.9.23-.45.34-.67.25-.54.37-.81.2-.47.29-.71a1.08,1.08,0,0,1,.08-.19l0,0a18.82,18.82,0,0,0-27.24-22.75h0c-.35.21-.7.42-1,.65l-.5.37-.09.06-.12.1-.28.2v0h0l-.78.64-.15.12h0a18.93,18.93,0,0,0-3.28,3.79h0v0l-.11.19c-.25.4-.49.81-.71,1.23-.09.16-.17.32-.25.48-.17.35-.33.7-.47,1.05-.07.16-.14.32-.2.48a14.18,14.18,0,0,0-.52,1.51c0,.06,0,.13,0,.19-.13.46-.24.93-.34,1.4l-.09.51c-.07.39-.12.77-.16,1.16l-.06.5c0,.53-.07,1.07-.07,1.61,0,0,0,.08,0,.11,0,.51,0,1,.08,1.52,0,.17,0,.34,0,.51.05.39.11.79.18,1.18l.09.49c.12.54.25,1.08.41,1.61a.43.43,0,0,1,0,.05c.16.51.35,1,.56,1.52.06.16.13.31.2.47.17.38.35.76.54,1.13l.24.45A16.5,16.5,0,0,0,623.8,48a18.67,18.67,0,0,0,6.94,6.14,16.51,16.51,0,0,0,1.66.75c.56.22,1.13.42,1.71.59a19,19,0,0,0,5.36.75,18.73,18.73,0,0,0,8.4-2h0l.17-.1c.3-.15.59-.32.88-.49h0l.3-.19.14-.07.08-.07.53-.33q.51-.34,1-.72h0l.4-.32C651.55,51.77,651.68,51.64,651.82,51.52Z" transform="translate(-103.17 91.56)"/><path class="cls-10" d="M654.9,41.06a18.86,18.86,0,1,1-10.09-24.65A18.87,18.87,0,0,1,654.9,41.06Z" transform="translate(-103.17 91.56)"/><path class="cls-11" d="M655.91,29.61a18.87,18.87,0,0,1-37.27,4.15,18.87,18.87,0,1,0,37.27-4.15Z" transform="translate(-103.17 91.56)"/><path class="cls-11" d="M619.85,27.15c-.2.55-.38,1.1-.53,1.66L653.8,43.26c.29-.5.56-1,.81-1.54.08-.23.18-.45.25-.68l-34.7-14.55C620.05,26.71,620,26.93,619.85,27.15Z" transform="translate(-103.17 91.56)"/><path class="cls-12" d="M620.12,26.48c-.16.38-.3.76-.44,1.15l34.71,14.54q.27-.54.51-1.11c.16-.38.31-.77.44-1.15L620.63,25.36C620.45,25.73,620.28,26.1,620.12,26.48Z" transform="translate(-103.17 91.56)"/><path class="cls-9" d="M698.73,70.89c.29-.26.58-.53.86-.81s.3-.29.44-.44.51-.57.76-.86.25-.29.36-.44q.5-.63.93-1.29c.11-.17.21-.34.31-.51s.36-.6.52-.9l.34-.68c.13-.26.25-.53.37-.81s.2-.47.29-.71c0-.06.06-.12.08-.19l0,0a18.82,18.82,0,0,0-27.24-22.75h0c-.35.2-.7.42-1,.65l-.49.36-.09.06-.13.1-.28.21h0l0,0c-.27.21-.53.41-.78.63l-.16.13h0a18.6,18.6,0,0,0-3.28,3.78h0l-.12.19c-.25.41-.49.82-.71,1.23-.09.16-.16.33-.25.49-.17.34-.32.69-.47,1.05-.07.16-.14.32-.2.48-.2.5-.37,1-.52,1.51,0,.06,0,.12-.05.18-.13.46-.24.93-.34,1.4l-.09.52c-.06.38-.12.77-.16,1.15,0,.17,0,.34,0,.5,0,.54-.08,1.08-.08,1.62,0,0,0,.07,0,.11,0,.51,0,1,.08,1.52,0,.17,0,.33,0,.5.05.4.11.79.18,1.19l.09.49c.12.54.25,1.07.41,1.6a.08.08,0,0,0,0,.05c.16.52.34,1,.55,1.53.06.16.13.31.2.47.17.38.35.75.54,1.13l.24.45c.28.5.58,1,.91,1.48a18.75,18.75,0,0,0,6.94,6.14c.54.28,1.09.53,1.66.76a17.2,17.2,0,0,0,1.71.58c.58.17,1.17.31,1.76.43a19.87,19.87,0,0,0,3.61.33,18.85,18.85,0,0,0,8.39-2h0l.18-.1c.29-.15.58-.32.87-.49l0,0v0l.29-.19.14-.08.09-.06c.17-.11.35-.21.52-.33.34-.23.67-.48,1-.73h0l.41-.33Z" transform="translate(-103.17 91.56)"/><path class="cls-10" d="M701.81,60.42a18.86,18.86,0,1,1-10.09-24.65A18.89,18.89,0,0,1,701.81,60.42Z" transform="translate(-103.17 91.56)"/><path class="cls-11" d="M702.81,49a18.58,18.58,0,0,1-1.48,7.28,18.87,18.87,0,0,1-35.79-3.13A18.87,18.87,0,1,0,702.81,49Z" transform="translate(-103.17 91.56)"/><path class="cls-11" d="M666.76,46.52a16.72,16.72,0,0,0-.54,1.65L700.7,62.63c.29-.5.56-1,.81-1.55.09-.22.18-.45.26-.67L667.06,45.86C667,46.07,666.86,46.3,666.76,46.52Z" transform="translate(-103.17 91.56)"/><path class="cls-12" d="M667,45.84c-.16.38-.3.77-.44,1.15l34.71,14.55c.18-.37.36-.73.52-1.12s.3-.76.43-1.15l-34.7-14.54C667.35,45.09,667.18,45.46,667,45.84Z" transform="translate(-103.17 91.56)"/><path class="cls-9" d="M745.63,90.25c.3-.26.59-.52.86-.8s.3-.29.44-.45.52-.56.76-.86l.36-.43c.33-.42.64-.85.93-1.3.11-.16.21-.34.31-.51s.36-.59.52-.9.23-.45.34-.67.25-.54.37-.81.2-.47.29-.71c0-.07.06-.13.08-.19s0,0,0,0a18.82,18.82,0,0,0-27.24-22.74v0c-.35.21-.7.42-1,.66-.17.11-.33.24-.49.36L722,61l-.13.1-.28.2v0l0,0q-.41.3-.78.63l-.16.12v0a18.55,18.55,0,0,0-3.27,3.78h0l-.12.19c-.25.4-.49.81-.71,1.23l-.24.49c-.17.34-.33.69-.48,1-.07.16-.14.32-.2.48-.19.5-.37,1-.52,1.52,0,.06,0,.12-.05.18-.13.46-.24.93-.33,1.4,0,.17-.07.34-.1.52-.06.38-.12.76-.16,1.15,0,.17,0,.33-.05.5,0,.54-.07,1.07-.07,1.61v.12c0,.5,0,1,.08,1.52l.06.5c0,.4.1.79.17,1.18,0,.17.06.33.1.49.11.54.24,1.08.4,1.61,0,0,0,0,0,.05.16.51.35,1,.55,1.53.06.15.13.31.2.46.17.38.35.76.55,1.13.07.15.15.31.23.46.28.5.58,1,.91,1.48a18.75,18.75,0,0,0,6.94,6.14,17.59,17.59,0,0,0,1.66.75,17.26,17.26,0,0,0,1.71.59,18,18,0,0,0,1.76.42,18.23,18.23,0,0,0,3.61.33,18.76,18.76,0,0,0,8.4-2h0l.18-.1c.29-.15.58-.32.87-.49h0l.29-.18.14-.08.09-.07.52-.32c.34-.24.67-.48,1-.73h0l.41-.32Z" transform="translate(-103.17 91.56)"/><ellipse class="cls-10" cx="628.14" cy="164.06" rx="18.86" ry="18.83"/><path class="cls-11" d="M749.71,68.34a18.86,18.86,0,0,1-37.26,4.15,18.86,18.86,0,1,0,37.26-4.15Z" transform="translate(-103.17 91.56)"/><path class="cls-11" d="M713.66,65.88a16.9,16.9,0,0,0-.54,1.66L747.6,82c.29-.5.56-1,.81-1.54.09-.23.18-.45.26-.68L714,65.23Z" transform="translate(-103.17 91.56)"/><path class="cls-12" d="M713.92,65.21c-.16.38-.3.76-.43,1.15l34.7,14.55c.18-.37.36-.74.52-1.12s.3-.76.43-1.15l-34.7-14.55C714.26,64.46,714.08,64.83,713.92,65.21Z" transform="translate(-103.17 91.56)"/><path class="cls-9" d="M792.53,109.62q.45-.39.87-.81l.43-.44c.27-.28.52-.57.76-.86l.37-.44q.49-.63.93-1.29c.11-.17.2-.34.3-.51s.36-.6.53-.9l.33-.68c.13-.26.26-.53.37-.81s.2-.47.29-.71a1.08,1.08,0,0,0,.08-.19.08.08,0,0,1,0,0,18.82,18.82,0,0,0-27.24-22.75h0c-.35.2-.7.42-1,.65l-.5.37-.09,0-.12.1-.29.21h0l0,0-.78.63-.15.13h0a18.55,18.55,0,0,0-3.27,3.78h0l-.11.19c-.26.41-.49.82-.72,1.23l-.24.49q-.26.52-.48,1c-.07.16-.14.32-.2.48-.19.5-.37,1-.52,1.51a1.16,1.16,0,0,0,0,.18,14.25,14.25,0,0,0-.34,1.4c0,.18-.06.35-.09.52-.07.38-.12.77-.17,1.15,0,.17,0,.34-.05.51,0,.53-.07,1.07-.07,1.61v.11c0,.51,0,1,.08,1.52l.06.5c0,.4.1.8.18,1.19,0,.16.05.33.09.49.11.54.24,1.07.4,1.6a.17.17,0,0,1,0,.05c.16.52.35,1,.55,1.53.07.16.14.31.2.47.17.38.35.76.55,1.13.08.15.15.3.24.45.27.5.57,1,.9,1.49a18.84,18.84,0,0,0,6.94,6.14c.55.27,1.1.52,1.66.75s1.14.42,1.72.59,1.16.31,1.76.42a19.68,19.68,0,0,0,3.6.33,18.86,18.86,0,0,0,8.4-2h0l.17-.1c.3-.15.59-.32.88-.49l0,0v0l.3-.19.13-.08.09-.06c.18-.11.35-.21.52-.33.34-.23.67-.48,1-.73h0l.41-.33C792.25,109.87,792.39,109.74,792.53,109.62Z" transform="translate(-103.17 91.56)"/><ellipse class="cls-10" cx="675.04" cy="183.42" rx="18.86" ry="18.83"/><path class="cls-11" d="M796.61,87.71a18.86,18.86,0,0,1-37.26,4.15,18.86,18.86,0,1,0,37.26-4.15Z" transform="translate(-103.17 91.56)"/><path class="cls-11" d="M760.56,85.25c-.21.55-.38,1.1-.54,1.65l34.49,14.46a16.17,16.17,0,0,0,.8-1.55c.09-.22.18-.45.26-.67L760.86,84.59Z" transform="translate(-103.17 91.56)"/><path class="cls-12" d="M760.82,84.58c-.16.38-.3.76-.43,1.14l34.7,14.55c.19-.36.36-.73.52-1.11s.3-.77.44-1.15L761.34,83.46C761.16,83.82,761,84.19,760.82,84.58Z" transform="translate(-103.17 91.56)"/><path class="cls-9" d="M587,75.34c.29-.26.58-.52.86-.8l.44-.45c.26-.28.51-.56.76-.86l.36-.43c.33-.42.64-.85.93-1.3.11-.16.21-.34.31-.51s.36-.59.52-.9.23-.45.34-.67.25-.54.37-.81.2-.47.29-.71c0-.07.06-.13.08-.19l0,0A18.82,18.82,0,0,0,565,45l0,0c-.35.21-.69.42-1,.66-.17.11-.33.24-.49.36l-.09.06-.13.1-.28.2v0l0,0q-.4.3-.78.63l-.16.12v0A18.92,18.92,0,0,0,558.76,51h0v0l-.12.19c-.25.4-.49.81-.71,1.23l-.24.49c-.17.34-.33.69-.48,1-.07.16-.14.32-.2.48-.19.5-.37,1-.52,1.52,0,.06,0,.12,0,.18-.13.46-.24.93-.33,1.4,0,.17-.07.34-.1.52-.06.38-.12.76-.16,1.15,0,.17,0,.33-.05.5a14.45,14.45,0,0,0-.07,1.61v.12c0,.5,0,1,.08,1.52,0,.16,0,.33.06.5,0,.4.1.79.17,1.18l.09.49c.12.54.25,1.08.41,1.61,0,0,0,0,0,0,.16.51.34,1,.55,1.53.06.15.13.31.2.46.17.38.35.76.54,1.13l.24.46c.28.5.58,1,.91,1.48a18.75,18.75,0,0,0,6.94,6.14,17.59,17.59,0,0,0,1.66.75,17.26,17.26,0,0,0,1.71.59,18,18,0,0,0,1.76.42,18.23,18.23,0,0,0,3.61.33,18.69,18.69,0,0,0,8.39-2h0l.18-.1c.29-.15.58-.32.87-.49h0l.29-.18.14-.08.09-.07.52-.32c.34-.24.67-.48,1-.73h0l.41-.32Z" transform="translate(-103.17 91.56)"/><ellipse class="cls-10" cx="469.54" cy="149.15" rx="18.86" ry="18.83"/><path class="cls-11" d="M591.11,53.43a18.63,18.63,0,0,1-1.48,7.29,18.87,18.87,0,0,1-35.79-3.14,18.87,18.87,0,1,0,37.27-4.15Z" transform="translate(-103.17 91.56)"/><path class="cls-11" d="M555.06,51a16.9,16.9,0,0,0-.54,1.66L589,67.08c.29-.5.56-1,.81-1.54.09-.23.18-.45.26-.68L555.36,50.32C555.25,50.53,555.16,50.75,555.06,51Z" transform="translate(-103.17 91.56)"/><path class="cls-12" d="M555.32,50.3c-.16.38-.3.76-.44,1.15L589.59,66c.18-.37.36-.74.52-1.12s.3-.76.43-1.15l-34.7-14.55C555.66,49.55,555.48,49.92,555.32,50.3Z" transform="translate(-103.17 91.56)"/><path class="cls-9" d="M633.93,94.71q.45-.39.87-.81l.43-.44c.27-.28.52-.57.76-.86l.37-.44c.32-.42.64-.85.92-1.29.11-.17.21-.34.31-.51s.36-.6.52-.9.23-.45.34-.68.25-.53.37-.81.2-.47.29-.71a1.08,1.08,0,0,0,.08-.19.08.08,0,0,0,0,0,18.82,18.82,0,0,0-27.24-22.75h0c-.35.2-.7.42-1,.65-.18.12-.34.24-.5.37l-.09,0-.13.1-.28.21h0l0,0-.78.63-.16.13h0a18.55,18.55,0,0,0-3.27,3.78h0l-.11.19q-.39.61-.72,1.23l-.24.49q-.26.52-.48,1c-.07.16-.14.32-.2.48-.19.5-.37,1-.52,1.51,0,.06,0,.12,0,.18-.13.47-.24.93-.33,1.4,0,.18-.07.35-.1.52-.06.38-.12.77-.16,1.15,0,.17,0,.34,0,.51-.05.53-.07,1.07-.07,1.61v.11c0,.51,0,1,.08,1.52l.06.5A11.77,11.77,0,0,0,603,84c0,.16,0,.33.09.49.11.54.24,1.07.4,1.6,0,0,0,0,0,0,.16.52.35,1,.55,1.53.06.16.13.31.2.47.17.38.35.76.55,1.13.07.15.15.3.23.45.28.5.58,1,.91,1.49a18.84,18.84,0,0,0,6.94,6.14c.54.27,1.1.52,1.66.75s1.13.42,1.71.59,1.17.31,1.77.42a19.68,19.68,0,0,0,3.6.33,18.86,18.86,0,0,0,8.4-2h0l.18-.1c.29-.15.58-.32.87-.49l0,0v0l.29-.19.14-.08.09-.06c.17-.11.35-.21.52-.33.34-.23.67-.48,1-.73h0l.41-.33C633.65,95,633.79,94.83,633.93,94.71Z" transform="translate(-103.17 91.56)"/><ellipse class="cls-10" cx="516.44" cy="168.51" rx="18.86" ry="18.83"/><path class="cls-11" d="M638,72.8A18.86,18.86,0,0,1,600.75,77,18.86,18.86,0,1,0,638,72.8Z" transform="translate(-103.17 91.56)"/><path class="cls-11" d="M602,70.34q-.32.82-.54,1.65L635.9,86.45c.29-.5.56-1,.81-1.55.09-.22.18-.45.26-.67L602.26,69.68Z" transform="translate(-103.17 91.56)"/><path class="cls-12" d="M602.22,69.66c-.16.39-.3.77-.43,1.15l34.7,14.55c.18-.36.36-.73.52-1.11s.3-.77.43-1.15l-34.7-14.55C602.56,68.91,602.38,69.28,602.22,69.66Z" transform="translate(-103.17 91.56)"/><path class="cls-9" d="M680.83,114.08c.3-.27.59-.53.87-.81l.43-.44c.27-.28.52-.57.76-.87.12-.14.25-.28.37-.43.33-.42.64-.85.93-1.3.11-.16.2-.34.3-.51s.36-.59.53-.9l.33-.67c.13-.27.26-.54.37-.81l.3-.71.07-.19s0,0,0,0a18.82,18.82,0,0,0-27.24-22.74v0c-.35.21-.7.42-1,.66-.17.11-.33.24-.5.36l-.09.06-.12.1-.28.2v0l0,0c-.26.2-.53.41-.78.63l-.15.13h0a18.86,18.86,0,0,0-3.27,3.78h0l-.11.19c-.26.4-.49.81-.72,1.23l-.24.49c-.17.34-.33.69-.48,1-.07.16-.13.32-.2.49-.19.49-.37,1-.52,1.51a1.16,1.16,0,0,0,0,.18c-.13.46-.25.93-.34,1.4,0,.17-.06.34-.09.52-.07.38-.12.76-.17,1.15,0,.17,0,.33,0,.5,0,.54-.07,1.07-.07,1.61v.12c0,.5,0,1,.08,1.52l.06.5c.05.4.11.79.18,1.19,0,.16,0,.32.09.49.11.53.24,1.07.4,1.6,0,0,0,0,0,0,.16.51.35,1,.55,1.53.07.15.14.31.2.46.17.38.35.76.55,1.14.08.15.15.3.24.45.28.5.57,1,.9,1.48a18.7,18.7,0,0,0,7,6.14,18.87,18.87,0,0,0,5.13,1.76,18.57,18.57,0,0,0,12-1.7h0l.17-.09c.3-.16.59-.33.88-.5h0l.3-.18.14-.08.08-.07c.18-.1.35-.21.52-.32.35-.24.67-.48,1-.73h0l.41-.33Z" transform="translate(-103.17 91.56)"/><path class="cls-10" d="M683.91,103.61A18.86,18.86,0,1,1,673.82,79,18.87,18.87,0,0,1,683.91,103.61Z" transform="translate(-103.17 91.56)"/><path class="cls-11" d="M684.91,92.16a18.86,18.86,0,0,1-37.26,4.15,18.86,18.86,0,1,0,37.26-4.15Z" transform="translate(-103.17 91.56)"/><path class="cls-11" d="M648.86,89.7c-.21.55-.38,1.1-.54,1.66l34.49,14.45a17.26,17.26,0,0,0,.8-1.54c.09-.23.18-.45.26-.68L649.16,89.05Z" transform="translate(-103.17 91.56)"/><path class="cls-12" d="M649.12,89c-.16.38-.3.77-.43,1.15l34.7,14.55c.19-.37.36-.74.52-1.12s.3-.76.44-1.15L649.64,87.92C649.46,88.28,649.28,88.65,649.12,89Z" transform="translate(-103.17 91.56)"/><path class="cls-9" d="M727.73,133.44c.3-.26.59-.53.87-.8l.44-.45c.26-.28.51-.57.76-.86l.36-.44q.5-.63.93-1.29c.11-.17.2-.34.31-.51s.35-.6.52-.9.23-.45.34-.67.25-.54.37-.81.2-.47.29-.71a1.67,1.67,0,0,1,.08-.2l0,0a18.82,18.82,0,0,0-27.24-22.75h0c-.35.21-.7.42-1,.65l-.5.37-.09.05-.12.1-.28.21h0l0,0c-.26.21-.53.42-.78.64l-.15.12h0a18.65,18.65,0,0,0-3.28,3.79h0l-.11.2c-.25.4-.49.81-.71,1.23-.09.16-.17.32-.25.48q-.25.53-.48,1.05c-.06.16-.13.32-.2.48-.19.5-.37,1-.52,1.51,0,.06,0,.12,0,.18-.13.47-.24.93-.34,1.41l-.09.51c-.07.38-.12.77-.16,1.15l-.06.51c0,.53-.07,1.07-.07,1.61,0,0,0,.07,0,.11,0,.51,0,1,.07,1.52l.06.51c0,.39.11.79.18,1.18l.09.49a15.83,15.83,0,0,0,.41,1.61s0,0,0,0c.16.52.35,1,.56,1.53.06.16.13.31.2.47.16.38.35.76.54,1.13.08.15.15.3.24.45.28.51.57,1,.9,1.49a18.87,18.87,0,0,0,6.95,6.14,17.42,17.42,0,0,0,1.65.75c.57.22,1.14.42,1.72.59a18,18,0,0,0,1.76.42,18.78,18.78,0,0,0,12-1.7h0l.17-.1c.3-.15.59-.32.88-.49l0,0v0l.3-.19.14-.08.08-.06.53-.33q.51-.35,1-.72h0l.41-.32C727.46,133.69,727.59,133.56,727.73,133.44Z" transform="translate(-103.17 91.56)"/><ellipse class="cls-10" cx="610.25" cy="207.25" rx="18.86" ry="18.83"/><path class="cls-11" d="M731.82,111.53a18.87,18.87,0,0,1-37.27,4.15,18.87,18.87,0,1,0,37.27-4.15Z" transform="translate(-103.17 91.56)"/><path class="cls-11" d="M695.76,109.07c-.2.55-.38,1.1-.53,1.65l34.48,14.46c.29-.5.56-1,.81-1.54.08-.23.17-.45.25-.68l-34.7-14.55C696,108.63,695.86,108.85,695.76,109.07Z" transform="translate(-103.17 91.56)"/><path class="cls-12" d="M696,108.4c-.16.38-.31.76-.44,1.15l34.71,14.54q.27-.54.51-1.11c.16-.38.31-.77.44-1.15l-34.71-14.55C696.36,107.65,696.19,108,696,108.4Z" transform="translate(-103.17 91.56)"/><path class="cls-9" d="M774.63,152.81q.45-.39.87-.81l.44-.44c.26-.28.51-.57.76-.87.12-.14.25-.28.36-.43q.5-.63.93-1.29c.11-.17.2-.35.31-.52s.36-.59.52-.9.23-.44.34-.67.25-.54.37-.81.2-.47.29-.71a1.54,1.54,0,0,1,.08-.19l0,0a18.82,18.82,0,0,0-27.24-22.74v0c-.35.21-.7.43-1,.66-.17.11-.33.24-.5.36l-.09.06-.12.1c-.09.07-.19.13-.28.21h0l0,0c-.27.21-.53.41-.78.63l-.16.13h0a18.6,18.6,0,0,0-3.28,3.78h0l-.12.19c-.25.4-.49.81-.71,1.23-.09.16-.17.33-.25.49-.17.34-.32.69-.47,1-.07.16-.14.32-.2.48-.2.5-.37,1-.52,1.51,0,.06,0,.12-.05.18-.13.46-.24.93-.34,1.4l-.09.52c-.07.38-.12.76-.16,1.15,0,.17,0,.33-.05.5,0,.54-.08,1.08-.08,1.61,0,0,0,.08,0,.12,0,.5,0,1,.08,1.52,0,.17,0,.33.05.5,0,.4.11.79.18,1.19l.09.49c.12.53.25,1.07.41,1.6,0,0,0,0,0,0a14.73,14.73,0,0,0,.55,1.53c.06.15.13.31.2.46.17.39.35.76.54,1.14l.24.45c.28.5.58,1,.91,1.48a18.67,18.67,0,0,0,6.94,6.14c.54.28,1.09.53,1.66.76a17.2,17.2,0,0,0,1.71.58,18,18,0,0,0,1.76.42,19,19,0,0,0,3.61.34,18.73,18.73,0,0,0,8.39-2v0l.17-.1c.3-.16.59-.33.88-.5h0l.29-.18.14-.08.09-.06c.17-.11.35-.21.52-.33.34-.23.67-.48,1-.73h0l.41-.33Z" transform="translate(-103.17 91.56)"/><ellipse class="cls-10" cx="657.15" cy="226.61" rx="18.86" ry="18.83"/><path class="cls-11" d="M778.72,130.9a18.87,18.87,0,0,1-37.27,4.15,18.87,18.87,0,1,0,37.27-4.15Z" transform="translate(-103.17 91.56)"/><path class="cls-11" d="M742.67,128.43c-.21.55-.39,1.11-.54,1.66l34.48,14.45c.29-.49.56-1,.81-1.54.09-.22.18-.45.25-.67L743,127.78C742.86,128,742.77,128.22,742.67,128.43Z" transform="translate(-103.17 91.56)"/><path class="cls-12" d="M742.93,127.76c-.16.38-.3.77-.44,1.15l34.71,14.55c.18-.37.36-.74.52-1.12s.3-.76.43-1.15l-34.7-14.54C743.26,127,743.09,127.38,742.93,127.76Z" transform="translate(-103.17 91.56)"/><path class="cls-8" d="M1374.28-54.66,1169,53.62a19.69,19.69,0,0,0-8.23,26.64l35.67,67.38a19.77,19.77,0,0,0,26.68,8.22L1428.4,47.57a19.68,19.68,0,0,0,8.23-26.63L1401-46.44A19.75,19.75,0,0,0,1374.28-54.66Z" transform="translate(-103.17 91.56)"/><path class="cls-9" d="M1219.93,75.88c0-.39,0-.79-.06-1.18,0-.2,0-.41-.07-.62,0-.38-.11-.75-.18-1.13,0-.19-.06-.37-.1-.56-.12-.52-.25-1-.41-1.54-.06-.19-.13-.37-.19-.56s-.23-.66-.37-1-.19-.46-.3-.68-.25-.54-.39-.81-.23-.45-.36-.67a1.74,1.74,0,0,0-.1-.19.08.08,0,0,1,0,0,18.84,18.84,0,0,0-34.92,6.41h0c-.07.4-.12.81-.16,1.22,0,.21,0,.41,0,.61,0,0,0,.07,0,.11v.16c0,.11,0,.23,0,.35h0v0c0,.33,0,.67,0,1v.2h0a18.71,18.71,0,0,0,.83,4.93h0v0c0,.07.05.13.08.21.14.45.31.89.49,1.33.07.17.14.33.22.5.16.35.32.69.5,1,.08.16.16.31.25.46.26.47.53.93.83,1.37l.11.15c.27.39.56.78.86,1.15l.34.4c.26.3.52.58.79.86l.35.37c.39.37.78.74,1.2,1.08l.09.07c.39.32.8.62,1.22.91l.43.28c.33.21.67.42,1,.62l.44.24c.49.25,1,.5,1.5.71l0,0c.5.21,1,.39,1.54.55l.48.14c.4.12.81.22,1.22.31l.5.1c.57.11,1.14.2,1.73.26a18.87,18.87,0,0,0,9.16-1.42c.56-.24,1.11-.5,1.64-.79s1.05-.61,1.55-.94,1-.7,1.45-1.09a18.53,18.53,0,0,0,6.35-10.3h0c0-.07,0-.13,0-.2.07-.32.12-.65.18-1v0h0c0-.12,0-.23,0-.35a.76.76,0,0,0,0-.16s0-.07,0-.1c0-.21.06-.41.08-.61,0-.41.06-.82.07-1.23h0c0-.17,0-.35,0-.52S1219.94,76.07,1219.93,75.88Z" transform="translate(-103.17 91.56)"/><path class="cls-13" d="M1213.83,66.84a18.86,18.86,0,1,1-25.45-8A18.8,18.8,0,0,1,1213.83,66.84Z" transform="translate(-103.17 91.56)"/><path class="cls-14" d="M1205.64,58.76A18.84,18.84,0,0,1,1185.05,90a18.85,18.85,0,1,0,20.59-31.28Z" transform="translate(-103.17 91.56)"/><path class="cls-14" d="M1180.73,84.89q.43.77.93,1.47l33.16-17.27c-.2-.54-.42-1.08-.67-1.61-.12-.21-.23-.42-.36-.62l-33.37,17.38C1180.52,84.45,1180.63,84.67,1180.73,84.89Z" transform="translate(-103.17 91.56)"/><path class="cls-15" d="M1180.38,84.26c.19.36.4.72.61,1.06L1214.36,68c-.16-.38-.34-.75-.53-1.11s-.4-.72-.61-1.07l-33.37,17.38C1180,83.52,1180.19,83.89,1180.38,84.26Z" transform="translate(-103.17 91.56)"/><path class="cls-9" d="M1264.81,52.21c0-.4,0-.79-.07-1.18l-.06-.62c0-.38-.11-.76-.18-1.13,0-.19-.07-.38-.11-.56-.11-.52-.25-1-.4-1.54-.06-.19-.13-.38-.2-.56s-.23-.66-.36-1l-.3-.69-.39-.8-.36-.68a1.62,1.62,0,0,1-.1-.18v0a18.85,18.85,0,0,0-34.93,6.41h0c-.06.4-.12.81-.16,1.22,0,.2,0,.41,0,.61,0,0,0,.07,0,.11v.16c0,.11,0,.23,0,.34h0v0c0,.34,0,.68,0,1,0,.06,0,.13,0,.2h0a18.77,18.77,0,0,0,.82,4.93h0l.07.21c.15.45.31.9.5,1.33.06.17.14.34.21.5.16.35.33.7.51,1l.24.46c.26.47.54.92.83,1.36a1.53,1.53,0,0,1,.11.16c.28.39.57.77.87,1.15.11.13.22.27.34.4.25.29.51.58.78.86l.36.36c.38.38.78.74,1.19,1.09l.09.06a15,15,0,0,0,1.23.91l.42.28c.34.22.68.43,1,.62.14.08.29.17.44.24.48.26,1,.5,1.49.72l0,0c.5.2,1,.38,1.53.55l.49.14c.4.11.81.22,1.22.31l.5.1a16.19,16.19,0,0,0,1.72.25,18.8,18.8,0,0,0,9.17-1.41c.56-.24,1.1-.51,1.64-.79s1-.61,1.54-1,1-.7,1.45-1.08a18.77,18.77,0,0,0,2.56-2.56,18.57,18.57,0,0,0,3.79-7.75h0l0-.19q.11-.49.18-1v0h0c0-.11,0-.23.05-.34l0-.16v-.11c0-.2.06-.4.08-.61,0-.41.06-.82.08-1.22h0c0-.18,0-.35,0-.53S1264.81,52.4,1264.81,52.21Z" transform="translate(-103.17 91.56)"/><ellipse class="cls-13" cx="1241.98" cy="51.87" rx="18.83" ry="18.86" transform="translate(1084.78 1385.32) rotate(-89.9)"/><path class="cls-14" d="M1250.52,35.09a18.84,18.84,0,0,1-20.59,31.28,18.85,18.85,0,1,0,20.59-31.28Z" transform="translate(-103.17 91.56)"/><path class="cls-14" d="M1225.61,61.21q.44.76.93,1.47l33.16-17.26a17.22,17.22,0,0,0-.68-1.61c-.11-.21-.23-.42-.35-.63l-33.38,17.38C1225.39,60.78,1225.5,61,1225.61,61.21Z" transform="translate(-103.17 91.56)"/><path class="cls-15" d="M1225.25,60.58c.2.37.4.72.61,1.07l33.38-17.38c-.17-.37-.34-.74-.53-1.11s-.4-.72-.61-1.07l-33.38,17.38C1224.89,59.85,1225.06,60.22,1225.25,60.58Z" transform="translate(-103.17 91.56)"/><path class="cls-9" d="M1309.68,28.54c0-.4,0-.79-.07-1.18a6.2,6.2,0,0,0-.06-.62q-.08-.57-.18-1.14c0-.18-.06-.37-.1-.55-.12-.53-.25-1-.41-1.55-.06-.19-.13-.37-.19-.56s-.24-.65-.37-1-.19-.46-.3-.69-.25-.54-.39-.8-.23-.46-.36-.68a1.62,1.62,0,0,0-.1-.18s0,0,0,0a18.84,18.84,0,0,0-34.92,6.41h0c-.07.41-.12.81-.16,1.22,0,.21,0,.41,0,.62,0,0,0,.07,0,.1a.85.85,0,0,0,0,.16c0,.12,0,.23,0,.35h0v0c0,.34,0,.67,0,1v.2h0a18.78,18.78,0,0,0,.83,4.93h0v0a1.8,1.8,0,0,0,.08.21c.14.45.31.89.49,1.33.07.17.14.33.22.5.16.35.32.7.5,1l.24.46c.27.46.54.92.84,1.36l.11.15c.27.4.56.78.86,1.15l.34.41c.26.29.52.58.79.86l.35.36c.39.37.78.74,1.2,1.08l.09.07c.39.32.8.62,1.22.91l.43.28c.33.22.67.42,1,.62l.44.24a15.83,15.83,0,0,0,1.5.71l0,0c.5.21,1,.39,1.53.55l.49.15c.4.11.81.21,1.22.3l.5.11c.57.1,1.14.19,1.73.25a18.77,18.77,0,0,0,9.16-1.42,16.48,16.48,0,0,0,1.64-.79c.53-.29,1.05-.6,1.55-.94s1-.7,1.45-1.08a19.28,19.28,0,0,0,2.55-2.56,18.71,18.71,0,0,0,3.8-7.75h0c0-.06,0-.13,0-.2.07-.32.12-.65.18-1v0h0c0-.11,0-.23,0-.35l0-.15s0-.07,0-.11c0-.2.06-.4.08-.61,0-.41.06-.82.07-1.23h0c0-.17,0-.35,0-.52S1309.69,28.72,1309.68,28.54Z" transform="translate(-103.17 91.56)"/><path class="cls-13" d="M1303.58,19.49a18.86,18.86,0,1,1-25.45-8A18.8,18.8,0,0,1,1303.58,19.49Z" transform="translate(-103.17 91.56)"/><path class="cls-14" d="M1295.39,11.41a18.84,18.84,0,0,1-20.59,31.28,18.85,18.85,0,1,0,20.59-31.28Z" transform="translate(-103.17 91.56)"/><path class="cls-14" d="M1270.48,37.54q.43.76.93,1.47l33.16-17.27c-.2-.54-.42-1.07-.67-1.6-.12-.21-.23-.43-.36-.63l-33.37,17.38C1270.27,37.11,1270.38,37.32,1270.48,37.54Z" transform="translate(-103.17 91.56)"/><path class="cls-15" d="M1270.13,36.91c.19.37.4.72.61,1.07l33.37-17.38c-.16-.37-.34-.74-.53-1.11s-.4-.72-.61-1.07L1269.6,35.8C1269.76,36.17,1269.94,36.54,1270.13,36.91Z" transform="translate(-103.17 91.56)"/><path class="cls-9" d="M1354.56,4.86c0-.39,0-.79-.07-1.18,0-.2,0-.41-.07-.62a10.63,10.63,0,0,0-.18-1.13c0-.19-.06-.37-.1-.56-.11-.52-.25-1-.4-1.54-.06-.19-.14-.37-.2-.56s-.23-.66-.36-1l-.3-.69-.39-.8-.36-.67a1.74,1.74,0,0,1-.1-.19s0,0,0,0a18.85,18.85,0,0,0-34.93,6.41h0c-.06.4-.12.81-.16,1.22,0,.21,0,.41,0,.61,0,0,0,.07,0,.11v.16c0,.11,0,.23,0,.35h0v0c0,.33,0,.67,0,1,0,.07,0,.13,0,.2h0a18.77,18.77,0,0,0,.82,4.93h0c0,.08,0,.14.07.21.15.46.31.9.49,1.34.07.17.15.33.22.5.16.35.33.69.51,1,.08.16.15.31.24.46.26.47.53.93.83,1.37l.11.15c.28.39.57.78.87,1.15.11.14.22.27.34.4.25.3.51.58.78.86l.36.36c.38.38.78.75,1.19,1.09l.09.07c.4.32.81.62,1.23.91l.42.28c.34.21.68.42,1,.62l.43.24c.49.25,1,.5,1.5.71l0,0c.5.21,1,.39,1.53.55l.49.14c.4.12.81.22,1.22.31l.5.1c.56.11,1.14.2,1.72.26a18.92,18.92,0,0,0,9.17-1.42c.56-.24,1.1-.5,1.64-.79s1-.61,1.54-.94a17.15,17.15,0,0,0,1.45-1.09,18.77,18.77,0,0,0,2.56-2.56,18.66,18.66,0,0,0,3.79-7.74h0l0-.2c.07-.32.13-.66.18-1v0h0c0-.12,0-.24.05-.35l0-.16v-.1c0-.21.06-.41.08-.61,0-.41.06-.82.08-1.23h0c0-.17,0-.35,0-.52S1354.56,5.05,1354.56,4.86Z" transform="translate(-103.17 91.56)"/><path class="cls-13" d="M1348.46-4.18a18.82,18.82,0,0,1-8,25.4,18.89,18.89,0,0,1-25.46-8,18.82,18.82,0,0,1,8-25.41A18.88,18.88,0,0,1,1348.46-4.18Z" transform="translate(-103.17 91.56)"/><path class="cls-14" d="M1340.27-12.26a18.7,18.7,0,0,1,4.67,5.78,18.82,18.82,0,0,1-8,25.41,18.87,18.87,0,0,1-17.26.09,18.9,18.9,0,0,0,20.78,2.2,18.81,18.81,0,0,0-.19-33.48Z" transform="translate(-103.17 91.56)"/><path class="cls-14" d="M1315.35,13.87c.3.51.61,1,.94,1.47l33.16-17.27c-.2-.54-.43-1.08-.68-1.61-.12-.21-.23-.42-.35-.62L1315,13.21Z" transform="translate(-103.17 91.56)"/><path class="cls-15" d="M1315,13.24c.2.36.4.72.61,1.06L1349-3.08c-.16-.37-.33-.74-.52-1.1s-.4-.73-.61-1.07l-33.38,17.38C1314.64,12.5,1314.81,12.87,1315,13.24Z" transform="translate(-103.17 91.56)"/><path class="cls-9" d="M1399.43-18.81c0-.4,0-.79-.07-1.18,0-.21,0-.41-.06-.62,0-.38-.11-.76-.18-1.13,0-.19-.06-.38-.1-.56-.12-.52-.25-1-.41-1.54-.06-.19-.13-.38-.2-.56-.11-.33-.23-.66-.36-1s-.2-.46-.3-.69-.25-.54-.39-.8-.23-.46-.36-.68a1.62,1.62,0,0,0-.1-.18.06.06,0,0,1,0,0A18.82,18.82,0,0,0,1382.37-37,18.85,18.85,0,0,0,1362-21.28h0c-.07.4-.12.8-.16,1.22,0,.2,0,.41,0,.61,0,0,0,.07,0,.11a.75.75,0,0,0,0,.15l0,.35h0v0c0,.34,0,.67,0,1v.2h0a18.78,18.78,0,0,0,.83,4.93h0a1.8,1.8,0,0,0,.08.21c.14.45.31.9.49,1.33.07.17.14.34.22.5.16.35.32.7.5,1l.24.46c.27.46.54.92.84,1.36a.83.83,0,0,0,.11.15c.27.4.56.78.86,1.16l.34.4c.26.29.52.58.79.86l.35.36c.39.38.78.74,1.2,1.08l.09.07c.39.32.8.63,1.22.91l.43.28c.33.22.67.43,1,.62.15.08.29.17.44.24.49.26,1,.5,1.49.72l0,0c.5.2,1,.38,1.53.55l.49.14c.4.11.81.22,1.22.3l.5.11a16.37,16.37,0,0,0,1.73.25A18.76,18.76,0,0,0,1388-.95c.56-.24,1.11-.51,1.64-.8s1.05-.6,1.55-.94,1-.7,1.45-1.08a19.28,19.28,0,0,0,2.55-2.56,18.71,18.71,0,0,0,3.8-7.75h0c0-.06,0-.13,0-.19.07-.33.12-.66.18-1v0h0c0-.11,0-.23,0-.34l0-.16s0-.07,0-.11c0-.2.06-.4.08-.61,0-.41.06-.82.07-1.22h0c0-.18,0-.35,0-.53S1399.44-18.63,1399.43-18.81Z" transform="translate(-103.17 91.56)"/><path class="cls-13" d="M1393.33-27.86a18.82,18.82,0,0,1-8,25.41,18.88,18.88,0,0,1-25.45-8,18.8,18.8,0,0,1,8-25.4A18.88,18.88,0,0,1,1393.33-27.86Z" transform="translate(-103.17 91.56)"/><path class="cls-14" d="M1385.14-35.94a18.89,18.89,0,0,1,4.68,5.79,18.8,18.8,0,0,1-8,25.4,18.83,18.83,0,0,1-17.27.09,18.91,18.91,0,0,0,20.78,2.21,18.82,18.82,0,0,0,8-25.41A18.78,18.78,0,0,0,1385.14-35.94Z" transform="translate(-103.17 91.56)"/><path class="cls-14" d="M1360.23-9.81q.43.76.93,1.47l33.16-17.26c-.2-.55-.42-1.08-.67-1.61l-.36-.63-33.37,17.38C1360-10.24,1360.12-10,1360.23-9.81Z" transform="translate(-103.17 91.56)"/><path class="cls-15" d="M1359.88-10.44c.19.37.4.72.61,1.07l33.37-17.38c-.17-.37-.34-.74-.53-1.11s-.4-.72-.61-1.07l-33.37,17.38C1359.51-11.18,1359.69-10.8,1359.88-10.44Z" transform="translate(-103.17 91.56)"/><path class="cls-9" d="M1241.81,117.2c0-.39,0-.79-.07-1.18l-.06-.62c0-.38-.11-.75-.18-1.13,0-.19-.07-.37-.11-.56-.11-.52-.24-1-.4-1.54-.06-.19-.13-.37-.2-.56s-.23-.66-.36-1-.2-.46-.3-.68l-.39-.8-.36-.68c0-.06-.06-.13-.1-.19s0,0,0,0a18.85,18.85,0,0,0-34.93,6.41h0c-.06.4-.12.81-.16,1.22,0,.21,0,.41,0,.61,0,0,0,.08,0,.11a.86.86,0,0,1,0,.16c0,.11,0,.23,0,.35h0v0c0,.33,0,.67,0,1a1.33,1.33,0,0,0,0,.2h0a18.31,18.31,0,0,0,.83,4.93h0v0c0,.07,0,.13.07.21.15.45.32.89.5,1.33.07.17.14.33.22.5.15.35.32.69.5,1l.24.46c.26.47.54.93.84,1.37l.11.15c.27.4.56.78.86,1.15.11.14.23.27.34.4.25.3.51.59.78.86l.36.37c.38.37.78.74,1.2,1.08l.09.07c.39.32.8.62,1.22.91l.42.28c.34.21.68.42,1,.62l.44.24a15.66,15.66,0,0,0,1.49.71l0,0c.5.21,1,.39,1.53.55l.49.14c.4.12.81.22,1.22.31l.5.11c.57.1,1.14.19,1.72.25a18.92,18.92,0,0,0,9.17-1.42c.56-.24,1.11-.5,1.64-.79s1-.6,1.55-.94a17,17,0,0,0,1.44-1.09,18.53,18.53,0,0,0,6.35-10.3h0l0-.2q.11-.48.18-1v0h0c0-.12,0-.23.05-.35l0-.16v-.1c0-.21.07-.41.08-.61,0-.41.06-.82.08-1.23h0c0-.17,0-.35,0-.52S1241.81,117.39,1241.81,117.2Z" transform="translate(-103.17 91.56)"/><path class="cls-13" d="M1235.71,108.16a18.86,18.86,0,1,1-25.45-8A18.81,18.81,0,0,1,1235.71,108.16Z" transform="translate(-103.17 91.56)"/><path class="cls-14" d="M1227.52,100.08a18.84,18.84,0,0,1-20.59,31.28,18.85,18.85,0,1,0,20.59-31.28Z" transform="translate(-103.17 91.56)"/><path class="cls-14" d="M1202.61,126.21q.44.77.93,1.47l33.16-17.27c-.2-.54-.42-1.08-.67-1.61l-.36-.62-33.37,17.38C1202.39,125.77,1202.5,126,1202.61,126.21Z" transform="translate(-103.17 91.56)"/><path class="cls-15" d="M1202.26,125.58c.19.36.39.72.6,1.06l33.38-17.37c-.17-.38-.34-.75-.53-1.11s-.4-.72-.61-1.07l-33.37,17.38C1201.89,124.84,1202.06,125.21,1202.26,125.58Z" transform="translate(-103.17 91.56)"/><path class="cls-9" d="M1286.68,93.53c0-.4,0-.79-.06-1.18,0-.21,0-.41-.07-.62,0-.38-.11-.76-.18-1.13,0-.19-.06-.38-.1-.56-.12-.52-.25-1-.41-1.54,0-.19-.13-.38-.19-.56s-.23-.66-.37-1-.19-.46-.3-.69-.25-.53-.39-.8-.23-.45-.36-.68l-.09-.18a.06.06,0,0,0,0,0,18.85,18.85,0,0,0-34.93,6.41h0c-.07.4-.12.81-.16,1.22,0,.2,0,.41,0,.61,0,0,0,.07,0,.11v.16c0,.11,0,.23,0,.34h0v0c0,.33,0,.67,0,1v.2h0a18.78,18.78,0,0,0,.83,4.93h0l.08.21c.14.45.31.9.49,1.33.07.17.15.34.22.5.16.35.32.7.5,1,.08.15.16.31.25.46.26.47.53.92.83,1.37l.11.15c.27.39.56.78.87,1.15l.33.4c.26.3.52.58.79.86l.35.36c.39.38.78.74,1.2,1.09l.09.07c.39.32.8.62,1.22.9l.43.28c.33.22.68.43,1,.62l.43.25c.49.25,1,.49,1.5.71l0,0c.49.2,1,.38,1.53.55l.48.14c.4.12.81.22,1.22.31l.5.1a16.37,16.37,0,0,0,1.73.25,18.75,18.75,0,0,0,9.16-1.41c.56-.24,1.11-.5,1.64-.79s1.05-.61,1.55-.95,1-.7,1.45-1.08a18.65,18.65,0,0,0,6.35-10.31h0c0-.06,0-.13,0-.19.07-.33.12-.66.18-1v0h0c0-.11,0-.23,0-.34a1.1,1.1,0,0,0,0-.16.41.41,0,0,0,0-.11c0-.2.06-.4.08-.61,0-.41.06-.82.07-1.22h0c0-.18,0-.35,0-.53S1286.69,93.72,1286.68,93.53Z" transform="translate(-103.17 91.56)"/><path class="cls-13" d="M1280.58,84.48a18.86,18.86,0,1,1-25.45-8A18.82,18.82,0,0,1,1280.58,84.48Z" transform="translate(-103.17 91.56)"/><path class="cls-14" d="M1272.4,76.41a18.84,18.84,0,0,1-20.59,31.28,18.85,18.85,0,1,0,20.59-31.28Z" transform="translate(-103.17 91.56)"/><path class="cls-14" d="M1247.48,102.53a16,16,0,0,0,.94,1.47l33.15-17.26c-.2-.54-.42-1.08-.67-1.61-.12-.21-.23-.42-.36-.63l-33.37,17.38C1247.27,102.1,1247.38,102.32,1247.48,102.53Z" transform="translate(-103.17 91.56)"/><path class="cls-15" d="M1247.13,101.9c.19.37.4.72.61,1.07l33.37-17.38c-.16-.37-.34-.74-.53-1.11s-.4-.72-.61-1.07l-33.37,17.38C1246.77,101.17,1246.94,101.54,1247.13,101.9Z" transform="translate(-103.17 91.56)"/><path class="cls-9" d="M1331.56,69.86c0-.4,0-.79-.07-1.18l-.06-.62q-.08-.57-.18-1.14c0-.18-.07-.37-.11-.55a15.1,15.1,0,0,0-.4-1.54c-.06-.2-.13-.38-.2-.57s-.23-.65-.36-1l-.3-.69-.39-.8-.36-.68a1.62,1.62,0,0,1-.1-.18s0,0,0,0a18.85,18.85,0,0,0-34.93,6.41h0c-.06.41-.12.81-.16,1.22,0,.21,0,.41,0,.62,0,0,0,.07,0,.1v.16c0,.12,0,.23,0,.35h0v0c0,.34,0,.67,0,1a1.33,1.33,0,0,0,0,.2h0a18.77,18.77,0,0,0,.82,4.93h0v0l.07.21c.15.45.32.89.5,1.33l.21.5c.16.35.33.7.51,1l.24.46c.26.46.54.92.83,1.36l.11.15c.28.4.57.78.87,1.16.11.13.23.26.34.4s.51.58.78.86l.36.36c.38.37.78.74,1.19,1.08l.1.07c.39.32.8.62,1.22.91l.42.28c.34.22.68.42,1,.62l.44.24a15.66,15.66,0,0,0,1.49.71l0,0c.5.21,1,.39,1.53.55.16.06.33.1.49.15.4.11.81.21,1.22.3l.5.11c.56.1,1.14.19,1.72.25a18.69,18.69,0,0,0,9.17-1.42,17.62,17.62,0,0,0,1.64-.79c.53-.29,1-.6,1.54-.94a17.6,17.6,0,0,0,1.45-1.08,19.35,19.35,0,0,0,2.56-2.56,18.57,18.57,0,0,0,3.79-7.75h0l0-.2c.07-.32.13-.65.18-1v0h0c0-.11,0-.23.05-.35l0-.15v-.11c0-.2.06-.4.08-.61,0-.41.06-.82.08-1.23h0c0-.17,0-.35,0-.52S1331.56,70,1331.56,69.86Z" transform="translate(-103.17 91.56)"/><path class="cls-13" d="M1325.46,60.81a18.86,18.86,0,1,1-25.45-8A18.83,18.83,0,0,1,1325.46,60.81Z" transform="translate(-103.17 91.56)"/><path class="cls-14" d="M1317.27,52.73a18.84,18.84,0,0,1-3.33,31.19,18.84,18.84,0,0,1-17.26.09,18.85,18.85,0,1,0,20.59-31.28Z" transform="translate(-103.17 91.56)"/><path class="cls-14" d="M1292.36,78.86q.44.77.93,1.47l33.16-17.27a17,17,0,0,0-.68-1.6c-.11-.21-.23-.43-.35-.63L1292,78.21C1292.14,78.43,1292.25,78.64,1292.36,78.86Z" transform="translate(-103.17 91.56)"/><path class="cls-15" d="M1292,78.23c.19.37.39.72.6,1.07L1326,61.92c-.17-.37-.34-.74-.53-1.11s-.4-.72-.61-1.07l-33.37,17.38C1291.64,77.49,1291.81,77.86,1292,78.23Z" transform="translate(-103.17 91.56)"/><path class="cls-9" d="M1376.43,46.18c0-.39,0-.79-.06-1.18,0-.2,0-.41-.07-.62,0-.38-.11-.76-.18-1.13,0-.19-.06-.37-.1-.56-.12-.52-.25-1-.41-1.54-.06-.19-.13-.37-.19-.56s-.23-.66-.37-1-.19-.46-.3-.69-.25-.53-.39-.8-.23-.45-.36-.67a1.74,1.74,0,0,0-.1-.19.08.08,0,0,1,0,0A18.84,18.84,0,0,0,1339,43.71h0c-.07.4-.12.81-.16,1.22,0,.21,0,.41,0,.61,0,0,0,.07,0,.11v.16c0,.11,0,.23,0,.35h0v0c0,.33,0,.67,0,1v.2h0a18.78,18.78,0,0,0,.83,4.93h0a1.31,1.31,0,0,0,.08.21c.14.46.31.9.49,1.34.07.17.14.33.22.5.16.35.32.69.5,1,.08.16.16.31.25.46.26.47.53.93.83,1.37l.11.15c.27.39.56.78.86,1.15l.34.4c.26.3.52.58.79.86.12.12.23.25.35.36.39.38.78.75,1.2,1.09l.09.07c.39.32.8.62,1.22.91l.43.28c.33.21.67.42,1,.62l.44.24c.49.25,1,.5,1.5.71l0,0c.5.21,1,.39,1.54.55l.48.14c.4.12.81.22,1.22.31l.5.1c.57.11,1.14.2,1.73.26A18.87,18.87,0,0,0,1365,64c.56-.24,1.11-.5,1.64-.79s1.05-.61,1.55-.94,1-.7,1.45-1.09a18.67,18.67,0,0,0,6.35-10.3h0c0-.07,0-.13,0-.2.07-.32.12-.66.18-1v0h0c0-.12,0-.23,0-.35a.76.76,0,0,0,0-.16s0-.07,0-.1c0-.21.06-.41.08-.61,0-.41.06-.82.07-1.23h0c0-.17,0-.35,0-.52S1376.44,46.37,1376.43,46.18Z" transform="translate(-103.17 91.56)"/><path class="cls-13" d="M1370.33,37.14a18.86,18.86,0,1,1-25.45-8A18.8,18.8,0,0,1,1370.33,37.14Z" transform="translate(-103.17 91.56)"/><path class="cls-14" d="M1362.14,29.06a18.84,18.84,0,0,1-20.59,31.28,18.85,18.85,0,1,0,20.59-31.28Z" transform="translate(-103.17 91.56)"/><path class="cls-14" d="M1337.23,55.19q.43.77.93,1.47l33.16-17.27c-.2-.54-.42-1.08-.67-1.61-.12-.21-.23-.42-.36-.62l-33.37,17.38C1337,54.75,1337.13,55,1337.23,55.19Z" transform="translate(-103.17 91.56)"/><path class="cls-15" d="M1336.88,54.56c.19.36.4.72.61,1.06l33.37-17.38c-.16-.37-.34-.74-.53-1.1s-.4-.72-.61-1.07l-33.37,17.38C1336.52,53.82,1336.69,54.19,1336.88,54.56Z" transform="translate(-103.17 91.56)"/><path class="cls-9" d="M1421.31,22.51c0-.4,0-.79-.07-1.18l-.06-.62c0-.38-.11-.76-.18-1.13,0-.19-.07-.38-.11-.56-.11-.52-.25-1-.4-1.54-.06-.19-.13-.38-.2-.56-.11-.33-.23-.66-.36-1l-.3-.69-.39-.8-.36-.68a1.62,1.62,0,0,1-.1-.18s0,0,0,0A18.85,18.85,0,0,0,1383.86,20h0c-.06.4-.12.8-.16,1.22,0,.2,0,.41,0,.61,0,0,0,.07,0,.11v.15c0,.12,0,.24,0,.35h0v0c0,.34,0,.67,0,1,0,.06,0,.13,0,.2h0a18.77,18.77,0,0,0,.82,4.93h0c0,.07,0,.14.07.21.15.45.31.9.49,1.33.07.17.15.34.22.5.16.35.33.7.51,1l.24.46c.26.47.54.92.83,1.36a1.53,1.53,0,0,1,.11.16c.28.39.57.77.87,1.15.11.13.22.27.34.4.25.29.51.58.78.86l.36.36c.38.38.78.74,1.19,1.08l.09.07c.4.32.81.63,1.23.91l.42.28c.34.22.68.43,1,.62.14.08.29.17.44.24.48.26,1,.5,1.49.72l0,0c.5.2,1,.38,1.53.55l.49.14c.4.11.81.22,1.22.31l.5.1a16.19,16.19,0,0,0,1.72.25,18.8,18.8,0,0,0,9.17-1.41c.56-.24,1.1-.51,1.64-.8a16.25,16.25,0,0,0,1.54-.94c.5-.34,1-.7,1.45-1.08A19.35,19.35,0,0,0,1417,35a18.57,18.57,0,0,0,3.79-7.75h0l0-.19q.11-.5.18-1v0h0c0-.11,0-.23.05-.34l0-.16v-.11c0-.2.06-.4.08-.61,0-.41.06-.82.08-1.22h0c0-.18,0-.35,0-.53S1421.31,22.69,1421.31,22.51Z" transform="translate(-103.17 91.56)"/><ellipse class="cls-13" cx="1398.48" cy="22.17" rx="18.86" ry="18.83" transform="translate(-103.19 92.97) rotate(-0.06)"/><path class="cls-14" d="M1407,5.38a18.85,18.85,0,0,1-20.59,31.29A18.85,18.85,0,1,0,1407,5.38Z" transform="translate(-103.17 91.56)"/><path class="cls-14" d="M1382.11,31.51q.44.77.93,1.47l33.16-17.26a17.22,17.22,0,0,0-.68-1.61c-.11-.21-.23-.42-.35-.63l-33.38,17.38C1381.89,31.08,1382,31.3,1382.11,31.51Z" transform="translate(-103.17 91.56)"/><path class="cls-15" d="M1381.75,30.88c.2.37.4.72.61,1.07l33.38-17.38c-.17-.37-.34-.74-.53-1.11s-.4-.72-.61-1.07l-33.38,17.38C1381.39,30.15,1381.56,30.52,1381.75,30.88Z" transform="translate(-103.17 91.56)"/><path class="cls-13" d="M1044.32,225.51l-8.53-21a13.81,13.81,0,0,0-25.6,10.37l8.52,21Z" transform="translate(-103.17 91.56)"/><path class="cls-10" d="M1018.71,235.88l8.32,20.44a13.81,13.81,0,0,0,25.6-10.37l-8.31-20.44Z" transform="translate(-103.17 91.56)"/><path class="cls-14" d="M1023,234.15l-7.27-17.89a13.79,13.79,0,0,1,13.25-19,13.79,13.79,0,0,0-18.77,17.6l8.52,21Z" transform="translate(-103.17 91.56)"/><path class="cls-11" d="M1039.37,264.91a13.72,13.72,0,0,1-6.82-7.23L1023,234.15l-4.27,1.73,8.32,20.44A13.78,13.78,0,0,0,1039.37,264.91Z" transform="translate(-103.17 91.56)"/><path class="cls-13" d="M1120,198.76l-20.75-9.13a13.79,13.79,0,1,0-11.15,25.23l20.76,9.14Z" transform="translate(-103.17 91.56)"/><path class="cls-10" d="M1108.86,224l20.22,8.9a13.8,13.8,0,1,0,11.15-25.24l-20.23-8.9Z" transform="translate(-103.17 91.56)"/><path class="cls-14" d="M1110.71,219.79,1093,212a13.76,13.76,0,0,1-3.71-22.82,13.77,13.77,0,0,0-1.21,25.68l20.76,9.14Z" transform="translate(-103.17 91.56)"/><path class="cls-11" d="M1143.94,230.49a13.78,13.78,0,0,1-10-.45l-23.28-10.25-1.85,4.21,20.22,8.9A13.84,13.84,0,0,0,1143.94,230.49Z" transform="translate(-103.17 91.56)"/><ellipse class="cls-16" cx="248.74" cy="719.1" rx="20.72" ry="20.68"/><path class="cls-17" d="M372.61,626.73a20.72,20.72,0,0,1-41.07-3,20.71,20.71,0,1,0,41.07,3Z" transform="translate(-103.17 91.56)"/><path class="cls-17" d="M334.18,616.87c-.34.55-.64,1.11-.92,1.68l34.34,22.5c.41-.48.81-1,1.18-1.51.14-.22.28-.45.41-.68l-34.56-22.63Z" transform="translate(-103.17 91.56)"/><path class="cls-18" d="M334.59,616.2c-.25.38-.48.76-.7,1.15L368.45,640c.27-.36.53-.72.78-1.1s.48-.76.7-1.15L335.38,615.1C335.11,615.46,334.84,615.82,334.59,616.2Z" transform="translate(-103.17 91.56)"/><ellipse class="cls-16" cx="586.14" cy="884.24" rx="20.72" ry="20.68"/><path class="cls-17" d="M702.27,776.55a20.7,20.7,0,0,1-29.18,29,20.7,20.7,0,1,0,29.18-29Z" transform="translate(-103.17 91.56)"/><path class="cls-17" d="M669.61,799.05a18.27,18.27,0,0,0,.67,1.79l39.53-11.13a17.65,17.65,0,0,0-.37-1.87c-.08-.26-.15-.51-.24-.76l-39.78,11.2C669.47,798.53,669.54,798.79,669.61,799.05Z" transform="translate(-103.17 91.56)"/><path class="cls-18" d="M669.37,798.29c.12.44.27.86.41,1.28l39.79-11.19c-.1-.44-.2-.88-.32-1.31s-.27-.87-.42-1.29L669.05,797C669.15,797.42,669.25,797.85,669.37,798.29Z" transform="translate(-103.17 91.56)"/><path class="cls-4" d="M845.08,919.83l-.26-.28a1.71,1.71,0,0,0-.11-.14l-.08-.08c-.15-.17-.3-.34-.46-.5-.31-.33-.64-.64-1-.94h0c-.14-.13-.28-.26-.43-.38s-.31-.26-.47-.39c-.34-.27-.68-.54-1-.79l-.57-.39c-.35-.23-.71-.45-1.07-.66l-.54-.31c-.52-.28-1-.54-1.57-.77-.2-.09-.41-.16-.61-.24-.36-.14-.72-.28-1.08-.4l-.79-.24-.94-.25c-.28-.06-.55-.13-.83-.18l-.22,0,0,0a20.65,20.65,0,0,0-19.67,33.61v0c.29.34.59.68.9,1,.16.17.32.32.49.47l.08.09.13.11.27.27h0l0,0c.27.25.55.5.83.73.06,0,.11.1.16.14h0a20.71,20.71,0,0,0,4.7,2.85h0l.23.09c.48.2,1,.38,1.46.54.19.07.39.12.58.18.4.12.81.23,1.22.32l.56.13c.58.12,1.15.22,1.74.29h.2c.53.06,1.05.09,1.58.11h.58c.42,0,.85,0,1.28,0l.55,0a17.27,17.27,0,0,0,1.76-.22l.13,0c.54-.1,1.09-.22,1.63-.37l.54-.15c.42-.12.84-.26,1.25-.41l.51-.19c.57-.22,1.12-.46,1.67-.73l0,0c.53-.27,1.05-.57,1.56-.89.16-.09.32-.2.47-.3.39-.25.76-.51,1.13-.79l.45-.34c.49-.4,1-.81,1.44-1.26a20.63,20.63,0,0,0,2.31-27.15h0l-.14-.17c-.22-.3-.46-.58-.7-.86l0,0Z" transform="translate(-103.17 91.56)"/><path class="cls-16" d="M825.37,916.13a20.69,20.69,0,1,1-29.29-.58A20.64,20.64,0,0,1,825.37,916.13Z" transform="translate(-103.17 91.56)"/><path class="cls-17" d="M814.25,910.14a20.68,20.68,0,0,1-12,39.3,20.68,20.68,0,1,0,12-39.3Z" transform="translate(-103.17 91.56)"/><path class="cls-17" d="M796.07,945.35c.47.45.95.86,1.44,1.26l29.6-28.42c-.37-.5-.77-1-1.2-1.48l-.57-.55-29.8,28.6C795.71,945,795.9,945.15,796.07,945.35Z" transform="translate(-103.17 91.56)"/><path class="cls-18" d="M795.51,944.79c.31.33.64.64,1,.94l29.79-28.6c-.29-.34-.58-.68-.9-1s-.64-.64-1-.94l-29.79,28.6C794.9,944.13,795.19,944.46,795.51,944.79Z" transform="translate(-103.17 91.56)"/><path class="cls-16" d="M631.55,843.69A20.71,20.71,0,1,1,622,816,20.73,20.73,0,0,1,631.55,843.69Z" transform="translate(-103.17 91.56)"/><path class="cls-17" d="M633.37,831.2a20.72,20.72,0,0,1-41.11,2.22,20.71,20.71,0,1,0,41.11-2.22Z" transform="translate(-103.17 91.56)"/><path class="cls-17" d="M594,826.25c-.26.59-.49,1.18-.69,1.78l36.89,18c.35-.53.68-1.07,1-1.64.11-.24.22-.48.32-.72l-37.14-18.12C594.24,825.78,594.12,826,594,826.25Z" transform="translate(-103.17 91.56)"/><path class="cls-18" d="M594.33,825.53c-.2.41-.38.82-.55,1.23l37.14,18.12c.22-.39.43-.78.63-1.19s.38-.82.55-1.24L595,824.34C594.74,824.73,594.53,825.12,594.33,825.53Z" transform="translate(-103.17 91.56)"/><path class="cls-8" d="M129.76,313.85,116.23,308c27.09-61.89,73.9-170.11,83.1-199.68,12.23-39.33,41.19-46.8,54.79-45.27l.87.15L292.35,72,289,86.34l-36.83-8.71c-3.25-.2-27.69-.33-38.69,35C204.5,141.37,163,237.92,129.76,313.85Z" transform="translate(-103.17 91.56)"/><path class="cls-8" d="M409,434.66l-14.28-3.74c19.49-74.2,54.15-203.32,67.3-234.48,14.33-34-4.26-49.59-7-51.67l-33.78-17,6.64-13.16,35.06,17.7c11.4,7.56,28.73,31.89,12.72,69.85C462.34,233.61,424.6,375.23,409,434.66Z" transform="translate(-103.17 91.56)"/><path class="cls-19" d="M405.86,388.75c-4,15.15-7.83,29.47-11.16,42.17L409,434.66c3.07-11.67,7-26.52,11.41-43.07Z" transform="translate(-103.17 91.56)"/><path class="cls-19" d="M127.86,281.28c-4.13,9.5-8.06,18.49-11.63,26.67l13.53,5.9c3.93-9,8-18.23,12.06-27.63Z" transform="translate(-103.17 91.56)"/><path class="cls-20" d="M315.28,1044.75c-30.82-.74-61.14-6.27-88.22-16.69-48.77-18.75-84.41-51.78-103-95.51-31.56-74-13.08-161.74,6.72-238.14A1209,1209,0,0,1,202.8,492.72l23,10.56a1182.8,1182.8,0,0,0-70.57,197.46c-18.76,72.37-36.39,155.17-7.93,221.92,15.9,37.29,46.62,65.58,88.85,81.82,58.72,22.58,134.32,19.79,192.61-7.11l2-.92c72.4-33.42,124.7-57.55,209.69-20.7l-10.09,23.18c-74.58-32.34-117.64-12.47-189,20.46l-2,.92C402,1037.55,358.18,1045.79,315.28,1044.75Z" transform="translate(-103.17 91.56)"/><path class="cls-21" d="M615.89,974.38l3-6.9c-72.7-24.26-122-1.52-188.12,29l-2,.92c-58.29,26.9-133.89,29.69-192.61,7.11-42.23-16.24-72.95-44.53-88.85-81.82-28.46-66.75-10.83-149.55,7.93-221.92A1182.82,1182.82,0,0,1,221.6,512.53l-5.16-2.37c-28.26,61.37-51,128.35-67.72,192.86-18.62,71.86-36.6,149.82-6.91,219.46,17.53,41.12,47.27,68.35,93.14,86,25.48,9.79,51.11,14.4,80.09,15.1,40.36,1,79.61-5.9,114.75-22.11l1.88-.87C498.77,969.62,544.81,947.76,615.89,974.38Z" transform="translate(-103.17 91.56)"/><path class="cls-13" d="M304.55,62l-11.91-3.24a16.27,16.27,0,0,0-20,11.41l-1.18,4.32a16.24,16.24,0,0,0,11.43,19.93l11.9,3.23a16.28,16.28,0,0,0,20-11.4L316,81.92A16.22,16.22,0,0,0,304.55,62Z" transform="translate(-103.17 91.56)"/><path class="cls-13" d="M425,99.12l11.2,5.18a16.22,16.22,0,0,1,7.91,21.56l-1.88,4.06a16.28,16.28,0,0,1-21.6,7.91l-11.19-5.18a16.22,16.22,0,0,1-7.92-21.56l1.88-4.06A16.28,16.28,0,0,1,425,99.12Z" transform="translate(-103.17 91.56)"/><path class="cls-20" d="M269.11,521.76q-28.34-.69-59.14-11.89c-44.66-16.26-75.84-42.92-92.68-79.25-29.06-62.67-4.42-130.83-3.36-133.7l23.75,8.76c-.12.33-12.49,34.68-8.26,74.08,5.48,51,35.5,86.81,89.22,106.37,38.1,13.87,72.62,13.8,102.62-.22,53.23-24.87,75.5-85.2,75.72-85.81l23.82,8.56c-1,2.88-26.15,70.87-88.8,100.14A139,139,0,0,1,269.11,521.76Z" transform="translate(-103.17 91.56)"/><path class="cls-21" d="M406.08,403.37,397,400.1c-.22.61-22.49,60.94-75.72,85.81-30,14-64.52,14.09-102.62.22-53.72-19.56-83.74-55.35-89.22-106.37-4.23-39.4,8.14-73.75,8.26-74.08l-7.85-2.89c-4.4,13.67-19,67.33,4.13,117.16,15.17,32.72,43.26,56.74,83.47,71.38q27.72,10.1,53.27,10.71a125.18,125.18,0,0,0,56.65-11.67C377.17,467.09,400.63,416.65,406.08,403.37Z" transform="translate(-103.17 91.56)"/><path class="cls-14" d="M313.86,68.76a16.17,16.17,0,0,1-.46,6.08l-1.18,4.32a16.27,16.27,0,0,1-20,11.41l-11.91-3.24A16.17,16.17,0,0,1,271,80.57a16.25,16.25,0,0,0,11.89,13.85l11.9,3.23a16.28,16.28,0,0,0,20-11.4L316,81.92A16.1,16.1,0,0,0,313.86,68.76Z" transform="translate(-103.17 91.56)"/><path class="cls-14" d="M442.88,110.11a16,16,0,0,1-1.39,8.66l-1.88,4.07a16.29,16.29,0,0,1-21.6,7.9l-11.19-5.18a16.16,16.16,0,0,1-6.74-5.81,16.22,16.22,0,0,0,9.31,12.9l11.19,5.18a16.28,16.28,0,0,0,21.6-7.91l1.88-4.06A16.17,16.17,0,0,0,442.88,110.11Z" transform="translate(-103.17 91.56)"/><ellipse class="cls-8" cx="542.29" cy="1080.6" rx="45.37" ry="45.29"/><ellipse class="cls-13" cx="542.29" cy="1080.6" rx="21.85" ry="21.81"/><path class="cls-14" d="M661.14,973.86a21.84,21.84,0,0,1-36.48,21.82,21.84,21.84,0,1,0,36.48-21.82Z" transform="translate(-103.17 91.56)"/><path class="cls-19" d="M689.54,978.42a49.15,49.15,0,0,1-83.45,33,45.29,45.29,0,0,0,83.45-33Z" transform="translate(-103.17 91.56)"/><path class="cls-10" d="M212.05,752.36l53,180.21A9.52,9.52,0,0,0,276.91,939l68.15-20a9.5,9.5,0,0,0,6.46-11.81L298.5,727Z" transform="translate(-103.17 91.56)"/><rect class="cls-16" x="232.16" y="779.47" width="90.08" height="69.51" transform="translate(-321.06 202.44) rotate(-16.34)"/><rect class="cls-16" x="201.02" y="716.06" width="101.71" height="24.11" transform="translate(-297.86 191.84) rotate(-16.34)"/><rect class="cls-18" x="206.37" y="728.77" width="4.31" height="24.11" transform="translate(-303.2 180.16) rotate(-16.34)"/><rect class="cls-18" x="215.04" y="726.23" width="4.31" height="24.11" transform="translate(-302.12 182.49) rotate(-16.34)"/><rect class="cls-18" x="223.71" y="723.69" width="4.31" height="24.11" transform="translate(-301.07 184.84) rotate(-16.34)"/><rect class="cls-18" x="232.38" y="721.15" width="4.31" height="24.11" transform="translate(-299.99 187.17) rotate(-16.34)"/><rect class="cls-18" x="241.04" y="718.61" width="4.31" height="24.11" transform="translate(-298.91 189.49) rotate(-16.34)"/><rect class="cls-18" x="249.71" y="716.06" width="4.31" height="24.11" transform="translate(-297.83 191.82) rotate(-16.34)"/><rect class="cls-18" x="258.38" y="713.52" width="4.31" height="24.11" transform="matrix(0.96, -0.28, 0.28, 0.96, -296.78, 194.16)"/><rect class="cls-18" x="267.05" y="710.98" width="4.31" height="24.11" transform="translate(-295.73 196.51) rotate(-16.34)"/><rect class="cls-18" x="275.72" y="708.44" width="4.31" height="24.11" transform="translate(-294.68 198.85) rotate(-16.34)"/><rect class="cls-18" x="284.39" y="705.9" width="4.31" height="24.11" transform="translate(-293.6 201.18) rotate(-16.34)"/><rect class="cls-18" x="293.05" y="703.36" width="4.31" height="24.11" transform="translate(-292.54 203.53) rotate(-16.34)"/><rect class="cls-11" x="211.69" y="739.47" width="90.08" height="10.36" transform="translate(-302.93 194.31) rotate(-16.4)"/><rect class="cls-18" x="292.08" y="817" width="25.11" height="4.2" transform="translate(-321.32 210.36) rotate(-16.34)"/><rect class="cls-18" x="289.71" y="808.93" width="25.11" height="4.2" transform="translate(-319.15 209.37) rotate(-16.34)"/><rect class="cls-18" x="287.34" y="800.87" width="25.11" height="4.2" transform="translate(-316.98 208.37) rotate(-16.34)"/><path class="cls-13" d="M257.74,804.06a10.87,10.87,0,1,1-13.5-7.36A10.85,10.85,0,0,1,257.74,804.06Z" transform="translate(-103.17 91.56)"/><path class="cls-11" d="M340.86,904.75l-68.15,20a9.54,9.54,0,0,1-11.84-6.45l4.21,14.29A9.52,9.52,0,0,0,276.91,939l68.15-20a9.5,9.5,0,0,0,6.46-11.81l-4.2-14.29A9.52,9.52,0,0,1,340.86,904.75Z" transform="translate(-103.17 91.56)"/><path class="cls-13" d="M508.78,800.87l1.46-7.38-83.19-16.35-1.45,7.38c-10.55.73-19.38,7.3-21.25,16.75l-17.86,90.57c-2.3,11.68,6.9,23.31,20.55,26l68.28,13.42c13.65,2.68,26.58-4.61,28.89-16.28l17.86-90.57C523.94,815,518.26,805.54,508.78,800.87Z" transform="translate(-103.17 91.56)"/><rect class="cls-14" x="465.83" y="745.24" width="4.72" height="84.78" transform="translate(-498.12 1186.68) rotate(-78.88)"/><rect class="cls-16" x="459.3" y="725.7" width="23.04" height="97.19" transform="translate(-483.91 1175.8) rotate(-78.7)"/><rect class="cls-18" x="416.97" y="763.78" width="23.04" height="4.12" transform="matrix(0.2, -0.98, 0.98, 0.2, -509.63, 1127.52)"/><rect class="cls-18" x="425.44" y="765.47" width="23.04" height="4.12" transform="translate(-504.5 1137.13) rotate(-78.7)"/><rect class="cls-18" x="433.9" y="767.16" width="23.04" height="4.12" transform="translate(-499.34 1146.84) rotate(-78.7)"/><rect class="cls-18" x="442.37" y="768.85" width="23.04" height="4.12" transform="translate(-494.21 1156.46) rotate(-78.7)"/><rect class="cls-18" x="450.83" y="770.55" width="23.04" height="4.12" transform="translate(-489.06 1166.12) rotate(-78.7)"/><rect class="cls-18" x="459.3" y="772.24" width="23.04" height="4.12" transform="translate(-483.92 1175.78) rotate(-78.7)"/><rect class="cls-18" x="467.76" y="773.93" width="23.04" height="4.12" transform="translate(-478.77 1185.44) rotate(-78.7)"/><rect class="cls-18" x="476.22" y="775.62" width="23.04" height="4.12" transform="translate(-473.6 1195.15) rotate(-78.7)"/><rect class="cls-18" x="484.69" y="777.31" width="23.04" height="4.12" transform="translate(-468.48 1204.76) rotate(-78.7)"/><rect class="cls-18" x="493.15" y="779" width="23.04" height="4.12" transform="translate(-463.31 1214.46) rotate(-78.7)"/><rect class="cls-18" x="501.62" y="780.7" width="23.04" height="4.12" transform="translate(-458.18 1224.09) rotate(-78.7)"/><rect class="cls-16" x="428.35" y="794.94" width="53.12" height="119.97" transform="matrix(0.19, -0.98, 0.98, 0.19, -574.87, 1227.98)"/><path class="cls-14" d="M478.21,916.57l-68.27-13.42c-13.66-2.68-22.86-14.32-20.56-26l-2.89,14.68c-2.3,11.68,6.9,23.31,20.55,26l68.28,13.42c13.65,2.68,26.58-4.61,28.89-16.28l2.89-14.68C504.8,912,491.87,919.26,478.21,916.57Z" transform="translate(-103.17 91.56)"/><rect class="cls-10" x="454.34" y="773.58" width="9.57" height="119.97" transform="translate(-550.51 1214.87) rotate(-78.88)"/><polygon class="cls-10" points="329.6 940.45 321.99 938.96 323.49 931.37 313.04 929.31 311.54 936.9 303.94 935.41 301.88 945.84 309.48 947.34 307.99 954.93 318.43 956.98 319.93 949.39 327.54 950.88 329.6 940.45"/><rect class="cls-18" x="480.47" y="835.18" width="4.6" height="42.1" transform="translate(-553.67 1256.36) rotate(-78.88)"/><rect class="cls-18" x="478.26" y="846.36" width="4.6" height="42.1" transform="translate(-566.41 1263.22) rotate(-78.88)"/><path class="cls-10" d="M1532.3,195.47l1.46-7.38-83.19-16.35-1.45,7.38c-10.55.74-19.38,7.31-21.25,16.76L1410,286.45c-2.3,11.67,6.9,23.31,20.55,26l68.28,13.42c13.65,2.68,26.58-4.6,28.89-16.27L1545.59,219C1547.46,209.57,1541.78,200.14,1532.3,195.47Z" transform="translate(-103.17 91.56)"/><rect class="cls-11" x="1489.35" y="139.84" width="4.72" height="84.78" transform="translate(922.03 1702.35) rotate(-78.88)"/><rect class="cls-16" x="1482.82" y="120.31" width="23.04" height="97.19" transform="translate(932.68 1692.72) rotate(-78.7)"/><rect class="cls-18" x="1440.49" y="158.38" width="23.04" height="4.12" transform="translate(906.92 1644.4) rotate(-78.7)"/><rect class="cls-18" x="1448.96" y="160.08" width="23.04" height="4.12" transform="translate(912.06 1654.06) rotate(-78.7)"/><rect class="cls-18" x="1457.42" y="161.77" width="23.04" height="4.12" transform="translate(917.29 1663.75) rotate(-78.7)"/><rect class="cls-18" x="1465.89" y="163.46" width="23.04" height="4.12" transform="matrix(0.2, -0.98, 0.98, 0.2, 922.37, 1673.39)"/><rect class="cls-18" x="1474.35" y="165.15" width="23.04" height="4.12" transform="translate(927.58 1683.07) rotate(-78.7)"/><rect class="cls-18" x="1482.82" y="166.84" width="23.04" height="4.12" transform="translate(932.65 1692.71) rotate(-78.7)"/><rect class="cls-18" x="1491.28" y="168.53" width="23.04" height="4.12" transform="translate(937.81 1702.37) rotate(-78.7)"/><rect class="cls-18" x="1499.74" y="170.22" width="23.04" height="4.12" transform="translate(942.94 1712.03) rotate(-78.7)"/><rect class="cls-18" x="1508.21" y="171.92" width="23.04" height="4.12" transform="translate(948.1 1721.69) rotate(-78.7)"/><rect class="cls-18" x="1516.67" y="173.61" width="23.04" height="4.12" transform="translate(953.32 1731.38) rotate(-78.7)"/><rect class="cls-18" x="1525.14" y="175.3" width="23.04" height="4.12" transform="translate(958.4 1741.01) rotate(-78.7)"/><rect class="cls-16" x="1451.87" y="189.55" width="53.12" height="119.97" transform="translate(845.28 1743.64) rotate(-78.88)"/><path class="cls-11" d="M1501.73,311.18l-68.27-13.42c-13.66-2.69-22.86-14.32-20.55-26l-2.9,14.68c-2.3,11.67,6.9,23.31,20.55,26l68.28,13.42c13.65,2.68,26.58-4.6,28.89-16.27l2.89-14.69C1528.32,306.57,1515.39,313.86,1501.73,311.18Z" transform="translate(-103.17 91.56)"/><rect class="cls-14" x="1477.86" y="168.18" width="9.57" height="119.97" transform="translate(869.64 1730.53) rotate(-78.88)"/><polygon class="cls-14" points="1353.12 335.06 1345.51 333.56 1347.01 325.97 1336.56 323.92 1335.06 331.51 1327.45 330.01 1325.4 340.44 1333 341.94 1331.51 349.53 1341.95 351.58 1343.45 343.99 1351.06 345.49 1353.12 335.06"/><rect class="cls-18" x="1503.99" y="229.79" width="4.6" height="42.1" transform="translate(866.48 1772.02) rotate(-78.88)"/><rect class="cls-18" x="1501.78" y="240.96" width="4.6" height="42.1" transform="translate(853.74 1778.88) rotate(-78.88)"/><polygon class="cls-20" points="1336.32 521.55 1297.23 479.74 1282.43 493.52 1321.52 535.33 1336.32 521.55"/><polygon class="cls-21" points="1300.58 483.33 1298.74 481.35 1283.94 495.14 1285.79 497.11 1300.58 483.33"/><polygon class="cls-21" points="1304.45 487.46 1302.6 485.49 1287.81 499.27 1289.65 501.24 1304.45 487.46"/><polygon class="cls-21" points="1308.31 491.59 1306.46 489.62 1291.67 503.4 1293.51 505.37 1308.31 491.59"/><polygon class="cls-21" points="1312.17 495.72 1310.33 493.75 1295.53 507.54 1297.38 509.51 1312.17 495.72"/><polygon class="cls-21" points="1316.04 499.86 1314.19 497.88 1299.4 511.67 1301.24 513.64 1316.04 499.86"/><polygon class="cls-21" points="1319.9 503.99 1318.06 502.02 1303.26 515.8 1305.1 517.77 1319.9 503.99"/><polygon class="cls-21" points="1323.76 508.12 1321.92 506.15 1307.12 519.93 1308.97 521.9 1323.76 508.12"/><polygon class="cls-21" points="1327.63 512.25 1325.78 510.28 1310.99 524.07 1312.83 526.04 1327.63 512.25"/><polygon class="cls-21" points="1331.49 516.39 1329.65 514.41 1314.85 528.2 1316.69 530.17 1331.49 516.39"/><polygon class="cls-21" points="1335.35 520.52 1333.51 518.55 1318.71 532.33 1320.56 534.3 1335.35 520.52"/><path class="cls-6" d="M1385.76,409.19l-132,122.25a23.19,23.19,0,1,0,31.58,34l132-122.25Z" transform="translate(-103.17 91.56)"/><path class="cls-10" d="M1353.66,447.54l-94.47,87.52a16.86,16.86,0,1,0,23,24.7l94.47-87.52Z" transform="translate(-103.17 91.56)"/><polygon class="cls-7" points="1322.05 534.94 1282.94 492.88 1276.76 498.61 1315.86 540.67 1322.05 534.94"/><path class="cls-11" d="M1269.9,548.12a16.81,16.81,0,0,1,.89-23.81l-11.6,10.75a16.86,16.86,0,1,0,23,24.7l11.6-10.75A16.9,16.9,0,0,1,1269.9,548.12Z" transform="translate(-103.17 91.56)"/><polygon class="cls-8" points="774.61 296.97 771.4 293.33 826.26 245.24 829.46 248.89 774.61 296.97"/><polygon class="cls-19" points="825.77 252.12 829.46 248.89 826.26 245.24 822.57 248.48 825.77 252.12"/><path class="cls-6" d="M1035.15,26.45l-96.07,84.22-6.44,28-7.43,6.51s-.78,5.41,4.54,11.46,10.79,6,10.79,6l7.43-6.51,28.64-2.76,96.07-84.22Z" transform="translate(-103.17 91.56)"/><polygon class="cls-8" points="962.99 144.34 947.36 126.57 994.78 85 1010.42 102.77 962.99 144.34"/><polygon class="cls-22" points="962.99 144.34 947.36 126.57 954.48 120.33 970.12 138.1 962.99 144.34"/><polygon class="cls-13" points="1021.88 99.99 999.03 74.01 990.92 81.13 1013.76 107.1 1021.88 99.99"/><polygon class="cls-13" points="976.91 155.79 938.29 111.89 925.82 122.82 964.44 166.72 976.91 155.79"/><polygon class="cls-22" points="948.01 179.4 931.3 160.41 934.08 157.97 950.79 176.96 948.01 179.4"/><polygon class="cls-22" points="933.76 191.89 917.06 172.9 919.84 170.46 936.54 189.45 933.76 191.89"/><polygon class="cls-22" points="919.52 204.37 902.81 185.39 905.59 182.95 922.3 201.94 919.52 204.37"/><path class="cls-10" d="M1008.89,117.43l-30-34.07-32.35,28.36-6.65,27.43-8.38,7.34s-.43,3,2.52,6.37,6,3.32,6,3.32l8.64-7.58,27.84-2.8Z" transform="translate(-103.17 91.56)"/><path class="cls-11" d="M1005.58,113.67l-29.09,25.5L948.65,142,940,149.56s-3,0-6-3.33a12.08,12.08,0,0,1-.88-1.14l-1.6,1.4s-.43,3,2.52,6.37,6,3.32,6,3.32l8.64-7.58,27.84-2.8,32.36-28.37Z" transform="translate(-103.17 91.56)"/><path class="cls-4" d="M1633.93,426.35l12.47-10.92-11.74-13.35,4.95-4.34h0l40-35.1,3.61,4.09,8.11-7.11-22.85-26-8.11,7.11,3.61,4.1-45,39.44-11.24-12.77-12.46,10.93.29.33-90.2,79.07-6.45,28-7.43,6.51s-.61,4.31,3,9.54l-2.52,2.21h0L1440.9,553l3.2,3.65,51.16-44.85h0l2.52-2.21c4.72,4.29,9.08,4.25,9.08,4.25l7.43-6.51,28.65-2.77,90.2-79.07Z" transform="translate(-103.17 91.56)"/><polygon class="cls-8" points="1325.63 636.93 1322.42 633.29 1377.27 585.21 1380.48 588.85 1325.63 636.93"/><polygon class="cls-19" points="1376.79 592.08 1380.48 588.85 1377.27 585.21 1373.58 588.44 1376.79 592.08"/><path class="cls-6" d="M1586.17,366.41l-96.07,84.22-6.45,28-7.42,6.51s-.78,5.4,4.54,11.45,10.79,6,10.79,6l7.43-6.51,28.64-2.76,96.07-84.22Z" transform="translate(-103.17 91.56)"/><polygon class="cls-8" points="1514.01 484.31 1498.37 466.53 1545.8 424.96 1561.44 442.73 1514.01 484.31"/><polygon class="cls-22" points="1514.01 484.31 1498.37 466.53 1505.5 460.29 1521.13 478.06 1514.01 484.31"/><polygon class="cls-10" points="1572.89 439.95 1550.05 413.98 1541.93 421.09 1564.78 447.06 1572.89 439.95"/><polygon class="cls-10" points="1527.92 495.75 1489.31 451.85 1476.84 462.78 1515.46 506.68 1527.92 495.75"/><polygon class="cls-22" points="1499.03 519.36 1482.32 500.37 1485.1 497.94 1501.81 516.92 1499.03 519.36"/><polygon class="cls-22" points="1484.78 531.85 1468.08 512.86 1470.86 510.42 1487.56 529.41 1484.78 531.85"/><polygon class="cls-22" points="1470.54 544.34 1453.83 525.35 1456.61 522.91 1473.32 541.9 1470.54 544.34"/><path class="cls-13" d="M1559.91,457.39l-30-34.07-32.36,28.36-6.65,27.43-8.37,7.34s-.44,3,2.52,6.37,6,3.32,6,3.32l8.64-7.57,27.84-2.81Z" transform="translate(-103.17 91.56)"/><path class="cls-14" d="M1556.6,453.64l-29.09,25.5-27.84,2.8-8.64,7.58s-3,0-6-3.32a10.69,10.69,0,0,1-.88-1.15l-1.6,1.4s-.44,3,2.52,6.37,6,3.32,6,3.32l8.64-7.57,27.84-2.81,32.36-28.37Z" transform="translate(-103.17 91.56)"/><path class="cls-10" d="M640.26,219.33a18.86,18.86,0,1,1-10.09-24.65A18.89,18.89,0,0,1,640.26,219.33Z" transform="translate(-103.17 91.56)"/><path class="cls-11" d="M641.26,207.89A18.87,18.87,0,0,1,604,212a18.87,18.87,0,0,0,36.26,7.29A18.65,18.65,0,0,0,641.26,207.89Z" transform="translate(-103.17 91.56)"/><path class="cls-11" d="M605.21,205.43c-.21.54-.38,1.1-.54,1.65l34.49,14.46A17.44,17.44,0,0,0,640,220c.09-.22.18-.45.26-.67l-34.71-14.55Z" transform="translate(-103.17 91.56)"/><path class="cls-12" d="M605.47,204.75c-.16.38-.3.77-.43,1.15l34.7,14.55c.19-.36.36-.73.52-1.12s.3-.76.44-1.14L606,203.64C605.81,204,605.63,204.37,605.47,204.75Z" transform="translate(-103.17 91.56)"/><path class="cls-10" d="M728.15,232a18.85,18.85,0,1,1-1-26.61A18.88,18.88,0,0,1,728.15,232Z" transform="translate(-103.17 91.56)"/><path class="cls-11" d="M733,221.6a18.65,18.65,0,0,1-3.89,6.33,18.86,18.86,0,0,1-32.53-15.22A18.86,18.86,0,1,0,733,221.6Z" transform="translate(-103.17 91.56)"/><path class="cls-11" d="M700,206.92c-.38.45-.74.9-1.07,1.37l27.41,25.4q.66-.56,1.29-1.17c.16-.18.32-.36.47-.55l-27.59-25.56Z" transform="translate(-103.17 91.56)"/><path class="cls-12" d="M700.5,206.38c-.28.3-.55.61-.8.93l27.58,25.56c.3-.28.59-.56.87-.87s.55-.61.81-.93l-27.59-25.56Q700.92,205.93,700.5,206.38Z" transform="translate(-103.17 91.56)"/><path class="cls-10" d="M694.25,281.53a18.86,18.86,0,1,1-22.73-13.94A18.82,18.82,0,0,1,694.25,281.53Z" transform="translate(-103.17 91.56)"/><path class="cls-11" d="M688.29,271.71A18.85,18.85,0,0,1,660.68,297a18.86,18.86,0,0,0,33.57-15.5A18.66,18.66,0,0,0,688.29,271.71Z" transform="translate(-103.17 91.56)"/><path class="cls-11" d="M657.74,291c.16.56.34,1.11.55,1.65L694.67,284c-.07-.57-.15-1.15-.27-1.72-.06-.23-.12-.47-.19-.7l-36.61,8.73C657.64,290.51,657.69,290.74,657.74,291Z" transform="translate(-103.17 91.56)"/><path class="cls-12" d="M657.56,290.28c.09.4.2.79.32,1.18l36.62-8.72c-.07-.4-.15-.81-.25-1.21s-.2-.79-.32-1.18l-36.62,8.72C657.38,289.48,657.46,289.88,657.56,290.28Z" transform="translate(-103.17 91.56)"/><path class="cls-4" d="M1505.54,1184.49,1355,755.74a24.43,24.43,0,0,0-31.13-14.94l-43.28,15.14a13.23,13.23,0,0,0-3.94.73l-2,.69-4-11.39-199.93,70,4,11.39-4,1.4a12.87,12.87,0,0,0-3.53,1.89l-41.23,14.43a24.36,24.36,0,0,0-15,31.08l150.58,428.75a24.44,24.44,0,0,0,31.14,14.94l297.88-104.25A24.38,24.38,0,0,0,1505.54,1184.49Z" transform="translate(-103.17 91.56)"/><path class="cls-10" d="M1308.51,729.56,1010.63,833.82a24.37,24.37,0,0,0-15,31.07l150.59,428.76a24.43,24.43,0,0,0,31.13,14.94l297.88-104.25a24.36,24.36,0,0,0,15-31.08L1339.65,744.51A24.46,24.46,0,0,0,1308.51,729.56Z" transform="translate(-103.17 91.56)"/><polygon class="cls-5" points="1367.72 1268.8 1060.68 1376.26 911.84 952.47 1218.87 845.02 1367.72 1268.8"/><polygon class="cls-6" points="911.84 952.47 1060.68 1376.26 1218.87 845.02 911.84 952.47"/><path class="cls-22" d="M1282,804.37,1076.1,876.43a13.13,13.13,0,0,1-16.7-8l-12-34.24a13.08,13.08,0,0,1,8-16.67l205.89-72.06a13.12,13.12,0,0,1,16.7,8l12,34.25A13.09,13.09,0,0,1,1282,804.37ZM1057.61,823.8a6.41,6.41,0,0,0-3.93,8.16l12,34.24a6.42,6.42,0,0,0,8.17,3.92l205.89-72a6.41,6.41,0,0,0,3.93-8.16l-12-34.25a6.43,6.43,0,0,0-8.18-3.92Z" transform="translate(-103.17 91.56)"/><polygon class="cls-13" points="1161.38 852.53 961.45 922.5 952.23 896.27 1152.16 826.3 1161.38 852.53"/><polygon class="cls-14" points="961.45 922.5 1161.38 852.53 1156.77 839.42 956.84 909.39 961.45 922.5"/><path class="cls-10" d="M1216.52,1151.26l-38.79-70.94,1.37,36.3-28.9,10.11a3.34,3.34,0,1,1-2.21-6.3l24.24-8.48L1170,1052.2l38.88,71.13-2-57.5,17.19,21.56,3-53.64,44.85,67.76-1.18-26.1,20.76-7.27a3.34,3.34,0,1,1,2.21,6.3l-16.06,5.63,2,45.31-47-71.11-2.82,51-15.54-19.47Z" transform="translate(-103.17 91.56)"/><path class="cls-7" d="M1158.61,998.88l-45.22,15.82a14,14,0,0,1-17.89-8.59l-22.15-63.06a14,14,0,0,1,8.6-17.87l45.22-15.82a14.05,14.05,0,0,1,17.89,8.59L1167.21,981A14,14,0,0,1,1158.61,998.88ZM1083.3,929a10,10,0,0,0-6.11,12.68l22.15,63.07a10,10,0,0,0,12.7,6.09L1157.26,995a10,10,0,0,0,6.1-12.68l-22.15-63.07a10,10,0,0,0-12.7-6.09Z" transform="translate(-103.17 91.56)"/><path class="cls-13" d="M1131.75,994.68c21.36-7.48,23.69-22.14,23.69-22.14a16.14,16.14,0,0,0-5-2c-6.9-1.69-12-1.71-14.41-2.59a13.19,13.19,0,0,1-4.3-2.7l-.94,1.13a18.33,18.33,0,0,1-2.47-6.06s1.53-1,.8-7.08c2.11-.31,2.72-6.15,1-7.63a1.61,1.61,0,0,0-2.44,0c-.27-2.75-2.42-17.65-17.52-12.36s-7.45,18.26-5.94,20.57c-.69-.08-1.6.11-1.88,1.56-.44,2.24,3.69,6.43,5.53,5.36,3.23,5.19,5.06,5,5.06,5a18.31,18.31,0,0,1,1.86,6.27l-1.44-.3a13.4,13.4,0,0,1-1.67,4.8c-1.36,2.21-5.31,5.38-9.64,11a16.28,16.28,0,0,0-2.64,4.67S1110.38,1002.16,1131.75,994.68Z" transform="translate(-103.17 91.56)"/><polygon class="cls-7" points="1142.55 981.09 1065.38 1008.1 1062.71 1000.48 1139.87 973.47 1142.55 981.09"/><polygon class="cls-7" points="1273.46 1100.72 1222.36 1118.6 1219.68 1110.98 1270.78 1093.1 1273.46 1100.72"/><polygon class="cls-7" points="1281.28 1122.98 1230.17 1140.87 1227.5 1133.24 1278.6 1115.36 1281.28 1122.98"/><polygon class="cls-7" points="1289.1 1145.24 1237.99 1163.13 1235.32 1155.51 1286.42 1137.62 1289.1 1145.24"/><polygon class="cls-7" points="1150.54 1000.47 1072.32 1027.85 1069.64 1020.23 1147.86 992.85 1150.54 1000.47"/><polygon class="cls-7" points="1238.47 996.26 1080.63 1051.5 1077.95 1043.88 1235.79 988.64 1238.47 996.26"/><polygon class="cls-7" points="1313.28 1218.66 1072.3 1303 1069.63 1295.38 1310.61 1211.04 1313.28 1218.66"/><polygon class="cls-7" points="1252.61 1045.91 1011.63 1130.24 1008.95 1122.62 1249.93 1038.28 1252.61 1045.91"/><polygon class="cls-7" points="1321.49 1242.04 1080.51 1326.38 1077.84 1318.76 1318.82 1234.42 1321.49 1242.04"/><polygon class="cls-7" points="1246.59 1019.38 1088.75 1074.62 1086.07 1067 1243.91 1011.76 1246.59 1019.38"/><path class="cls-4" d="M1323.43,444.49a23.2,23.2,0,0,0,43.86-15.16l-58-167.16,5.23-1.81-2.76-8-.07,0L1305.23,234l-54.08,18.86,6.41,18.3-.12.05,2.76,8,5.24-1.81Z" transform="translate(-103.17 91.56)"/><polygon class="cls-20" points="1195.38 323.19 1141.3 342.06 1147.98 361.13 1202.06 342.27 1195.38 323.19"/><polygon class="cls-21" points="1145.94 340.44 1143.39 341.33 1150.07 360.4 1152.62 359.51 1145.94 340.44"/><polygon class="cls-21" points="1151.29 338.58 1148.73 339.47 1155.41 358.54 1157.96 357.65 1151.29 338.58"/><polygon class="cls-21" points="1156.63 336.71 1154.08 337.6 1160.76 356.67 1163.31 355.78 1156.63 336.71"/><polygon class="cls-21" points="1161.98 334.85 1159.43 335.74 1166.1 354.81 1168.65 353.92 1161.98 334.85"/><polygon class="cls-21" points="1167.32 332.98 1164.77 333.87 1171.45 352.94 1174 352.05 1167.32 332.98"/><polygon class="cls-21" points="1172.67 331.12 1170.12 332.01 1176.79 351.08 1179.35 350.19 1172.67 331.12"/><polygon class="cls-21" points="1178.01 329.25 1175.46 330.14 1182.14 349.21 1184.69 348.32 1178.01 329.25"/><polygon class="cls-21" points="1183.36 327.39 1180.81 328.28 1187.48 347.35 1190.04 346.46 1183.36 327.39"/><polygon class="cls-21" points="1188.7 325.52 1186.15 326.41 1192.83 345.49 1195.38 344.6 1188.7 325.52"/><polygon class="cls-21" points="1194.05 323.66 1191.5 324.55 1198.18 343.62 1200.73 342.73 1194.05 323.66"/><path class="cls-6" d="M1257.83,272.34l58.92,169.83A23.2,23.2,0,0,0,1360.61,427l-58.92-169.82Z" transform="translate(-103.17 91.56)"/><path class="cls-13" d="M1280.07,317.12l42.17,121.58a16.88,16.88,0,0,0,31.9-11L1312,306.09Z" transform="translate(-103.17 91.56)"/><polygon class="cls-7" points="1201.91 341.63 1147.59 360.4 1150.35 368.37 1204.67 349.59 1201.91 341.63"/><path class="cls-14" d="M1338.54,434.18a16.9,16.9,0,0,1-21.48-10.41l5.18,14.93a16.88,16.88,0,0,0,31.9-11L1349,412.74A16.85,16.85,0,0,1,1338.54,434.18Z" transform="translate(-103.17 91.56)"/><path class="cls-4" d="M1490.64,87.37a23.19,23.19,0,0,0,36.84,28.19L1635.3-24.83l4.4,3.37,5.13-6.69-.06-.05,11.88-15.54-45.56-34.67L1599.31-63l-.1-.08-5.14,6.69,4.4,3.36Z" transform="translate(-103.17 91.56)"/><polygon class="cls-20" points="1547.44 34.67 1501.88 0 1489.61 16.07 1535.17 50.73 1547.44 34.67"/><polygon class="cls-21" points="1505.79 2.98 1503.64 1.34 1491.37 17.41 1493.52 19.04 1505.79 2.98"/><polygon class="cls-21" points="1510.29 6.4 1508.14 4.77 1495.88 20.83 1498.03 22.47 1510.29 6.4"/><polygon class="cls-21" points="1514.8 9.83 1512.65 8.19 1500.38 24.26 1502.53 25.89 1514.8 9.83"/><polygon class="cls-21" points="1519.3 13.26 1517.15 11.62 1504.88 27.69 1507.03 29.32 1519.3 13.26"/><polygon class="cls-21" points="1523.81 16.68 1521.65 15.05 1509.39 31.11 1511.54 32.75 1523.81 16.68"/><polygon class="cls-21" points="1528.31 20.11 1526.16 18.47 1513.89 34.54 1516.04 36.17 1528.31 20.11"/><polygon class="cls-21" points="1532.81 23.54 1530.66 21.9 1518.39 37.97 1520.54 39.6 1532.81 23.54"/><polygon class="cls-21" points="1537.32 26.96 1535.17 25.33 1522.9 41.39 1525.05 43.03 1537.32 26.96"/><polygon class="cls-21" points="1541.82 30.39 1539.67 28.75 1527.4 44.82 1529.55 46.45 1541.82 30.39"/><polygon class="cls-21" points="1546.32 33.81 1544.17 32.18 1531.9 48.25 1534.05 49.88 1546.32 33.81"/><path class="cls-6" d="M1594.15-68.39,1484.61,74.23a23.19,23.19,0,0,0,36.83,28.19L1631-40.2Z" transform="translate(-103.17 91.56)"/><path class="cls-13" d="M1569-25.21l-78.42,102.1a16.87,16.87,0,0,0,26.78,20.51L1595.75-4.71Z" transform="translate(-103.17 91.56)"/><polygon class="cls-7" points="1535.63 50.26 1490.01 15.34 1484.87 22.03 1530.5 56.95 1535.63 50.26"/><path class="cls-14" d="M1503.29,88a16.83,16.83,0,0,1-3.13-23.62l-9.62,12.53a16.87,16.87,0,0,0,26.78,20.51L1527,84.86A16.9,16.9,0,0,1,1503.29,88Z" transform="translate(-103.17 91.56)"/></g></g></g></svg>