<svg xmlns="http://www.w3.org/2000/svg" viewBox="0 0 512 512"><defs><style>.cls-1{fill:#e4edef;}.cls-2{fill:#bfdfe7;}.cls-3{fill:#f26376;}.cls-4{fill:#db375a;}.cls-5{fill:#63c6f8;}.cls-6{fill:#23a5f6;}.cls-7{fill:#ffa58d;}.cls-8{fill:#f59280;}.cls-9{fill:#00607f;}.cls-10{fill:#00465f;}</style></defs><title>Asset 1-</title><g id="Layer_2" data-name="Layer 2"><g id="Capa_1" data-name="Capa 1"><path class="cls-1" d="M497,0H317a15,15,0,0,0-15,15V191a65,65,0,0,0,30,54.73V257a15,15,0,0,0,30,0v-1.21c4.53.35,85.84.32,90,0V257a15,15,0,0,0,30,0V245.73A65,65,0,0,0,512,191V15A15,15,0,0,0,497,0Z"/><path class="cls-2" d="M512,15V191a65,65,0,0,1-30,54.73V257a15,15,0,0,1-30,0v-1.21c-1.58.12-14.3.2-29.71.24H407V0h90A15,15,0,0,1,512,15Z"/><path class="cls-3" d="M482,76V191a35,35,0,0,1-35,35H422.33l-.25,175.1a65.1,65.1,0,0,1-65,64.9H325V436h32.08a35.05,35.05,0,0,0,35-34.94L392.33,226H367a35,35,0,0,1-35-35V76Z"/><path class="cls-4" d="M482,76V191a35,35,0,0,1-35,35H422.33l0,30-.21,145.07A64.76,64.76,0,0,1,407,442.57V76Z"/><path class="cls-1" d="M427,143h-5v-5a15,15,0,0,0-30,0v5h-5a15,15,0,0,0,0,30h5v5a15,15,0,0,0,30,0v-5h5a15,15,0,0,0,0-30Z"/><path class="cls-2" d="M442,158a15,15,0,0,1-15,15h-5v5a15,15,0,0,1-15,15V123a15,15,0,0,1,15,15v5h5A15,15,0,0,1,442,158Z"/><path class="cls-5" d="M330,409V376A105.12,105.12,0,0,0,225,271H105A105.12,105.12,0,0,0,0,376v33H73V512H258V409Z"/><path class="cls-6" d="M330,376v33H258V512H164.89V271H225q3.34,0,6.65.22A105.11,105.11,0,0,1,330,376Z"/><path class="cls-7" d="M0,406v91a15,15,0,0,0,15,15H76V406Z"/><path class="cls-8" d="M255,406V512h60a15,15,0,0,0,15-15V406Z"/><path class="cls-7" d="M254,191v21.5A88.6,88.6,0,0,1,165.5,301,89.6,89.6,0,0,1,76,211.5V191h34.89a48.94,48.94,0,0,0,48.88-48.89h10.12A48.94,48.94,0,0,0,218.78,191Z"/><path class="cls-8" d="M254,191v21.5A88.62,88.62,0,0,1,165.5,301h-.61V142.11h5A48.94,48.94,0,0,0,218.78,191Z"/><path class="cls-9" d="M164.89,91h-.12A88.77,88.77,0,0,0,76,179.77V196h34.89a53.88,53.88,0,0,0,53.88-53.89l.12-.08v.08A53.89,53.89,0,0,0,218.78,196h34.89V179.77A88.78,88.78,0,0,0,164.89,91Z"/><path class="cls-10" d="M164.89,91v51.11A53.89,53.89,0,0,0,218.78,196h34.89V179.77A88.77,88.77,0,0,0,164.89,91Z"/></g></g></svg>