<svg id="Layer_1" data-name="Layer 1" xmlns="http://www.w3.org/2000/svg" xmlns:xlink="http://www.w3.org/1999/xlink" viewBox="0 0 1920 1080"><defs><style>.cls-1{fill:#fff;}.cls-2{fill:url(#linear-gradient);}.cls-3{fill:url(#linear-gradient-2);}.cls-4{fill:url(#linear-gradient-3);}.cls-5{fill:url(#linear-gradient-4);}.cls-6{fill:url(#linear-gradient-5);}.cls-7{fill:url(#linear-gradient-6);}.cls-8{fill:url(#linear-gradient-7);}.cls-9{fill:url(#linear-gradient-8);}.cls-10{fill:#f2f2f2;}.cls-11{fill:url(#linear-gradient-9);}.cls-12{fill:url(#linear-gradient-10);}.cls-13{fill:url(#linear-gradient-11);}.cls-14{fill:url(#linear-gradient-12);}.cls-15{fill:#dedede;}.cls-16{fill:url(#linear-gradient-13);}.cls-17{fill:url(#linear-gradient-14);}.cls-18{fill:url(#linear-gradient-15);}.cls-19{fill:url(#linear-gradient-16);}.cls-20{fill:url(#linear-gradient-17);}.cls-21{fill:url(#linear-gradient-18);}.cls-22{fill:#f4f4f4;}.cls-23{fill:url(#linear-gradient-19);}.cls-24{fill:url(#linear-gradient-20);}.cls-25{fill:url(#linear-gradient-21);}.cls-26{fill:url(#linear-gradient-22);}.cls-27{fill:#5f7dd1;}.cls-28{fill:url(#radial-gradient);}.cls-29{fill:#627ef8;}.cls-30{fill:#6fa3ef;}.cls-31{fill:#77b9ea;}.cls-32{fill:url(#linear-gradient-23);}.cls-33{fill:url(#linear-gradient-24);}.cls-34{fill:url(#linear-gradient-25);}.cls-35{fill:url(#linear-gradient-26);}.cls-36{fill:#dba585;}.cls-37{fill:#393d3f;}.cls-38{fill:#548a9b;}.cls-39{fill:#62a1b5;}.cls-40{fill:#3d636f;}.cls-41{fill:#446e7c;}.cls-42{fill:#3d3d42;}.cls-43{fill:#997761;}.cls-44{fill:#616161;}.cls-45{fill:#d9ccc5;}.cls-46{fill:url(#linear-gradient-27);}.cls-47{fill:url(#linear-gradient-28);}.cls-48{fill:#405ba8;}.cls-49{fill:#7094fb;}.cls-50{fill:#807f7d;}.cls-51{fill:#2c3548;}.cls-52{fill:#b68264;}.cls-53{fill:#558c9e;}.cls-54{fill:#7f503d;}.cls-55{fill:#55382c;}.cls-56{fill:#6d4636;}.cls-57{fill:#323436;}.cls-58{fill:#daddee;}.cls-59{fill:#bbbecc;}.cls-60{fill:#59332d;}.cls-61{fill:#454545;}.cls-62{fill:#a5a7b5;}.cls-63{fill:#c5c8d6;}</style><linearGradient id="linear-gradient" x1="2359.39" y1="182.59" x2="2665.21" y2="488.42" gradientTransform="matrix(1, 0, 0, -1, -685.43, 1080.96)" gradientUnits="userSpaceOnUse"><stop offset="0" stop-color="#5f6efa"/><stop offset="0.22" stop-color="#5f6cf7"/><stop offset="0.39" stop-color="#5e68ed"/><stop offset="0.55" stop-color="#5d60dc"/><stop offset="0.71" stop-color="#5b55c4"/><stop offset="0.85" stop-color="#5946a5"/><stop offset="0.99" stop-color="#563480"/><stop offset="1" stop-color="#56337d"/></linearGradient><linearGradient id="linear-gradient-2" x1="1610.55" y1="-182.2" x2="2420.05" y2="627.29" xlink:href="#linear-gradient"/><linearGradient id="linear-gradient-3" x1="2047.93" y1="-60.54" x2="2236.23" y2="127.75" gradientTransform="matrix(1, 0, 0, -1, -685.43, 1080.96)" gradientUnits="userSpaceOnUse"><stop offset="0" stop-color="#5f6efa"/><stop offset="1" stop-color="#56337d"/></linearGradient><linearGradient id="linear-gradient-4" x1="1503.59" y1="200.66" x2="2494.14" y2="1191.22" gradientTransform="matrix(1, 0, 0, -1, -685.43, 1080.96)" gradientUnits="userSpaceOnUse"><stop offset="0" stop-color="#56337d"/><stop offset="1" stop-color="#5f6efa"/></linearGradient><linearGradient id="linear-gradient-5" x1="728.31" y1="574.58" x2="948.91" y2="795.19" gradientTransform="matrix(1, 0, 0, -1, 0, 1082.35)" xlink:href="#linear-gradient-3"/><linearGradient id="linear-gradient-6" x1="1855.59" y1="934.43" x2="2102.66" y2="1181.5" xlink:href="#linear-gradient-4"/><linearGradient id="linear-gradient-7" x1="1755.17" y1="786.96" x2="1901.08" y2="786.96" gradientTransform="matrix(1, 0, 0, -1, -685.43, 1080.96)" gradientUnits="userSpaceOnUse"><stop offset="0" stop-color="#e79d5a"/><stop offset="1" stop-color="#f2d05f"/></linearGradient><linearGradient id="linear-gradient-8" x1="1731.12" y1="885.83" x2="1798" y2="885.83" xlink:href="#linear-gradient-7"/><linearGradient id="linear-gradient-9" x1="2785.33" y1="11715.75" x2="2930.2" y2="11715.75" gradientTransform="matrix(0.29, 0.96, 0.96, -0.29, -10620.17, 1102.16)" gradientUnits="userSpaceOnUse"><stop offset="0" stop-color="#81d3e4"/><stop offset="1" stop-color="#6076fa"/></linearGradient><linearGradient id="linear-gradient-10" x1="2164.92" y1="615.64" x2="2253.52" y2="762.71" gradientTransform="matrix(1, 0, 0, -1, -685.43, 1080.96)" gradientUnits="userSpaceOnUse"><stop offset="0" stop-color="#56337d"/><stop offset="1" stop-color="#5f6ffa"/></linearGradient><linearGradient id="linear-gradient-11" x1="3865.49" y1="9325.48" x2="3850.43" y2="9365.35" gradientTransform="matrix(0.29, 0.96, 0.96, -0.29, -10620.17, 1102.16)" xlink:href="#linear-gradient-10"/><linearGradient id="linear-gradient-12" x1="1863.09" y1="309.09" x2="1863.09" y2="476.56" gradientTransform="matrix(1, 0, 0, -1, 0, 1082.35)" xlink:href="#linear-gradient-10"/><linearGradient id="linear-gradient-13" x1="-9835.76" y1="483.57" x2="-8968.95" y2="483.57" gradientTransform="translate(-7972.64 1080.96) rotate(180)" xlink:href="#linear-gradient-7"/><linearGradient id="linear-gradient-14" x1="877.55" y1="412.21" x2="877.55" y2="517.06" gradientTransform="matrix(1, 0, 0, -1, 0, 1082.35)" xlink:href="#linear-gradient-7"/><linearGradient id="linear-gradient-15" x1="903.4" y1="412.21" x2="903.4" y2="517.06" gradientTransform="matrix(1, 0, 0, -1, 0, 1082.35)" xlink:href="#linear-gradient-7"/><linearGradient id="linear-gradient-16" x1="929.24" y1="412.21" x2="929.24" y2="517.07" gradientTransform="matrix(1, 0, 0, -1, 0, 1082.35)" xlink:href="#linear-gradient-7"/><linearGradient id="linear-gradient-17" x1="955.09" y1="412.21" x2="955.09" y2="517.07" gradientTransform="matrix(1, 0, 0, -1, 0, 1082.35)" xlink:href="#linear-gradient-7"/><linearGradient id="linear-gradient-18" x1="1991.02" y1="68.6" x2="2004.16" y2="815.02" gradientTransform="matrix(1, 0, 0, -1, -685.43, 1080.96)" xlink:href="#linear-gradient-9"/><linearGradient id="linear-gradient-19" x1="1350.75" y1="700.88" x2="1449.67" y2="700.88" gradientTransform="matrix(1, 0, 0, -1, 0, 1082.35)" xlink:href="#linear-gradient-9"/><linearGradient id="linear-gradient-20" x1="1350.75" y1="648.43" x2="1441.56" y2="648.43" gradientTransform="matrix(1, 0, 0, -1, 0, 1082.35)" xlink:href="#linear-gradient-9"/><linearGradient id="linear-gradient-21" x1="1350.75" y1="674.65" x2="1429.32" y2="674.65" gradientTransform="matrix(1, 0, 0, -1, 0, 1082.35)" xlink:href="#linear-gradient-9"/><linearGradient id="linear-gradient-22" x1="1930.04" y1="597.61" x2="1930.04" y2="706.25" gradientTransform="matrix(1, 0, 0, -1, -685.43, 1080.96)" gradientUnits="userSpaceOnUse"><stop offset="0" stop-color="#8db0dc"/><stop offset="1" stop-color="#fff"/></linearGradient><radialGradient id="radial-gradient" cx="-9360.91" cy="-869.95" r="81.74" gradientTransform="translate(-34113.09 -2678.92) rotate(180) scale(3.8)" gradientUnits="userSpaceOnUse"><stop offset="0.16" stop-color="#9ec0e5"/><stop offset="0.58" stop-color="#71acfb"/><stop offset="1" stop-color="#6f81f0"/></radialGradient><linearGradient id="linear-gradient-23" x1="929.06" y1="314.08" x2="925.08" y2="474.22" gradientTransform="matrix(1, 0, 0, -1, 0, 1082.35)" xlink:href="#linear-gradient-7"/><linearGradient id="linear-gradient-24" x1="909.6" y1="313.59" x2="905.62" y2="473.72" gradientTransform="matrix(1, 0, 0, -1, 0, 1082.35)" xlink:href="#linear-gradient-7"/><linearGradient id="linear-gradient-25" x1="2034.1" y1="911.34" x2="1998.21" y2="777.11" gradientTransform="matrix(1, 0, 0, -1, -685.43, 1081.3)" xlink:href="#linear-gradient-7"/><linearGradient id="linear-gradient-26" x1="2032.3" y1="911.81" x2="1996.42" y2="777.59" gradientTransform="matrix(1, 0, 0, -1, -685.43, 1081.3)" xlink:href="#linear-gradient-7"/><linearGradient id="linear-gradient-27" x1="1241" y1="760.01" x2="1249.64" y2="627.78" gradientTransform="matrix(1, 0, 0, -1, 0, 1082.35)" xlink:href="#linear-gradient-9"/><linearGradient id="linear-gradient-28" x1="1926.43" y1="758.96" x2="1935.06" y2="626.72" gradientTransform="matrix(1, 0, 0, -1, -685.43, 1081.31)" xlink:href="#linear-gradient-9"/></defs><title>loginbg</title><rect class="cls-1" y="0.35" width="1920" height="1078.65"/><path class="cls-2" d="M1918.62,531.38V776L1796.28,898.37A86.49,86.49,0,1,1,1674,776.05Z" transform="translate(0 0.35)"/><path class="cls-3" d="M1734.61,820.65,1572.74,982.56l-97.13,97.09h-734l626-626c101.32-101.33,265.63-101.33,367,0S1836,719.37,1734.61,820.65Z" transform="translate(0 0.35)"/><path class="cls-4" d="M1612.65,1079.65h-312a156,156,0,1,1,312,0Z" transform="translate(0 0.35)"/><path class="cls-5" d="M1918.62-.35V221L1425,714.7,1259.37,880.31c-121.87,121.84-319.4,121.84-441.2,0s-121.85-319.33,0-441.2l321.77-321.77,20.16-20.16L1257.58-.35Z" transform="translate(0 0.35)"/><circle class="cls-6" cx="838.61" cy="397.46" r="155.99"/><path class="cls-7" d="M1517.42-.35,1380.65,136.46a156,156,0,0,1-220.55,0,155,155,0,0,1-16.31-19.13A155.73,155.73,0,0,1,1116.61-.35Z" transform="translate(0 0.35)"/><path class="cls-8" d="M1085.61,317.86a62.12,62.12,0,0,0,8.76,14.78l-5.18,10.91,10.52,7.9,10.52,7.89,9-8.06a61.39,61.39,0,0,0,16.64,4.27l4,11.4,13-1.86,13-1.86.69-12.07a61.93,61.93,0,0,0,14.78-8.76l10.92,5.21,7.89-10.52,7.89-10.51-8.06-9a61.5,61.5,0,0,0,4.28-16.64l11.39-4-1.86-13-1.85-13-12.08-.69a61.37,61.37,0,0,0-8.75-14.78l5.2-10.92-10.51-7.89-10.46-8-9,8.06a61.75,61.75,0,0,0-16.64-4.27l-4-11.4-13,1.86-13,1.86-.68,12.07a61.6,61.6,0,0,0-14.83,8.82l-11-5.25-7.89,10.52-7.89,10.51,8,9a61.75,61.75,0,0,0-4.27,16.64l-11.4,4,1.86,13,1.86,13Zm50.65-69.46a46.07,46.07,0,1,1-39.1,52.12,46.07,46.07,0,0,1,39.1-52.12Z" transform="translate(0 0.35)"/><path class="cls-9" d="M1052.92,206.07a27.89,27.89,0,0,0,4,6.78l-2.39,5,4.82,3.61,4.82,3.62,4.14-3.7a28.09,28.09,0,0,0,7.63,2l1.85,5.23,6-.86,6-.85.32-5.53a28,28,0,0,0,6.77-4l5,2.39,3.62-4.82,3.61-4.82-3.69-4.14a28.26,28.26,0,0,0,2-7.63l5.22-1.85-.85-6-.85-6-5.53-.31a28.61,28.61,0,0,0-4-6.78l2.39-5-4.82-3.62-4.83-3.62-4.13,3.7a28.36,28.36,0,0,0-7.63-2l-1.85-5.23-6,.86-6,.85-.31,5.53a28.55,28.55,0,0,0-6.78,4l-5-2.39-3.61,4.82-3.62,4.82,3.7,4.14a27.73,27.73,0,0,0-2,7.63l-5.23,1.86.85,6,.86,6Zm23.27-31.83a18.7,18.7,0,1,1-.06,0Z" transform="translate(0 0.35)"/><rect class="cls-10" x="1298.96" y="467.43" width="3.05" height="319.59"/><rect class="cls-1" x="1300.49" y="428.05" width="32.84" height="8.33"/><rect class="cls-1" x="1300.49" y="443.45" width="26.27" height="8.33"/><rect class="cls-1" x="1302.01" y="805.95" width="34.46" height="11.11"/><path class="cls-11" d="M1427,355.65s66.65,79,24.37,130.21-53.91,1-53.91,1-25.3,4.69,18.52-59.31C1436.62,397.39,1427,355.65,1427,355.65Z" transform="translate(0 0.35)"/><path class="cls-12" d="M1573.07,294s49.51,73.09-36.69,157.27-79.8,134.41-79.8,134.41S1368.44,413.13,1573.07,294Z" transform="translate(0 0.35)"/><path class="cls-13" d="M1440.49,553.9c-36.17,3.28,5.79-94.52,62.3-120s104.3-23.36,137.34-50.3C1640.13,383.55,1618.58,537.83,1440.49,553.9Z" transform="translate(0 0.35)"/><rect class="cls-14" x="1861.57" y="467.43" width="3.05" height="319.59"/><rect class="cls-10" x="1212.87" y="467.43" width="3.05" height="319.59"/><rect class="cls-10" x="1429.46" y="467.43" width="3.05" height="319.59"/><rect class="cls-15" x="997.81" y="428.05" width="51.88" height="8.33"/><rect class="cls-15" x="997.81" y="443.45" width="73.59" height="8.33"/><rect class="cls-1" x="1212.06" y="428.05" width="60.91" height="8.33"/><rect class="cls-1" x="1212.06" y="443.45" width="38.94" height="8.33"/><rect class="cls-1" x="1432.51" y="428.05" width="37.74" height="8.33"/><rect class="cls-1" x="1432.51" y="443.45" width="43.99" height="8.33"/><rect class="cls-1" x="1214.4" y="805.95" width="34.46" height="11.11"/><rect class="cls-1" x="1432.51" y="805.95" width="34.46" height="11.11"/><path class="cls-16" d="M1477.3,688.11c49.87,0,89.42-33.53,128.13-66.36,29.36-24.89,59.82-50.35,95-62.9,107.3-38.31,162.2,31.65,162.69,32.27V569.83c-.58-.72-10.37-13.45-38.7-25.59-25.79-11-69.07-19.87-128.76.89-37.81,13.16-69.22,39.79-99.59,65.54-61.61,52.23-114.82,97.34-207.23,26.69-70-53.53-136-104.53-200.88-123.16-63.5-18.23-129.69-4.89-191.65,57.09l.46,19.32c131.61-132.21,243.68-48.44,383.25,58.27C1417,677.15,1448.82,688.11,1477.3,688.11Z" transform="translate(0 0.35)"/><rect class="cls-15" x="872.35" y="586.32" width="10.41" height="44.94"/><rect class="cls-15" x="898.2" y="568.06" width="10.41" height="63.2"/><rect class="cls-15" x="924.04" y="558.54" width="10.41" height="72.72"/><rect class="cls-15" x="949.88" y="554.57" width="10.41" height="76.69"/><rect class="cls-17" x="872.35" y="603.07" width="10.41" height="28.19"/><rect class="cls-18" x="898.2" y="591.61" width="10.41" height="39.65"/><rect class="cls-19" x="924.04" y="585.64" width="10.41" height="45.63"/><rect class="cls-20" x="949.88" y="583.15" width="10.41" height="48.12"/><path class="cls-21" d="M1313.18,833.08h0c-105.08,0-190.27-85.18-190.27-190.27V519.89c0-105.09,85.19-190.28,190.27-190.28h0c105.08,0,190.27,85.19,190.27,190.28V642.81C1503.45,747.9,1418.26,833.08,1313.18,833.08Z" transform="translate(0 0.35)"/><path class="cls-22" d="M1279.88,274.21h201v537.6H1145.43V408.69a134.46,134.46,0,0,1,134.42-134.48Z" transform="translate(0 0.35)"/><rect class="cls-23" x="1350.75" y="375.21" width="98.92" height="12.51"/><rect class="cls-24" x="1350.75" y="427.66" width="90.81" height="12.51"/><rect class="cls-25" x="1350.75" y="401.44" width="78.57" height="12.51"/><path class="cls-26" d="M1244.61,455.11a77.83,77.83,0,1,1,32.2-6.94A77.24,77.24,0,0,1,1244.61,455.11Zm0-151.72a73.81,73.81,0,1,0,67.14,43.25A73.8,73.8,0,0,0,1244.61,303.39Z" transform="translate(0 0.35)"/><rect class="cls-15" x="1166.69" y="486.82" width="113.67" height="11.16"/><rect class="cls-15" x="1166.69" y="516.83" width="113.67" height="11.16"/><rect class="cls-15" x="1166.69" y="546.85" width="113.67" height="11.15"/><rect class="cls-27" x="1303.55" y="486.82" width="18.97" height="11.16"/><rect class="cls-27" x="1303.55" y="516.83" width="18.97" height="11.16"/><rect class="cls-27" x="1303.55" y="546.85" width="18.97" height="11.15"/><path class="cls-28" d="M1071.8,691.73c67.56,0,126.28-29.22,187.5-59.66,75.59-37.58,153.74-76.45,257.87-65.8,66.49,6.79,108.22,33.87,145,57.77,33.34,21.63,64.86,40.65,107.55,42.28,69,2.62,92.93-26.8,93.33-28.6V618.83h0c-.09.34-15.15,33.35-93.26,33-38.46-.19-66.85-18.6-99.72-39.94-38.2-24.78-81.5-52.87-151.48-60-108.3-11.07-188.37,28.75-265.8,67.25-81,40.29-158.33,78.07-256.09,45.29V680C1024.61,689.24,1046.9,691.73,1071.8,691.73Z" transform="translate(0 0.35)"/><path class="cls-22" d="M1463.19,820.08h0a113.54,113.54,0,0,1-113.55-113.54h0V588.79a113.55,113.55,0,0,1,113.55-113.56h0a113.55,113.55,0,0,1,113.55,113.55h0V706.54a113.54,113.54,0,0,1-113.55,113.54Z" transform="translate(0 0.35)"/><path class="cls-15" d="M1550.19,526.52a37.18,37.18,0,0,0-70,25c.28.79.59,1.56.92,2.33a36.77,36.77,0,0,0,5.76,9.25,37.18,37.18,0,0,0,63.32-36.58Zm-25.62,38.77a27.87,27.87,0,0,1-30.62-8.18,27.44,27.44,0,0,1-4.32-6.94c-.25-.56-.48-1.15-.69-1.73a27.87,27.87,0,1,1,35.63,16.84Z" transform="translate(0 0.35)"/><path class="cls-29" d="M1488.55,530.74l-8.88-2.78A37.24,37.24,0,0,1,1514,501.88l.28,9.3A28,28,0,0,0,1488.55,530.74Z" transform="translate(0 0.35)"/><path class="cls-30" d="M1489.6,550.17l-8.53,3.71c-.33-.76-.64-1.53-.92-2.32a37,37,0,0,1-.48-23.6l8.88,2.78a27.79,27.79,0,0,0,.36,17.7C1489.12,549,1489.35,549.65,1489.6,550.17Z" transform="translate(0 0.35)"/><path class="cls-31" d="M1486.83,563.13a36.42,36.42,0,0,1-5.76-9.25l8.53-3.71a27.44,27.44,0,0,0,4.32,6.94Z" transform="translate(0 0.35)"/><rect class="cls-31" x="1494.78" y="742.58" width="20.04" height="65.7"/><rect class="cls-31" x="1464.99" y="761" width="20.04" height="47.28"/><rect class="cls-31" x="1523.68" y="712.12" width="20.04" height="96.16"/><polygon class="cls-31" points="1379.95 735.81 1378.2 734.47 1410.86 691.98 1451.15 694.17 1481.54 645.78 1514.28 642.4 1533.96 603.49 1535.92 604.47 1515.7 644.46 1482.84 647.85 1452.33 696.43 1411.89 694.24 1379.95 735.81"/><path class="cls-27" d="M1441.7,524.19h-57a6.51,6.51,0,0,1-6.51-6.52v0h0a6.52,6.52,0,0,1,6.52-6.52h57a6.53,6.53,0,0,1,6.48,6.52h0A6.51,6.51,0,0,1,1441.7,524.19Z" transform="translate(0 0.35)"/><path class="cls-15" d="M1441.7,546.93h-57a6.52,6.52,0,0,1-6.52-6.52h0a6.53,6.53,0,0,1,6.52-6.51h57a6.53,6.53,0,0,1,6.52,6.51h0a6.52,6.52,0,0,1-6.52,6.53Z" transform="translate(0 0.35)"/><path class="cls-15" d="M1441.7,569.65h-57a6.5,6.5,0,0,1-6.52-6.5h0a6.51,6.51,0,0,1,6.51-6.51h57a6.52,6.52,0,0,1,6.52,6.5h0a6.5,6.5,0,0,1-6.51,6.51Z" transform="translate(0 0.35)"/><polygon class="cls-32" points="919.39 706.63 942.33 706.63 935.31 692.06 912.37 692.06 919.39 706.63"/><polygon class="cls-33" points="908.65 706.63 914.12 706.63 907.1 692.06 901.63 692.06 908.65 706.63"/><rect class="cls-34" x="1308.78" y="230.09" width="45.42" height="8.23"/><rect class="cls-35" x="1308.78" y="226.25" width="45.42" height="1.55"/><path class="cls-36" d="M987.3,684.12A43.08,43.08,0,0,1,974.46,688s-5.9-8.65-9.36-15.13c-8.23-15.45-10.67-22.69-10-28.62,1.26-10.65,22.23-53.33,22.23-53.33l23.29,9-17.83,31.68c-1.66,3.25-3.81,8.52-6,12.81-2.91,5.63.59,18.5,2.66,23.88C979.47,668.29,983.27,678.65,987.3,684.12Z" transform="translate(0 0.35)"/><path class="cls-37" d="M914.54,859.89s-.69,3.86,2,9,14.65,18.31,13.8,23.76-14.66,4.77-23.34-4.75-21.59-19.35-21.12-21.64,13.51-14.14,18-15.71S914.54,859.89,914.54,859.89Z" transform="translate(0 0.35)"/><polygon class="cls-36" points="919.31 855.15 914.42 860.42 903.42 851.04 908.47 845.18 919.31 855.15"/><path class="cls-38" d="M904.19,844.83c5.36-6.09,48.68-50.4,48.68-50.4C975,769,983.6,768.29,983.6,768.29a131.74,131.74,0,0,1,13.16,1.15c1.09.16,4.64.11,5.78.3,14.06,2.28,14.45.67,9.31,12.2-8.45,19-93.26,73.62-93.26,73.62Z" transform="translate(0 0.35)"/><path class="cls-37" d="M1102.08,867.94a59.49,59.49,0,0,0,13.07,3.86c6.12.84,20.87-1.6,25,2.43s-4.84,15.65-18.42,17.4-31,4.6-32.67,2.79-3.1-18.1-1.7-23S1102.08,867.94,1102.08,867.94Z" transform="translate(0 0.35)"/><polygon class="cls-36" points="1099.16 861.08 1102.08 868.27 1087.41 871.76 1085.19 864.05 1099.16 861.08"/><path class="cls-38" d="M1077.19,769.74s-6-22.78,8,30.87c0,0,14.78,57.22,16.4,60.49.39.77-18.52,4.22-18.87,4.09-3.29-1.32-32.73-74.64-40-88.19C1036.24,765.07,1077.19,769.74,1077.19,769.74Z" transform="translate(0 0.35)"/><path class="cls-38" d="M1077.19,769.74l-29.47,16.91s-11.58-14.21-19.25-20l-2.37-1.8c-1.13-.86-2.27-1.73-3.4-2.62l-2.46-2c-5.61-4.47-10.85-9-13.73-12.34-8.34-9.62,9.91-70.48,33-43.34C1039.46,704.57,1070.36,733.58,1077.19,769.74Z" transform="translate(0 0.35)"/><path class="cls-38" d="M1037.62,697.37s-14.5,66.63-28.79,89.3c0,0-24.28-8.18-35.43-12.55,0,0-1.08-48.16,0-60.75C974.4,701.65,1037.62,697.37,1037.62,697.37Z" transform="translate(0 0.35)"/><path class="cls-39" d="M970.48,720.73s6.12-59.87,1-87.74c-3.36-18.53,1.51-48.57,12.61-64.79a39.66,39.66,0,0,1,4.19-5.21s22.41,5.93,24.66,7.5a44.94,44.94,0,0,1,5.81,6.13h0c6.37,7.82,15.79,22,16.71,35.73.66,10,1.21,19.19,1.84,28.65.18,2.89.38,5.8.59,8.77.5,7.13,1.08,14.6,1.79,22.83.4,4.58,3.49,19.1,5.52,32.5Z" transform="translate(0 0.35)"/><path class="cls-40" d="M1026.1,764.82c-1.13-.86-2.27-1.72-3.4-2.62l-2.46-2c1.17-3.76,7.57-20.87,10.08-33.1C1030.32,727.15,1032.19,746.19,1026.1,764.82Z" transform="translate(0 0.35)"/><path class="cls-41" d="M1038,649.77s-13,19.83-15.36-29.14L1037.36,641Q1037.63,645.34,1038,649.77Z" transform="translate(0 0.35)"/><path class="cls-36" d="M988.32,563s2.34-12.94-.38-20.48,22.31,12.69,22.31,12.69v2.62c0,1.21.1,2.76.21,4.38a33.09,33.09,0,0,0,1.39,8.37C1013.57,574.79,988.32,563,988.32,563Z" transform="translate(0 0.35)"/><path class="cls-36" d="M1024.52,517.6s5.27,9.94,2.62,11.46c-2.2,1.26,2.49,11,3.1,12.59s-4,2.72-5,3.73-4,13.57-7.73,13.92-20.71-5.65-25.32-10.5-8.26-26.63-5.11-35.79S1015.19,500.23,1024.52,517.6Z" transform="translate(0 0.35)"/><path class="cls-42" d="M1025.57,519.75s5.52-10.66-4.33-18.66-28.2,5.8-30.26,6.32-14.29,4.42-8.15,22.6c5.56,16.5,6.28,18.36,6.28,18.36s3.38-11,5.53-12.51c3.36-2.4,10.69-1.77,10.69-1.77s-3.43-9.3,2-10.57S1020.06,517.65,1025.57,519.75Z" transform="translate(0 0.35)"/><path class="cls-36" d="M999.55,528.75c-.47-1.27-2-6.75-6.71-3.57s2.84,13.53,3.65,13.67S1003.53,539.48,999.55,528.75Z" transform="translate(0 0.35)"/><path class="cls-43" d="M1010.5,562.19c-7.76-2.09-14.41-10.54-14.41-10.54,2.12,2.08,14.2,6.14,14.2,6.14C1010.32,559,1010.39,560.56,1010.5,562.19Z" transform="translate(0 0.35)"/><polygon class="cls-44" points="1097.1 632.97 1084.47 698 1042.73 689.9 1053.73 624.55 1097.1 632.97"/><polygon class="cls-45" points="1093.97 636.14 1082.75 693.89 1045.68 686.7 1055.45 628.66 1093.97 636.14"/><polygon class="cls-44" points="1082.22 635.35 1083 631.3 1068.01 628.39 1066.64 632.32 1082.22 635.35"/><path class="cls-36" d="M1092.19,678.29a9.3,9.3,0,0,1-2.8.71s-1.76-.23-3-.32a8.34,8.34,0,0,0-1,0,16.83,16.83,0,0,1-5.3,0c-2.3-.5-11.67-5.22-11.67-5.22l1.11-5.78.27-5.56s13.65-4.64,15.85-4.42a3.2,3.2,0,0,1,.62.09c1.85.37,3.06,1.41,4,1.71.35.12,3.71,1.47,4,2.51a3.56,3.56,0,0,1-.45,3.42s.78,2.84,0,4.66a5.26,5.26,0,0,1-.85,4.57S1093.55,677.31,1092.19,678.29Z" transform="translate(0 0.35)"/><path class="cls-36" d="M1073,660.75a43.36,43.36,0,0,1-4.52,12.63s-10.47-.42-17.73-1.5c-17.32-2.59-24.58-4.94-28.92-9-7.82-7.37-29.6-49.63-29.6-49.63l21.09-13.36,14.88,33.16c1.61,3.27,4.57,8.14,6.7,12.47,2.78,5.68,15.21,10.54,20.76,12.09C1055.6,657.65,1066.19,660.75,1073,660.75Z" transform="translate(0 0.35)"/><path class="cls-39" d="M1023.82,617.9l-24,12.47s-4.75-9.19-6.14-12.18c-4-8.58-10.17-21.54-2.4-27,16.75-11.81,24,7.79,28.07,18.54A56.78,56.78,0,0,0,1023.82,617.9Z" transform="translate(0 0.35)"/><rect class="cls-46" x="1234.46" y="334.84" width="20.3" height="85.39"/><rect class="cls-47" x="1201.91" y="367.38" width="85.39" height="20.31"/><path class="cls-15" d="M947.37,407.4A48.45,48.45,0,0,0,905.92,495h0c1,.47,2,.9,3,1.3a48.46,48.46,0,0,0,38.47-88.89Zm12.11,59.34A36.33,36.33,0,0,1,913.34,485c-.75-.3-1.49-.62-2.23-1a36.32,36.32,0,1,1,48.37-17.3Z" transform="translate(0 0.35)"/><path class="cls-48" d="M894.47,468.07l-10.74,5.58a48.5,48.5,0,0,1,7.64-55.72l8.83,8.31A36.38,36.38,0,0,0,894.47,468Z" transform="translate(0 0.35)"/><path class="cls-49" d="M913.34,485,908.9,496.3c-1-.4-2-.83-3-1.3a48.21,48.21,0,0,1-22.17-21.35L894.47,468a36.12,36.12,0,0,0,16.64,16C911.85,484.39,912.59,484.7,913.34,485Z" transform="translate(0 0.35)"/><path class="cls-49" d="M922.74,499.51a48.76,48.76,0,0,1-13.84-3.21L913.34,485a36.32,36.32,0,0,0,10.38,2.41Z" transform="translate(0 0.35)"/><polygon class="cls-49" points="911.76 531.78 821.29 531.78 821.29 529.99 909.96 529.99 909.96 491.66 911.76 491.66 911.76 531.78"/><rect class="cls-15" x="821.29" y="511.27" width="47.62" height="10.79"/><path class="cls-36" d="M1308.29,660.88s2.65,6,5.18,5.29a23,23,0,0,1,7.49-.41c1.58.17,6.71-1,6.41.89s-8.39,2.37-10.08,2.79,4.39,4.72,4.81,6.38-8.07,11.23-11.86,7.8-5.36-9.6-6.16-10.07-4.29-5.39-4.29-5.39Z" transform="translate(0 0.35)"/><path class="cls-36" d="M1321.42,674.81s10.86,11.27,10.89,12.63-.66,1.92-1.72.91-10.83-10.59-10.83-10.59,10.4,15.51,10.68,16.61c.17.64-1.12,1.79-1.75,1.31s-11.88-15.27-11.88-15.27,9.69,14.51,9.63,15.51a1.3,1.3,0,0,1-2.29.63c-.8-1-10.6-14-10.6-14s6.33,11,5.77,11.86c-.35.52-1.42,1.56-3-1.34s-5.93-9.32-5.93-9.32Z" transform="translate(0 0.35)"/><path class="cls-37" d="M1173.8,872.73s-4.16,3-6.46,5-5.45,4.34-7.37,9.65,1.13,9.23,6.32,9.55,13.18-3.61,14-8.37,6.87-4.16,7.67-7.52a18.13,18.13,0,0,0-.27-7.48Z" transform="translate(0 0.35)"/><path class="cls-50" d="M1174.49,868.82l-.69,3.91s2.14,4,13.85.88l-.6-3.85Z" transform="translate(0 0.35)"/><path class="cls-37" d="M1187.65,873.65s-2.63.35-4.51.65-5.6-2.1-9.34-1.53l1.15,4.75S1187.39,875.13,1187.65,873.65Z" transform="translate(0 0.35)"/><path class="cls-37" d="M1248.59,871.94s4.16,3,6.47,5,5.44,4.35,7.36,9.66-1.12,9.23-6.32,9.54-13.17-3.6-14-8.37-6.88-4.16-7.68-7.51a18.55,18.55,0,0,1,.27-7.49Z" transform="translate(0 0.35)"/><path class="cls-50" d="M1247.9,868.05l.69,3.9s-2.14,4-13.85.88l.61-3.84Z" transform="translate(0 0.35)"/><path class="cls-38" d="M1253.5,779.32c0,8.57-1.22,89.44-1.22,89.44-.86,2.85-16.87,3.79-19.73,2.36s-2.36-81.61-2.88-90.26-7.48-72.22-10-71.93S1203,769.11,1201,775.68s-9.87,95-9.87,95c-9.77,3.4-19.76.41-19.76.41s3.74-89.54,3.74-100.18c0-3.94,1.17-6.93,2.28-27.91.85-16,5.3-48.76,8.28-71.31.11-.8.21-1.57.31-2.3.58-4.39,1-7.62,1.23-9.15l.14-1a21.67,21.67,0,0,1,2.52-1c20.92-7.53,61.28.44,61.28.44a3.55,3.55,0,0,0,.07.57c.07.38.13,1.15.24,2.08.23,2,.58,4.95,1,8.39v.38c1.41,12.23,2.11,19,3.21,32C1256,704.88,1253.5,770.75,1253.5,779.32Z" transform="translate(0 0.35)"/><path class="cls-39" d="M1232.35,543.37s34.26,7.27,37.12,16.8,8.4,31.89,16.12,56.21c4.62,14.55,28.07,47.7,28.07,47.7s-13.42,9.9-13.42,8.56-31.6-43.51-32-48.65-10-31.44-10-31.44-4.54,50.56-4.54,58.37,2,31.81,2,31.81-13.78,11.44-38.44,10.15c0,0-34.83.16-34.35-13.55.43-12.08,3.4-84.4,2.64-84.78s-14.44,16.75-13.11,20.05,36.75,15.13,36.75,15.13,1,3.82-4.47,12.45c0,0-52.88-15.45-53.07-18.69s22-66.11,29.24-69.41C1191.32,549.35,1219,543,1219,543Z" transform="translate(0 0.35)"/><path class="cls-37" d="M1234.74,872.82s2.64.35,4.52.66,5.6-2.11,9.33-1.54l-1.15,4.75S1235,874.37,1234.74,872.82Z" transform="translate(0 0.35)"/><path class="cls-36" d="M1233.56,544.19c-.16,8.37-19.38,17.18-19.38,17.18s-4.67-15.66-3-16.47c.64-.32.84-.52.92-1.94a29.78,29.78,0,0,0-.1-3.78,5,5,0,0,0-.09-1s2.32-2.44,5.26-5.35c5.15-5.09,12.52-12.63,12.53-10,0,.14.2.2.16.4C1228.56,529.05,1233.56,544.19,1233.56,544.19Z" transform="translate(0 0.35)"/><path class="cls-43" d="M1226.36,530.07h0a29.8,29.8,0,0,1-1.89,2.56c-2.49,3.13-7.16,8.27-12.42,10.33a29.78,29.78,0,0,0-.1-3.78,9.71,9.71,0,0,1-1.61-.2,49.46,49.46,0,0,1,3.53-5.16l3.25-1Z" transform="translate(0 0.35)"/><path class="cls-36" d="M1229.47,523.94c-1.4,3-2.73,5.26-3.11,6.13h0a10.61,10.61,0,0,1-1.89,2.56c-2.67,2.87-7.64,6.67-12.52,6.54a8,8,0,0,1-1.61-.2,7.58,7.58,0,0,1-5.57-3.85c-10.11-19.8-2.79-36-2.79-36s27.64-7.82,32,.5C1237,505.48,1232.77,516.77,1229.47,523.94Z" transform="translate(0 0.35)"/><path class="cls-51" d="M1202,499.14s-2.57-.15-3.21-5,5.59-8.12,5.59-8.12a35.47,35.47,0,0,1,10.57-3.42c4.1-.58,14.17-1.22,16.54,1.48,0,0,5.74-1.32,7.3,8.19,2.48,15.12-8.45,29.8-8.45,29.8s.09-9.88-2.09-11.19-4,1.77-4,1.77l-4.45.79s6.31-12.2-1.81-12.74S1206.62,500,1202,499.14Z" transform="translate(0 0.35)"/><path class="cls-36" d="M1224.3,508.74c.42-4.35,8.29-6,7.76-1.45s-4.4,8.94-6.19,8.79S1224,512.06,1224.3,508.74Z" transform="translate(0 0.35)"/><polygon class="cls-44" points="1226.83 599.03 1213.95 665.34 1171.39 657.07 1182.6 590.43 1226.83 599.03"/><polygon class="cls-45" points="1223.63 602.25 1212.2 661.15 1174.4 653.8 1184.36 594.63 1223.63 602.25"/><polygon class="cls-44" points="1211.65 601.45 1212.46 597.31 1197.17 594.34 1195.77 598.36 1211.65 601.45"/><path class="cls-52" d="M1218.49,629.19s3.26-.09,4.25-.24.34,2-.81,2.38S1218.49,629.19,1218.49,629.19Z" transform="translate(0 0.35)"/><path class="cls-36" d="M1220.4,644.74a6.88,6.88,0,0,1-2.12.19s-1.24-.37-2.14-.58c-.23-.06-.46-.11-.7-.15a11.68,11.68,0,0,1-3.84-.64c-1.61-.63-7.07-3.43-7.07-3.43l1.56-5.08,1.18-4s9.23-2.46,10.79-2l.45.15a15.14,15.14,0,0,1,2.7,1.7c.24.14,2.52,1.5,2.64,2.29a2.58,2.58,0,0,1-.72,2.42,6.24,6.24,0,0,1-.57,3.38,3.85,3.85,0,0,1-1.15,3.22S1221.47,644.19,1220.4,644.74Z" transform="translate(0 0.35)"/><path class="cls-39" d="M1209.19,629.73s-1.72,9.27-6.65,15.23c0,0-36.65-14.9-41.28-16.71s16.81-58.77,16.81-58.77l15.77,5.35-8.48,16s-4.19,9-12.91,23.74C1172.47,614.6,1177.83,619.65,1209.19,629.73Z" transform="translate(0 0.35)"/><path class="cls-53" d="M1231.09,579.81s-1,17.74,7.9,17.74,8.06-16,8.22-17.74Z" transform="translate(0 0.35)"/><polygon class="cls-1" points="1232.66 580.15 1245.91 580.15 1245.91 577.46 1232.66 580.15"/><path class="cls-54" d="M1510.85,615s-3-6.51-3.51-7.5-3.37-2.54-6.79-3.41-7.85-2.51-8.36-2.19a2.93,2.93,0,0,0-1.74,1.8,5.92,5.92,0,0,0-.35,3A3.62,3.62,0,0,0,1489,610a3.14,3.14,0,0,0-.54,3.45s-1.37,1.41-.59,2.85a23.49,23.49,0,0,1,3.49,2.36c.83.84,6.6,3.61,12.54,5.42C1503.89,624.06,1510.08,623.87,1510.85,615Z" transform="translate(0 0.35)"/><path class="cls-54" d="M1503.89,624.06s7.37,1.29,9.87-.15-.41-9-.41-9l-4.67-2.82Z" transform="translate(0 0.35)"/><path class="cls-55" d="M1501.19,611.83s.12,3.6.66,4.6-6.8,2.55-6.8,2.55S1496.77,612.08,1501.19,611.83Z" transform="translate(0 0.35)"/><path class="cls-56" d="M1493.11,602.2s8,3.91,7.58,5.29a2.24,2.24,0,0,1-1.47,1.59l2.58,3.11s.55,3-2.91,2.74c0,0,.8,2.77-2.5,2.1,0,0-.29,2.06-1.87,2s-6.66-2.77-6.66-2.77-1-1.12.44-2.9a3.07,3.07,0,0,1,.56-3.44,5,5,0,0,1,1.19-4.14,4.33,4.33,0,0,1,2.2-3.95C1492.54,601.94,1492.83,602.07,1493.11,602.2Z" transform="translate(0 0.35)"/><path class="cls-54" d="M1507.11,607.33s-6.14.15-9.46,1.68c-.76.35-1.42.82-1.38,1.66s1.3,1.82,4,1.9a22.23,22.23,0,0,1,6.07,1.4S1509.06,613.25,1507.11,607.33Z" transform="translate(0 0.35)"/><path class="cls-54" d="M1490.1,605.81s9.14,3.13,9.76,3.89,1.81-2.59,1.23-3.21a72.27,72.27,0,0,0-8.52-4.63C1491.78,601.65,1489.13,603.51,1490.1,605.81Z" transform="translate(0 0.35)"/><path class="cls-54" d="M1494.28,602.25s-14.31-2.93-14.6-1.19,1.09,2,12.82,5.46C1503.9,609.85,1494.28,602.25,1494.28,602.25Z" transform="translate(0 0.35)"/><path class="cls-37" d="M1592.61,895.73s-4.56,6.82-11,8.29-12.69,3.81-12.74,7.85,18.49,6.45,25.81,2.37c10.93-6.07,12-4.24,13.25-7.27s-1.46-11.16-1.38-12.12C1606.69,893.65,1592.61,895.73,1592.61,895.73Z" transform="translate(0 0.35)"/><path class="cls-50" d="M1593.32,892.36a27.25,27.25,0,0,0-.71,3.37c.12.07,14.42,1.77,14-.87-.35-2.16-.85-4.48-.85-4.48Z" transform="translate(0 0.35)"/><path class="cls-37" d="M1640.7,895.27s-3.25,6.53-8.81,8.75c-5.94,2.37-10.7,5.1-10.59,9s14.52,7.93,25,.38c6.62-4.77,8.72-4.79,9.78-7.79s-1.84-10.81-1.8-11.75C1654.34,892.71,1640.7,895.27,1640.7,895.27Z" transform="translate(0 0.35)"/><path class="cls-50" d="M1640.54,891.88c0,1.14,0,2.27.16,3.39.13.06,13.94,1.21,13.59-1.39a21.64,21.64,0,0,0-1.34-4.53Z" transform="translate(0 0.35)"/><path class="cls-57" d="M1589.9,692.51s-12.83,56.61-15.76,73.85c-2.5,14.67-4.49,29.95-3.29,40.55,1.48,13.11,20,81.08,19.27,84.93s22.13,1.51,22.13,1.51-16.82-76.71-14-90.83c2.08-10.45,20.39-79.88,23.19-76.32s6.29,65.53,8.36,75.81,8.46,91.56,8.46,91.56,14.26,2.11,18.07-1.12c0,0,1.73-69.39.41-88.68-.51-7.35,8.61-88.12-3.08-120.63C1647.48,666,1589.9,692.51,1589.9,692.51Z" transform="translate(0 0.35)"/><path class="cls-58" d="M1506.1,626.86s44.45,9.85,53.3,7.68c4.09-1,9.47-6.66,14.59-13.29,1.69-2.18,3.34-4.47,4.92-6.75h0c6.28-9.07,11.2-17.76,11.2-17.76s18.56-21.75,3.67-31.45c0,0-5.41-2-10.37,3.28s-10.8,16.45-12.1,19.29-19.53,29.14-20.48,29.73-8.91-1.51-15.3-2c-10.41-.87-26-4.92-26-4.92Z" transform="translate(0 0.35)"/><path class="cls-59" d="M1607.71,560.44s-19.11,4-21.37,6c-2.46,2.13-6.81,23.06-7.07,28.89s2.31,30.18,4.77,39.25,2,53.73.45,66.3c0,0,38.48,10.93,76.3,6,0,0-6.34-47-4.82-59.41,1.94-15.92,6.6-52.6,6.6-52.6s-3.35-25.55-6.71-28.4-26.58-6-26.58-6Z" transform="translate(0 0.35)"/><path class="cls-54" d="M1615.61,501.35s-23-8.5-21.55,22,6.82,33.65,22,29.39,16.38-23.55,18.35-32.82S1623.13,502.65,1615.61,501.35Z" transform="translate(0 0.35)"/><path class="cls-54" d="M1604.7,564.56s4.73,3.13,22.67-4.77a81.32,81.32,0,0,1,3-23.78c3.52-11.49-24.07,15.31-24.07,15.31.29.2.35,1.35.18,3a31.66,31.66,0,0,1-.88,4.74C1604.6,562.87,1604.7,561.21,1604.7,564.56Z" transform="translate(0 0.35)"/><path class="cls-57" d="M1631.19,535.11s.06-8.16-3.33-8.91a4.68,4.68,0,0,1-3.84-3.47l-2,.45s.36-1.43-2.88-3.33-22.58-.23-25-3,1.09-19.32,6.37-20.94,17.55-1.48,28.75,1.67a13,13,0,0,1,9.15,12.16C1638.85,516.2,1633.93,530.65,1631.19,535.11Z" transform="translate(0 0.35)"/><path class="cls-60" d="M1605.61,559c17.81-3,20.48-13.12,20.52-13.28-6.93,8.93-19.64,8.54-19.64,8.54A31.66,31.66,0,0,1,1605.61,559Z" transform="translate(0 0.35)"/><path class="cls-61" d="M1606.39,568.57s-3.2,4.8-5.2,17.08-1.63,33.46-1.63,33.46l4.52.54s6.82-43.15,5.65-50.67Z" transform="translate(0 0.35)"/><path class="cls-54" d="M1624,522.73c1-2.69,6.75-2.35,6.16,1.91s-5.33,10.85-7.23,9.6S1622.6,526.44,1624,522.73Z" transform="translate(0 0.35)"/><path class="cls-58" d="M1586.09,566.37s-10.86,14.37-6.83,52c7.26,67.91-11.77,176.93-11.77,176.93l19.64,6.14s18.76-139.36,14-189.93c-2.18-23-8.64-30.72,1.56-49.92C1602.67,561.54,1592.74,562,1586.09,566.37Z" transform="translate(0 0.35)"/><path class="cls-58" d="M1634.56,561.21s-31.08,31.4-33.52,55.21-6.39,185-6.39,185l74-4.31s-6.8-85.09-8.46-95.73-5.09-71.76,2.39-100.12c4-15.22-.76-34.56-10-36.66S1634.56,561.21,1634.56,561.21Z" transform="translate(0 0.35)"/><path class="cls-58" d="M1645.06,565.29s-12,3.28-5.38,25.26c5.16,17.21,5.85,20.9,5.85,20.9l27.62-6.9s-8.1-37.8-21.31-39.83C1651.84,564.73,1647.63,564.12,1645.06,565.29Z" transform="translate(0 0.35)"/><polygon class="cls-44" points="1554.51 681.9 1608.65 737.93 1644.61 703.18 1591.88 645.79 1554.51 681.9"/><polygon class="cls-45" points="1559.63 683.02 1607.72 732.77 1639.65 701.91 1592.82 650.95 1559.63 683.02"/><polygon class="cls-44" points="1570.71 674.7 1567.34 671.21 1580.25 658.73 1584.13 661.74 1570.71 674.7"/><path class="cls-62" d="M1627.36,556.39s-9.37,5.66-18.65,6.93l4.94,7.87,15.63-10.76Z" transform="translate(0 0.35)"/><path class="cls-62" d="M1605.61,559s1,3.24,3.1,4.3l-4.63,6.47.17-8.58Z" transform="translate(0 0.35)"/><path class="cls-61" d="M1608.71,563.32l-3.67,5.12s2.32,2.93,7.33.71Z" transform="translate(0 0.35)"/><path class="cls-62" d="M1574,621.25h0c1.69-2.18,3.34-4.47,4.92-6.75h0s-.59-16.56-.07-21.32C1578.84,593.18,1573.43,611,1574,621.25Z" transform="translate(0 0.35)"/><path class="cls-62" d="M1650.26,610.26s3.61,23.49,3.36,25S1670,630.55,1650.26,610.26Z" transform="translate(0 0.35)"/><rect class="cls-63" x="1585.08" y="602.2" width="8.72" height="13.32"/><path class="cls-54" d="M1623.85,665.71a4.88,4.88,0,0,1-2.13,2.11c-2.29.92-6-.53-7.37,2.74s7.72,11,10,11.38,5.54-3.34,7.66-10.58S1623.85,665.71,1623.85,665.71Z" transform="translate(0 0.35)"/><path class="cls-54" d="M1615,669.54a96.94,96.94,0,0,0-7.83,8c-3.41,3.91-6.69,9.19-6.11,10.19,1.31,2.21,4.48-2.73,8.13-6.38,3.36-3.37,2.81-2.79,2.81-2.79s0-.35-2.93,4.05c-3.15,4.74-5.9,9.94-5.16,11.1.37.56,1.83,1.93,2.54-.33-.63,1.06-.74.8-.32,1.12,2.18,1.66,7.91-4.54,10.18-7-1.73,1.9-2.8,3.49-.83,3.65,2.25.19,10-9,13-12C1631.85,675.92,1615,669.54,1615,669.54Z" transform="translate(0 0.35)"/><path class="cls-58" d="M1643.63,566.75c-2.5,1-3.45,5.42-2.42,18.31s5.56,18.82,7.26,21.8,11,21.36,9.33,23.78-17.48,18-18.4,19.29-18.56,17.24-18.56,17.24l9,12.56S1668,650,1670.93,647s11.86-9.22,8.57-19.6c-3.34-10.55-9.35-35.25-10.41-37.18S1660.19,560.35,1643.63,566.75Z" transform="translate(0 0.35)"/></svg>