<svg xmlns="http://www.w3.org/2000/svg" width="96.703" height="102.88" viewBox="0 0 96.703 102.88">
  <g id="medical-prescription" transform="translate(-0.5 0.001)">
    <g id="Group_2" data-name="Group 2" transform="translate(34.136 2.009)">
      <path id="Path_7" data-name="Path 7" d="M389.425,411.918c-.1.071-.2.141-.308.209C389.22,412.059,389.324,411.989,389.425,411.918Zm0,0" transform="translate(-344.665 -331.157)" fill="#d3e6f0"/>
      <path id="Path_8" data-name="Path 8" d="M387.085,413.379q-.172.11-.347.214Q386.914,413.489,387.085,413.379Zm0,0" transform="translate(-342.764 -332.324)" fill="#d3e6f0"/>
      <path id="Path_9" data-name="Path 9" d="M391.734,410.332c-.088.068-.178.135-.268.2C391.555,410.466,391.646,410.4,391.734,410.332Zm0,0" transform="translate(-346.541 -329.89)" fill="#d3e6f0"/>
      <path id="Path_10" data-name="Path 10" d="M396.3,406.793c-.054.051-.111.1-.166.15C396.185,406.893,396.241,406.844,396.3,406.793Zm0,0" transform="translate(-350.268 -327.062)" fill="#d3e6f0"/>
      <path id="Path_11" data-name="Path 11" d="M394.013,408.625c-.074.063-.149.123-.225.184C393.864,408.748,393.94,408.688,394.013,408.625Zm0,0" transform="translate(-348.398 -328.526)" fill="#d3e6f0"/>
      <path id="Path_12" data-name="Path 12" d="M384.716,414.719c-.128.074-.257.145-.388.214Q384.524,414.83,384.716,414.719Zm0,0" transform="translate(-340.838 -333.395)" fill="#d3e6f0"/>
      <path id="Path_13" data-name="Path 13" d="M210.9,79.459a5.246,5.246,0,0,1,5.246-5.246h11.814c-.065.148-.134.294-.206.44a11.623,11.623,0,0,0,1.2-5.144V16.281A6.28,6.28,0,0,0,222.671,10H174.177a6.282,6.282,0,0,0-6.282,6.282V37.493a12.864,12.864,0,0,1,8.226,18.96l-7.928,13.731-.3.516v.724a19.8,19.8,0,0,1,9.185-2.33l.166,0a19.9,19.9,0,0,1,19.5,23.788h9.218a11.629,11.629,0,0,0,5.364-1.315q-.214.112-.433.215Zm0,0" transform="translate(-167.895 -10)" fill="#d3e6f0"/>
      <path id="Path_14" data-name="Path 14" d="M459.178,341.219c-.06.079-.119.159-.182.236C459.059,341.378,459.117,341.3,459.178,341.219Zm0,0" transform="translate(-400.502 -274.664)" fill="#d3e6f0"/>
      <path id="Path_15" data-name="Path 15" d="M464.848,331.926c-.068.136-.137.269-.21.4C464.71,332.2,464.78,332.062,464.848,331.926Zm0,0" transform="translate(-405.01 -267.238)" fill="#d3e6f0"/>
      <path id="Path_16" data-name="Path 16" d="M462.25,336.609q-.1.164-.207.324C462.114,336.826,462.182,336.718,462.25,336.609Zm0,0" transform="translate(-402.937 -270.98)" fill="#d3e6f0"/>
      <path id="Path_17" data-name="Path 17" d="M463.609,334.277q-.1.184-.21.363Q463.506,334.46,463.609,334.277Zm0,0" transform="translate(-404.02 -269.117)" fill="#d3e6f0"/>
      <path id="Path_18" data-name="Path 18" d="M398.949,358.119l11.36-11.745,0,0,0,0Zm0,0" transform="translate(-352.521 -278.781)" fill="#d3e6f0"/>
      <path id="Path_19" data-name="Path 19" d="M460.776,338.922q-.1.142-.2.283Q460.679,339.064,460.776,338.922Zm0,0" transform="translate(-401.766 -272.829)" fill="#d3e6f0"/>
      <path id="Path_20" data-name="Path 20" d="M457.444,343.551c-.049.058-.1.117-.148.173C457.347,343.668,457.395,343.609,457.444,343.551Zm0,0" transform="translate(-399.145 -276.528)" fill="#d3e6f0"/>
    </g>
    <path id="Path_21" data-name="Path 21" d="M397.19,332.374c.065-.077.131-.154.194-.232s.122-.157.182-.236c.046-.06.092-.119.136-.179.068-.093.133-.188.2-.283.032-.047.064-.093.1-.141.071-.107.14-.215.207-.324l.065-.1c.072-.121.143-.242.21-.364l.038-.07c.073-.133.143-.267.21-.4l.017-.035q.107-.218.206-.44H387.137a5.246,5.246,0,0,0-5.246,5.246v12.323c.146-.068.29-.141.433-.215l.057-.029q.2-.1.388-.214l.1-.056q.175-.1.348-.213l.131-.085c.1-.068.206-.137.308-.209.055-.038.109-.079.163-.119.09-.065.181-.131.269-.2.067-.052.132-.105.2-.159s.151-.122.224-.184.165-.144.246-.218c.056-.05.112-.1.167-.15.136-.128.269-.258.4-.393l11.36-11.745,0,0c.124-.129.244-.26.362-.393C397.093,332.49,397.141,332.432,397.19,332.374Zm0,0" transform="translate(-304.754 -263.341)" fill="#b7c8d2"/>
    <path id="Path_22" data-name="Path 22" d="M95.161,404.664q-.569.244-1.157.432Q94.591,404.908,95.161,404.664Zm0,0" transform="translate(-74.715 -323.352)" fill="#ee5793"/>
    <path id="Path_23" data-name="Path 23" d="M23.048,165.331l22.277,12.862,7.928-13.732A12.861,12.861,0,1,0,30.976,151.6L15.119,179.063a12.925,12.925,0,0,0-.991,2.157,12.925,12.925,0,0,1,.991-2.157Zm0,0" transform="translate(-10.89 -115.999)" fill="#ee5793"/>
    <path id="Path_24" data-name="Path 24" d="M10.5,334.719a12.754,12.754,0,0,1,.283-2.329A12.755,12.755,0,0,0,10.5,334.719Zm0,0" transform="translate(-7.994 -265.601)" fill="#ee5793"/>
    <path id="Path_25" data-name="Path 25" d="M16.918,358.089a12.854,12.854,0,0,1-6.43-10.862,12.864,12.864,0,0,0,14.313,12.5A12.8,12.8,0,0,1,16.918,358.089Zm0,0" transform="translate(-7.981 -277.456)" fill="#ee5793"/>
    <path id="Path_26" data-name="Path 26" d="M84.179,407.68a12.957,12.957,0,0,1-1.73.337A12.957,12.957,0,0,0,84.179,407.68Zm0,0" transform="translate(-65.482 -325.762)" fill="#ee5793"/>
    <path id="Path_27" data-name="Path 27" d="M106.943,399.4q-.324.212-.658.4Q106.62,399.607,106.943,399.4Zm0,0" transform="translate(-84.529 -319.142)" fill="#ee5793"/>
    <path id="Path_28" data-name="Path 28" d="M41.49,259.957l.617-1.068.3-.516L20.128,245.511,12.2,259.244a13.053,13.053,0,0,0-1.436,3.725,12.755,12.755,0,0,0-.283,2.329c-.006.217-.008.436,0,.652a12.864,12.864,0,0,0,14.313,12.5l.146-.018a12.918,12.918,0,0,0,1.73-.338q.3-.08.593-.173.588-.188,1.157-.432.284-.121.563-.257c.254-.124.5-.259.747-.4q.336-.191.659-.4c.242-.159.481-.322.713-.5.185-.141.367-.287.545-.438a19.885,19.885,0,0,1,9.847-15.541Zm0,0" transform="translate(-7.97 -196.179)" fill="#3796d2"/>
    <path id="Path_29" data-name="Path 29" d="M300.737,448.094q-.22.429-.459.845Q300.517,448.523,300.737,448.094Zm0,0" transform="translate(-239.541 -358.055)" fill="#ffcd40"/>
    <path id="Path_30" data-name="Path 30" d="M297,454.355q-.248.41-.517.807Q296.753,454.765,297,454.355Zm0,0" transform="translate(-236.51 -363.058)" fill="#ffcd40"/>
    <path id="Path_31" data-name="Path 31" d="M281.655,473.016q-.337.338-.691.659Q281.318,473.353,281.655,473.016Zm0,0" transform="translate(-224.108 -377.969)" fill="#ffcd40"/>
    <path id="Path_32" data-name="Path 32" d="M306.128,434.781q-.234.692-.518,1.363Q305.892,435.475,306.128,434.781Zm0,0" transform="translate(-243.801 -347.417)" fill="#ffcd40"/>
    <path id="Path_33" data-name="Path 33" d="M253.83,492.242c-.29.14-.584.272-.881.4C253.246,492.514,253.54,492.382,253.83,492.242Zm0,0" transform="translate(-201.722 -393.332)" fill="#ffcd40"/>
    <path id="Path_34" data-name="Path 34" d="M135.191,343.861V304.1a19.78,19.78,0,0,0-9.184,2.33q-.312.166-.617.343a19.885,19.885,0,0,0-9.847,15.54c-.046.55-.07,1.107-.07,1.669a19.9,19.9,0,0,0,26.721,18.678,19.854,19.854,0,0,1-6.837,1.206l-.166,0Zm0,0" transform="translate(-91.871 -242.993)" fill="#ffcd40"/>
    <path id="Path_35" data-name="Path 35" d="M249.356,494.223q-.446.188-.9.356Q248.91,494.412,249.356,494.223Zm0,0" transform="translate(-198.129 -394.915)" fill="#ffcd40"/>
    <path id="Path_36" data-name="Path 36" d="M290.435,460.328q-.555.779-1.18,1.5Q289.879,461.109,290.435,460.328Zm0,0" transform="translate(-230.732 -367.831)" fill="#ffcd40"/>
    <path id="Path_37" data-name="Path 37" d="M260.609,482.34a19.808,19.808,0,0,1-3.276,1.99A19.859,19.859,0,0,0,260.609,482.34Zm0,0" transform="translate(-205.225 -385.42)" fill="#ffcd40"/>
    <path id="Path_38" data-name="Path 38" d="M276.26,477.867q-.361.313-.737.608Q275.9,478.18,276.26,477.867Zm0,0" transform="translate(-219.76 -381.845)" fill="#ffcd40"/>
    <path id="Path_39" data-name="Path 39" d="M309.233,403.043a19.86,19.86,0,0,1-1.045,6.377,19.687,19.687,0,0,0,.66-2.472A19.939,19.939,0,0,0,309.233,403.043Zm0,0" transform="translate(-245.861 -322.057)" fill="#ffcd40"/>
    <path id="Path_40" data-name="Path 40" d="M233.653,323.97a19.884,19.884,0,0,0-19.884-19.884l-.166,0v39.764l.166,0a19.854,19.854,0,0,0,6.837-1.206q.457-.167.9-.356c.3-.126.591-.258.881-.4a19.89,19.89,0,0,0,3.276-1.99q.192-.144.379-.29.376-.3.736-.608.18-.157.357-.316.353-.321.691-.659.506-.506.975-1.048.625-.722,1.181-1.5c.093-.13.183-.261.272-.393q.268-.4.517-.807c.083-.137.165-.275.245-.413q.239-.417.459-.845.329-.643.612-1.312t.518-1.363a19.86,19.86,0,0,0,1.045-6.377Zm0,0" transform="translate(-170.281 -242.984)" fill="#f69969"/>
    <path id="Path_41" data-name="Path 41" d="M94.065,70.217c.038-.046.076-.089.113-.135.106-.132.209-.266.31-.4l.053-.069A13.566,13.566,0,0,0,97.2,61.517V8.29A8.3,8.3,0,0,0,88.912,0H40.418A8.3,8.3,0,0,0,32.127,8.29v18.9A15.02,15.02,0,0,0,25.4,28.347,14.742,14.742,0,0,0,18.347,34.6L10.417,48.327,2.488,62.06A14.815,14.815,0,0,0,.86,66.22a14.5,14.5,0,0,0-.249,1.432q-.045.359-.071.72Q.487,69.091.5,69.81c.005.262.02.523.04.784a15.009,15.009,0,0,0,.892,4.082c.143.385.3.762.478,1.134.032.068.061.138.094.206a14.794,14.794,0,0,0,5.924,6.358c.076.044.152.085.229.127s.133.075.2.111l.161.083c.093.048.186.1.28.143l.1.048c.115.056.232.111.349.164l.026.011A14.846,14.846,0,0,0,21.595,83l.046-.02.042-.019A21.9,21.9,0,0,0,43.3,102.878h.045l.137,0A21.933,21.933,0,0,0,64.569,86.9h7.637a13.664,13.664,0,0,0,5.636-1.23c.049-.019.1-.037.147-.059.26-.122.513-.254.763-.39l0,0q.291-.159.572-.331l.032-.02c.177-.109.352-.223.525-.34l.054-.037c.162-.112.323-.227.48-.345l.078-.059c.147-.112.29-.228.432-.346.034-.027.067-.054.1-.082.134-.113.265-.231.395-.349.036-.034.074-.066.11-.1.155-.145.307-.294.455-.447l.017-.018L93.369,71c.093-.1.181-.2.272-.3.047-.052.1-.1.143-.154.1-.109.188-.221.282-.334ZM21.827,36.6a10.946,10.946,0,0,1,9.439-5.425,10.63,10.63,0,0,1,2.414.277,10.855,10.855,0,0,1,6.943,16L33.7,59.449,14.9,48.6Zm-.484,41.951c-.089.058-.179.117-.27.173-.038.024-.078.046-.118.07q-.117.071-.235.139l-.144.079c-.071.038-.141.077-.213.114l-.171.086c-.062.031-.125.061-.188.091s-.133.062-.2.092l-.157.069c-.078.034-.157.066-.236.1l-.116.046c-.093.035-.187.071-.281.1l-.059.02a10.908,10.908,0,0,1-7.2-.009l-.01,0c-.111-.039-.222-.081-.332-.124l-.065-.026c-.093-.037-.184-.075-.276-.115l-.094-.042c-.084-.036-.166-.075-.249-.114l-.105-.05c-.082-.04-.165-.082-.246-.124l-.1-.05q-.168-.089-.334-.185A10.868,10.868,0,0,1,5.969,64.068l6.925-11.992,18.48,10.67c-.067.045-.132.091-.2.137l-.233.159-.09.064-.166.119-.009.006c-.077.056-.154.111-.229.167l-.106.079-.181.138-.2.151-.121.1c-.064.05-.126.1-.188.151l-.163.133-.135.115-.193.165-.131.113c-.05.044-.1.09-.149.135l-.2.177-.1.092c-.055.051-.108.1-.162.155l-.2.191q-.13.127-.257.255l-.191.192-.037.038c-.074.077-.146.155-.219.233-.057.061-.116.122-.173.183l-.017.02c-.078.085-.153.171-.229.257-.05.057-.1.112-.151.169l-.035.042c-.068.079-.135.16-.2.24l-.159.19-.131.162c-.029.036-.057.072-.086.108l-.159.2-.053.068c-.054.071-.107.142-.159.214s-.1.129-.145.194l-.071.1c-.05.07-.1.141-.149.211s-.084.118-.125.177l-.086.125-.14.21-.105.159c-.034.052-.068.1-.1.155-.044.068-.087.137-.13.206l-.088.142-.111.184c-.041.068-.082.136-.122.2l-.071.124-.121.212c-.038.068-.075.134-.112.2-.01.018-.02.037-.03.056s-.022.04-.032.06l-.124.231c-.057.109-.113.219-.169.329-.038.075-.075.151-.112.226q-.084.171-.164.342c-.035.073-.068.146-.1.219l-.012.026c-.015.034-.031.067-.046.1-.034.077-.068.153-.1.23s-.056.13-.083.2c-.02.046-.039.093-.058.139-.035.082-.068.166-.1.249-.022.055-.042.11-.064.165l-.06.155c-.035.09-.068.18-.1.27-.016.045-.031.089-.048.134l-.06.17c-.034.1-.068.194-.1.291l-.033.1c-.02.06-.039.121-.058.181-.043.134-.086.268-.126.4l-.049.171c-.04.14-.08.28-.118.422-.012.045-.023.09-.035.136q-.109.419-.2.845c-.009.044-.02.087-.03.131-.028.136-.054.273-.08.41-.014.071-.028.141-.041.211,0,.01,0,.02-.006.031-.02.115-.039.232-.058.348-.012.073-.024.145-.035.218,0,.02-.006.041-.009.06-.016.108-.031.217-.046.326,0,.027-.007.053-.011.08-.005.045-.013.089-.018.133q-.17.124-.343.24l-.078.052Zm4.27,2.431c0-.5.021-1,.065-1.5.015-.181.032-.361.053-.541q.058-.51.145-1.012c0-.02.005-.039.009-.059.023-.13.048-.258.074-.387.009-.048.018-.1.027-.143.024-.114.05-.227.076-.34.014-.062.027-.124.042-.185.024-.1.05-.2.075-.3.02-.074.037-.148.057-.222.024-.091.052-.181.078-.272s.046-.162.07-.243.053-.168.081-.251.053-.173.082-.259.057-.159.085-.238.061-.177.093-.265.06-.152.089-.229.069-.179.1-.268c.03-.073.062-.145.093-.217.038-.091.075-.183.115-.272.031-.07.064-.139.095-.208.042-.093.084-.185.127-.276l.1-.2c.046-.093.092-.188.139-.28.033-.064.068-.127.1-.191.049-.093.1-.186.148-.279.035-.062.071-.123.106-.184.053-.093.1-.185.159-.277.036-.061.074-.121.111-.181.055-.091.11-.182.166-.272.038-.06.078-.119.117-.178.057-.089.115-.178.174-.267.04-.059.081-.116.122-.174.06-.088.12-.175.182-.262.042-.057.085-.114.127-.171.063-.086.126-.172.19-.256.044-.057.089-.112.133-.169.065-.083.13-.167.2-.25l.142-.169c.067-.08.133-.16.2-.239.049-.057.1-.111.148-.167.068-.078.137-.155.206-.231.05-.056.1-.109.154-.164.071-.075.141-.151.213-.224.053-.054.107-.107.16-.16.072-.073.144-.146.219-.217.055-.053.111-.105.167-.158.075-.07.148-.14.223-.209.058-.053.117-.1.175-.155.076-.067.151-.134.228-.2.06-.053.122-.1.184-.154s.151-.128.229-.191.128-.1.192-.15.155-.122.234-.182.132-.1.2-.146.158-.117.238-.174.137-.094.2-.141.161-.112.243-.167.141-.092.213-.137.162-.106.244-.157.148-.089.221-.134.161-.1.243-.146l.029-.016c.229-.133.462-.259.7-.381l.182-.093c.238-.12.477-.237.72-.347l.007,0a17.871,17.871,0,0,1,5.175-1.445V98.728a17.936,17.936,0,0,1-15.7-17.742ZM45.331,98.767V63.206l.014,0c.265.027.529.061.79.1l.045.006c.254.038.5.083.755.133l.088.016c.241.049.479.1.716.161l.111.027c.232.058.462.122.69.189l.119.035c.225.068.45.141.671.218l.118.042c.222.078.443.161.661.249l.105.042q.333.135.659.283l.079.038q.338.155.668.324l.037.02q.324.166.639.347c.021.012.042.023.063.035.208.119.412.243.615.37l.093.058q.292.186.577.385l.106.073q.279.2.55.4l.108.082q.268.208.529.425l.1.086q.261.223.514.453l.087.082c.171.159.341.321.505.487l.064.065q.255.259.5.528l.028.032q.241.266.472.543l.049.059c.151.183.3.369.443.558l.067.086q.208.278.407.563c.024.035.048.069.071.1q.194.284.377.575l.07.111c.12.195.238.392.351.592l.062.111q.171.3.329.617l.049.1q.161.323.31.651c.011.024.021.047.031.071.1.23.2.463.294.7l.006.016q.139.352.262.712c.007.021.015.042.022.063.079.233.153.469.224.706l.028.095q.1.347.186.7c.009.038.019.075.027.113q.084.35.153.7c.008.04.016.079.023.119.045.238.085.476.12.717l.016.115c.034.245.064.491.088.738,0,.033.005.066.009.1.024.255.042.511.055.769l0,.064c.013.27.02.542.02.816q0,.438-.022.875c0,.061-.009.122-.013.182-.013.229-.028.458-.051.687-.009.095-.023.189-.034.284-.021.189-.042.379-.07.567-.02.134-.045.266-.068.4s-.047.29-.075.435a17.915,17.915,0,0,1-15.7,14.351ZM65.3,82.88c0-.016,0-.033,0-.05.024-.28.042-.563.055-.846l0-.13c.011-.288.019-.578.019-.868a21.819,21.819,0,0,0-.81-5.9h3.622a2.009,2.009,0,0,0,0-4.019H63a21.918,21.918,0,0,0-19.512-11.97l-.13,0H43.3c-.23,0-.46.008-.69.017-.049,0-.1.005-.148.008q-.26.012-.519.029c-.1.007-.2.016-.3.024-.122.01-.243.02-.364.033s-.243.027-.365.041l-.291.035c-.135.018-.269.038-.4.058-.082.013-.165.024-.247.038-.143.023-.286.048-.429.074l-.218.041c-.148.029-.3.059-.445.091l-.2.044c-.151.034-.3.069-.452.106l-.069.016L44.1,49.466A14.868,14.868,0,0,0,38.66,29.152c-.183-.105-.369-.206-.555-.3l-.177-.089c-.132-.067-.264-.131-.4-.194l-.2-.093q-.2-.092-.413-.178l-.173-.072c-.195-.078-.39-.152-.588-.222l-.011,0V8.29a4.277,4.277,0,0,1,4.272-4.272H88.912A4.276,4.276,0,0,1,93.184,8.29V61.517a9.657,9.657,0,0,1-.382,2.695H82.383a7.264,7.264,0,0,0-7.256,7.257V82.421a9.6,9.6,0,0,1-2.921.459Zm13.847-2.958V71.468a3.241,3.241,0,0,1,3.237-3.238h8.072L80.065,78.972Zm0,0"/>
    <path id="Path_42" data-name="Path 42" d="M232.072,93.437h31.919a2.009,2.009,0,0,0,0-4.019H232.072a2.009,2.009,0,1,0,0,4.019Zm0,0" transform="translate(-183.435 -71.451)"/>
    <path id="Path_43" data-name="Path 43" d="M393.332,177.5h0a2.009,2.009,0,1,0,2.014,2.009A2.008,2.008,0,0,0,393.327,177.5Zm0,0" transform="translate(-312.289 -141.831)"/>
    <path id="Path_44" data-name="Path 44" d="M257.946,179.505a2.01,2.01,0,0,0-2.009-2.009H232.071a2.009,2.009,0,0,0,0,4.019h23.865A2.009,2.009,0,0,0,257.946,179.505Zm0,0" transform="translate(-183.434 -141.831)"/>
    <path id="Path_45" data-name="Path 45" d="M304.879,267.587a2.009,2.009,0,0,0-2.009-2.009H280.728a2.009,2.009,0,0,0,0,4.019H302.87A2.009,2.009,0,0,0,304.879,267.587Zm0,0" transform="translate(-222.314 -212.214)"/>
  </g>
</svg>
