<svg id="Capa_1" enable-background="new 0 0 512 512" height="512" viewBox="0 0 512 512" width="512" xmlns="http://www.w3.org/2000/svg"><g><path d="m497 0h-180c-8.284 0-15 6.716-15 15v176c0 22.96 11.977 43.162 30 54.729v11.271c0 8.284 6.716 15 15 15s15-6.716 15-15v-1.211c4.533.347 85.837.319 90 0v1.211c0 8.284 6.716 15 15 15s15-6.716 15-15v-11.271c18.023-11.567 30-31.769 30-54.729v-176c0-8.284-6.716-15-15-15z" fill="#e4edef"/><path d="m512 15v176c0 22.96-11.98 43.16-30 54.73v11.27c0 8.28-6.72 15-15 15s-15-6.72-15-15v-1.21c-1.58.12-14.3.2-29.71.24-4.91 0-10.1.01-15.29.01v-256.04h90c8.28 0 15 6.72 15 15z" fill="#bfdfe7"/><path d="m482 76v115c0 19.3-15.7 35-35 35h-24.67l-.25 175.1c-.06 35.79-29.22 64.9-65 64.9h-32.08v-30h32.08c19.27 0 34.97-15.68 35-34.94l.25-175.06h-25.33c-19.3 0-35-15.7-35-35v-115z" fill="#f26376"/><path d="m482 76v115c0 19.3-15.7 35-35 35h-24.67l-.04 30.03-.21 145.07c-.03 15.76-5.7 30.22-15.08 41.47v-366.57z" fill="#db375a"/><path d="m427 143h-5v-5c0-8.284-6.716-15-15-15s-15 6.716-15 15v5h-5c-8.284 0-15 6.716-15 15s6.716 15 15 15h5v5c0 8.284 6.716 15 15 15s15-6.716 15-15v-5h5c8.284 0 15-6.716 15-15s-6.716-15-15-15z" fill="#e4edef"/><path d="m442 158c0 8.28-6.72 15-15 15h-5v5c0 8.28-6.72 15-15 15v-70c8.28 0 15 6.72 15 15v5h5c8.28 0 15 6.72 15 15z" fill="#bfdfe7"/><path d="m330 409v-33c0-57.897-47.103-105-105-105h-120c-57.897 0-105 47.103-105 105v33h73v103h185v-103z" fill="#63c6f8"/><path d="m330 376v33h-72v103h-93.11v-241h60.11c2.23 0 4.45.07 6.65.22 54.81 3.43 98.35 49.11 98.35 104.78z" fill="#23a5f6"/><path d="m0 406v91c0 8.284 6.716 15 15 15h61v-106z" fill="#ffa58d"/><path d="m255 406v106h60c8.284 0 15-6.716 15-15v-91z" fill="#f59280"/><path d="m254 191v21.5c0 48.8-39.7 88.5-88.5 88.5-49.35 0-89.5-40.15-89.5-89.5v-20.5h34.89c26.95 0 48.88-21.93 48.88-48.89h10.12c0 26.96 21.93 48.89 48.89 48.89z" fill="#ffa58d"/><path d="m254 191v21.5c0 22.51-8.44 43.08-22.35 58.72-16.21 18.26-39.86 29.78-66.15 29.78-.2 0-.41 0-.61-.01v-158.88h5c0 26.96 21.93 48.89 48.89 48.89z" fill="#f59280"/><path d="m164.894 91h-.12c-48.994 0-88.774 39.71-88.774 88.773v16.227h34.887c29.761 0 53.887-24.126 53.887-53.887l.12-.082v.082c0 29.761 24.126 53.887 53.887 53.887h34.887v-16.227c-.001-48.946-39.665-88.773-88.774-88.773z" fill="#00607f"/><path d="m164.894 91v51.113c0 29.761 24.126 53.887 53.887 53.887h34.887v-16.227c-.001-49.028-39.746-88.773-88.774-88.773z" fill="#00465f"/></g></svg>