<svg id="Layer_1" data-name="Layer 1" xmlns="http://www.w3.org/2000/svg" xmlns:xlink="http://www.w3.org/1999/xlink" viewBox="0 0 1920 1080"><defs><style>.cls-1{mask:url(#mask);filter:url(#luminosity-noclip-10);}.cls-10,.cls-12,.cls-14,.cls-16,.cls-18,.cls-2,.cls-4,.cls-6,.cls-8{mix-blend-mode:multiply;}.cls-2{fill:url(#linear-gradient);}.cls-17,.cls-3{mask:url(#mask-2);}.cls-3{filter:url(#luminosity-noclip-15);}.cls-4{fill:url(#linear-gradient-2);}.cls-5,.cls-7{mask:url(#mask-3);}.cls-5{filter:url(#luminosity-noclip-16);}.cls-6{fill:url(#linear-gradient-3);}.cls-7{filter:url(#luminosity-noclip-17);}.cls-8{fill:url(#linear-gradient-4);}.cls-9{mask:url(#mask-5);filter:url(#luminosity-noclip-18);}.cls-10{fill:url(#linear-gradient-5);}.cls-11{mask:url(#mask-6);filter:url(#luminosity-noclip-11);}.cls-12{fill:url(#linear-gradient-6);}.cls-13{mask:url(#mask-7);filter:url(#luminosity-noclip-12);}.cls-14{fill:url(#linear-gradient-7);}.cls-15{mask:url(#mask-8);filter:url(#luminosity-noclip-13);}.cls-16{fill:url(#linear-gradient-8);}.cls-17{filter:url(#luminosity-noclip-14);}.cls-18{fill:url(#linear-gradient-9);}.cls-19{fill:#f9f9f9;}.cls-20{fill:url(#Безымянный_градиент_73);}.cls-21{fill:url(#Безымянный_градиент_70);}.cls-22{fill:#fff;}.cls-23{mask:url(#mask-10);}.cls-24{fill:url(#linear-gradient-10);}.cls-25{mask:url(#mask-11);}.cls-26{fill:url(#linear-gradient-11);}.cls-27{fill:#81d3e4;}.cls-28{fill:#385988;}.cls-29{fill:#4772b0;}.cls-30{fill:#5886c7;}.cls-31{fill:url(#linear-gradient-12);}.cls-32{fill:url(#linear-gradient-13);}.cls-33{fill:url(#linear-gradient-14);}.cls-34{fill:url(#linear-gradient-15);}.cls-35{fill:url(#linear-gradient-16);}.cls-36{fill:url(#linear-gradient-17);}.cls-37{mask:url(#mask-12);}.cls-38{fill:url(#linear-gradient-18);}.cls-39{mask:url(#mask-13);}.cls-40{fill:url(#linear-gradient-19);}.cls-41{fill:#6d6865;}.cls-42{fill:#b7aca8;}.cls-43{fill:#bfdcfd;}.cls-44{fill:#dba585;}.cls-45{fill:#807f7d;}.cls-46{fill:#393d3f;}.cls-47{fill:#3d3d42;}.cls-48{fill:#e6d8d1;}.cls-49{fill:#daddee;}.cls-50{fill:#eecaa2;}.cls-51{fill:#70a5ee;}.cls-52{fill:#dca787;}.cls-53{fill:#dedfe6;}.cls-54{fill:#3e4148;}.cls-55{fill:#c99a7d;}.cls-56{fill:#394762;}.cls-57{fill:#6b99da;}.cls-58{fill:#7fa0e4;}.cls-59{fill:#997761;}.cls-60{fill:#9c9faa;}.cls-61{opacity:0.72;}.cls-62{fill:url(#linear-gradient-20);}.cls-63{fill:#72acfb;}.cls-64{fill:#e5f2fd;}.cls-65{fill:url(#linear-gradient-21);}.cls-66{fill:#c5cacf;}.cls-67{fill:#d19e80;}.cls-68{fill:#696969;}.cls-69{fill:#5e85be;}.cls-70{fill:#dcd0c8;}.cls-71{fill:#beb4ad;}.cls-72{fill:#4b75b3;}.cls-73{fill:#cd7250;}.cls-74{fill:#3f6295;}.cls-75{fill:#ebe9e5;}.cls-76{fill:#c04f72;}.cls-77{fill:#d3dc5b;}.cls-78{fill:#9c9c9a;}.cls-79{fill:#1a232f;}.cls-80{mask:url(#mask-14);}.cls-81{fill:url(#linear-gradient-22);}.cls-82{mask:url(#mask-15);}.cls-83{fill:url(#linear-gradient-23);}.cls-84{mask:url(#mask-16);}.cls-85{fill:url(#linear-gradient-24);}.cls-86{mask:url(#mask-17);}.cls-87{fill:url(#linear-gradient-25);}.cls-88{mask:url(#mask-18);}.cls-89{fill:url(#linear-gradient-26);}.cls-90{filter:url(#luminosity-noclip-8);}.cls-91{filter:url(#luminosity-noclip-7);}.cls-92{filter:url(#luminosity-noclip-6);}.cls-93{filter:url(#luminosity-noclip-5);}.cls-94{filter:url(#luminosity-noclip-3);}.cls-95{filter:url(#luminosity-noclip-2);}.cls-96{filter:url(#luminosity-noclip);}</style><filter id="luminosity-noclip" x="1308.27" y="-8732" width="360.28" height="32766" filterUnits="userSpaceOnUse" color-interpolation-filters="sRGB"><feFlood flood-color="#fff" result="bg"/><feBlend in="SourceGraphic" in2="bg"/></filter><mask id="mask" x="1308.27" y="-8732" width="360.28" height="32766" maskUnits="userSpaceOnUse"><g class="cls-96"/></mask><linearGradient id="linear-gradient" x1="1410.33" y1="240.84" x2="1731.91" y2="869.72" gradientUnits="userSpaceOnUse"><stop offset="0" stop-color="#fff"/><stop offset="1"/></linearGradient><filter id="luminosity-noclip-2" x="1704.54" y="-8732" width="48.38" height="32766" filterUnits="userSpaceOnUse" color-interpolation-filters="sRGB"><feFlood flood-color="#fff" result="bg"/><feBlend in="SourceGraphic" in2="bg"/></filter><mask id="mask-2" x="1704.54" y="-8732" width="48.38" height="32766" maskUnits="userSpaceOnUse"><g class="cls-95"/></mask><linearGradient id="linear-gradient-2" x1="1754.38" y1="189.15" x2="1710.15" y2="298.56" gradientTransform="translate(3457.46 505.18) rotate(-180)" xlink:href="#linear-gradient"/><filter id="luminosity-noclip-3" x="1681.82" y="-8732" width="28.54" height="32766" filterUnits="userSpaceOnUse" color-interpolation-filters="sRGB"><feFlood flood-color="#fff" result="bg"/><feBlend in="SourceGraphic" in2="bg"/></filter><mask id="mask-3" x="1681.82" y="-8732" width="28.54" height="32766" maskUnits="userSpaceOnUse"><g class="cls-94"/></mask><linearGradient id="linear-gradient-3" x1="1730.77" y1="179.96" x2="1686.68" y2="289" gradientTransform="translate(3392.17 531.48) rotate(-180)" xlink:href="#linear-gradient"/><linearGradient id="linear-gradient-4" x1="1732.55" y1="180.5" x2="1688.36" y2="289.78" gradientTransform="translate(3392.17 541.36) rotate(-180)" xlink:href="#linear-gradient"/><filter id="luminosity-noclip-5" x="1760.87" y="-8732" width="2.13" height="32766" filterUnits="userSpaceOnUse" color-interpolation-filters="sRGB"><feFlood flood-color="#fff" result="bg"/><feBlend in="SourceGraphic" in2="bg"/></filter><mask id="mask-5" x="1760.87" y="-8732" width="2.13" height="32766" maskUnits="userSpaceOnUse"><g class="cls-93"/></mask><linearGradient id="linear-gradient-5" x1="1778.88" y1="198.7" x2="1734.34" y2="308.87" gradientTransform="translate(3523.86 481.23) rotate(-180)" xlink:href="#linear-gradient"/><filter id="luminosity-noclip-6" x="1275.5" y="-8732" width="380.46" height="32766" filterUnits="userSpaceOnUse" color-interpolation-filters="sRGB"><feFlood flood-color="#fff" result="bg"/><feBlend in="SourceGraphic" in2="bg"/></filter><mask id="mask-6" x="1275.5" y="-8732" width="380.46" height="32766" maskUnits="userSpaceOnUse"><g class="cls-92"/></mask><linearGradient id="linear-gradient-6" x1="1221.11" y1="338.75" x2="1540.91" y2="964.15" xlink:href="#linear-gradient"/><filter id="luminosity-noclip-7" x="1447.1" y="-8732" width="70.94" height="32766" filterUnits="userSpaceOnUse" color-interpolation-filters="sRGB"><feFlood flood-color="#fff" result="bg"/><feBlend in="SourceGraphic" in2="bg"/></filter><mask id="mask-7" x="1447.1" y="-8732" width="70.94" height="32766" maskUnits="userSpaceOnUse"><g class="cls-91"/></mask><linearGradient id="linear-gradient-7" x1="1508.83" y1="161.29" x2="1463.43" y2="357.12" xlink:href="#linear-gradient"/><filter id="luminosity-noclip-8" x="1572.67" y="-8732" width="25.09" height="32766" filterUnits="userSpaceOnUse" color-interpolation-filters="sRGB"><feFlood flood-color="#fff" result="bg"/><feBlend in="SourceGraphic" in2="bg"/></filter><mask id="mask-8" x="1572.67" y="-8732" width="25.09" height="32766" maskUnits="userSpaceOnUse"><g class="cls-90"/></mask><linearGradient id="linear-gradient-8" x1="1580.12" y1="177.88" x2="1534.71" y2="373.73" xlink:href="#linear-gradient"/><linearGradient id="linear-gradient-9" x1="1750.18" y1="187.58" x2="1706.09" y2="296.61" gradientTransform="translate(3457.46 481.23) rotate(-180)" xlink:href="#linear-gradient"/><linearGradient id="Безымянный_градиент_73" x1="367.31" y1="1447.31" x2="1542.14" y2="272.47" gradientUnits="userSpaceOnUse"><stop offset="0" stop-color="#f1cc52"/><stop offset="1" stop-color="#e59148"/></linearGradient><linearGradient id="Безымянный_градиент_70" x1="960" y1="-1200" x2="960" y2="-714" gradientTransform="matrix(1, 0, 0, -1, 0, -120)" gradientUnits="userSpaceOnUse"><stop offset="0" stop-color="#81d3e4"/><stop offset="1" stop-color="#385988"/></linearGradient><filter id="luminosity-noclip-10" x="1308.27" y="143.68" width="360.28" height="512.53" filterUnits="userSpaceOnUse" color-interpolation-filters="sRGB"><feFlood flood-color="#fff" result="bg"/><feBlend in="SourceGraphic" in2="bg"/></filter><mask id="mask-10" x="1308.27" y="143.68" width="360.28" height="512.53" maskUnits="userSpaceOnUse"><g class="cls-1"><polygon class="cls-2" points="1650.97 203.12 1668.55 175.48 1619.78 143.68 1602.2 171.32 1592.37 164.91 1580.13 184.17 1569.93 177.52 1319.12 571.88 1329.31 578.52 1308.28 611.6 1376.7 656.21 1397.73 623.14 1407.92 629.78 1658.74 235.43 1648.55 228.78 1660.8 209.53 1650.97 203.12"/></g></mask><linearGradient id="linear-gradient-10" x1="1410.33" y1="240.84" x2="1731.91" y2="869.72" gradientUnits="userSpaceOnUse"><stop offset="0" stop-color="#81d3e4"/><stop offset="1" stop-color="#6076fa"/></linearGradient><filter id="luminosity-noclip-11" x="1275.5" y="466.38" width="380.46" height="519.86" filterUnits="userSpaceOnUse" color-interpolation-filters="sRGB"><feFlood flood-color="#fff" result="bg"/><feBlend in="SourceGraphic" in2="bg"/></filter><mask id="mask-11" x="1275.5" y="466.38" width="380.46" height="519.86" maskUnits="userSpaceOnUse"><g class="cls-11"><path class="cls-12" d="M1530.85,783.53l-1.55.25c33.32-31.18,53.82-66.43,61.19-105.49,20.65-109.44-74.73-207.92-78.64-211.91L1486.66,506c.79.81,75.34,77.82,59.14,163.67-10.11,53.61-55.43,99.57-134.72,136.73l-28.14-14.92,5.41-10.46-107.14-56.81-5.71,11L1331,764.65l-26.08,50.42,105.87,56.14-16.39,50.4H1311.9v64.63H1656V921.61H1530.85Z"/></g></mask><linearGradient id="linear-gradient-11" x1="1221.11" y1="338.75" x2="1540.91" y2="964.15" xlink:href="#linear-gradient-10"/><linearGradient id="linear-gradient-12" x1="934.48" y1="802.34" x2="1048.43" y2="802.34" xlink:href="#linear-gradient-10"/><linearGradient id="linear-gradient-13" x1="1018.07" y1="866.71" x2="1121.11" y2="866.71" xlink:href="#linear-gradient-10"/><linearGradient id="linear-gradient-14" x1="1026.88" y1="881.88" x2="1104.21" y2="881.88" xlink:href="#linear-gradient-10"/><linearGradient id="linear-gradient-15" x1="998.95" y1="818.87" x2="1089.02" y2="818.87" xlink:href="#linear-gradient-10"/><linearGradient id="linear-gradient-16" x1="978.28" y1="949.68" x2="1061.39" y2="949.68" gradientUnits="userSpaceOnUse"><stop offset="0" stop-color="#e59148"/><stop offset="1" stop-color="#f1cc52"/></linearGradient><linearGradient id="linear-gradient-17" x1="978.28" y1="949.68" x2="1061.39" y2="949.68" gradientUnits="userSpaceOnUse"><stop offset="0" stop-color="#b37239"/><stop offset="1" stop-color="#f1cc52"/></linearGradient><filter id="luminosity-noclip-12" x="1447.1" y="219.84" width="70.94" height="109.46" filterUnits="userSpaceOnUse" color-interpolation-filters="sRGB"><feFlood flood-color="#fff" result="bg"/><feBlend in="SourceGraphic" in2="bg"/></filter><mask id="mask-12" x="1447.1" y="219.84" width="70.94" height="109.46" maskUnits="userSpaceOnUse"><g class="cls-13"><polygon class="cls-14" points="1448.79 329.3 1447.1 328.19 1516.34 219.84 1518.03 220.95 1448.79 329.3"/></g></mask><linearGradient id="linear-gradient-18" x1="1508.83" y1="161.29" x2="1463.43" y2="357.12" xlink:href="#linear-gradient-10"/><filter id="luminosity-noclip-13" x="1572.67" y="140.4" width="25.09" height="25.96" filterUnits="userSpaceOnUse" color-interpolation-filters="sRGB"><feFlood flood-color="#fff" result="bg"/><feBlend in="SourceGraphic" in2="bg"/></filter><mask id="mask-13" x="1572.67" y="140.4" width="25.09" height="25.96" maskUnits="userSpaceOnUse"><g class="cls-15"><polygon class="cls-16" points="1574.36 166.36 1572.67 165.25 1588.59 140.4 1597.76 146.5 1596.66 148.21 1589.17 143.24 1574.36 166.36"/></g></mask><linearGradient id="linear-gradient-19" x1="1580.12" y1="177.88" x2="1534.71" y2="373.73" xlink:href="#linear-gradient-10"/><linearGradient id="linear-gradient-20" x1="1445.31" y1="572.56" x2="1656.95" y2="572.56" gradientUnits="userSpaceOnUse"><stop offset="0" stop-color="#d7e2fd"/><stop offset="1" stop-color="#f1fffd"/></linearGradient><linearGradient id="linear-gradient-21" x1="1524.39" y1="693.3" x2="1577.87" y2="693.3" xlink:href="#linear-gradient-20"/><filter id="luminosity-noclip-14" x="1704.54" y="238.9" width="48.38" height="3.43" filterUnits="userSpaceOnUse" color-interpolation-filters="sRGB"><feFlood flood-color="#fff" result="bg"/><feBlend in="SourceGraphic" in2="bg"/></filter><mask id="mask-14" x="1704.54" y="238.9" width="48.38" height="3.43" maskUnits="userSpaceOnUse"><g class="cls-17"><rect class="cls-18" x="1704.54" y="238.9" width="48.38" height="3.43" transform="translate(3457.46 481.23) rotate(180)"/></g></mask><linearGradient id="linear-gradient-22" x1="1750.18" y1="187.58" x2="1706.09" y2="296.61" gradientTransform="translate(3457.46 481.23) rotate(-180)" xlink:href="#linear-gradient-10"/><filter id="luminosity-noclip-15" x="1704.54" y="245.37" width="48.38" height="14.44" filterUnits="userSpaceOnUse" color-interpolation-filters="sRGB"><feFlood flood-color="#fff" result="bg"/><feBlend in="SourceGraphic" in2="bg"/></filter><mask id="mask-15" x="1704.54" y="245.37" width="48.38" height="14.44" maskUnits="userSpaceOnUse"><g class="cls-3"><rect class="cls-4" x="1704.54" y="245.37" width="48.38" height="14.44" transform="translate(3457.46 505.18) rotate(180)"/></g></mask><linearGradient id="linear-gradient-23" x1="1754.38" y1="189.15" x2="1710.15" y2="298.56" gradientTransform="translate(3457.46 505.18) rotate(-180)" xlink:href="#linear-gradient-10"/><filter id="luminosity-noclip-16" x="1681.82" y="264.66" width="28.54" height="2.16" filterUnits="userSpaceOnUse" color-interpolation-filters="sRGB"><feFlood flood-color="#fff" result="bg"/><feBlend in="SourceGraphic" in2="bg"/></filter><mask id="mask-16" x="1681.82" y="264.66" width="28.54" height="2.16" maskUnits="userSpaceOnUse"><g class="cls-5"><rect class="cls-6" x="1681.82" y="264.66" width="28.54" height="2.16" transform="translate(3392.17 531.48) rotate(180)"/></g></mask><linearGradient id="linear-gradient-24" x1="1730.77" y1="179.96" x2="1686.68" y2="289" gradientTransform="translate(3392.17 531.48) rotate(-180)" xlink:href="#linear-gradient-10"/><filter id="luminosity-noclip-17" x="1681.82" y="267.76" width="28.54" height="5.84" filterUnits="userSpaceOnUse" color-interpolation-filters="sRGB"><feFlood flood-color="#fff" result="bg"/><feBlend in="SourceGraphic" in2="bg"/></filter><mask id="mask-17" x="1681.82" y="267.76" width="28.54" height="5.84" maskUnits="userSpaceOnUse"><g class="cls-7"><rect class="cls-8" x="1681.82" y="267.76" width="28.54" height="5.84" transform="translate(3392.17 541.36) rotate(180)"/></g></mask><linearGradient id="linear-gradient-25" x1="1732.55" y1="180.5" x2="1688.36" y2="289.78" gradientTransform="translate(3392.17 541.36) rotate(-180)" xlink:href="#linear-gradient-10"/><filter id="luminosity-noclip-18" x="1760.87" y="220.39" width="2.13" height="40.45" filterUnits="userSpaceOnUse" color-interpolation-filters="sRGB"><feFlood flood-color="#fff" result="bg"/><feBlend in="SourceGraphic" in2="bg"/></filter><mask id="mask-18" x="1760.87" y="220.39" width="2.13" height="40.45" maskUnits="userSpaceOnUse"><g class="cls-9"><rect class="cls-10" x="1760.87" y="220.39" width="2.13" height="40.45" transform="translate(3523.86 481.23) rotate(180)"/></g></mask><linearGradient id="linear-gradient-26" x1="1778.88" y1="198.7" x2="1734.34" y2="308.87" gradientTransform="translate(3523.86 481.23) rotate(-180)" xlink:href="#linear-gradient-10"/></defs><title>signupbg</title><rect class="cls-19" width="1920" height="1080" transform="translate(1920 1080) rotate(180)"/><path class="cls-20" d="M1920,1080V650.32c-141,68.93-239.62,29.67-365.57-3.77-52.79-14-124.09-19.35-189.69,17.11-230.1,127.89-270.28-2.88-435.46,5-102,4.86-168.15,44.8-227.95,82.06-97.87,61-178.6,114.76-371.05-4.34,0,0,0,0,0,0C160.41,641.25,57.94,623.65,0,629.22V1080Z"/><path class="cls-21" d="M1920,1080V625.72c-58.37-25.05-192.85-52-298.56-9.33-21.44,8.65-44.22,21.09-69.63,36.79C1425.33,731.31,1376.34,845.3,1111.3,757,955,704.86,887.89,844.9,735.15,766.9q-17.31-8.85-33.82-16.18C574.55,694.3,478.23,669.55,330.28,714h0q-14.2,4.24-29.12,9C150.36,770.72,59.43,781.09,0,743.7V1080Z"/><path class="cls-22" d="M158.42,516.08a16.8,16.8,0,0,1,7.24,1.59v3.84a12.48,12.48,0,0,0-6.69-1.8c-4.68,0-9.39,2.59-9.39,8.92,0,6.92,4.95,9,9.28,9a8.74,8.74,0,0,0,3.59-.69v-9.16h3.79v11.82a18.8,18.8,0,0,1-7.62,1.63c-6.62,0-13-3.53-13-12.55C145.58,520.09,152,516.08,158.42,516.08Z"/><path class="cls-22" d="M177.74,523.69c6.52,0,8.77,5.32,7.72,10.13H173.13c.41,3,3.28,4.21,6.28,4.21a11.9,11.9,0,0,0,5.19-1.17V540a13.82,13.82,0,0,1-5.87,1.14c-5,0-9.29-2.9-9.29-8.75C169.44,526.42,174,523.69,177.74,523.69Zm.17,3.07a4.5,4.5,0,0,0-4.82,4.29h9.09C182.38,529.6,181.49,526.76,177.91,526.76Z"/><path class="cls-22" d="M194,518.22v5.92h6v3.24h-6V535c0,2.18,1,2.9,3.11,2.9a8.76,8.76,0,0,0,3.31-.65v3.18a13.21,13.21,0,0,1-4.4.73c-3.18,0-5.64-1.6-5.64-5.47v-8.3h-2.93v-3.24h2.93v-5Z"/><path class="cls-22" d="M217.09,523.69A13,13,0,0,1,223,525.1v3.25a11.18,11.18,0,0,0-5.67-1.62c-1.47,0-3,.45-3,1.8,0,3.21,9.87,1.72,9.87,7.77,0,3.67-3.35,4.88-7.07,4.88a12.77,12.77,0,0,1-6.42-1.59V536.3a12,12,0,0,0,6.25,1.77c2.05,0,3.55-.35,3.55-1.7,0-3.07-9.9-1.79-9.9-7.74C210.57,525,213.85,523.69,217.09,523.69Z"/><path class="cls-22" d="M232.28,518.22v5.92h5.94v3.24h-5.94V535c0,2.18,1,2.9,3.11,2.9a8.84,8.84,0,0,0,3.31-.65v3.18a13.22,13.22,0,0,1-4.41.73c-3.17,0-5.63-1.6-5.63-5.47v-8.3h-2.94v-3.24h2.94v-5Z"/><path class="cls-22" d="M256.83,538.1a3.63,3.63,0,0,0,1.09-.21v2.67a6.42,6.42,0,0,1-2.32.41,3.27,3.27,0,0,1-3.28-1.93,9.47,9.47,0,0,1-6.18,2.14c-3,0-5.74-1.66-5.74-5.08,0-4.25,3.89-5.57,7.31-5.57A22.07,22.07,0,0,1,252,531v-.58c0-2.08-1.51-3.53-4.31-3.53a14.38,14.38,0,0,0-5.9,1.28v-3.39a19.79,19.79,0,0,1,6.28-1.1c4.64,0,7.58,2.24,7.58,7.26v5.94A1.07,1.07,0,0,0,256.83,538.1Zm-12.67-2.24c0,1.62,1.43,2.45,3.07,2.45a6.65,6.65,0,0,0,4.75-2v-2.8a18.67,18.67,0,0,0-3.55-.42C246.34,533.12,244.16,533.78,244.16,535.86Z"/><path class="cls-22" d="M270.58,523.79v3.63a5.86,5.86,0,0,0-6.49,3.25v10.06h-3.65V524.14h3.24v2.73A7.27,7.27,0,0,1,270.58,523.79Z"/><path class="cls-22" d="M278.15,518.22v5.92h6v3.24h-6V535c0,2.18,1,2.9,3.11,2.9a8.76,8.76,0,0,0,3.31-.65v3.18a13.21,13.21,0,0,1-4.4.73c-3.18,0-5.64-1.6-5.64-5.47v-8.3H271.6v-3.24h2.93v-5Z"/><path class="cls-22" d="M294.81,523.69c6.52,0,8.78,5.32,7.72,10.13H290.2c.41,3,3.28,4.21,6.29,4.21a11.9,11.9,0,0,0,5.19-1.17V540a13.9,13.9,0,0,1-5.88,1.14c-5,0-9.29-2.9-9.29-8.75C286.51,526.42,291,523.69,294.81,523.69Zm.17,3.07a4.49,4.49,0,0,0-4.81,4.29h9.08C299.46,529.6,298.57,526.76,295,526.76Z"/><path class="cls-22" d="M322.91,516.53v24.2h-3.28V538.1a7.59,7.59,0,0,1-6.28,3.08c-5,0-8.13-4-8.13-8.75s3.17-8.74,8.13-8.74a7.51,7.51,0,0,1,5.9,2.59v-9.75ZM314,526.93c-2.93,0-5.08,2.25-5.08,5.5s2.15,5.5,5.08,5.5a5.71,5.71,0,0,0,5.23-3.49v-4.05A5.73,5.73,0,0,0,314,526.93Z"/><g class="cls-23"><polygon class="cls-24" points="1650.97 203.12 1668.55 175.48 1619.78 143.68 1602.2 171.32 1592.37 164.91 1580.13 184.17 1569.93 177.52 1319.12 571.88 1329.31 578.52 1308.28 611.6 1376.7 656.21 1397.73 623.14 1407.92 629.78 1658.74 235.43 1648.55 228.78 1660.8 209.53 1650.97 203.12"/></g><g class="cls-25"><path class="cls-26" d="M1530.85,783.53l-1.55.25c33.32-31.18,53.82-66.43,61.19-105.49,20.65-109.44-74.73-207.92-78.64-211.91L1486.66,506c.79.81,75.34,77.82,59.14,163.67-10.11,53.61-55.43,99.57-134.72,136.73l-28.14-14.92,5.41-10.46-107.14-56.81-5.71,11L1331,764.65l-26.08,50.42,105.87,56.14-16.39,50.4H1311.9v64.63H1656V921.61H1530.85Z"/></g><path class="cls-27" d="M1765.63,364.5a56.16,56.16,0,0,0-58.89,30.66,57.68,57.68,0,0,0,9.91,65.41,55.86,55.86,0,0,0,31.77,16.6c1.25.19,2.5.35,3.74.46a55.12,55.12,0,0,0,16.48-1,56.71,56.71,0,0,0,44-47.07C1817.42,398.44,1796.36,369.31,1765.63,364.5Zm33.11,62.87a42.51,42.51,0,0,1-33,35.29,41.35,41.35,0,0,1-12.36.75c-.93-.08-1.87-.19-2.81-.34a41.87,41.87,0,0,1-23.82-12.45,43.24,43.24,0,0,1-7.43-49,42.09,42.09,0,0,1,44.15-23C1786.51,382.2,1802.3,404,1798.74,427.37Z"/><path class="cls-28" d="M1726.75,450.62l-10.1,9.95a57.68,57.68,0,0,1-9.91-65.41l12.58,6.43a43.24,43.24,0,0,0,7.43,49Z"/><path class="cls-29" d="M1753.38,463.41l-1.22,14.22c-1.24-.11-2.49-.27-3.74-.46a55.86,55.86,0,0,1-31.77-16.6l10.1-9.95a41.87,41.87,0,0,0,23.82,12.45C1751.51,463.22,1752.45,463.33,1753.38,463.41Z"/><path class="cls-30" d="M1768.64,476.62a55.12,55.12,0,0,1-16.48,1l1.22-14.22a41.35,41.35,0,0,0,12.36-.75Z"/><rect class="cls-30" x="1710.93" y="504.93" width="69.02" height="8.79"/><rect class="cls-30" x="1710.93" y="523.63" width="79.95" height="8.79"/><path class="cls-31" d="M944.44,649.89c9.82-4.76,19.6,26.91,19.6,26.91,16.7,22.34,40-7.38,37.76,26-4,58.44,66.44,18.38,33.94,79.39s28.69,34.5,8.5,83.7,6,107.88-24.4,83.77c0,0-26.76-59.4-54.35-77.78s16.53-40.19,7.9-65.15c-12.54-36.25-42.75-34.83-21-73.79S911,666.06,944.44,649.89Z"/><path class="cls-22" d="M1029.46,927.32c-13.17-9.38-28.59-74.73-29.51-113.65-.47-19.94-6.29-28.25-11.42-35.58-4.91-7-9.15-13.06-6.68-27,4.72-26.55-7.69-38-7.82-38.12l1.44-1.66c.55.49,13.47,12.31,8.52,40.17-2.31,13,1.5,18.41,6.31,25.29,5.06,7.21,11.35,16.18,11.83,36.79,1,41.78,16.75,103.48,28.58,111.91Z"/><path class="cls-32" d="M1034.39,932.16a26.67,26.67,0,0,1-5.57-.61c-5.08-1-8.41-3.75-9.9-8-3.55-10.28,4.68-27,11.36-35,.11-.13,11.28-14,10.09-33.12-.2-3.22-.53-6.19-.82-8.81-.84-7.59-1.45-13.07,1.77-16.73,2.84-3.23,8.31-4.62,18.31-4.67,17.52-.08,24.45-7.43,30-13.34,2.37-2.5,4.6-4.87,7.31-6.37h0c8.74-4.83,18-5.54,22-1.69,1.91,1.83,3.52,5.41.36,12.1a46.64,46.64,0,0,1-9.63,13.07c-4,4.18-6.72,6.94-5.33,12.45.33,1.29.7,2.59,1.08,3.9,2.7,9.36,5.77,20-10,27.16-3.36,1.53-6.41,2.75-9.11,3.82-11,4.38-17.71,7-25.23,23.11-1.46,3.12-2.74,6.07-4,8.92C1051.13,921.87,1046.64,932.16,1034.39,932.16ZM1098,807.36c-2.42,1.33-4.44,3.48-6.78,6-5.86,6.2-13.14,13.93-31.59,14-9.19,0-14.34,1.25-16.69,3.93-2.57,2.92-2,8-1.24,15,.3,2.65.63,5.65.83,8.92A53.11,53.11,0,0,1,1032,889.88c-6.61,8-14.1,23.83-11,32.89,1.22,3.52,4,5.75,8.27,6.62,14.89,3.05,19-6.39,25.82-22,1.25-2.87,2.54-5.83,4-9,7.89-16.87,15.26-19.8,26.4-24.23,2.68-1.06,5.71-2.26,9-3.77,14.08-6.41,11.54-15.21,8.85-24.53-.38-1.33-.77-2.66-1.1-4-1.7-6.7,1.65-10.16,5.88-14.53,3-3.15,6.5-6.71,9.23-12.49,1.43-3,2.61-7.14.1-9.54-3.29-3.16-11.65-2.29-19.45,2Z"/><path class="cls-33" d="M1029.05,944.9l-2.17-.12c.1-2.07,2.85-50.84,22.19-65.11,21.22-15.66,27.9-32.49,31.09-43.79,3.76-13.31,22.87-16.86,23.68-17l.37,2.17c-.18,0-18.57,3.47-22,15.45-3.28,11.61-10.15,28.9-31.91,45C1031.84,895.11,1029.08,944.4,1029.05,944.9Z"/><path class="cls-34" d="M1073.27,699.11c-13.75-4.77-10.89,22-16.7,41.9s-64.62,8.66-39.93,58.36-31.22,16.62-14.52,60,1.45,89.76,19.6,78,10.2-66.42,29.08-72.91,22-14.06,3.26-31.7,49-35.16,32.28-70.78S1089.15,704.62,1073.27,699.11Z"/><path class="cls-22" d="M1030.14,935.25c-1.73-7.43-16.49-72.77-2.71-80.67,12.14-7,11.84-34,10-59.6-1.68-22.64,27-33.22,28.25-33.65l.73,2.07c-.29.11-28.36,10.46-26.81,31.41,1.94,26.26,2.15,54.12-11,61.69-10.46,6-.83,58.51,3.76,78.24Z"/><polygon class="cls-35" points="1061.39 911.98 1041.77 987.37 997.91 987.37 978.28 911.98 1061.39 911.98"/><path class="cls-36" d="M1061.39,912s-43.2,8.21-43.2,75.39H997.91L978.28,912Z"/><g class="cls-37"><polygon class="cls-38" points="1448.79 329.3 1447.1 328.19 1516.34 219.84 1518.03 220.95 1448.79 329.3"/></g><g class="cls-39"><polygon class="cls-40" points="1574.36 166.36 1572.67 165.25 1588.59 140.4 1597.76 146.5 1596.66 148.21 1589.17 143.24 1574.36 166.36"/></g><rect class="cls-41" x="1293.53" y="671.67" width="6.74" height="310.4"/><rect class="cls-41" x="1140.29" y="671.67" width="6.74" height="310.4"/><path class="cls-42" d="M1203.49,542h33.59a94.17,94.17,0,0,1,94.17,94.17V836.67a94.16,94.16,0,0,1-94.16,94.16h-33.59a94.17,94.17,0,0,1-94.17-94.17V636.16A94.17,94.17,0,0,1,1203.49,542Z"/><path class="cls-22" d="M1208.46,548.25h23.65a93,93,0,0,1,93,93V822.6a93,93,0,0,1-93,93h-23.66a93,93,0,0,1-93-93V641.3A93,93,0,0,1,1208.46,548.25Z"/><rect class="cls-41" x="1187.22" y="539.04" width="66.13" height="15.12"/><path class="cls-43" d="M1203.41,678.11a57.22,57.22,0,0,1-45.34-56.23c0-31.65,25.42-57.39,56.67-57.39v2.58c-29.85,0-54.13,24.58-54.13,54.81a54.66,54.66,0,0,0,43.31,53.71,53.79,53.79,0,0,0,52.27-18.45,55.27,55.27,0,0,0,12.68-35.26,56.92,56.92,0,0,0-.57-8l2.51-.37a59.09,59.09,0,0,1,.61,8.42,57.88,57.88,0,0,1-13.28,36.91A56.32,56.32,0,0,1,1203.41,678.11Z"/><path class="cls-44" d="M1109,627.83s4.2-7.44-2.46-27.39c-6.45-19.29-28.75-17.54-35.84-5.19s-4.69,20,5.74,34S1104.66,634.22,1109,627.83Z"/><path class="cls-45" d="M1057.18,971.07s-1.1,8.2-1.24,9.43-12.28-.73-12.28-.73l-1-9.75S1055.66,969.92,1057.18,971.07Z"/><path class="cls-46" d="M1056.07,979.46s3.84,4.93,7.57,7.09,9.56,3,11.76,5.23c1.59,1.6,5.79,8.53-9.67,8.39s-22.9,1-24.55-1.68,2.39-19.59,2.39-19.59S1047.35,980,1056.07,979.46Z"/><path class="cls-45" d="M1141.24,971.07s-1.1,8.2-1.24,9.43-12.28-.73-12.28-.73l-1-9.75S1139.72,969.92,1141.24,971.07Z"/><path class="cls-46" d="M1140.13,979.46s3.85,4.93,7.57,7.09,17.41,3.91,19.61,6.14c1.59,1.61,4.23,8.08-17.51,7.48-15.45-.43-22.91,1-24.56-1.68s2.39-19.59,2.39-19.59A63.05,63.05,0,0,0,1140.13,979.46Z"/><path class="cls-47" d="M1061.27,767.07s-6.23,19.58-5.41,36.46-3.22,35.35-4.87,53c-1.84,19.66-9.37,66.19-9.64,76.7s-2.89,43.15-2.89,43.15l19.13,1.31s12.67-81.35,16-89.65,19.54-67.48,20.09-74.12S1061.27,767.07,1061.27,767.07Z"/><path class="cls-47" d="M1123.78,765s9.15,51.78,10.25,62.11,1.82,50,2.36,56.45,3.65,84.49,6.56,94.08h-20.56s-13.51-56.72-13.51-83.56-11.43-58.35-18.81-76.06-24.27-18.13-28.8-51C1061.27,767.07,1117.64,754.61,1123.78,765Z"/><path class="cls-44" d="M1102.89,633.1s-1.89,5.59,0,9.58-24.23,1.59-24.23,1.59,1.19-8.24-2.23-15S1102.89,633.1,1102.89,633.1Z"/><path class="cls-48" d="M1060.06,771.33s9.39,9.78,64.56-1.52l-.84-4.78-62.72,2.39Z"/><path class="cls-49" d="M1190,601.32c-1.68,6.49-6.65,21-8.15,25.55-1.87,5.65-6.11,16.63-7.68,18a122.66,122.66,0,0,1-22.08,14,74.42,74.42,0,0,1-8.43,3.47,121.88,121.88,0,0,0-25.09,11.83h-66.37a83.32,83.32,0,0,1,8.34-27.9c5.06-.33,12.72-1.25,16.56-1.41a32.91,32.91,0,0,0,9.85-2.33l1.69.12,5.1.37,13.1.92s9.65,1,12.4,1.52,21.32-3.36,25.12-3.76a6.75,6.75,0,0,0,1.86-.57c5.62-2.39,18.25-11.25,18.71-12.42.53-1.32,6.86-26,8.11-30.27C1173.34,597.53,1190.18,600.66,1190,601.32Z"/><path class="cls-49" d="M1051.61,685.66v0a334,334,0,0,1,6.1,34.87c1,10.37-16.93,158-16.93,158,8.44,6.64,100.86,8.48,100.47,5.68s-20.52-161.51-19-166.89a208.83,208.83,0,0,0,5.52-31.12c.79-10,9.42-15.77,9.42-15.77l14.86-11.58c1.49-7.38-5.87-17.74-5.87-17.74s-22.54,2.51-25.59,2.12c-2.54-.33-18.09-2.1-18.09-2.1a43.51,43.51,0,0,1-8.8,1.87,13.46,13.46,0,0,1-5.1-.37,3.18,3.18,0,0,1-1.61-.91s-16.94.72-25.78,3.25A65.68,65.68,0,0,0,1051.61,685.66Z"/><path class="cls-50" d="M1076.43,629.25s3.46.31,10.81-2.26,7.9-15.59,9.49-14c3.25,3.14,6.31,1,7.53-.89,0,0-3.59-4.78-1.92-7.09a17.42,17.42,0,0,1,4.37-4s-5.17-25.24-28.7-13.74C1050.44,600.72,1076.43,629.25,1076.43,629.25Z"/><path class="cls-49" d="M1102.89,642.68l-.83-3.65s-15-.31-23.21.89l-.86,4.36S1088.48,649.1,1102.89,642.68Z"/><path class="cls-44" d="M1099.19,609.75c-1.37-2.29-6.41-3.84-7,2.66-.46,5.05,9,10.55,9.1,5.85A14.39,14.39,0,0,0,1099.19,609.75Z"/><path class="cls-49" d="M1061.26,645s-7.16,0-22.8,49.94c-5.37,17.15,24.58,30.38,24.58,30.38Z"/><polygon class="cls-51" points="1163.4 608.09 1161.02 606.4 1183.45 573.92 1185.83 575.61 1163.4 608.09"/><path class="cls-52" d="M1192.75,583.59a8.92,8.92,0,0,1,.19,2.76s-.52,1.6-.82,2.77a7.87,7.87,0,0,0-.2.91,16.11,16.11,0,0,1-1,5c-.86,2.07-4.62,9.09-4.62,9.09l-6.48-2.19-5.92-.24s-2.08-13.51-1.5-15.54a4.61,4.61,0,0,1,.2-.56c.65-1.67,1.83-2.63,2.27-3.47.17-.31,2-3.24,3-3.37a3.31,3.31,0,0,1,3.09,1s2.78-.23,4.32.85a4.94,4.94,0,0,1,4.1,1.59S1192.08,582.17,1192.75,583.59Z"/><polygon class="cls-53" points="1185.83 575.61 1186.51 572.18 1183.45 573.92 1185.83 575.61"/><path class="cls-44" d="M1789.61,787.51a6.38,6.38,0,0,0-.08-2s-.5-1.14-.81-2c-.09-.27-.17-.5-.21-.65a11.67,11.67,0,0,0-1.07-3.56c-.78-1.45-5.75-6.82-5.75-6.82l-3.63,1.9-3.65,1.28s-.41,10.12.17,11.56l.18.4a14.79,14.79,0,0,0,1.93,2.35c.14.21,1.71,2.21,2.46,2.23a2.44,2.44,0,0,0,2.18-1,5.82,5.82,0,0,0,3.1-1,3.63,3.63,0,0,0,2.87-1.48S1789.22,788.59,1789.61,787.51Z"/><path class="cls-54" d="M1697.42,618.64s-4.85-31.72,21.09-31.13,24.5,25,21.38,35.52c-2.29,7.78-6.65,10.7,4.56,32.35s-9.7,21.65-9.7,21.65l-16.24-22.59Z"/><path class="cls-49" d="M1685.13,732.41c-.13.16-.31.4-.55.69h0c-.61.75-1.56,1.92-2.76,3.36-6.93,8.38-22.14,26.25-27.94,29.48-4.11,2.28-4.73-4.9-.65-9.31,3.72-4,18.11-30,23.67-35.59,2.71-2.72,6.34-28.38,6.34-28.38s3.37,21.4,3,23.86S1687.5,729.42,1685.13,732.41Z"/><path class="cls-44" d="M1653.23,756.64s-2.39,3.19-3.63,3.58-2.67,2.61-3.71,3.18-4.44,1.12-5.27,2.08c-.33.4-1.42,3.64-2.19,4.36s-2.52,2-1.87,2.66,2.55-.06,2.55-.06a1.34,1.34,0,0,0-.26,1.45c.79,1.46,1.82,1.44,1.82,1.44s-.2,1.16.28,1.69a2.85,2.85,0,0,0,2,1.11,2.73,2.73,0,0,0,1.06,1.49,2.4,2.4,0,0,0,2.33.18s1.17,1.31,2.08,1a8,8,0,0,0,2-1.56,30.41,30.41,0,0,0,5.89-11.33,22.6,22.6,0,0,1,4.08-8.63Z"/><path class="cls-55" d="M1639.3,771.8s3.59-4.84,5.64-4.93.86,1.73.86,1.73,1.15-1.82,2.7-1,0,2.84,0,2.84a1.72,1.72,0,0,1,2.49.19c1.23,1.33-.41,2.74-.41,2.74s2.65-.62,2.32,1.61c-.56,3.75-4.28,5.88-4.28,5.88a1.88,1.88,0,0,1-2.29-.76,2.58,2.58,0,0,1-3.54-1.74s-3.07-.4-2.39-2.81C1640.44,775.51,1637.17,774.61,1639.3,771.8Z"/><path class="cls-56" d="M1665.58,976.12s-10.19,17.48-14.49,20.34c-5.84,3.88-2.18,7.8.59,7.8s16.94,1,20.06-2.56,4.67-14.33,7.57-17.14,5.56-13.18-1.41-16.69C1670.25,964,1665.58,976.12,1665.58,976.12Z"/><polygon class="cls-56" points="1681.81 979.45 1679.12 1000.44 1677.69 1000.5 1678.14 985.4 1681.81 979.45"/><path class="cls-56" d="M1752.94,959.07s-2.45,20.15-5.26,24.51c-3.83,5.92,1.07,8,3.62,6.91s15.93-5.9,17.38-10.45-1.38-15,.17-18.78-.1-14.33-7.88-14.74C1752.44,946.08,1752.94,959.07,1752.94,959.07Z"/><path class="cls-44" d="M1752.82,949.12s-1.49,24.61-2.14,28.19,4.66,1.24,7.39-1.53,5.52-19.89,5.35-22.87-2.45-6.39-2.45-6.39Z"/><polygon class="cls-56" points="1769.13 955.55 1774.94 975.89 1773.66 976.52 1768.11 962.5 1769.13 955.55"/><path class="cls-44" d="M1710.41,806.07c-.51,2.48-3.76,12.87-7.39,24.41h0c-3.32,10.52-7,22-9.14,29.32-.81,2.74-1.43,4.89-1.74,6.2-2.1,8.67.26,22.28,1,33.65s-15.54,75.06-15.54,75.06c-2.85,1.35-8.22-7.76-8.22-7.76,2.1-4.05,1.8-75.9.66-80.33s-1.9-16.76-.76-21.58a18.82,18.82,0,0,0,.37-3.87c.1-6.08-1.14-16.13-1.89-27.15-1-13.88,4.37-48.38,5.13-51.46l.33-1.17c1.4-4.84,5.91-18.57,5.91-18.57,9.16-2.76,16-3.26,21.2-2.2a15.84,15.84,0,0,1,12.43,10.8C1717.26,784,1711.07,802.85,1710.41,806.07Z"/><path class="cls-44" d="M1761.94,948.23l-9.27,3.3c-1.57-7.7-39.22-61.63-41.51-67.61s-4.75-17.53-4.75-21.77c0-.76-.05-2-.16-3.69-.4-6.43-1.57-18.55-3.23-28-.31-1.76-.64-3.43-1-4.94-1.85-8.14-2.17-35.93-2.19-52.28,0-7.27,0-12.28,0-12.28l.46-.36c3.47-2.65,25.73-18.87,33.49-3.71a45.68,45.68,0,0,1,4.2,12.78c2.49,13.74,0,29.21-2,43.3-1.72,12.06-5,29.1-6,41.74-.52,7-.33,12.58,1.22,15.32,4.38,7.71,8.66,14.23,17.51,41.43C1751.73,920.33,1761.94,948.23,1761.94,948.23Z"/><path class="cls-56" d="M1736.08,813c-1.72,12.06-5,29.1-6,41.74,0,0-9.71,2-23.87,3.73-3.83.48-8,.94-12.37,1.34-7.59.71-15.84,1.24-24.21,1.37.1-6.08-1.14-16.13-1.89-27.15-1-13.88,4.37-48.38,5.13-51.46l.33-1.17c6.85-3.82,16.67-6.39,26.61-8.13,4.37-.76,8.76-1.36,12.93-1.84,13-1.47,23.92-1.71,25.26-1.73C1740.53,783.43,1738.09,798.9,1736.08,813Z"/><path class="cls-44" d="M1752.67,951.53s4.35,5.7,9.27-3.3C1761.94,948.23,1756.48,942.31,1752.67,951.53Z"/><path class="cls-44" d="M1669.4,967s-11.08,22-13.09,25,3.79,3,7.38,1.58,12.92-16,13.93-18.8a38.5,38.5,0,0,0,1.53-6.06Z"/><path class="cls-44" d="M1669.4,967s-5.88,11.21,9.75,1.7C1679.15,968.65,1676.2,963.63,1669.4,967Z"/><path class="cls-44" d="M1712.68,592.6s-17.57,2.81-18.26,28.08,4.74,30.66,20.11,25.39,20.22-31.71,20.57-35.81S1736.37,589.56,1712.68,592.6Z"/><path class="cls-57" d="M1743.53,680.51c.07,8.7-9.82,29.51-11.34,35.93s-3.93,8.48-1.9,16.7,10.22,37.35,8.07,38.48c-32.13,16.91-60.59,15.81-65.12,9.77,0,0,10.39-39.26,11.15-43.76s-.93-21.35-1.3-26.11-5.14-15-5-19.75,2.52-9,5.81-14.23c1-1.6,2.1-3.24,3.17-4.83,3.49-5.19,7-9.89,8.68-11.51a28,28,0,0,1,3.5-2.83h0a16.4,16.4,0,0,1,3.6-1.92L1718,654s9.41,3.45,14.82,4.73C1732.8,658.73,1743.37,660.29,1743.53,680.51Z"/><path class="cls-58" d="M1699.28,658.36l-8.75,14-8.08,12.89c0-.07.56-2,1.47-7.68.18-1.07.36-2.27.56-3.62a9.32,9.32,0,0,1,.26-1.19h0c3.45-8.06,14.14-14.15,14.53-14.35Z"/><path class="cls-44" d="M1724.41,634.69c-1.52,2.91-3.13,21-3.13,21s-21.49,8.22-19.29,3.57a17.93,17.93,0,0,0,1.31-7.21,34.47,34.47,0,0,0-.24-4.39c0-.47-.09-.75-.09-.75S1725.93,631.77,1724.41,634.69Z"/><path class="cls-54" d="M1705.51,610.73A83.77,83.77,0,0,0,1720,624.36c8.21,5.85,6.78,17.62,6.78,17.62s21.41-45.64,1-48.8-32.83-3.39-33.41,27.5C1694.42,620.68,1703.66,610.5,1705.51,610.73Z"/><path class="cls-59" d="M1717.75,644.51c-3.3,4.93-14.44,7.52-14.44,7.52h0a34.47,34.47,0,0,0-.24-4.39C1710,649.2,1717.75,644.51,1717.75,644.51Z"/><path class="cls-49" d="M1684.77,672.63h0a18.87,18.87,0,0,0-.85,4.91l3.17-4.83s5.65-8.21,7.59-10.34a32.14,32.14,0,0,1,4.59-4S1688.15,663.78,1684.77,672.63Z"/><path class="cls-58" d="M1728.44,689.39s16.16-6.94,20-8c0,0-6.67-24.46-20.33-23C1713.36,660.07,1728.44,689.39,1728.44,689.39Z"/><path class="cls-44" d="M1702.88,656.44s-10.12,15.76-6.7,17.14,22-1.84,29.87-16.81C1726.05,656.77,1714.26,650.65,1702.88,656.44Z"/><path class="cls-49" d="M1650.88,759.32s6.89,3.45,8.48,6.43c0,0,12.17-17.62,13.24-18.42l-18.42,8.13Z"/><path class="cls-49" d="M1774.09,776.28s7.16-1.79,9.62-2L1772.83,748l-4,14.8S1774,775.6,1774.09,776.28Z"/><path class="cls-56" d="M1683.1,711.78q0-.31,0-.36a.84.84,0,0,0,0,.1C1683.09,711.58,1683.1,711.67,1683.1,711.78Z"/><path class="cls-60" d="M1684.58,733.1h0c-.61.75-4.39,5.31-5.59,6.76,0,0,4.23-25.07,4.11-28.08C1683.37,714.2,1685,727.93,1684.58,733.1Z"/><path class="cls-49" d="M1721.34,655s-11.46,15.56-12.15,43.92,9.45,149,8.06,166.82c0,0,24.76-9.48,31.21-14.74s-11.23-91.21-13.41-99-6.71-32.76,13.41-70.61c0,0-4.34-18.93-12.71-22.22A68.87,68.87,0,0,0,1721.34,655Z"/><path class="cls-49" d="M1779.94,770.34c-3.29-11.08-10.42-32.19-11.79-36.6-3.57-11.5-5.48-14.21-10.58-29.68-2-6-6.08-15.72-9.11-22.69h0a50.28,50.28,0,0,0-10.13-19.58c-3.2-3.7-12.28-5-12.28-5s1.25,1.7,3.12,4.17a12.56,12.56,0,0,0-1.89.18c-12.11,3.1,1.75,23.4,2.71,26.09s18.24,32.69,19.49,35.43c4.31,9.47,6.86,11.64,10.14,20.54,4.43,12,11.64,23.89,15.2,30.53C1776.32,776.49,1781.2,774.58,1779.94,770.34Z"/><path class="cls-49" d="M1702.88,656.44s-10.62,11.65-12,35.1-2.56,51.23-6.22,75.33-9.53,102.33-9.53,102.33S1667,863,1665.36,859s4.25-76.66,11.16-96.88,8.62-23.1,6.58-40.77-6.09-25-5-31.61S1689.63,661.08,1702.88,656.44Z"/><g class="cls-61"><path class="cls-62" d="M1551.13,448.12h0a105.82,105.82,0,0,1,105.82,105.82v37.24A105.82,105.82,0,0,1,1551.13,697h0a105.81,105.81,0,0,1-105.81-105.81V553.94a105.82,105.82,0,0,1,105.82-105.82Z"/></g><path class="cls-63" d="M1573.79,551.35A54.11,54.11,0,0,0,1521.25,515a53.45,53.45,0,0,0-16.6,3.19,54.36,54.36,0,0,0-33.41,35.24,55.08,55.08,0,0,0,.7,34.76c.41,1.16.86,2.3,1.33,3.41a54.48,54.48,0,0,0,8.39,13.63,53.66,53.66,0,0,0,59.42,16.08C1569.21,611.17,1583.85,579.83,1573.79,551.35Zm-37.27,57.1A40.25,40.25,0,0,1,1492,596.4a41,41,0,0,1-6.28-10.23c-.36-.83-.7-1.69-1-2.55a41.38,41.38,0,0,1-.53-26.07,40.77,40.77,0,0,1,25-26.42,40.12,40.12,0,0,1,12.44-2.39,40.58,40.58,0,0,1,39.4,27.22A41.2,41.2,0,0,1,1536.52,608.45Z"/><path class="cls-28" d="M1484.16,557.55l-12.92-4.08a54.36,54.36,0,0,1,33.41-35.24,53.45,53.45,0,0,1,16.6-3.19l.4,13.7a40.12,40.12,0,0,0-12.44,2.39A40.77,40.77,0,0,0,1484.16,557.55Z"/><path class="cls-29" d="M1485.69,586.17l-12.42,5.47c-.47-1.11-.92-2.25-1.33-3.41a55.08,55.08,0,0,1-.7-34.76l12.92,4.08a41.38,41.38,0,0,0,.53,26.07C1485,584.48,1485.33,585.34,1485.69,586.17Z"/><path class="cls-30" d="M1481.66,605.27a54.48,54.48,0,0,1-8.39-13.63l12.42-5.47A41,41,0,0,0,1492,596.4Z"/><path class="cls-63" d="M1620.69,584.8a22.18,22.18,0,0,0-25.86,4.94,22.42,22.42,0,0,0-3.94,5.85,22.87,22.87,0,0,0,.41,20.2,22.39,22.39,0,0,0,10.25,10c.45.22.91.42,1.37.6A22.18,22.18,0,0,0,1631.34,615,22.78,22.78,0,0,0,1620.69,584.8Zm5.59,27.74a16.75,16.75,0,0,1-16.52,9.67,16.31,16.31,0,0,1-4.78-1.13c-.35-.14-.7-.29-1-.45a16.75,16.75,0,0,1-7.68-7.47,17.12,17.12,0,0,1,2.64-19.53,16.65,16.65,0,0,1,19.39-3.71A17.09,17.09,0,0,1,1626.28,612.54Z"/><path class="cls-28" d="M1596.26,613.16l-5,2.63a22.87,22.87,0,0,1-.41-20.2,22.42,22.42,0,0,1,3.94-5.85l4.07,3.89a17.12,17.12,0,0,0-2.64,19.53Z"/><path class="cls-29" d="M1605,621.08l-2.06,5.27c-.46-.18-.92-.38-1.37-.6a22.39,22.39,0,0,1-10.25-10l5-2.63a16.75,16.75,0,0,0,7.68,7.47C1604.28,620.79,1604.63,620.94,1605,621.08Z"/><path class="cls-63" d="M1631.34,546a22.87,22.87,0,0,0-4.88-26.18,22.44,22.44,0,0,0-5.77-4,22.1,22.1,0,0,0-20,.41,22.46,22.46,0,0,0-9.84,10.38c-.21.46-.41.92-.59,1.39a22.77,22.77,0,0,0,11.25,28.77A22.25,22.25,0,0,0,1631.34,546Zm-27.4,5.67a17.06,17.06,0,0,1-8.43-21.57c.14-.35.28-.7.44-1.05a16.86,16.86,0,0,1,7.38-7.78,16.57,16.57,0,0,1,15-.31,17,17,0,0,1,8,22.62A16.69,16.69,0,0,1,1603.94,551.65Z"/><path class="cls-63" d="M1603.33,521.25l-2.6-5a22.1,22.1,0,0,1,20-.41,22.44,22.44,0,0,1,5.77,4l-3.84,4.13a17,17,0,0,0-4.33-3A16.57,16.57,0,0,0,1603.33,521.25Z"/><path class="cls-29" d="M1595.51,530.08,1590.3,528c.18-.47.38-.93.59-1.39a22.46,22.46,0,0,1,9.84-10.38l2.6,5A16.86,16.86,0,0,0,1596,529C1595.79,529.38,1595.65,529.73,1595.51,530.08Z"/><path class="cls-30" d="M1588.81,534.47a22.57,22.57,0,0,1,1.49-6.47l5.21,2.08a17,17,0,0,0-1.12,4.85Z"/><polygon class="cls-64" points="1604.24 642.79 1562.47 642.79 1562.47 641.95 1603.41 641.95 1603.41 625.97 1604.24 625.97 1604.24 642.79"/><polygon class="cls-64" points="1525.57 642.79 1471.23 642.79 1471.23 641.95 1524.74 641.95 1524.74 615.79 1525.57 615.79 1525.57 642.79"/><rect class="cls-63" x="1471.24" y="633.2" width="37.39" height="5.04"/><rect class="cls-63" x="1562.47" y="633.2" width="21.99" height="5.04"/><rect class="cls-63" x="1462.77" y="469.48" width="17.89" height="3.87"/><rect class="cls-63" x="1537.36" y="484.06" width="27.76" height="3.87"/><rect class="cls-63" x="1501.46" y="484.06" width="16.95" height="3.87"/><rect class="cls-63" x="1462.77" y="484.06" width="33.58" height="3.87"/><rect class="cls-63" x="1486.11" y="469.48" width="26.51" height="3.87"/><rect class="cls-63" x="1523.72" y="484.06" width="7.28" height="3.87"/><rect class="cls-63" x="1545.32" y="469.7" width="19.81" height="3.87"/><rect class="cls-63" x="1572.19" y="484.06" width="16.89" height="3.87"/><rect class="cls-63" x="1519.14" y="469.7" width="21" height="3.87"/><path class="cls-65" d="M1551.13,720.37h0a26.91,26.91,0,0,1-26.74-27.07h0a26.91,26.91,0,0,1,26.74-27.08h0a26.91,26.91,0,0,1,26.74,27.08h0A26.91,26.91,0,0,1,1551.13,720.37Z"/><rect class="cls-66" x="1548.6" y="682.53" width="5.06" height="21.54"/><rect class="cls-66" x="1548.57" y="682.66" width="5.12" height="21.28" transform="translate(2244.43 -857.83) rotate(90)"/><path class="cls-67" d="M1549,788.85a56.69,56.69,0,0,0,6.47,1c2.1.07,11.78-4.38,14.88-4s23.31,9.12,24.23,9.76-.43,2-.43,2l-46.4.56Z"/><polygon class="cls-57" points="1570.13 788.36 1567.97 789.62 1554.67 766.29 1556.83 765.03 1570.13 788.36"/><polygon class="cls-68" points="1409.27 884.59 1386.13 997.82 1381.04 997.82 1400.65 884.35 1409.27 884.59"/><polygon class="cls-68" points="1434.5 884.59 1411.37 997.82 1406.27 997.82 1425.89 884.35 1434.5 884.59"/><polygon class="cls-68" points="1475.31 884.59 1498.44 997.82 1503.54 997.82 1483.92 884.35 1475.31 884.59"/><path class="cls-67" d="M1467.81,717.24s6.77,9.71,11,17.06c4.74,8.34,9.4,16.57,10.43,18.42,2.1,3.76,9.07,7.68,12.36,9.11,3,1.31,54,26.76,54.61,26.7s-5.43,10.19-5.43,10.19-70.08-20.34-73.23-23.26-12.5-16.18-16.32-21.64c-3.64-5.21-9.23-13.75-12.2-17.43-3.31-4.11-10.26-18.19-1.42-25.21C1458.85,702.21,1465.09,713.12,1467.81,717.24Z"/><path class="cls-46" d="M1594.51,968.57s11,3.5,15.82,4.62,22-2.26,24-1,2.61,6.5-.09,7.68-22.87,7.93-30.13,7.92-19.49,5.76-22.56,5.45-4.81-16.3-4.51-20.05S1594.51,968.57,1594.51,968.57Z"/><path class="cls-45" d="M1591.06,962.71l3.45,5.86s-13.08,5.67-17.45,4.58l-.84-6.78Z"/><path class="cls-46" d="M1548.5,971.63s9.89,6,14.36,8.16,21.9,2.87,23.62,4.53,1.07,6.93-1.82,7.46-24.05,2.43-31.11.75-20.28,1.1-23.2.09-1-17,.13-20.56S1548.5,971.63,1548.5,971.63Z"/><path class="cls-45" d="M1548.75,966l-.25,5.67s-14,2.5-18,.43l.62-6.21Z"/><path class="cls-69" d="M1479.44,820.73s41.67,9.61,51.48,12.52c10.65,3.15,27.87,8.87,30,10.67,2.32,2,4.89,1.8,1.55,16.49s-5.71,57.61-6.39,62.14c-1,6.76-3.76,46-3.76,46h-24.87s-1.65-75.71,0-84.23c1.53-7.9-1.65-11.77-4.85-14.08s-13.38.08-70.8-10c-5.74-1-21.52-2.75-25-9.45-6.36-12.09-7-29.11,5.5-39.52S1479.44,820.73,1479.44,820.73Z"/><path class="cls-70" d="M1497.2,885.5h-99.66s-7-.16-11.59-21c-5.24-23.42-15.8-101.66-15.8-101.66s2.8-7.28,46.62-6.34l78.46,103.06S1497.9,875.83,1497.2,885.5Z"/><path class="cls-44" d="M1541.72,788.85a56.31,56.31,0,0,0,6.47,1c2.09.07,11.78-4.38,14.88-4s23.31,9.12,24.23,9.76-.44,2-.44,2l-46.4.56Z"/><path class="cls-57" d="M1430.7,856.05c4.23,6.53,14.57,6.6,20.54,7.08,59.73,4.82,76.51,1,80,3s12.12,2.17,15.48,24.71c.77,5.16,4.74,17.93,9.34,31.69,1.28,3.82,2.61,7.72,3.92,11.56,6.27,18.21,12.36,34.92,12.36,34.92l26.69-6.9s-9.75-29.45-11.41-34.07c-2.64-7.36-14.27-54.6-19.37-71.39-4.5-14.82-8.25-16.95-10.71-18.37-4.63-2.67-21.86-5.71-31.87-8.95s-49.4-10.19-49.4-10.19-47.13-15.2-55-.34C1419.16,822.75,1423.07,844.28,1430.7,856.05Z"/><rect class="cls-71" x="1560.83" y="799.28" width="9.3" height="198.54"/><rect class="cls-71" x="1555.44" y="994.43" width="20.08" height="3.38"/><rect class="cls-71" x="1772.09" y="799.28" width="9.3" height="198.54"/><rect class="cls-71" x="1766.7" y="994.43" width="20.08" height="3.38"/><rect class="cls-70" x="1535.3" y="795.95" width="257.18" height="6.65"/><path class="cls-72" d="M1480.5,819.91l-60.76,12.52s.18-18.13.47-38.72,6.19-37.47,7.64-49.24c5-40.16,39.68-49,39.68-49l11.75,9.21s6.38,19,6.43,29.79c0,5.63-2.68,17.16-5.36,27.75-1,4-2,7.8-2.86,11.14-1.26,4.89-2.21,8.74-2.41,10.45C1473.2,800,1480.5,819.91,1480.5,819.91Z"/><path class="cls-44" d="M1488.39,697.18s-.45,1-1.12,2.59l-.94,2.24-.81,2c-1.74,4.33-3.67,9.59-4,12.2-.54,4.88-14-20.74-14-20.74a238.46,238.46,0,0,0,10.79-31.66C1482.78,646.64,1488.39,697.18,1488.39,697.18Z"/><path class="cls-59" d="M1488.39,697.18s-.45,1-1.12,2.59l-.94,2.24c-9-6.8-10.27-13.42-9.33-14.15A37.12,37.12,0,0,0,1488.39,697.18Z"/><path class="cls-44" d="M1471.14,707.87s17.5,35.53,30.77,49.21c4.16,4.29,43.35,30.63,44.92,32.34s-6.07,6.53-6.07,6.53-47.77-21-50.88-23.06-39.82-47-41.59-53.44-.38-12.69,6.08-15.5C1463.44,700,1471.14,707.87,1471.14,707.87Z"/><path class="cls-44" d="M1513.28,653.85s1.77,12.9,1.12,15.63-1.89,4.61-2.31,7.84.42,10.86-.41,12.64c-1,2.16-5.4-.31-7,3.24s-7,9.62-8.69,9.3c-4.48-.84-19.4-12.38-19.52-16.22s-.88-25.33-1.77-29.62,36.1-16.3,37.36-9.56Z"/><path class="cls-73" d="M1468.81,655.31c.4-10.42,11.28-13.19,11.28-13.19s9.55-6.56,26.63-.78,8.29,28,8.29,28-11.52-5.12-17.1-5.21a29.36,29.36,0,0,0-1.4,6.48l-6.07-3.4s.8-1.76-2.23-3S1479,681.41,1472,684a6.1,6.1,0,0,0,0-2.85h0a79,79,0,0,1-2-10.84C1469,663.87,1468.6,660.65,1468.81,655.31Z"/><path class="cls-44" d="M1492,667.46s-.65-7.3-7.56-4.57c-5,2-3.72,14.36.37,15.42S1492.18,673.74,1492,667.46Z"/><path class="cls-74" d="M1480.35,762.2c-1,4-2,7.8-2.86,11.14-6.74-8.1-18.64-37.87-18.81-38.32C1460.48,738.05,1479.29,760.91,1480.35,762.2Z"/><path class="cls-72" d="M1479.87,722.94s-6.74-28.81-26.07-20.1,3.89,34.13,3.89,34.13Z"/><path class="cls-75" d="M1610.19,757v-1.33h-8.41V757h.5v29.5a3.7,3.7,0,1,0,7.4,0V757Z"/><path class="cls-75" d="M1620.25,757v-1.33h-8.41V757h.51v29.5a3.7,3.7,0,1,0,7.4,0V757Z"/><path class="cls-75" d="M1630.31,757v-1.33h-8.41V757h.51v29.5a3.7,3.7,0,1,0,7.4,0V757Z"/><path class="cls-57" d="M1603.42,765.8v20.46a2.57,2.57,0,1,0,5.13,0V765.8Z"/><path class="cls-76" d="M1613.48,769.28v17.38s-.1,2.2,2.57,2.2,2.56-2.2,2.56-2.2V769.28Z"/><path class="cls-77" d="M1623.54,763.31V786s-.1,2.88,2.57,2.88,2.57-2.88,2.57-2.88V763.31Z"/><rect class="cls-78" x="1601.78" y="758.98" width="42.14" height="2"/><rect class="cls-78" x="1639.44" y="747.05" width="2.41" height="46.37"/><rect class="cls-78" x="1635.3" y="793.42" width="10.68" height="2.53"/><polygon class="cls-78" points="1660.32 766.38 1654.19 762.38 1658.51 755.59 1664.64 759.59 1660.32 766.38"/><polygon class="cls-78" points="1681.46 733.14 1675.33 729.15 1679.64 722.36 1685.78 726.36 1681.46 733.14"/><polygon class="cls-78" points="1682.15 730.09 1677.78 727.25 1682.1 720.46 1686.47 723.3 1682.15 730.09"/><polygon class="cls-75" points="1663.12 764.01 1655.16 758.82 1677.63 723.49 1685.59 728.68 1663.12 764.01"/><path class="cls-78" d="M1673.43,743.36a3.06,3.06,0,1,1-3.06-3.09A3.08,3.08,0,0,1,1673.43,743.36Z"/><path class="cls-75" d="M1664.07,784.05l-1.62-3.78c7.69-3.4,12.07-7.67,13-12.69,1.45-7.69-5.23-14.59-5.3-14.66l2.26-3.55c.35.36,8.89,9.18,7,19C1678.26,774.79,1673.08,780.07,1664.07,784.05Z"/><polygon class="cls-75" points="1663.48 785.7 1653.88 780.61 1656.25 776.04 1665.85 781.13 1663.48 785.7"/><polygon class="cls-78" points="1660.85 778.55 1651.25 773.46 1651.76 772.47 1661.36 777.56 1660.85 778.55"/><rect class="cls-78" x="1654.51" y="790.16" width="30.83" height="5.79"/><polygon class="cls-75" points="1674.13 790.16 1661.9 790.16 1665.47 779.2 1674.13 777.79 1674.13 790.16"/><path class="cls-78" d="M1672.28,782.85a3.08,3.08,0,1,1-3.07-3.11A3.09,3.09,0,0,1,1672.28,782.85Z"/><path class="cls-79" d="M1482.87,943.81l-22,0a4.08,4.08,0,0,1-4.06-4.1l0-14.07a4.1,4.1,0,0,1,4.06-4.12l22,0a4.09,4.09,0,0,1,4.06,4.11l0,14.07A4.1,4.1,0,0,1,1482.87,943.81Zm-22.06-19.51a1.34,1.34,0,0,0-1.33,1.35v14.07a1.34,1.34,0,0,0,1.34,1.35l22,0a1.34,1.34,0,0,0,1.33-1.35V925.62a1.35,1.35,0,0,0-1.34-1.35Z"/><rect class="cls-58" x="1430.53" y="937.78" width="82.69" height="59.99" transform="translate(-1.14 1.73) rotate(-0.07)"/><path class="cls-49" d="M1489.76,965.54a17.74,17.74,0,1,1-18.09-17.61A17.86,17.86,0,0,1,1489.76,965.54Z"/><rect class="cls-58" x="1468.63" y="955.14" width="6.78" height="21.5" transform="matrix(1, -0.01, 0.01, 1, -8.14, 12.52)"/><rect class="cls-58" x="1468.59" y="955.28" width="6.86" height="21.23" transform="translate(2425.84 -513.98) rotate(89.53)"/><g class="cls-80"><rect class="cls-81" x="1704.54" y="238.9" width="48.38" height="3.43" transform="translate(3457.46 481.23) rotate(180)"/></g><g class="cls-82"><rect class="cls-83" x="1704.54" y="245.37" width="48.38" height="14.44" transform="translate(3457.46 505.18) rotate(180)"/></g><g class="cls-84"><rect class="cls-85" x="1681.82" y="264.66" width="28.54" height="2.16" transform="translate(3392.17 531.48) rotate(180)"/></g><g class="cls-86"><rect class="cls-87" x="1681.82" y="267.76" width="28.54" height="5.84" transform="translate(3392.17 541.36) rotate(180)"/></g><g class="cls-88"><rect class="cls-89" x="1760.87" y="220.39" width="2.13" height="40.45" transform="translate(3523.86 481.23) rotate(180)"/></g></svg>